<svg xmlns="http://www.w3.org/2000/svg" width="63.743" height="66.163" viewBox="0 0 63.743 66.163">
  <g id="그룹_17" data-name="그룹 17" transform="translate(-1463.223 -888.467)">
    <path id="패스_70" data-name="패스 70" d="M1520.914,895.746h-51.64a6.059,6.059,0,0,0-6.051,6.052v46.781a6.059,6.059,0,0,0,6.051,6.051h51.64a6.059,6.059,0,0,0,6.052-6.051V901.8A6.059,6.059,0,0,0,1520.914,895.746Zm-51.64,4h51.64a2.054,2.054,0,0,1,2.052,2.052v9.069h-55.743V901.8A2.055,2.055,0,0,1,1469.274,899.746Zm51.64,50.884h-51.64a2.054,2.054,0,0,1-2.051-2.051V914.867h55.743v33.712A2.053,2.053,0,0,1,1520.914,950.63Z" fill="#3e3a39"/>
    <g id="그룹_47" data-name="그룹 47">
      <path id="패스_71" data-name="패스 71" d="M1486.4,948.1a2.323,2.323,0,0,1-1.52-.555,2.6,2.6,0,0,1-.611-2.941l1.311-7.65-5.391-5.266c-1.04-1.2-1.352-2.254-.956-3.234.374-.952,1.345-1.518,2.878-1.664l7.11-1.035,2.984-6.05c.393-.84,1.318-2.311,2.9-2.311s2.519,1.487,2.933,2.373L1501,925.76l7.872,1.143a2.552,2.552,0,0,1,2.514,1.7,2.606,2.606,0,0,1-.976,2.725l-5.772,5.628,1.3,7.6a2.708,2.708,0,0,1-.841,3.12,2.3,2.3,0,0,1-1.326.411,3.512,3.512,0,0,1-1.83-.613l-6.833-3.592-6.947,3.653A3.377,3.377,0,0,1,1486.4,948.1Zm-.154-3.992a.919.919,0,0,0-.267.063l1.16,1.634Zm-1.595-13.647,5.228,5.1-1.235,7.2,6.463-3.4,6.463,3.4-1.235-7.2,5.228-5.1-7.223-1.05-3.233-6.549-3.23,6.549Zm23.76.343a.883.883,0,0,0,.255.091l.022-2Z" fill="#3e3a39"/>
    </g>
    <path id="사각형_13" data-name="사각형 13" d="M1.588,0H6.253A1.588,1.588,0,0,1,7.841,1.588v9.147A1.586,1.586,0,0,1,6.255,12.32H1.587A1.587,1.587,0,0,1,0,10.733V1.588A1.588,1.588,0,0,1,1.588,0Z" transform="translate(1476.423 890.467)" fill="#fff"/>
    <path id="패스_72" data-name="패스 72" d="M1482.677,904.787h-4.666a3.591,3.591,0,0,1-3.588-3.588v-9.146a3.59,3.59,0,0,1,3.588-3.586h4.666a3.591,3.591,0,0,1,3.587,3.586V901.2A3.592,3.592,0,0,1,1482.677,904.787Zm-4.254-4h3.841v-8.32h-3.841Z" fill="#3e3a39"/>
    <path id="사각형_14" data-name="사각형 14" d="M1.588,0H6.254A1.588,1.588,0,0,1,7.842,1.588v9.147A1.586,1.586,0,0,1,6.256,12.32H1.589A1.589,1.589,0,0,1,0,10.731V1.588A1.588,1.588,0,0,1,1.588,0Z" transform="translate(1505.825 890.467)" fill="#fff"/>
    <path id="패스_73" data-name="패스 73" d="M1512.078,904.787h-4.665a3.592,3.592,0,0,1-3.588-3.588v-9.146a3.591,3.591,0,0,1,3.588-3.586h4.665a3.591,3.591,0,0,1,3.589,3.586V901.2A3.592,3.592,0,0,1,1512.078,904.787Zm-4.253-4h3.842v-8.32h-3.842Z" fill="#3e3a39"/>
  </g>
</svg>
