<svg xmlns="http://www.w3.org/2000/svg" width="68.51" height="66.996" viewBox="0 0 68.51 66.996">
  <g id="그룹_8" data-name="그룹 8" transform="translate(-1684.895 -887.634)">
    <path id="패스_49" data-name="패스 49" d="M1738.362,954.63h-12.483V936.782a3.214,3.214,0,0,0-2.689-3.472h-7.954c-2.03,0-2.484,4.035-2.529,4.5V954.63h-12.941c-5.163,0-6.528-5.257-6.528-8.037V927.418c-.767-.077-1.688-.146-2.527-.146a6.465,6.465,0,0,1-5.451-3.924,5.36,5.36,0,0,1,1.625-6.04c2.432-2.3,14.6-14.675,21.869-22.072,2.789-2.837,4.873-4.957,5.447-5.531a6.62,6.62,0,0,1,9.619,0c.29.289,1.077,1.067,2.21,2.188,6.3,6.225,23.03,22.762,25.644,25.864,1.743,2.069,2.194,4.433,1.239,6.486a6.127,6.127,0,0,1-5.411,3.407h-1.961v19.321c0,5.452-4.626,7.386-7.073,7.647Zm-8.483-4h8.245a3.7,3.7,0,0,0,3.417-3.659V923.65h5.961a2.091,2.091,0,0,0,1.784-1.093c.354-.759-.17-1.627-.671-2.222-2.5-2.963-19.733-20-25.4-25.6-1.142-1.129-1.934-1.911-2.226-2.2a2.679,2.679,0,0,0-3.965,0c-.57.57-2.645,2.682-5.422,5.507-7.289,7.415-19.488,19.827-21.975,22.175-.95.9-.737,1.441-.657,1.646a2.586,2.586,0,0,0,1.737,1.41,36.864,36.864,0,0,1,4.833.4l1.694.261v22.658c0,.157.063,4.037,2.528,4.037h8.941l0-13.024c.182-3.081,1.761-8.3,6.525-8.3l8.361.016a7.23,7.23,0,0,1,6.282,7.456Z" fill="#3e3a39"/>
  </g>
</svg>
