<svg xmlns="http://www.w3.org/2000/svg" width="183.439" height="183.439" viewBox="0 0 183.439 183.439">
  <g id="그룹_24" data-name="그룹 24" transform="translate(-4254.599 -263.635)">
    <circle id="타원_3" data-name="타원 3" cx="91.72" cy="91.72" r="91.72" transform="translate(4254.599 263.635)" fill="#f7f7f7"/>
    <g id="그룹_15" data-name="그룹 15">
      <path id="사각형_6" data-name="사각형 6" d="M4.923,0H72.365a4.924,4.924,0,0,1,4.924,4.924V67.439a4.924,4.924,0,0,1-4.924,4.924H4.924A4.924,4.924,0,0,1,0,67.439V4.923A4.923,4.923,0,0,1,4.923,0Z" transform="translate(4307.453 328.401)" fill="#f7f7f7" stroke="#636363" stroke-miterlimit="10" stroke-width="3.94"/>
      <line id="선_3" data-name="선 3" y2="52.81" transform="translate(4353.794 347.954)" fill="none" stroke="#636363" stroke-miterlimit="10" stroke-width="3.94"/>
      <line id="선_4" data-name="선 4" y2="52.81" transform="translate(4338.598 347.954)" fill="none" stroke="#636363" stroke-miterlimit="10" stroke-width="3.94"/>
      <path id="사각형_7" data-name="사각형 7" d="M4.922,0H84.3a4.922,4.922,0,0,1,4.922,4.922v9.707A4.924,4.924,0,0,1,84.3,19.553H4.922A4.922,4.922,0,0,1,0,14.631V4.922A4.922,4.922,0,0,1,4.922,0Z" transform="translate(4301.484 328.401)" fill="#f7f7f7" stroke="#636363" stroke-miterlimit="10" stroke-width="3.94"/>
      <path id="패스_39" data-name="패스 39" d="M4331.352,321.922s-10.313,10.746-14.112,20.19-5.862,24.424-5.862,24.424l9.444-7.336,6.948,9.776s2.6-16.986,5.968-22.956,11.952-17.259,11.952-17.259Z" fill="#ffd833" stroke="#f5f5f5" stroke-width="2.171"/>
      <path id="패스_40" data-name="패스 40" d="M4360.027,321.922s10.313,10.746,14.114,20.19S4380,366.536,4380,366.536l-9.443-7.336-6.95,9.776s-2.6-16.986-5.968-22.956-11.951-17.259-11.951-17.259Z" fill="#ffd833" stroke="#f5f5f5" stroke-width="2.171"/>
      <path id="패스_41" data-name="패스 41" d="M4344.6,330.288s-15.666.1-22.035.1-13.315-3.638-13.026-10.738,4.342-14.694,16.211-13.959S4344.195,323.044,4344.6,330.288Z" fill="#ffd833" stroke="#f5f5f5" stroke-width="1.997"/>
      <path id="패스_42" data-name="패스 42" d="M4346.1,330.288s15.667.1,22.036.1,13.315-3.638,13.026-10.738-4.342-14.694-16.21-13.959S4346.506,323.044,4346.1,330.288Z" fill="#ffd833" stroke="#f5f5f5" stroke-width="1.997"/>
      <ellipse id="타원_4" data-name="타원 4" cx="10.131" cy="5.558" rx="10.131" ry="5.558" transform="translate(4335.559 319.489)" fill="#ffd833" stroke="#f5f5f5" stroke-width="2.456"/>
    </g>
  </g>
</svg>
