<svg xmlns="http://www.w3.org/2000/svg" width="183.439" height="183.439" viewBox="0 0 183.439 183.439">
  <g id="그룹_14" data-name="그룹 14" transform="translate(-1631.424 -296.635)">
    <circle id="타원_1" data-name="타원 1" cx="91.72" cy="91.72" r="91.72" transform="translate(1631.424 296.635)" fill="#f7f7f7"/>
    <g id="그룹_9" data-name="그룹 9">
      <path id="패스_13" data-name="패스 13" d="M1674.746,426.006s0,4.453,3.6,4.453h12.72s3.392-.213,3.392-4.453V391.234s-1.27-3.816-4.237-3.816h-11.875s-3.6.211-3.6,4.876Z" fill="none" stroke="#636363" stroke-miterlimit="10" stroke-width="4.537"/>
      <path id="패스_14" data-name="패스 14" d="M1694.888,396l10.071-3.285a13.271,13.271,0,0,1,8.691,0c4.244,1.7,25.656,13.992,25.656,13.992s5.087,3.817,2.333,8.27a6.269,6.269,0,0,1-.942,1.18c-2.94,2.856-7.54,1.152-7.54,1.152l-14.009-7.421s-4.224-2.121-6.982,0l-2.757,2.121h0" fill="none" stroke="#636363" stroke-miterlimit="10" stroke-width="4.537"/>
      <path id="패스_15" data-name="패스 15" d="M1741.639,414.981l22.683-7s5.727-1.061,7,3.5-3.394,8.163-3.394,8.163l-32.862,13.782s-9.965,5.513-19.294.848-21.31-11.449-21.31-11.449" fill="none" stroke="#636363" stroke-miterlimit="10" stroke-width="4.537"/>
      <path id="패스_16" data-name="패스 16" d="M1723.615,340.56h35.62v29.472h12.3l-30.057,23.958-30.058-23.958h12.084Z" fill="none" stroke="#636363" stroke-miterlimit="10" stroke-width="4.537"/>
      <g id="그룹_8" data-name="그룹 8">
        <path id="패스_17" data-name="패스 17" d="M1731.259,357.145a4.429,4.429,0,0,1,4.6-4.664,4.359,4.359,0,0,1,4.578,4.664v1.1a4.591,4.591,0,1,1-9.182,0Zm15.757-3.938h2.669l-14.429,20.972h-2.666Zm-11.153,7.066c1.245,0,1.623-1.027,1.623-2.026v-1.1c0-1.014-.332-2.071-1.623-2.057-1.244-.014-1.636,1.058-1.648,2.057v1.1C1734.227,359.246,1734.634,360.273,1735.863,360.273Zm10.748,4.23a4.379,4.379,0,0,1,4.608,4.636v1.1a4.607,4.607,0,1,1-9.214,0v-1.1A4.416,4.416,0,0,1,1746.611,364.5Zm0,7.765c1.245.015,1.638-1.015,1.623-2.029v-1.1c.015-1-.332-2.057-1.623-2.057-1.231,0-1.652,1.057-1.652,2.057v1.1C1744.959,371.225,1745.351,372.283,1746.611,372.268Z" fill="#fdd53f"/>
      </g>
    </g>
  </g>
</svg>
