<svg xmlns="http://www.w3.org/2000/svg" width="183.439" height="183.439" viewBox="0 0 183.439 183.439">
  <g id="그룹_15" data-name="그룹 15" transform="translate(-1976.496 -296.635)">
    <circle id="타원_2" data-name="타원 2" cx="91.72" cy="91.72" r="91.72" transform="translate(1976.496 296.635)" fill="#f7f7f7"/>
    <g id="그룹_12" data-name="그룹 12">
      <path id="패스_24" data-name="패스 24" d="M2020.543,393.278v37.734s.52,4.136,4.136,4.136h13.956s3.619.517,3.619-3.618V393.278s-.518-3.619-3.619-3.619h-14.473S2020.543,389.659,2020.543,393.278Z" fill="none" stroke="#636363" stroke-miterlimit="10" stroke-width="4.537"/>
      <line id="선_1" data-name="선 1" y2="28.948" transform="translate(2031.398 389.659)" fill="none" stroke="#636363" stroke-miterlimit="10" stroke-width="4.537"/>
      <line id="선_2" data-name="선 2" y1="2.844" transform="translate(2031.398 423.775)" fill="none" stroke="#636363" stroke-miterlimit="10" stroke-width="4.537"/>
      <path id="패스_25" data-name="패스 25" d="M2042.254,393.278s9.306-3.619,11.371-7.237,7.754-18.193,7.754-18.193,9.306.617,9.822,7.337-3.1,14.474-3.1,14.474h19.128s5.17.691,5.17,5.343-4.482,6.547-4.482,6.547H2074.82" fill="none" stroke="#636363" stroke-miterlimit="10" stroke-width="4.537"/>
      <path id="패스_26" data-name="패스 26" d="M2087.915,401.549h4.482s5.119.609,5.119,5.432-5.119,5.432-5.119,5.432h-17.92" fill="none" stroke="#636363" stroke-miterlimit="10" stroke-width="4.537"/>
      <path id="패스_27" data-name="패스 27" d="M2088.261,412.413a6.712,6.712,0,0,1,4.136,6.193,4.913,4.913,0,0,1-4.136,5.169h-13.784" fill="none" stroke="#636363" stroke-miterlimit="10" stroke-width="4.537"/>
      <path id="패스_28" data-name="패스 28" d="M2083.435,423.775s5.169,1.208,5.169,6.032-5.169,5.362-5.169,5.362h-30.327s-8.268-.862-10.854-5.7" fill="none" stroke="#636363" stroke-miterlimit="10" stroke-width="4.537"/>
      <path id="패스_29" data-name="패스 29" d="M2048.285,375.357h-22.573s-5.169-1.033-5.169-4.479v-25.2s1.724-4.134,5.169-4.134h85.7s4.48,1.722,4.48,4.824v24.513s0,4.479-4.48,4.479h-10.681l-7.926,7.928-7.238-7.928-14.363-.172" fill="none" stroke="#636363" stroke-miterlimit="10" stroke-width="4.537"/>
      <path id="패스_30" data-name="패스 30" d="M2032.882,349.565l2.5,5.066,5.592.813-4.047,3.946.956,5.569-5-2.631-5,2.631.955-5.569-4.045-3.946,5.589-.813Z" fill="#fdd53f"/>
      <path id="패스_31" data-name="패스 31" d="M2050.594,349.565l2.5,5.066,5.592.813-4.047,3.946.954,5.569-5-2.631-5,2.631.953-5.569-4.044-3.946,5.592-.813Z" fill="#fdd53f"/>
      <path id="패스_32" data-name="패스 32" d="M2068.3,349.565l2.5,5.066,5.593.813-4.048,3.946.955,5.569-5-2.631-5,2.631.956-5.569-4.048-3.946,5.595-.813Z" fill="#fdd53f"/>
      <path id="패스_33" data-name="패스 33" d="M2086.016,349.565l2.5,5.066,5.59.813-4.045,3.946.953,5.569-5-2.631-5,2.631.955-5.569-4.046-3.946,5.594-.813Z" fill="#fdd53f"/>
      <path id="패스_34" data-name="패스 34" d="M2103.727,349.565l2.5,5.066,5.591.813-4.046,3.946.958,5.569-5-2.631-5,2.631.956-5.569-4.047-3.946,5.592-.813Z" fill="#fdd53f"/>
    </g>
  </g>
</svg>
