<svg xmlns="http://www.w3.org/2000/svg" width="183.439" height="183.439" viewBox="0 0 183.439 183.439">
  <g id="그룹_5" data-name="그룹 5" transform="translate(-1281.516 -296.635)">
    <path id="패스_1" data-name="패스 1" d="M1464.955,388.355a91.719,91.719,0,1,1-91.719-91.72A91.719,91.719,0,0,1,1464.955,388.355Z" fill="#f7f7f7"/>
    <path id="패스_2" data-name="패스 2" d="M1328.673,404.152V366.966c0-4.346-.992-14.176.661-17.884,2.33-5.223,11.071-3.815,18.469-3.815h30.12c5.08,0,10.647-.8,15.171,0,5.867,1.047,5.77,8.11,5.494,16.209,8.19.55,19.521-1.852,24.406,3.1,2.021,2.046,4.081,7.468,6.158,11.685,2.211,4.483,4.506,8.194,5.937,12.157,1.659,4.594,1.316,10.935,1.316,17.882,0,4.49.519,9.031-.438,11.676-1.679,4.654-7.891,4.649-13.853,4.293-1.5,12.872-19.858,12.479-21.548,0h-40.012c-1.134,12.875-19.949,12.525-21.327,0-3.226-.238-7.373.522-9.893-.475C1328.135,416.19,1328.673,410.214,1328.673,404.152Zm4.175,13.59h6.6c1.308-11.556,19.79-11.556,21.1,0h40.012c1.834-4.589,5.012-8.721,10.116-9.057,5.574-.367,9.956,3.845,11.432,9.057,4.7-.318,11.747,1.934,10.113-5.241-3.122-.183-6.694.782-7.036-1.91-.412-3.3,3.456-2.612,7.036-2.621-.118-5.113.261-10.773-.217-15.492-8.139-.156-16.848.307-24.622-.243-1.648-2.951-1.865-7.251-2.423-11.2-.557-4-1.314-8.135-1.1-11.916,3.373-2.546,10.906-.579,16.049-1.2-4.125-3.95-14.219-1.43-21.33-2.137v37.186c0,3.883.722,10.009-2.2,10.009-3,0-1.981-9.413-1.981-14.3v-32.9c0-4.442,1.122-15.978-1.978-15.978H1347.58c-3.683,0-12.445-1.047-14.07.718-1.7,1.842-.662,11.792-.662,16.447Zm75.194-45.3c.728,5.181,1.384,10.424,2.2,15.5h20c-2.478-5.256-4.943-10.533-7.691-15.5Zm4.617,41.007c-10.562-2.005-10.294,16.438.442,14.067C1419.621,426.08,1419.718,414.794,1412.659,413.453Zm-61.339,0a6.384,6.384,0,0,0-7.914,5.242c-1.659,9.522,10.034,11.666,12.754,4.772C1357.85,419.159,1355.854,414.356,1351.32,413.453Z" fill="#626262" fill-rule="evenodd"/>
    <rect id="사각형_3" data-name="사각형 3" width="20.098" height="40.847" transform="translate(1319.266 370.271)" fill="#f7f7f7"/>
    <g id="그룹_4" data-name="그룹 4">
      <path id="패스_3" data-name="패스 3" d="M1309.926,379.891h15.1v3.925h-10.348v5.569h9.367v3.925h-9.367V402.8h-4.748Z" fill="#fdd53f"/>
      <path id="패스_4" data-name="패스 4" d="M1328.16,379.891h8.988c5.207,0,8.2,2.928,8.2,7.469a6.621,6.621,0,0,1-4.051,6.535l4.873,8.909h-5.253l-4.384-8.134h-3.623V402.8h-4.748Zm8.1,10.919c2.818,0,4.193-1.156,4.178-3.45.015-2.31-1.36-3.561-4.178-3.576h-3.354v7.026Z" fill="#fdd53f"/>
      <path id="패스_5" data-name="패스 5" d="M1348.643,379.891h15.381v3.925h-10.633v5.569h9.841v3.925h-9.841v5.569h10.664V402.8h-15.412Z" fill="#fdd53f"/>
      <path id="패스_6" data-name="패스 6" d="M1367.732,379.891h15.381v3.925h-10.634v5.569h9.843v3.925h-9.843v5.569h10.666V402.8h-15.413Z" fill="#fdd53f"/>
    </g>
  </g>
</svg>
