<svg xmlns="http://www.w3.org/2000/svg" width="64.293" height="66.205" viewBox="0 0 64.293 66.205">
  <g id="그룹_11" data-name="그룹 11" transform="translate(-1913.924 -888.492)">
    <g id="그룹_38" data-name="그룹 38">
      <path id="패스_54" data-name="패스 54" d="M1945.129,954.7c-15.43,0-23.575-9.815-23.914-10.233l3.1-2.522a28.223,28.223,0,0,0,20.809,8.755c20.063,0,29.088-16.984,29.088-29.045,0-14.023-11.2-29.16-29.287-29.16-17.912,0-26.37,16.5-26.453,16.668l-3.579-1.789c.386-.77,9.674-18.879,30.032-18.879,20.56,0,33.287,17.213,33.287,33.16C1978.217,937.9,1965.84,954.7,1945.129,954.7Z" fill="#231815"/>
    </g>
    <g id="그룹_39" data-name="그룹 39">
      <path id="패스_55" data-name="패스 55" d="M1928.768,911.07h-14.844V894.938h4V907.07h10.844Z" fill="#231815"/>
    </g>
    <g id="그룹_40" data-name="그룹 40">
      <path id="패스_56" data-name="패스 56" d="M1937.112,932.032l-2.83-2.826,8.425-8.437v-22.65h4v24.3Z" fill="#231815"/>
    </g>
  </g>
</svg>
