<svg xmlns="http://www.w3.org/2000/svg" width="283.036" height="75.447" viewBox="0 0 283.036 75.447">
  <g id="그룹_1" data-name="그룹 1" transform="translate(-1334.184 198.818)">
    <path id="패스_2" data-name="패스 2" d="M1367.7-193.74v-.586h-5.005v-1.538h5.005V-198.7h1.929v2.832h4.956v1.538H1369.6v.586c-.012,2.869,2.32,5.432,5.567,6.421l-.952,1.538a8.909,8.909,0,0,1-5.542-4.8,9.053,9.053,0,0,1-5.542,5.188l-.977-1.513C1365.418-187.966,1367.7-190.688,1367.7-193.74Zm-2.075,9.5h1.9v5.054h12.793v1.611h-14.7Zm14.014,1.489h-1.905v-16.04h1.905Z" fill="#1d493c"/>
    <path id="패스_3" data-name="패스 3" d="M1400.488-195.5a34.424,34.424,0,0,1-.623,7.422h3.236v1.587h-8.96v9.424h-1.929v-9.424h-8.887v-1.587h14.6a32.759,32.759,0,0,0,.659-7.422v-.317h-12.769V-197.4h14.673Z" fill="#1d493c"/>
    <path id="패스_4" data-name="패스 4" d="M1409.863-196.987c2.637.012,4.419,2.551,4.663,6.64h2.808v-8.007h1.831v20.141h-1.831V-188.76h-2.8c-.184,4.224-2,6.873-4.676,6.861-2.82.012-4.65-2.93-4.663-7.544C1405.213-194.058,1407.043-196.975,1409.863-196.987Zm0,13.257c1.77.024,2.893-2.2,2.881-5.713.012-3.528-1.111-5.738-2.881-5.738s-2.881,2.21-2.856,5.738C1406.982-185.928,1408.1-183.706,1409.863-183.73Zm13.672,6.616h-1.855v-21.7h1.855Z" fill="#1d493c"/>
    <path id="패스_5" data-name="패스 5" d="M1434.009-194.448h-6.519v-1.587h8.423a16.918,16.918,0,0,1-1.087,6.128h3.895v-8.325h1.831v20.019h-1.831v-10.132h-4.6a16.319,16.319,0,0,1-6.434,6.543l-1.122-1.391C1431.274-185.989,1433.643-189.907,1434.009-194.448Zm11.108,17.334h-1.831v-21.7h1.831Z" fill="#1d493c"/>
    <path id="패스_6" data-name="패스 6" d="M1458.935-192.617v-2.051h-4.174v-1.587h10.01v1.587h-3.98v2.051c0,3.747,1.7,7.5,4.688,9.228l-1.172,1.416a10.5,10.5,0,0,1-4.407-6.384,11.364,11.364,0,0,1-4.529,6.9l-1.221-1.44C1457.178-184.707,1458.947-188.674,1458.935-192.617Zm4.175,1.636h3.662v-7.3h1.807v20.044h-1.807v-11.182h-3.662Zm9.864,13.867h-1.831v-21.7h1.831Z" fill="#1d493c"/>
    <path id="패스_7" data-name="패스 7" d="M1495.8-186.733h-8.96v2.563h6.543v6.763h-14.942v-6.763h6.519v-2.563h-8.936v-1.587H1495.8Zm-17.92-11.377h16.04v1.587h-3.345v4.565h3.272v1.587h-15.894v-1.587h3.272v-4.565h-3.345Zm13.623,19.14v-3.686h-11.157v3.686Zm-2.832-12.988v-4.565h-5.542v4.565Z" fill="#1d493c"/>
    <path id="패스_8" data-name="패스 8" d="M1523.682-184.072h-8.96v7.007h-1.88v-7.007h-8.936v-1.612h19.776Zm-10.84-10.449v-.025h-7.007v-1.562h7.007v-2.71h1.88v2.71h7.055v1.562h-7.031v.025c0,2.71,3.784,5.09,7.666,5.615l-.708,1.538c-3.356-.513-6.519-2.2-7.9-4.553-1.38,2.38-4.59,4.04-7.948,4.553l-.708-1.538C1509.022-189.431,1512.83-191.8,1512.842-194.521Z" fill="#1d493c"/>
    <path id="패스_9" data-name="패스 9" d="M1538.428-187.2l-.952,1.538a8.866,8.866,0,0,1-5.469-4.773,8.952,8.952,0,0,1-5.469,5.139l-.952-1.489a7.5,7.5,0,0,0,5.444-6.836v-.708h-4.907v-1.563h4.907v-2.783h1.929v2.783h4.858v1.563h-4.907v.708C1532.922-190.725,1535.2-188.21,1538.428-187.2Zm-8.863,3.149h1.929v4.859h12.622v1.611h-14.551Zm7.5-8.056h4.517v-6.69h1.929v16.211h-1.929v-7.934h-4.517Z" fill="#1d493c"/>
    <path id="패스_10" data-name="패스 10" d="M1547-195.327h5.591v-3.223h1.9v3.223h5.42v1.587H1547Zm6.568,3.393a4.99,4.99,0,0,1,5.322,4.981,4.982,4.982,0,0,1-5.322,4.98c-3.088,0-5.335-2.038-5.323-4.98C1548.23-189.883,1550.477-191.934,1553.565-191.934Zm0,8.326a3.3,3.3,0,0,0,3.491-3.345,3.331,3.331,0,0,0-3.491-3.369,3.3,3.3,0,0,0-3.492,3.369A3.264,3.264,0,0,0,1553.565-183.608Zm10.351-6.25h3.638v1.587h-3.638v11.157h-1.9v-21.7h1.9Z" fill="#1d493c"/>
    <path id="패스_11" data-name="패스 11" d="M1568.726-181.777h7.763v-7.764h1.88v7.764H1588.5v1.587h-19.775Zm17.407-12.671a53.718,53.718,0,0,1-.806,10.01l-1.953-.22a47.414,47.414,0,0,0,.83-9.79v-.586h-13.379v-1.587h15.308Z" fill="#1d493c"/>
    <path id="패스_12" data-name="패스 12" d="M1348.824-156.048v1.24a9.659,9.659,0,0,1-.6,3.28l7.6,4.839a2.656,2.656,0,0,1,.76,3.8,2.584,2.584,0,0,1-3.72.72l-7-5.039a19.4,19.4,0,0,1-7.558,5.8c-1.561.68-2.92.4-3.68-.84a2.407,2.407,0,0,1,.84-3.559c4.8-2.48,7.359-6.279,7.359-9v-1.24h-5.32a2.134,2.134,0,0,1-2.159-2.359,2.2,2.2,0,0,1,2.159-2.44h16.558a2.2,2.2,0,0,1,2.159,2.44,2.134,2.134,0,0,1-2.159,2.359Zm11.319,23.317c0-1.44-.561-2-2-2h-14.078a2.181,2.181,0,0,1-2.159-2.44,2.25,2.25,0,0,1,2.159-2.519h16.278c4.2,0,6,1.8,6,5.6a33.364,33.364,0,0,1-1.24,8.758c-.44,1.48-1.959,2.04-3.639,1.64-1.721-.4-2.52-1.52-2.12-3.039A26.1,26.1,0,0,0,1360.143-132.731Zm6.2-10.679c0,1.36-1.12,2.24-3,2.24s-3-.88-3-2.24v-6.238h-4.279a2.1,2.1,0,0,1-2.16-2.36,2.1,2.1,0,0,1,2.16-2.36h4.279v-5.4c0-1.36,1.12-2.24,3-2.24s3,.88,3,2.24Z"/>
    <path id="패스_13" data-name="패스 13" d="M1376.906-156.408a2.151,2.151,0,0,1-2.279-2.319,2.152,2.152,0,0,1,2.279-2.32h12.037c3.481,0,4.8,1.4,4.8,4.8v2.639c0,3.4-1.319,4.8-4.8,4.8h-8.038c-.04.44-.04.84-.04,1.2,0,1.4.8,2,3.6,2a37.054,37.054,0,0,0,9.4-1.08,2.143,2.143,0,0,1,2.879,1.52,2.218,2.218,0,0,1-1.6,2.919,37.933,37.933,0,0,1-10.678,1.32c-7.039,0-9.559-1.84-9.559-5.6a8.552,8.552,0,0,1,.4-2.36,2.039,2.039,0,0,1-1.481-2.159,2.144,2.144,0,0,1,2.16-2.32h10.838c.76,0,1.04-.28,1.04-1.04v-.96c0-.759-.28-1.04-1.04-1.04Zm28.635,26.516c0,4.679-2,6.519-12.6,6.519s-12.6-1.84-12.6-6.519a31.045,31.045,0,0,1,.92-7.759c.4-1.519,1.639-2.119,3.478-1.759s2.641,1.479,2.321,2.959c-.121.48-.2.96-.281,1.44h12.758v-1.839c0-1.36,1.08-2.4,3-2.4s3,1.04,3,2.4Zm-19.2-.88v.76c0,1.8.52,2.12,6.6,2.12s6.6-.32,6.6-2.12v-.76Zm19.2-12.278c0,1.36-1.119,2.24-3,2.24s-3-.88-3-2.24v-16.717c0-1.36,1.12-2.24,3-2.24s3,.88,3,2.24Z"/>
    <path id="패스_14" data-name="패스 14" d="M1445.461-147.209a2.183,2.183,0,0,1,2.16,2.44,2.182,2.182,0,0,1-2.16,2.439h-31.835a2.182,2.182,0,0,1-2.159-2.439,2.182,2.182,0,0,1,2.159-2.44Zm-2.68,18.077c0,3.959-2.119,5.759-13.238,5.759s-13.237-1.8-13.237-5.759a42.616,42.616,0,0,1,.44-6.079c.359-2.44,1.879-3.68,4.719-3.68h16.717c3.24,0,4.6,1.36,4.6,4.6Zm-25.916-29.755a2.167,2.167,0,0,1,2.24-2.4h16.8c4.6,0,6.6,2,6.6,6.2a18.641,18.641,0,0,1-.561,4.84c-.4,1.439-1.679,1.959-3.4,1.679s-2.72-1.2-2.52-2.519a22.441,22.441,0,0,0,.281-3.2c0-1.6-.6-2.2-2.2-2.2h-15A2.167,2.167,0,0,1,1416.865-158.887Zm5.56,29.195c0,1.32.479,1.72,7.118,1.72s7.119-.4,7.119-1.76v-3.16c0-1.119-.32-1.439-1.439-1.439h-11.038a1.332,1.332,0,0,0-1.521,1.28A24.293,24.293,0,0,0,1422.425-129.692Z"/>
    <path id="패스_15" data-name="패스 15" d="M1464.386-148.729a40.369,40.369,0,0,1,1.52-10.878c.48-1.6,1.879-2.079,3.6-1.639,1.68.439,2.519,1.559,2.08,3.119-.24.8-.44,1.719-.641,2.719h7.839v-3.6c0-1.48,1.281-2.239,2.96-2.239s2.959.759,2.959,2.239v10.278c0,5.159-1.919,6.839-10.158,6.839S1464.386-143.57,1464.386-148.729Zm5.959-2.2c-.04.6-.04,1.161-.04,1.681,0,2.159.28,2.559,4.239,2.559s4.239-.4,4.239-2.559v-1.681Zm8.358,16.438a12.568,12.568,0,0,0-.479,3.439c0,2.2,1.2,2.96,5.839,2.96a22.174,22.174,0,0,0,8.4-1.44c1.68-.68,2.96-.2,3.439,1a2.317,2.317,0,0,1-1.279,3.279,27.424,27.424,0,0,1-10.558,1.88c-8.839.08-11.838-2.36-11.838-7.159a9.609,9.609,0,0,1,.84-4.039,2.121,2.121,0,0,1-1.52-2.279,2.162,2.162,0,0,1,2.159-2.44h19.6a2.162,2.162,0,0,1,2.16,2.44,2.1,2.1,0,0,1-2.16,2.359Zm16.438-15.318v6.4c0,1.36-1.12,2.24-3,2.24s-3-.88-3-2.24v-16.357c0-1.36,1.12-2.24,3-2.24s3,.88,3,2.24v5.239h3.839a2.11,2.11,0,0,1,2.16,2.4,2.045,2.045,0,0,1-2.16,2.319Z"/>
    <path id="패스_16" data-name="패스 16" d="M1536.58-136.251a2.2,2.2,0,0,1,2.24,2.44,2.2,2.2,0,0,1-2.24,2.44h-31.674a2.2,2.2,0,0,1-2.24-2.44,2.2,2.2,0,0,1,2.24-2.44Zm-15.837-25.516c7.479,0,12.518,4.12,12.518,10.519s-5.039,10.518-12.518,10.518-12.517-4.12-12.517-10.518S1513.265-161.767,1520.743-161.767Zm0,16.118c3.76,0,6.4-2.2,6.4-5.6s-2.64-5.6-6.4-5.6-6.4,2.2-6.4,5.6S1516.983-145.649,1520.743-145.649Z"/>
    <path id="패스_17" data-name="패스 17" d="M1554.664-152.928a19.96,19.96,0,0,1-.88,5.479l6.52,7.359a2.743,2.743,0,0,1-.24,4.119,2.575,2.575,0,0,1-3.88-.44l-4.559-5.839a24.978,24.978,0,0,1-5.159,6.6,2.723,2.723,0,0,1-4-.08,2.553,2.553,0,0,1,.239-3.8,18.264,18.264,0,0,0,5.879-13.2v-5.559c0-1.48,1.16-2.36,3.04-2.36s3.039.88,3.039,2.36Zm8.2,6.559h-4.16c-1.239,0-1.959-.88-1.959-2.32s.72-2.4,1.959-2.4h4.16v-8.6c0-1.28,1.119-2.039,2.719-2.039s2.72.759,2.72,2.039v28.275c0,1.32-1.119,2-2.72,2s-2.719-.68-2.719-1.959Zm8.159-13.6c0-1.279,1.16-2.04,2.759-2.04s2.76.761,2.76,2.04v29.155c0,1.32-1.16,2-2.76,2s-2.759-.68-2.759-2.08Z"/>
    <path id="패스_18" data-name="패스 18" d="M1589.865-135.891v-3.639c0-1.48,1.32-2.2,2.919-2.2s2.92.72,2.92,2.2v3.639h7v-3.639c0-1.48,1.319-2.2,2.919-2.2s2.92.72,2.92,2.2v3.639h6.438a2.167,2.167,0,0,1,2.241,2.4,2.167,2.167,0,0,1-2.241,2.4h-31.673a2.167,2.167,0,0,1-2.241-2.4,2.167,2.167,0,0,1,2.241-2.4Zm9.279-25.876c7.518,0,12.517,3.96,12.517,10s-5,10-12.517,10-12.518-3.959-12.518-10S1591.625-161.767,1599.144-161.767Zm0,15.158c3.839,0,6.359-2.08,6.359-5.159s-2.56-5.159-6.359-5.159-6.36,2.079-6.36,5.159S1595.305-146.609,1599.144-146.609Z"/>
  </g>
</svg>
