<svg xmlns="http://www.w3.org/2000/svg" width="524.012" height="242.671" viewBox="0 0 524.012 242.671">
  <g id="그룹_22" data-name="그룹 22" transform="translate(-1213.141 -447.151)">
    <rect id="사각형_3" data-name="사각형 3" width="524.012" height="242.671" rx="11.339" transform="translate(1213.141 447.151)" fill="#eef4f7"/>
    <g id="그룹_6" data-name="그룹 6">
      <path id="패스_93" data-name="패스 93" d="M1249.992,473.121c-2.417-.014-3.852,1.158-3.867,2.754-.015,1.787,1.875,2.52,3.633,2.93l1.992.527c3.164.732,6.211,2.4,6.211,6.094,0,3.72-2.944,6.269-8.027,6.269-4.937,0-8.072-2.373-8.233-6.562h3.75c.176,2.213,2.036,3.3,4.453,3.31,2.505-.013,4.234-1.23,4.248-3.047-.014-1.669-1.538-2.373-3.837-2.959l-2.4-.615c-3.486-.908-5.654-2.666-5.654-5.713,0-3.75,3.325-6.24,7.793-6.24,4.5,0,7.558,2.535,7.617,6.123h-3.662C1253.815,474.162,1252.277,473.107,1249.992,473.121Z"/>
      <path id="패스_94" data-name="패스 94" d="M1268.889,478.336h-3.135V486.6c0,1.523.762,1.832,1.7,1.845.44.016,1.172-.029,1.641-.058v3.047a11.56,11.56,0,0,1-2.11.146c-2.812.016-4.98-1.377-4.951-4.365v-8.877h-2.285v-2.871h2.285v-3.809h3.721v3.809h3.135Z"/>
      <path id="패스_95" data-name="패스 95" d="M1270.925,483.521c0-4.921,2.988-8.261,7.529-8.261,3.9,0,7.266,2.447,7.266,8.027v1.172h-11.1c.059,2.711,1.656,4.322,4.073,4.307a3.361,3.361,0,0,0,3.222-1.641h3.662c-.674,2.754-3.222,4.57-6.914,4.57C1273.869,491.7,1270.925,488.5,1270.925,483.521Zm11.221-1.611a3.556,3.556,0,0,0-3.633-3.75,3.874,3.874,0,0,0-3.882,3.75Z"/>
      <path id="패스_96" data-name="패스 96" d="M1288.62,475.465h3.662v2.607h.235a4.753,4.753,0,0,1,4.57-2.812c3.662,0,6.548,2.871,6.562,8.174-.014,5.23-2.812,8.218-6.562,8.232a4.825,4.825,0,0,1-4.57-2.812h-.147v8.5h-3.75Zm7.441,13.125c2.476,0,3.78-2.182,3.78-5.186,0-2.959-1.275-5.082-3.78-5.1-2.446.015-3.764,2.007-3.779,5.1C1292.3,486.51,1293.645,488.59,1296.061,488.59Z"/>
      <path id="패스_97" data-name="패스 97" d="M1313.522,485.631h3.838c.1,1.7,1.8,2.828,4.014,2.812,2.329.016,4.014-1.273,4.014-3.164s-1.641-3.265-4.395-3.281h-1.9v-2.93h1.9c2.256,0,3.823-1.259,3.809-3.1.014-1.787-1.333-2.988-3.4-2.988-1.992,0-3.706,1.113-3.779,2.9h-3.662c.088-3.559,3.325-6.006,7.471-6.006,4.306,0,7.089,2.637,7.06,5.889a4.533,4.533,0,0,1-3.867,4.57v.176c2.988.4,4.688,2.314,4.658,4.98.03,3.59-3.325,6.182-7.91,6.182C1316.848,491.666,1313.61,489.2,1313.522,485.631Z"/>
      <path id="패스_98" data-name="패스 98" d="M1332.053,489.322a2.271,2.271,0,1,1,2.285,2.285A2.283,2.283,0,0,1,1332.053,489.322Z"/>
    </g>
    <g id="그룹_8" data-name="그룹 8">
      <path id="패스_109" data-name="패스 109" d="M1363.96,478.248V477.6h-4.739v-1.168h4.739v-2.7h1.415v2.7h4.694V477.6h-4.716v.651c-.011,2.785,2.325,5.154,5.188,6.087l-.719,1.145a8.4,8.4,0,0,1-5.143-4.649,8.493,8.493,0,0,1-5.144,4.986l-.719-1.1C1361.669,483.729,1363.949,481.19,1363.96,478.248Zm-2,8.692h1.415v4.852h11.882v1.19h-13.3Zm12.645,1.415h-1.415V473.644h1.415Z" fill="#2f2725"/>
      <path id="패스_110" data-name="패스 110" d="M1393.788,476.7a31.769,31.769,0,0,1-.595,6.806h3.066v1.213H1387.9v8.76h-1.392v-8.76H1378.2V483.5h13.544a28.9,28.9,0,0,0,.629-6.806v-.539h-11.837v-1.19h13.252Z" fill="#2f2725"/>
      <path id="패스_111" data-name="패스 111" d="M1406.805,476.99h-7.626V475.8h9.074c-.023,5.5-2.751,10.612-9.164,13.768l-.786-1.123C1403.581,485.828,1406.456,481.774,1406.805,476.99Zm6.524,4.852h3.347v1.213h-3.347v10.4h-1.415v-19.81h1.415Z" fill="#2f2725"/>
      <path id="패스_112" data-name="패스 112" d="M1424.492,474.924h9.007v5.256h-7.592v3.144h.2a55.581,55.581,0,0,0,9.546-.651l.18,1.213a57.066,57.066,0,0,1-9.726.629h-1.572v-5.481h7.569v-2.9h-7.614Zm8.782,11.41c4.133-.012,6.649,1.28,6.649,3.526s-2.516,3.527-6.649,3.527c-4.167,0-6.67-1.291-6.67-3.527S1429.107,486.322,1433.274,486.334Zm0,5.907c3.2-.011,5.234-.909,5.234-2.381s-2.033-2.37-5.234-2.381c-3.245.011-5.266.921-5.255,2.381C1428.008,491.332,1430.029,492.23,1433.274,492.241Zm6.514-6.334h-1.415V473.644h1.415Z" fill="#2f2725"/>
      <path id="패스_113" data-name="패스 113" d="M1443.382,489.321h18.058v1.213h-18.058Zm15.678-11.073a42.275,42.275,0,0,1-.809,9.546l-1.415-.135a32.585,32.585,0,0,0,.752-5.3l-12.3.674-.225-1.19,12.579-.562c.033-1.033.045-2.021.045-3.032v-1.28h-12.107v-1.213h13.477Z" fill="#2f2725"/>
      <path id="패스_114" data-name="패스 114" d="M1481.363,484.088h-18.126v-1.146h18.126Zm-15.9,1.8h13.611v4.065H1466.9v2.134h12.848v1.078h-14.24v-4.267h12.151v-1.91h-12.2Zm.09-11.568h13.454v3.909h-11.994v1.954h12.331v1.078h-13.724v-4.043h11.972v-1.842h-12.039Z" fill="#2f2725"/>
      <path id="패스_115" data-name="패스 115" d="M1504.386,476.114a27.147,27.147,0,0,1-.517,5.795h2.875V483.1h-18.059v-1.191h13.758a24.952,24.952,0,0,0,.438-2.83l-12.129.539-.2-1.168,12.4-.415c.034-.7.023-1.326.023-1.921v-.247h-11.949v-1.19h13.364Zm-13.522,9.119h13.679v4.38h-12.219v2.4h12.915v1.145h-14.33V488.49h12.219v-2.134h-12.264Z" fill="#2f2725"/>
      <path id="패스_116" data-name="패스 116" d="M1509.552,474.856h9.007v5.256h-7.592v3.19h.2a58.012,58.012,0,0,0,9.546-.629l.18,1.19a59.3,59.3,0,0,1-9.726.652H1509.6v-5.548h7.569v-2.92h-7.614Zm2.066,12.017h13.23v6.581h-1.415v-5.368h-11.815Zm13.23-1.145h-1.415V473.644h1.415Z" fill="#2f2725"/>
      <path id="패스_117" data-name="패스 117" d="M1538.459,478.36H1528.4v-1.168h4.312V474.25h1.438v2.942h4.312Zm-5.031,1.483a4.464,4.464,0,1,1-4.245,4.447A4.2,4.2,0,0,1,1533.428,479.843Zm0,7.659a3.021,3.021,0,0,0,2.987-3.212,3.074,3.074,0,0,0-2.987-3.234,3.036,3.036,0,0,0-2.965,3.234A2.984,2.984,0,0,0,1533.428,487.5Zm6.154-13.364h1.325v7.951h2.988v-8.445h1.347v19.81H1543.9V483.279h-2.988v9.164h-1.325Z" fill="#2f2725"/>
      <path id="패스_118" data-name="패스 118" d="M1560.426,487.659l-.854,1.168a11.186,11.186,0,0,1-5.154-6.558,11.686,11.686,0,0,1-5.11,6.918l-.921-1.124a10.772,10.772,0,0,0,5.3-8.827v-3.818h1.415v3.818A10.073,10.073,0,0,0,1560.426,487.659Zm-2.156-7.1h4.986v-6.918h1.392v19.833h-1.392V481.752h-4.986Z" fill="#2f2725"/>
      <path id="패스_119" data-name="패스 119" d="M1358.322,516.832h18.059v1.213h-18.059Zm15.566-11.523a52.314,52.314,0,0,1-.764,9.658l-1.46-.18a43.973,43.973,0,0,0,.831-9.478v-.674h-12.174v-1.19h13.567Z" fill="#2f2725"/>
      <path id="패스_120" data-name="패스 120" d="M1388.06,506.971v-2.112h-4.02V503.67h9.209v1.189h-3.818v2.112c-.011,3.5,1.7,6.952,4.379,8.49l-.875,1.078a10.034,10.034,0,0,1-4.178-6.12,10.691,10.691,0,0,1-4.29,6.569l-.9-1.054C1386.275,514.327,1388.049,510.678,1388.06,506.971Zm3.639,1.506h3.572V501.76h1.347v18.217h-1.347V509.666H1391.7Zm8.917,12.578h-1.37V501.244h1.37Z" fill="#2f2725"/>
      <path id="패스_121" data-name="패스 121" d="M1421.685,512.115h-8.333v2.537h6.087v6.11h-13.567v-6.11h6.087v-2.537h-8.333v-1.191h18.059Zm-16.33-10.2h14.555v1.168h-3.189v4.559h3.144v1.212h-14.487v-1.212h3.167v-4.559h-3.19Zm12.713,17.676V515.8h-10.8v3.795Zm-2.762-11.949v-4.559h-5.346v4.559Z" fill="#2f2725"/>
      <path id="패스_122" data-name="패스 122" d="M1423.5,510h18.059v1.168H1423.5Zm15.947-4.965c0,2.246-2.572,3.483-6.94,3.483s-6.941-1.237-6.941-3.483c0-2.212,2.583-3.435,6.941-3.435S1439.451,502.827,1439.451,505.039Zm-13.723,8.02h13.454V517.3h-12.017v2.336h12.645v1.168H1425.8v-4.6h12.016v-2.021h-12.083Zm6.783-5.639c3.414-.011,5.5-.875,5.5-2.381,0-1.448-2.089-2.336-5.5-2.336-3.392,0-5.481.888-5.481,2.336C1427.03,506.545,1429.119,507.409,1432.511,507.42Z" fill="#2f2725"/>
      <path id="패스_123" data-name="패스 123" d="M1464.518,504.3a31.844,31.844,0,0,1-.6,6.8h3.066v1.212h-8.355v8.76h-1.393v-8.76h-8.31V511.1h13.544a28.892,28.892,0,0,0,.629-6.8v-.539h-11.837v-1.192h13.252Z" fill="#2f2725"/>
      <path id="패스_124" data-name="패스 124" d="M1469.594,503.625h7.5V515.6h-7.5Zm6.154,10.8v-9.635h-4.829v9.635Zm9.973,6.627h-1.37v-10.67h-3.1v9.637H1479.9V501.693h1.348v7.479h3.1v-7.928h1.37Z" fill="#2f2725"/>
      <path id="패스_125" data-name="패스 125" d="M1488.573,504.5h5.279v-3.055h1.415V504.5h5.143v1.191h-11.837Zm6.02,3.01a4.5,4.5,0,1,1-4.784,4.492A4.458,4.458,0,0,1,1494.593,507.51Zm0,7.75a3.244,3.244,0,0,0,3.436-3.258,3.439,3.439,0,0,0-6.873,0A3.225,3.225,0,0,0,1494.593,515.26Zm9.343-5.729h3.415v1.213h-3.415v10.311h-1.414V501.244h1.414Z" fill="#2f2725"/>
      <path id="패스_126" data-name="패스 126" d="M1518.514,504.859h4.964v-3.615h1.415V515.73h-1.415V510.3h-4.964v1.82h-8.985v-9.1h8.985Zm-1.393,6.11v-6.783h-6.2v6.783Zm-4.919,3.482h1.415v4.942h11.747v1.189H1512.2Zm11.276-5.369v-3.01h-4.964v3.01Z" fill="#2f2725"/>
      <path id="패스_127" data-name="패스 127" d="M1373.91,531.9a31.915,31.915,0,0,1-.6,6.806h3.066v1.213h-8.356v8.76h-1.392v-8.76h-8.311V538.7h13.544a28.9,28.9,0,0,0,.629-6.806v-.539h-11.837v-1.19h13.252Z" fill="#2f2725"/>
      <path id="패스_128" data-name="패스 128" d="M1378.986,531.225h7.5V543.2h-7.5Zm6.155,10.8v-9.635h-4.83v9.635Zm9.972,6.626h-1.37V537.985h-3.1v9.636H1389.3V529.293h1.348v7.479h3.1v-7.928h1.37Z" fill="#2f2725"/>
      <path id="패스_129" data-name="패스 129" d="M1413.778,531.382a25.685,25.685,0,0,1-.573,5.93h3.022v1.19h-18.149v-1.19h13.7a23.116,23.116,0,0,0,.584-5.93v-.247h-11.949v-1.191h13.364Zm-13.431,10.04h13.544v6.94h-13.544Zm12.151,5.772v-4.627h-10.759v4.627Z" fill="#2f2725"/>
      <path id="패스_130" data-name="패스 130" d="M1427.255,534.729a4.516,4.516,0,1,1-4.515-4.627A4.364,4.364,0,0,1,1427.255,534.729Zm-4.515,3.369a3.384,3.384,0,1,0-3.234-3.369A3.2,3.2,0,0,0,1422.74,538.1Zm-1.28,3.706h13.252v6.85h-1.37v-5.682H1421.46Zm7.592-12.578h1.37v4.829h2.942v-5.211h1.348v11.792h-1.348v-5.391h-2.942v5.234h-1.37Z" fill="#2f2725"/>
      <path id="패스_131" data-name="패스 131" d="M1451.176,542.275l.112,1.079a74.13,74.13,0,0,1-13.117.853l-.225-1.258A88.733,88.733,0,0,0,1451.176,542.275Zm-1.55-7.367c-.011,2.729-2.191,4.582-5.3,4.582s-5.3-1.853-5.3-4.582,2.191-4.582,5.3-4.582S1449.615,532.18,1449.626,534.908Zm-5.3,3.324c2.269.012,3.908-1.38,3.908-3.324s-1.639-3.324-3.908-3.324-3.919,1.381-3.908,3.324C1440.406,536.852,1442.045,538.244,1444.325,538.232Zm8.221-9.388h1.415v19.833h-1.415Z" fill="#2f2725"/>
      <path id="패스_132" data-name="패스 132" d="M1463.776,542.5h2.853a2.68,2.68,0,0,0,2.875,2.269,3.021,3.021,0,0,0,3.122-3.123,3.079,3.079,0,0,0-3.212-3.189,2.756,2.756,0,0,0-2.695,1.393H1464l.988-9.209h9.614v2.448h-7.21l-.495,4.312h.158a4.333,4.333,0,0,1,3.144-1.235,5.159,5.159,0,0,1,5.256,5.391c.011,3.246-2.436,5.57-5.952,5.57C1466.258,547.127,1463.866,545.184,1463.776,542.5Z" fill="#fd3b20"/>
      <path id="패스_133" data-name="패스 133" d="M1478.354,533.7a3.3,3.3,0,0,1,3.436-3.5,3.257,3.257,0,0,1,3.414,3.5v.854a3.425,3.425,0,1,1-6.85,0Zm12.084-3.054h1.976L1481.229,546.9h-1.977Zm-8.648,5.592c1.011-.01,1.337-.842,1.348-1.684V533.7c-.011-.853-.3-1.7-1.348-1.707-1.011.012-1.358.866-1.37,1.707v.854C1480.432,535.391,1480.779,536.223,1481.79,536.233Zm8.266,3.257a3.275,3.275,0,0,1,3.414,3.5v.854a3.426,3.426,0,1,1-6.851,0v-.854A3.31,3.31,0,0,1,1490.056,539.49Zm0,6.042c1.01,0,1.337-.831,1.347-1.684v-.854c-.01-.842-.314-1.7-1.347-1.684-1.011-.011-1.371.842-1.371,1.684v.854C1488.685,544.679,1489.022,545.532,1490.056,545.532Z" fill="#fd3b20"/>
      <path id="패스_134" data-name="패스 134" d="M1504.824,532.19H1497.2V531h9.074c-.022,5.5-2.75,10.613-9.164,13.769l-.786-1.123C1501.6,541.029,1504.476,536.975,1504.824,532.19Zm6.525,4.852h3.346v1.213h-3.346v10.4h-1.415v-19.81h1.415Z" fill="#2f2725"/>
      <path id="패스_135" data-name="패스 135" d="M1533.271,543.2l-.831,1.123a11,11,0,0,1-5.1-6.3,11.947,11.947,0,0,1-5.234,6.793l-.876-1.123c2.7-1.347,5.4-5.131,5.414-8.535v-3.032h-4.717V530.91h10.714v1.213h-4.627v3.032C1528,538.367,1530.541,541.871,1533.271,543.2Zm2.088-14.352h1.415V537h3.415v1.213h-3.415v10.444h-1.415Z" fill="#2f2725"/>
      <path id="패스_136" data-name="패스 136" d="M1559.46,539.939H1541.4v-1.168h8.333v-2.515h-6.019v-6.469h13.476v1.146h-12.084v4.132h12.219v1.191H1551.1v2.515h8.356Zm-9.029,1.595c4.233,0,6.783,1.292,6.783,3.527,0,2.279-2.55,3.548-6.783,3.571-4.268-.023-6.828-1.292-6.828-3.571C1543.6,542.826,1546.163,541.534,1550.431,541.534Zm0,5.93c3.29.011,5.356-.9,5.368-2.4-.012-1.483-2.078-2.393-5.368-2.4-3.325.011-5.391.921-5.391,2.4C1545.04,546.565,1547.106,547.475,1550.431,547.464Z" fill="#2f2725"/>
      <path id="패스_137" data-name="패스 137" d="M1572.959,538.727l-.741,1.123a8.413,8.413,0,0,1-4.919-4.672,8.751,8.751,0,0,1-5.144,5.166l-.741-1.123c2.83-1.034,5.144-3.684,5.144-6.581v-1.168h-4.65v-1.191h10.647v1.191h-4.582v1.145C1567.973,535.268,1570.151,537.738,1572.959,538.727Zm-8.58,3.122h13.229v6.8h-1.415v-5.637h-11.814Zm7.524-7.682h4.29v-5.323h1.415v11.882h-1.415v-5.369h-4.29Z" fill="#2f2725"/>
      <path id="패스_138" data-name="패스 138" d="M1582.146,529.832h9.006v5.189h-7.592v3.009h.2a56.612,56.612,0,0,0,9.546-.651l.179,1.19a58.087,58.087,0,0,1-9.725.674h-1.573v-5.39h7.57v-2.831h-7.614Zm2.515,10.894h1.438v2.583h9.95v-2.583h1.392v7.636h-12.78Zm11.388,6.468v-2.74h-9.95v2.74Zm1.392-7.524h-1.415V528.844h1.415Z" fill="#2f2725"/>
    </g>
    <g id="그룹_15" data-name="그룹 15">
      <path id="패스_166" data-name="패스 166" d="M1382.709,576.988a27.654,27.654,0,0,1-.518,5.918h2.666v1.055h-7.265v7.617h-1.211v-7.617h-7.227v-1.055h11.778a25.126,25.126,0,0,0,.547-5.918v-.468h-10.294v-1.036h11.524Z" fill="#595757"/>
      <path id="패스_167" data-name="패스 167" d="M1387.123,576.4h6.524v10.41h-6.524Zm5.352,9.4v-8.379h-4.2V585.8Zm8.672,5.762h-1.192v-9.278h-2.695v8.379h-1.172V574.723h1.172v6.5h2.695v-6.9h1.192Z" fill="#595757"/>
      <path id="패스_168" data-name="패스 168" d="M1403.783,576.539h4.532v-2.187h1.21v2.187h4.532v1.035h-10.274Zm5.137,2.09c2.441.01,4.092,1.24,4.1,3.183-.01,1.924-1.661,3.155-4.1,3.165-2.48-.01-4.131-1.241-4.121-3.165C1404.789,579.869,1406.44,578.639,1408.92,578.629Zm0,5.332c1.748.019,2.93-.85,2.949-2.149-.019-1.308-1.2-2.187-2.949-2.187-1.777,0-2.959.879-2.949,2.187C1405.961,583.111,1407.143,583.98,1408.92,583.961Zm-2.441,2.246h1.211v3.906h10.292v1.035h-11.5Zm10.664-6.055h2.656v1.055h-2.656v6.055h-1.231v-12.93h1.231Z" fill="#595757"/>
      <path id="패스_169" data-name="패스 169" d="M1426.615,576.031h8.028v1.035h-6.8v9.082h.1a40.442,40.442,0,0,0,8.125-.6l.176,1.074a43.362,43.362,0,0,1-8.3.606h-1.328Zm12.481,5.254h2.969v1.035H1439.1v9.258h-1.231V574.332h1.231Z" fill="#595757"/>
      <path id="패스_170" data-name="패스 170" d="M1443.119,582.809h15.7v1.035h-15.7Zm13.867-4.844c0,2.021-2.295,3.193-6.035,3.2-3.721-.01-6.035-1.182-6.035-3.2,0-2.041,2.314-3.233,6.035-3.242C1454.691,574.732,1456.986,575.924,1456.986,577.965Zm-11.914,7.754h11.8V591.3h-11.8Zm5.879-5.547c2.9-.02,4.785-.86,4.785-2.207,0-1.377-1.884-2.227-4.785-2.227s-4.785.85-4.766,2.227C1446.166,579.312,1448.051,580.152,1450.951,580.172Zm4.727,10.117v-3.574h-9.4v3.574Z" fill="#595757"/>
      <path id="패스_171" data-name="패스 171" d="M1470.541,580.66l.176,1.016a36.641,36.641,0,0,1-8.164.625h-1.309v-6.953h7.637v1.035h-6.426v4.883h.1A35.533,35.533,0,0,0,1470.541,580.66Zm-7.578,3.3h10.859v4.082h-9.609v2.246h10.273V591.3H1463v-4.258h9.59V585h-9.629Zm9.629-9.629h1.23v3.75h2.657v1.055h-2.657v3.906h-1.23Z" fill="#595757"/>
      <path id="패스_172" data-name="패스 172" d="M1489.291,586.012l.1.937a64.309,64.309,0,0,1-11.407.742l-.2-1.093A77.294,77.294,0,0,0,1489.291,586.012Zm-1.348-6.407c-.009,2.374-1.9,3.985-4.609,3.985s-4.609-1.611-4.609-3.985,1.9-3.984,4.609-3.984S1487.934,577.232,1487.943,579.6Zm-4.609,2.891c1.973.01,3.4-1.2,3.4-2.891s-1.425-2.89-3.4-2.89-3.408,1.2-3.4,2.89C1479.926,581.295,1481.352,582.506,1483.334,582.5Zm7.148-8.164h1.231v17.246h-1.231Z" fill="#595757"/>
      <path id="패스_173" data-name="패스 173" d="M1504.935,590.035h-1.406V577.34h-.078l-3.34,2.207v-1.426l3.379-2.226h1.445Z" fill="#595757"/>
      <path id="패스_174" data-name="패스 174" d="M1508.842,586.48h1.348a2.828,2.828,0,0,0,3.046,2.52,3.294,3.294,0,0,0,3.379-3.418,3.378,3.378,0,0,0-3.476-3.457,2.971,2.971,0,0,0-2.735,1.309h-1.386l.976-7.539h7.363v1.25h-6.191l-.606,4.667h.118a4.011,4.011,0,0,1,2.7-.937,4.511,4.511,0,0,1,4.609,4.687,4.567,4.567,0,0,1-4.746,4.668C1510.756,590.23,1508.91,588.668,1508.842,586.48Z" fill="#595757"/>
      <path id="패스_175" data-name="패스 175" d="M1529.213,578.785c-.01,2.236-1.865,3.76-4.434,3.77-2.568-.01-4.424-1.534-4.414-3.77-.01-2.236,1.846-3.779,4.414-3.789C1527.348,575.006,1529.2,576.549,1529.213,578.785Zm-4.434,2.735c1.856,0,3.233-1.143,3.243-2.735a2.941,2.941,0,0,0-3.243-2.734c-1.845-.01-3.222,1.162-3.2,2.734C1521.557,580.377,1522.934,581.52,1524.779,581.52Zm-1.8,2.6h11.094V588.1h-9.844v2.187h10.508V591.3h-11.7v-4.16h9.824v-2.012h-9.883Zm9.864-9.785h1.23v8.906h-1.23Z" fill="#595757"/>
      <path id="패스_176" data-name="패스 176" d="M1541.107,575.855c2.11,0,3.526,2.041,3.692,5.293h2.5v-6.425h1.191V590.66H1547.3V582.2h-2.49c-.137,3.34-1.563,5.459-3.7,5.449-2.216.01-3.662-2.295-3.672-5.9C1537.445,578.15,1538.891,575.855,1541.107,575.855Zm0,10.645c1.543.01,2.54-1.9,2.54-4.746s-1-4.756-2.54-4.746c-1.513-.01-2.509,1.894-2.5,4.746C1538.6,584.6,1539.594,586.51,1541.107,586.5Zm10.8,5.059h-1.191V574.332h1.191Z" fill="#595757"/>
      <path id="패스_177" data-name="패스 177" d="M1569.467,582.926l-.645.976a7.315,7.315,0,0,1-4.277-4.062,7.609,7.609,0,0,1-4.473,4.492l-.644-.977c2.461-.9,4.472-3.2,4.472-5.722v-1.016h-4.043v-1.035h9.258v1.035h-3.984v1C1565.131,579.918,1567.025,582.066,1569.467,582.926Zm-7.461,2.715h11.5v5.918h-1.231v-4.9h-10.273Zm6.543-6.68h3.73v-4.629h1.231v10.332h-1.231V580h-3.73Z" fill="#595757"/>
      <path id="패스_178" data-name="패스 178" d="M1577.455,575.191h7.832V579.7h-6.6v2.617h.176a49.224,49.224,0,0,0,8.3-.566l.156,1.035a50.482,50.482,0,0,1-8.457.586h-1.367v-4.688h6.582v-2.46h-6.621Zm2.188,9.473h1.25v2.246h8.652v-2.246h1.211V591.3h-11.113Zm9.9,5.625v-2.383h-8.652v2.383Zm1.211-6.543h-1.231v-9.414h1.231Z" fill="#595757"/>
      <path id="패스_179" data-name="패스 179" d="M1377.748,623.1h-7.832V612.09h7.832Zm-1.211-1.015V613.1h-5.43v8.985Zm4.648-11.758h1.231v7.012h2.969V618.4h-2.969v9.161h-1.231Z" fill="#595757"/>
      <path id="패스_180" data-name="패스 180" d="M1391.479,611.7c2.529.01,4.355,2.334,4.355,5.957s-1.826,5.957-4.355,5.957c-2.549,0-4.356-2.324-4.356-5.957S1388.93,611.709,1391.479,611.7Zm0,10.821c1.865,0,3.154-1.983,3.144-4.864.01-2.881-1.279-4.853-3.144-4.863-1.866.01-3.164,1.982-3.164,4.863S1389.613,622.52,1391.479,622.52Zm9.1,5.058h-1.23V610.332h1.23Z" fill="#595757"/>
      <path id="패스_181" data-name="패스 181" d="M1405.482,622.09v-8.438h-1.562V612.6h7.93v1.054h-1.563V621.9c.693-.049,1.367-.118,1.973-.2l.1.918a54.9,54.9,0,0,1-8.652.567l-.176-1.075C1404.1,622.109,1404.77,622.109,1405.482,622.09Zm3.653-.117v-8.321h-2.52v8.418C1407.435,622.051,1408.3,622.012,1409.135,621.973Zm2.168-5h2.637v-6.192h1.191V626.6h-1.191v-8.516H1411.3Zm7.168,10.586h-1.211V610.332h1.211Z" fill="#595757"/>
      <path id="패스_182" data-name="패스 182" d="M1426.049,611.7c2.529.01,4.355,2.334,4.355,5.957s-1.826,5.957-4.355,5.957c-2.549,0-4.356-2.324-4.356-5.957S1423.5,611.709,1426.049,611.7Zm0,10.821c1.865,0,3.154-1.983,3.144-4.864.01-2.881-1.279-4.853-3.144-4.863-1.865.01-3.164,1.982-3.164,4.863S1424.184,622.52,1426.049,622.52Zm9.1,5.058h-1.23V610.332h1.23Z" fill="#595757"/>
      <path id="패스_183" data-name="패스 183" d="M1449.076,622.812l-.7.977a9.369,9.369,0,0,1-4.678-5.43,10.287,10.287,0,0,1-4.619,5.86l-.742-.977a9.279,9.279,0,0,0,4.726-7.422v-2.636h-4.2v-1.055h9.688v1.055h-4.258v2.636A8.37,8.37,0,0,0,1449.076,622.812Zm2.129-12.48h1.23v17.227h-1.23Z" fill="#595757"/>
      <path id="패스_184" data-name="패스 184" d="M1461.557,625.625V624.18l6.855-3.623v-.078l-6.855-3.643v-1.445l8.554,4.648V621Z" fill="#595757"/>
      <path id="패스_185" data-name="패스 185" d="M1478.588,611.973h7.949v5.976h-6.66V622.3h.156a51.949,51.949,0,0,0,8.692-.645l.117,1.055a54.249,54.249,0,0,1-8.809.644h-1.426v-6.445h6.7v-3.887h-6.719Zm13.164,15.6h-1.211V610.332h1.211Z" fill="#595757"/>
      <path id="패스_186" data-name="패스 186" d="M1506.322,618.945l.1.938a50.006,50.006,0,0,1-5.391.566v6.563h-1.23v-6.5c-1.729.078-3.379.078-4.824.078l-.176-1.074A85.162,85.162,0,0,0,1506.322,618.945Zm-5.84-7.715c2.559.01,4.336,1.348,4.336,3.34,0,2.041-1.777,3.34-4.336,3.34-2.578,0-4.335-1.3-4.335-3.34C1496.147,612.578,1497.9,611.24,1500.482,611.23Zm0,5.723c1.846,0,3.155-.976,3.165-2.383-.01-1.357-1.319-2.343-3.165-2.343-1.875,0-3.183.986-3.183,2.343C1497.3,615.977,1498.607,616.953,1500.482,616.953Zm8.5,10.625h-1.25v-4.433h-4.1v-.977h4.1V610.332h1.25Z" fill="#595757"/>
      <path id="패스_187" data-name="패스 187" d="M1512.162,624.062h15.781v1.055h-15.781Zm13.867-4.316h-11.8v-7.754h11.622v1.035h-10.411v5.684h10.586Z" fill="#595757"/>
      <path id="패스_188" data-name="패스 188" d="M1536.029,622.09v-8.438h-1.562V612.6h7.93v1.054h-1.563V621.9c.693-.049,1.367-.118,1.973-.2l.1.918a54.9,54.9,0,0,1-8.652.567l-.176-1.075C1534.643,622.109,1535.316,622.109,1536.029,622.09Zm3.653-.117v-8.321h-2.52v8.418C1537.982,622.051,1538.842,622.012,1539.682,621.973Zm2.168-5h2.636v-6.192h1.192V626.6h-1.192v-8.516h-2.636Zm7.168,10.586h-1.211V610.332h1.211Z" fill="#595757"/>
      <path id="패스_189" data-name="패스 189" d="M1556.6,611.7c2.529.01,4.355,2.334,4.355,5.957s-1.826,5.957-4.355,5.957c-2.549,0-4.356-2.324-4.356-5.957S1554.047,611.709,1556.6,611.7Zm0,10.821c1.865,0,3.154-1.983,3.144-4.864.01-2.881-1.279-4.853-3.144-4.863-1.866.01-3.164,1.982-3.164,4.863S1554.73,622.52,1556.6,622.52Zm9.1,5.058h-1.23V610.332h1.23Z" fill="#595757"/>
      <path id="패스_190" data-name="패스 190" d="M1579.623,622.812l-.7.977a9.369,9.369,0,0,1-4.678-5.43,10.287,10.287,0,0,1-4.619,5.86l-.742-.977a9.279,9.279,0,0,0,4.726-7.422v-2.636h-4.2v-1.055h9.688v1.055h-4.258v2.636A8.37,8.37,0,0,0,1579.623,622.812Zm2.129-12.48h1.23v17.227h-1.23Z" fill="#595757"/>
      <path id="패스_191" data-name="패스 191" d="M1590.033,611.855c2.11,0,3.526,2.041,3.692,5.293h2.5v-6.425h1.191V626.66h-1.191V618.2h-2.491c-.136,3.34-1.562,5.459-3.7,5.449-2.217.01-3.662-2.295-3.672-5.9C1586.371,614.15,1587.816,611.855,1590.033,611.855Zm0,10.645c1.543.01,2.539-1.9,2.539-4.746s-1-4.756-2.539-4.746c-1.513-.01-2.51,1.894-2.5,4.746C1587.523,620.6,1588.52,622.51,1590.033,622.5Zm10.8,5.059h-1.191V610.332h1.191Z" fill="#595757"/>
      <path id="패스_192" data-name="패스 192" d="M1613.94,622.52l-.743,1.015a9.728,9.728,0,0,1-4.482-5.7,10.159,10.159,0,0,1-4.443,6.016l-.8-.977a9.37,9.37,0,0,0,4.609-7.676v-3.32h1.23v3.32A8.765,8.765,0,0,0,1613.94,622.52Zm-1.875-6.172h4.335v-6.016h1.211v17.246H1616.4v-10.2h-4.335Z" fill="#595757"/>
      <path id="패스_193" data-name="패스 193" d="M1369.838,636.4h6.523v10.41h-6.523Zm5.352,9.4v-8.379h-4.2V645.8Zm8.671,5.762h-1.191v-9.278h-2.7v8.379H1378.8V634.723h1.172v6.5h2.7v-6.9h1.191Z" fill="#595757"/>
      <path id="패스_194" data-name="패스 194" d="M1396.576,640.66l.176,1.016a36.64,36.64,0,0,1-8.164.625h-1.309v-6.953h7.637v1.035h-6.426v4.883h.1A35.533,35.533,0,0,0,1396.576,640.66Zm-7.578,3.3h10.859v4.082h-9.609v2.246h10.274V651.3h-11.485v-4.258h9.59V645H1389Zm9.629-9.629h1.23v3.75h2.657v1.055h-2.657v3.906h-1.23Z" fill="#595757"/>
      <path id="패스_195" data-name="패스 195" d="M1411.244,636.461v-1.367h1.172v1.367a2.708,2.708,0,1,0,3.672.019v-1.367h.234v-.019h.918v1.367a5.618,5.618,0,0,0,2.793,5.039l-.7.9a5.59,5.59,0,0,1-2.637-3.418,5.825,5.825,0,0,1-2.441,3.614l-.02-.03a2.709,2.709,0,1,0-5.078-.166l-.683-.9A6.107,6.107,0,0,0,1411.244,636.461Zm-.351,8.164h5.488v-1.816h1.23v1.816h5.43v1h-12.148Zm6.093,1.9c3.125.019,4.971.908,4.961,2.5.01,1.621-1.836,2.48-4.961,2.48-3.154,0-5-.859-4.98-2.48C1411.986,647.428,1413.832,646.539,1416.986,646.52Zm0,4.042c2.334.01,3.76-.566,3.77-1.542-.01-.967-1.436-1.563-3.77-1.563-2.382,0-3.779.6-3.769,1.563C1413.207,650,1414.6,650.572,1416.986,650.562Zm5.274-12.382h2.383v1.054h-2.383v4.317h-1.231v-9.219h1.231Z" fill="#595757"/>
      <path id="패스_196" data-name="패스 196" d="M1430.873,635.7c2.529.01,4.356,2.334,4.356,5.957s-1.827,5.957-4.356,5.957c-2.549,0-4.355-2.324-4.355-5.957S1428.324,635.709,1430.873,635.7Zm0,10.821c1.865,0,3.154-1.983,3.145-4.864.009-2.881-1.28-4.853-3.145-4.863-1.865.01-3.164,1.982-3.164,4.863S1429.008,646.52,1430.873,646.52Zm9.1,5.058h-1.231V634.332h1.231Z" fill="#595757"/>
      <path id="패스_197" data-name="패스 197" d="M1443.1,643.238h15.761v1.016H1443.1Zm2.129,2.891h1.211v3.945h10.683v1.055h-11.894Zm11.8-5.391h-11.718v-5.781h1.211V639.7h10.507Z" fill="#595757"/>
      <path id="패스_198" data-name="패스 198" d="M1475.385,642.926l-.645.976a7.315,7.315,0,0,1-4.277-4.062,7.612,7.612,0,0,1-4.473,4.492l-.644-.977c2.461-.9,4.472-3.2,4.472-5.722v-1.016h-4.043v-1.035h9.258v1.035h-3.984v1C1471.049,639.918,1472.943,642.066,1475.385,642.926Zm-7.461,2.715h11.5v5.918H1478.2v-4.9h-10.273Zm6.543-6.68h3.73v-4.629h1.231v10.332H1478.2V640h-3.73Z" fill="#595757"/>
      <path id="패스_199" data-name="패스 199" d="M1483.373,635.191h7.832V639.7h-6.6v2.617h.175a49.222,49.222,0,0,0,8.3-.566l.156,1.035a50.481,50.481,0,0,1-8.457.586h-1.367v-4.688h6.582v-2.46h-6.621Zm2.187,9.473h1.25v2.246h8.653v-2.246h1.211V651.3H1485.56Zm9.9,5.625v-2.383h-8.653v2.383Zm1.211-6.543h-1.231v-9.414h1.231Z" fill="#595757"/>
      <path id="패스_200" data-name="패스 200" d="M1513.451,636.539a22.481,22.481,0,0,1-.5,5.156h2.627v1.035H1499.8V641.7h11.914a20.212,20.212,0,0,0,.508-5.156v-.215H1501.83v-1.035h11.621Zm-11.679,8.731h11.777V651.3h-11.777Zm10.566,5.019v-4.023h-9.356v4.023Z" fill="#595757"/>
      <path id="패스_201" data-name="패스 201" d="M1517.084,641.949h15.7v1.016h-15.7Zm13.867-4.316c0,1.953-2.236,3.027-6.035,3.027s-6.035-1.074-6.035-3.027c0-1.924,2.246-2.988,6.035-2.988S1530.951,635.709,1530.951,637.633Zm-11.933,6.972h11.7V648.3h-10.449v2.031h11v1.016h-12.188v-4h10.449v-1.758h-10.507Zm5.9-4.9c2.969-.01,4.785-.762,4.785-2.07,0-1.26-1.816-2.031-4.785-2.031-2.949,0-4.766.771-4.766,2.031C1520.15,638.941,1521.967,639.693,1524.916,639.7Z" fill="#595757"/>
      <path id="패스_202" data-name="패스 202" d="M1543.979,644.166v-1.357c-2.061-.166-3.389-1.094-3.379-2.539-.01-1.583,1.582-2.549,3.984-2.54,2.393-.009,3.965.957,3.984,2.54-.019,1.435-1.318,2.373-3.359,2.529v1.318a46.812,46.812,0,0,0,4.941-.469l.1.918a62.948,62.948,0,0,1-10.938.7l-.175-1.055C1540.56,644.215,1542.23,644.215,1543.979,644.166Zm-4.4-8.174h4.4v-1.8h1.23v1.8h4.4v.977h-10.02Zm1.66,10.762h11.289v4.8h-1.23V647.75h-10.059Zm3.34-4.844c1.7.02,2.8-.674,2.813-1.64-.01-1.006-1.114-1.651-2.813-1.641-1.719-.01-2.822.635-2.812,1.641C1541.762,641.236,1542.865,641.93,1544.584,641.91Zm7.949-2.265h2.7V640.7h-2.7v5.117h-1.23V634.332h1.23Z" fill="#595757"/>
      <path id="패스_203" data-name="패스 203" d="M1561.381,635.582a4.2,4.2,0,1,1-4.453,4.18A4.182,4.182,0,0,1,1561.381,635.582Zm0,7.285a3.109,3.109,0,1,0-3.262-3.1A3.1,3.1,0,0,0,1561.381,642.867Zm-1.738,2.832h1.23v4.414H1571.2v1.035h-11.562Zm11,1.309h-1.231V634.332h1.231Z" fill="#595757"/>
      <path id="패스_204" data-name="패스 204" d="M1573.666,637.164h4.59v-2.656h1.23v2.656h4.473V638.2h-10.293Zm5.234,2.617a3.914,3.914,0,1,1-4.16,3.906A3.877,3.877,0,0,1,1578.9,639.781Zm0,6.739a2.821,2.821,0,0,0,2.989-2.833,2.991,2.991,0,0,0-5.977,0A2.8,2.8,0,0,0,1578.9,646.52Zm8.125-4.981h2.969v1.055h-2.969v8.965h-1.23V634.332h1.23Z" fill="#595757"/>
      <path id="패스_205" data-name="패스 205" d="M1599.818,646.422l-.742.957a8.785,8.785,0,0,1-3.613-5.147,9.156,9.156,0,0,1-3.75,5.5l-.82-.918a8.8,8.8,0,0,0,3.964-7.363v-3.457h1.172v3.418A8.479,8.479,0,0,0,1599.818,646.422Zm-1.933-5.8h3.144v-5.9h1.172V650.66h-1.172V641.7h-3.144Zm6.68-6.289h1.191v17.227h-1.191Z" fill="#595757"/>
      <path id="패스_206" data-name="패스 206" d="M1624.115,649.273h-15.781v-1.054h4.023v-4.795a3.923,3.923,0,0,1-2.422-3.545c0-2.647,2.588-4.375,6.231-4.4,3.672.02,6.25,1.748,6.25,4.4a3.9,3.9,0,0,1-2.363,3.516v4.824h4.062Zm-7.949-6.054c2.93.01,5.078-1.367,5.078-3.34,0-2.012-2.148-3.369-5.078-3.359-2.939-.01-5.059,1.347-5.059,3.359C1611.107,641.852,1613.227,643.229,1616.166,643.219Zm2.656,5v-4.346a10.407,10.407,0,0,1-5.254.01v4.336Z" fill="#595757"/>
      <path id="패스_207" data-name="패스 207" d="M1626.264,649.1a1.045,1.045,0,1,1,2.09,0,1.045,1.045,0,0,1-2.09,0Z" fill="#595757"/>
    </g>
    <circle id="타원_1" data-name="타원 1" cx="1.838" cy="1.838" r="1.838" transform="translate(1357.358 580.41)" fill="#595757"/>
    <circle id="타원_2" data-name="타원 2" cx="1.838" cy="1.838" r="1.838" transform="translate(1357.358 616.484)" fill="#595757"/>
  </g>
</svg>
