<svg xmlns="http://www.w3.org/2000/svg" width="69.816" height="62.859" viewBox="0 0 69.816 62.859">
  <g id="그룹_13" data-name="그룹 13" transform="translate(-2138.47 -890.409)">
    <g id="그룹_41" data-name="그룹 41">
      <path id="패스_62" data-name="패스 62" d="M2173.48,953.268l-31.9-23.6c-2.464-1.553-3.472-3.121-3-4.664.17-.553.687-2.233,5.2-2.4h5.55l.123-32.2h47.916v32.2h5.7c3.022,0,4.589.646,5.082,2.091.471,1.39-.33,2.961-2.38,4.673l-.092.072Zm-29.312-26.662,29.312,21.685,29.31-21.685h-9.417v-32.2h-39.932l-.123,32.2Z" fill="#231815"/>
    </g>
    <g id="그룹_43" data-name="그룹 43">
      <g id="그룹_42" data-name="그룹 42">
        <path id="패스_63" data-name="패스 63" d="M2159.5,908.769c0-3.209,2.351-5.906,6.445-5.906,4.2,0,6.428,2.7,6.408,5.906v1.394c.02,3.19-2.27,5.848-6.408,5.834-4.2.014-6.445-2.679-6.445-5.834Zm22.056-4.985h3.736l-20.2,26.553h-3.732Zm-15.611,8.945c1.743,0,2.273-1.3,2.273-2.566v-1.394c0-1.284-.465-2.622-2.273-2.6-1.741-.017-2.291,1.341-2.307,2.6v1.394C2163.657,911.43,2164.229,912.729,2165.948,912.729Zm15.044,5.358c4.2-.018,6.426,2.677,6.449,5.868v1.393c-.023,3.173-2.313,5.887-6.449,5.906-4.177-.019-6.427-2.733-6.447-5.906v-1.393C2174.565,920.779,2176.879,918.069,2180.992,918.087Zm0,9.828c1.742.02,2.292-1.283,2.272-2.567v-1.393c.02-1.266-.465-2.6-2.272-2.6-1.724,0-2.313,1.338-2.313,2.6v1.393C2178.679,926.595,2179.229,927.935,2180.992,927.915Z" fill="#231815"/>
      </g>
    </g>
  </g>
</svg>
