<svg width="19" height="17" viewBox="0 0 19 17" fill="none" xmlns="http://www.w3.org/2000/svg">
<path d="M8.27597 15.3964L8.27524 15.3958C5.94767 13.351 4.0567 11.6866 2.74178 10.128C1.4318 8.57532 0.750244 7.19197 0.750244 5.718C0.750244 3.31527 2.68873 1.42236 5.20024 1.42236C6.62088 1.42236 7.98838 2.06561 8.87598 3.06754L9.25024 3.49001L9.62451 3.06754C10.5121 2.06561 11.8796 1.42236 13.3002 1.42236C15.8118 1.42236 17.7502 3.31527 17.7502 5.718C17.7502 7.19197 17.0687 8.57532 15.7587 10.128C14.4438 11.6866 12.5528 13.351 10.2252 15.3958L10.2245 15.3964L9.25024 16.2557L8.27597 15.3964Z" stroke="#CCCCCC"/>
</svg>
