<svg width="58" height="41" viewBox="0 0 58 41" fill="none" xmlns="http://www.w3.org/2000/svg">
<path d="M56.7695 6.19515C56.4328 5.00659 55.7911 3.92401 54.9065 3.05225C54.0219 2.18049 52.9243 1.54907 51.7201 1.21915C47.1998 0.0256918 29.0278 0.0256921 29.0278 0.0256921C29.0278 0.0256921 10.8902 -0.0029368 6.32279 1.21915C5.1205 1.55052 4.0251 2.1826 3.14247 3.05428C2.25983 3.92596 1.61982 5.00777 1.28428 6.19515C0.425865 10.7654 0.00308338 15.405 0.0214799 20.0532C0.013104 24.679 0.435819 29.2957 1.28428 33.845C1.6209 35.033 2.26111 36.1156 3.14343 36.9888C4.02576 37.8621 5.12058 38.4967 6.32279 38.8317C10.8431 40.0252 29.0278 40.0252 29.0278 40.0252C29.0278 40.0252 47.1545 40.0252 51.7201 38.8317C52.9242 38.4981 54.0212 37.8642 54.9055 36.9909C55.7898 36.1175 56.4317 35.0342 56.7695 33.845C57.6011 29.2984 58.0069 24.6749 57.9779 20.0532C58.0069 15.401 57.6101 10.7703 56.7695 6.19515ZM23.2229 28.6185V11.4503L38.3493 20.0532L23.2229 28.6185Z" fill="#CCCCCC"/>
</svg>
