<svg width="23" height="21" viewBox="0 0 23 21" fill="none" xmlns="http://www.w3.org/2000/svg">
<path fill-rule="evenodd" clip-rule="evenodd" d="M0.294194 0.935905C0.435393 0.535369 0.874588 0.325124 1.27516 0.466309L1.54183 0.560297C1.55416 0.564625 1.56695 0.569113 1.57921 0.573415C2.21336 0.795959 2.75184 0.984925 3.17548 1.19274C3.62753 1.41449 4.01507 1.68779 4.30635 2.11449C4.59516 2.53756 4.71445 3.00147 4.76952 3.51032C4.77346 3.54675 4.77711 3.58381 4.78047 3.62149H6.14647C6.5712 3.62149 6.91552 3.96577 6.91552 4.39046C6.91552 4.81515 6.5712 5.15943 6.14647 5.15943H4.82165C4.82167 5.20269 4.82166 5.2464 4.82166 5.29056L4.82166 8.12253C4.82166 9.64951 4.84005 10.5812 4.95404 11.2464C5.05851 11.8561 5.23558 12.195 5.56419 12.5414C5.84344 12.8361 6.23066 13.0253 6.96353 13.1292C7.72296 13.2369 8.73114 13.2387 10.1845 13.2387H11.2734C11.6982 13.2387 12.0425 13.583 12.0425 14.0077C12.0425 14.4324 11.6982 14.7767 11.2734 14.7767H10.1257C8.74525 14.7767 7.62754 14.7767 6.74753 14.6519C5.82865 14.5216 5.05697 14.242 4.44828 13.5998C3.88787 13.0091 3.58813 12.3821 3.43804 11.5061C3.29748 10.6858 3.28357 9.61195 3.28357 8.12253V5.33168C3.28357 4.57307 3.28253 4.06548 3.24035 3.67576C3.20005 3.30337 3.12863 3.11724 3.03598 2.98152C2.94582 2.84944 2.80888 2.72595 2.49803 2.57347C2.16708 2.41112 1.7171 2.25174 1.03243 2.01144L0.763836 1.91678C0.363261 1.77559 0.152995 1.33644 0.294194 0.935905ZM10.7255 4.39697C10.7255 3.97228 11.0698 3.628 11.4945 3.628H17.7135C18.5794 3.628 19.3684 3.66699 20.0384 3.88897C20.7591 4.12772 21.3138 4.56676 21.7242 5.27535C22.1058 5.93399 22.2454 6.51453 22.2501 7.09772C22.2535 7.50603 22.1854 7.93032 22.1236 8.31554C22.1061 8.42496 22.0891 8.53122 22.0743 8.63307C21.9506 9.48662 21.8089 10.1924 21.6859 10.8045C21.6408 11.029 21.5982 11.241 21.56 11.443C21.5479 11.5068 21.5359 11.5748 21.5233 11.6464C21.3991 12.3508 21.214 13.4008 20.2964 14.1489C20.0352 14.3618 19.7156 14.484 19.4337 14.5612C19.1412 14.6414 18.824 14.6903 18.5194 14.7215C17.9178 14.7832 17.2853 14.7832 16.8558 14.7832H16.8429C16.4182 14.7832 16.0739 14.4389 16.0739 14.0142C16.0739 13.5896 16.4182 13.2453 16.8429 13.2453C17.2838 13.2453 17.8454 13.2446 18.3624 13.1916C18.6201 13.1652 18.8461 13.1276 19.0271 13.078C19.2187 13.0255 19.3027 12.9746 19.3245 12.9568C19.7813 12.5844 19.8724 12.098 20.0194 11.3133C20.0289 11.2625 20.0386 11.2104 20.0487 11.1571C20.092 10.9284 20.1377 10.7006 20.1848 10.4665C20.3056 9.86504 20.4349 9.2215 20.5521 8.41256C20.5757 8.24976 20.5985 8.10657 20.6191 7.97697C20.6745 7.62875 20.7143 7.37869 20.7121 7.11031C20.7096 6.80096 20.6451 6.4808 20.3933 6.04621C20.1705 5.66157 19.9164 5.4687 19.5547 5.34886C19.1423 5.21224 18.5754 5.16594 17.7135 5.16594H11.4945C11.0698 5.16594 10.7255 4.82166 10.7255 4.39697ZM7.61192 17.3465C7.40795 17.3465 7.21234 17.4275 7.06812 17.5717C6.92389 17.7159 6.84287 17.9115 6.84287 18.1154C6.84287 18.3194 6.92389 18.515 7.06812 18.6592C7.21234 18.8034 7.40795 18.8844 7.61192 18.8844C7.81588 18.8844 8.01149 18.8034 8.15571 18.6592C8.29994 18.515 8.38097 18.3194 8.38097 18.1154C8.38097 17.9115 8.29994 17.7159 8.15571 17.5717C8.01149 17.4275 7.81588 17.3465 7.61192 17.3465ZM5.98052 16.4842C6.4132 16.0516 7.00002 15.8085 7.61192 15.8085C8.22381 15.8085 8.81065 16.0516 9.24332 16.4842C9.676 16.9168 9.91907 17.5036 9.91907 18.1154C9.91907 18.7273 9.676 19.3141 9.24332 19.7467C8.81065 20.1793 8.22381 20.4224 7.61192 20.4224C7.00002 20.4224 6.4132 20.1793 5.98052 19.7467C5.54785 19.3141 5.30478 18.7273 5.30478 18.1154C5.30478 17.5036 5.54785 16.9168 5.98052 16.4842ZM16.8405 17.3465C16.6365 17.3465 16.4409 17.4275 16.2967 17.5717C16.1525 17.7159 16.0714 17.9115 16.0714 18.1154C16.0714 18.3194 16.1525 18.515 16.2967 18.6592C16.4409 18.8034 16.6365 18.8844 16.8405 18.8844C17.0444 18.8844 17.24 18.8034 17.3843 18.6592C17.5285 18.515 17.6095 18.3194 17.6095 18.1154C17.6095 17.9115 17.5285 17.7159 17.3843 17.5717C17.24 17.4275 17.0444 17.3465 16.8405 17.3465ZM15.2091 16.4842C15.6418 16.0516 16.2286 15.8085 16.8405 15.8085C17.4523 15.8085 18.0392 16.0516 18.4718 16.4842C18.9045 16.9168 19.1476 17.5036 19.1476 18.1154C19.1476 18.7273 18.9045 19.3141 18.4718 19.7467C18.0392 20.1793 17.4523 20.4224 16.8405 20.4224C16.2286 20.4224 15.6418 20.1793 15.2091 19.7467C14.7764 19.3141 14.5333 18.7273 14.5333 18.1154C14.5333 17.5036 14.7764 16.9168 15.2091 16.4842Z" fill="#CCCCCC"/>
</svg>
