<svg width="41" height="41" viewBox="0 0 41 41" fill="none" xmlns="http://www.w3.org/2000/svg">
<path d="M36.5347 0.0253906C37.7134 0.0253906 38.8439 0.493643 39.6773 1.32714C40.5108 2.16063 40.9791 3.2911 40.9791 4.46984V35.5809C40.9791 36.7597 40.5108 37.8901 39.6773 38.7236C38.8439 39.5571 37.7134 40.0254 36.5347 40.0254H5.42354C4.2448 40.0254 3.11434 39.5571 2.28084 38.7236C1.44735 37.8901 0.979095 36.7597 0.979095 35.5809V4.46984C0.979095 3.2911 1.44735 2.16063 2.28084 1.32714C3.11434 0.493643 4.2448 0.0253906 5.42354 0.0253906H36.5347ZM35.4235 34.4698V22.6921C35.4235 20.7707 34.6603 18.9281 33.3017 17.5695C31.9431 16.2109 30.1004 15.4476 28.1791 15.4476C26.2902 15.4476 24.0902 16.6032 23.0235 18.3365V15.8698H16.8235V34.4698H23.0235V23.5143C23.0235 21.8032 24.4013 20.4032 26.1124 20.4032C26.9375 20.4032 27.7289 20.7309 28.3123 21.3144C28.8958 21.8978 29.2235 22.6892 29.2235 23.5143V34.4698H35.4235ZM9.60132 12.3809C10.5915 12.3809 11.541 11.9876 12.2412 11.2875C12.9413 10.5873 13.3347 9.63776 13.3347 8.64761C13.3347 6.58095 11.668 4.89206 9.60132 4.89206C8.60528 4.89206 7.65004 5.28773 6.94574 5.99203C6.24144 6.69634 5.84576 7.65158 5.84576 8.64761C5.84576 10.7143 7.53465 12.3809 9.60132 12.3809ZM12.6902 34.4698V15.8698H6.53465V34.4698H12.6902Z" fill="#CCCCCC"/>
</svg>
