<svg width="41" height="41" viewBox="0 0 41 41" fill="none" xmlns="http://www.w3.org/2000/svg">
<path d="M23.0352 0.0280955C24.4946 0.0224952 25.954 0.0371629 27.413 0.0720938L27.801 0.0860931C28.2489 0.102092 28.6909 0.122092 29.2249 0.146091C31.3528 0.246086 32.8047 0.582073 34.0786 1.07605C35.3985 1.58403 36.5105 2.272 37.6224 3.38395C38.6391 4.38312 39.4259 5.59175 39.9282 6.92581C40.4222 8.19975 40.7582 9.65369 40.8582 11.7816C40.8822 12.3136 40.9022 12.7576 40.9182 13.2055L40.9302 13.5935C40.9657 15.0518 40.9811 16.5106 40.9762 17.9693L40.9782 19.4613V22.0812C40.9831 23.5406 40.9678 25 40.9322 26.459L40.9202 26.847C40.9042 27.2949 40.8842 27.7369 40.8602 28.2709C40.7602 30.3988 40.4202 31.8508 39.9282 33.1247C39.4276 34.4602 38.6405 35.6698 37.6224 36.6686C36.6224 37.6852 35.4131 38.472 34.0786 38.9745C32.8047 39.4684 31.3528 39.8044 29.2249 39.9044C28.6909 39.9284 28.2489 39.9484 27.801 39.9644L27.413 39.9764C25.954 40.012 24.4946 40.0273 23.0352 40.0224L21.5433 40.0244H18.9255C17.4661 40.0293 16.0067 40.014 14.5478 39.9784L14.1598 39.9664C13.685 39.9492 13.2104 39.9292 12.7359 39.9064C10.608 39.8064 9.15607 39.4664 7.88014 38.9745C6.54559 38.4732 5.33677 37.6862 4.33836 36.6686C3.32051 35.6692 2.53291 34.4598 2.03049 33.1247C1.53652 31.8508 1.20054 30.3988 1.10055 28.2709C1.07827 27.7964 1.05828 27.3217 1.04055 26.847L1.03055 26.459C0.993681 25 0.977014 23.5406 0.980555 22.0812V17.9693C0.974973 16.5106 0.98964 15.0519 1.02455 13.5935L1.03855 13.2055C1.05455 12.7576 1.07455 12.3136 1.09855 11.7816C1.19854 9.65169 1.53452 8.20175 2.02849 6.92581C2.53121 5.5911 3.32034 4.3828 4.34036 3.38595C5.33808 2.3675 6.54615 1.57918 7.88014 1.07605C9.15607 0.582073 10.606 0.246086 12.7359 0.146091L14.1598 0.0860931L14.5478 0.0760938C16.006 0.0392409 17.4647 0.0225732 18.9235 0.0260957L23.0352 0.0280955ZM20.9794 10.0277C19.6545 10.0089 18.339 10.2537 17.1096 10.7478C15.8801 11.2418 14.761 11.9754 13.8175 12.9057C12.8739 13.836 12.1247 14.9445 11.6133 16.1669C11.1019 17.3893 10.8386 18.7012 10.8386 20.0263C10.8386 21.3513 11.1019 22.6632 11.6133 23.8856C12.1247 25.108 12.8739 26.2165 13.8175 27.1468C14.761 28.0772 15.8801 28.8107 17.1096 29.3047C18.339 29.7988 19.6545 30.0436 20.9794 30.0248C23.6314 30.0248 26.1748 28.9713 28.05 27.096C29.9253 25.2207 30.9788 22.6773 30.9788 20.0253C30.9788 17.3732 29.9253 14.8298 28.05 12.9545C26.1748 11.0792 23.6314 10.0277 20.9794 10.0277ZM20.9794 14.0275C21.7763 14.0128 22.5682 14.1571 23.3088 14.4519C24.0494 14.7467 24.7238 15.1861 25.2927 15.7445C25.8615 16.3029 26.3134 16.969 26.6219 17.704C26.9304 18.439 27.0894 19.2281 27.0895 20.0252C27.0897 20.8224 26.931 21.6115 26.6227 22.3466C26.3144 23.0817 25.8628 23.748 25.2941 24.3065C24.7254 24.8651 24.0512 25.3048 23.3107 25.5998C22.5702 25.8949 21.7783 26.0394 20.9814 26.025C19.3902 26.025 17.8641 25.3929 16.739 24.2677C15.6138 23.1425 14.9817 21.6165 14.9817 20.0253C14.9817 18.434 15.6138 16.908 16.739 15.7828C17.8641 14.6576 19.3902 14.0255 20.9814 14.0255L20.9794 14.0275ZM31.4787 7.0278C30.8336 7.05362 30.2234 7.32809 29.7761 7.79371C29.3287 8.25933 29.0789 8.87999 29.0789 9.5257C29.0789 10.1714 29.3287 10.7921 29.7761 11.2577C30.2234 11.7233 30.8336 11.9978 31.4787 12.0236C32.1417 12.0236 32.7776 11.7602 33.2464 11.2914C33.7152 10.8226 33.9786 10.1867 33.9786 9.5237C33.9786 8.86068 33.7152 8.22482 33.2464 7.756C32.7776 7.28718 32.1417 7.0238 31.4787 7.0238V7.0278Z" fill="#CCCCCC"/>
</svg>
