<svg width="41" height="41" viewBox="0 0 41 41" fill="none" xmlns="http://www.w3.org/2000/svg">
<path fill-rule="evenodd" clip-rule="evenodd" d="M3.18609 0.0253906H38.7721C39.991 0.0253906 40.9791 1.0135 40.9791 2.2324V37.8184C40.9791 39.0373 39.991 40.0254 38.7721 40.0254H27.854V24.5209H33.0833L33.8653 18.4484H27.854V14.5723C27.854 12.8145 28.3436 11.6143 30.863 11.6143H34.0795V6.17419C32.522 6.01187 30.9568 5.93468 29.3908 5.94299C24.7599 5.94299 21.5707 8.76504 21.5707 13.9705V18.4484H16.3414V24.5209H21.5707V40.0254H3.18609C1.96719 40.0254 0.97908 39.0373 0.97908 37.8184V2.2324C0.97908 1.0135 1.96719 0.0253906 3.18609 0.0253906Z" fill="#CCCCCC"/>
</svg>
