<svg width="31" height="28" viewBox="0 0 31 28" fill="none" xmlns="http://www.w3.org/2000/svg">
<path d="M13.8216 25.2015L13.8209 25.2008C9.94857 21.6894 6.77456 18.807 4.56279 16.1011C2.35651 13.4018 1.16003 10.9394 1.16003 8.27624C1.16003 3.91798 4.56558 0.526245 8.91003 0.526245C11.3689 0.526245 13.7371 1.67347 15.2806 3.47189L15.66 3.91396L16.0395 3.47189C17.583 1.67347 19.9512 0.526245 22.41 0.526245C26.7545 0.526245 30.16 3.91798 30.16 8.27624C30.16 10.9394 28.9636 13.4018 26.7573 16.1011C24.5455 18.807 21.3715 21.6894 17.4992 25.2008L17.4984 25.2015L15.66 26.8751L13.8216 25.2015Z" stroke="#CCCCCC"/>
</svg>
