<svg width="11" height="10" viewBox="0 0 11 10" fill="none" xmlns="http://www.w3.org/2000/svg">
<path fill-rule="evenodd" clip-rule="evenodd" d="M0.927734 5C0.927734 5.52599 1.36636 5.95238 1.90744 5.95238H9.94803C10.4891 5.95238 10.9277 5.52599 10.9277 5C10.9277 4.47402 10.4891 4.04762 9.94803 4.04762H1.90744C1.36636 4.04762 0.927734 4.47402 0.927734 5Z" fill="#777777"/>
<path fill-rule="evenodd" clip-rule="evenodd" d="M5.92773 10C6.45372 10 6.88012 9.56137 6.88012 9.0203L6.88012 0.979702C6.88012 0.438627 6.45372 0 5.92773 0C5.40175 0 4.97535 0.438627 4.97535 0.979702L4.97535 9.0203C4.97535 9.56137 5.40175 10 5.92773 10Z" fill="#777777"/>
</svg>
