<svg width="23" height="23" viewBox="0 0 23 23" fill="none" xmlns="http://www.w3.org/2000/svg">
<path d="M4.72222 0C3.47191 0 2.27282 0.519259 1.38872 1.44355C0.504617 2.36783 0.00793457 3.62143 0.00793457 4.92857V6.57143H22.0079V4.92857C22.0079 3.62143 21.5113 2.36783 20.6272 1.44355C19.7431 0.519259 18.544 0 17.2936 0H4.72222ZM7.07936 4.10714C7.07936 4.43393 6.95519 4.74733 6.73417 4.9784C6.51314 5.20947 6.21337 5.33929 5.90079 5.33929C5.58821 5.33929 5.28844 5.20947 5.06742 4.9784C4.84639 4.74733 4.72222 4.43393 4.72222 4.10714C4.72222 3.78036 4.84639 3.46696 5.06742 3.23589C5.28844 3.00481 5.58821 2.875 5.90079 2.875C6.21337 2.875 6.51314 3.00481 6.73417 3.23589C6.95519 3.46696 7.07936 3.78036 7.07936 4.10714ZM17.2936 4.10714C17.2936 4.43393 17.1695 4.74733 16.9485 4.9784C16.7274 5.20947 16.4277 5.33929 16.1151 5.33929C15.8025 5.33929 15.5027 5.20947 15.2817 4.9784C15.0607 4.74733 14.9365 4.43393 14.9365 4.10714C14.9365 3.78036 15.0607 3.46696 15.2817 3.23589C15.5027 3.00481 15.8025 2.875 16.1151 2.875C16.4277 2.875 16.7274 3.00481 16.9485 3.23589C17.1695 3.46696 17.2936 3.78036 17.2936 4.10714ZM11.0079 5.33929C10.8532 5.33929 10.6999 5.30742 10.5569 5.24549C10.4139 5.18357 10.284 5.09281 10.1746 4.9784C10.0651 4.86398 9.97831 4.72815 9.91908 4.57866C9.85985 4.42917 9.82936 4.26895 9.82936 4.10714C9.82936 3.94534 9.85985 3.78511 9.91908 3.63562C9.97831 3.48613 10.0651 3.3503 10.1746 3.23589C10.284 3.12147 10.4139 3.03071 10.5569 2.96879C10.6999 2.90687 10.8532 2.875 11.0079 2.875C11.3205 2.875 11.6203 3.00481 11.8413 3.23589C12.0623 3.46696 12.1865 3.78036 12.1865 4.10714C12.1865 4.43393 12.0623 4.74733 11.8413 4.9784C11.6203 5.20947 11.3205 5.33929 11.0079 5.33929ZM0.00793457 18.0714V8.21429H22.0079V18.0714C22.0079 19.3786 21.5113 20.6322 20.6272 21.5565C19.7431 22.4807 18.544 23 17.2936 23H4.72222C3.47191 23 2.27282 22.4807 1.38872 21.5565C0.504617 20.6322 0.00793457 19.3786 0.00793457 18.0714ZM5.50793 11.5C5.29955 11.5 5.0997 11.5865 4.95235 11.7406C4.805 11.8946 4.72222 12.1036 4.72222 12.3214V17.25C4.72222 17.4679 4.805 17.6768 4.95235 17.8308C5.0997 17.9849 5.29955 18.0714 5.50793 18.0714H16.5079C16.7163 18.0714 16.9162 17.9849 17.0635 17.8308C17.2109 17.6768 17.2936 17.4679 17.2936 17.25V12.3214C17.2936 12.1036 17.2109 11.8946 17.0635 11.7406C16.9162 11.5865 16.7163 11.5 16.5079 11.5H5.50793Z" fill="#B4151B"/>
</svg>
