<svg width="22" height="29" viewBox="0 0 22 29" fill="none" xmlns="http://www.w3.org/2000/svg">
<path d="M16.8066 28.5036C19.1313 28.5036 21.0079 26.627 21.0079 24.3023C21.0079 21.9776 19.1313 20.101 16.8066 20.101C14.9861 20.101 13.4456 21.2773 12.8574 22.9018H5.79922L8.58608 18.6165C9.3945 18.7282 10.2144 18.7282 11.0228 18.6165L12.4513 20.8152C13.0395 20.073 13.7957 19.4848 14.692 19.1207L13.8517 17.8183C16.7926 16.4879 18.9493 13.757 19.4814 10.48C19.6215 9.65376 18.9353 8.89753 18.095 8.89753H1.5139C0.673643 8.89753 -0.0125686 9.65376 0.127475 10.494C0.391047 12.0855 1.04256 13.5875 2.02444 14.8673C3.00632 16.1472 4.28834 17.1655 5.75721 17.8323L0.225504 26.3469C0.0241514 26.6573 -0.0461567 27.0349 0.0299396 27.397C0.106036 27.7591 0.322351 28.0764 0.631629 28.2795C0.942071 28.4809 1.31958 28.5512 1.6817 28.4751C2.04381 28.399 2.36109 28.1827 2.56423 27.8734L3.96466 25.7027H12.8434C13.4456 27.3272 14.9861 28.5036 16.8066 28.5036ZM16.8066 22.9018C17.5769 22.9018 18.207 23.532 18.207 24.3023C18.207 25.0725 17.5769 25.7027 16.8066 25.7027C16.0364 25.7027 15.4062 25.0725 15.4062 24.3023C15.4062 23.532 16.0364 22.9018 16.8066 22.9018ZM6.30338 6.75486C6.27537 7.14699 6.55546 7.49709 6.94758 7.49709H7.00359C7.3397 7.49709 7.61978 7.24502 7.64779 6.90891C7.78784 5.69054 7.70381 4.96231 6.33139 3.35182C5.82723 2.74963 5.49113 2.38552 5.58916 1.18115C5.63117 0.817033 5.32308 0.494934 4.94496 0.494934H4.87494C4.53883 0.494934 4.24474 0.761016 4.21674 1.09712C4.1047 2.39952 4.49682 3.53387 5.54715 4.64021C5.81323 4.9343 6.44342 5.42445 6.30338 6.75486ZM9.79045 6.75486C9.74844 7.14699 10.0425 7.49709 10.4347 7.49709H10.4767C10.8128 7.49709 11.0929 7.24502 11.1209 6.90891C11.2609 5.69054 11.1769 4.96231 9.80446 3.35182C9.3003 2.74963 8.9502 2.38552 9.06223 1.18115C9.10424 0.817033 8.79615 0.494934 8.41803 0.494934H8.34801C8.01191 0.494934 7.71781 0.761016 7.68981 1.09712C7.57777 2.39952 7.96989 3.53387 9.02022 4.64021C9.2863 4.9343 9.91649 5.42445 9.79045 6.75486ZM13.3055 6.75486C13.2775 7.14699 13.5576 7.49709 13.9497 7.49709H14.0058C14.3419 7.49709 14.6219 7.24502 14.65 6.90891C14.79 5.69054 14.706 4.96231 13.3335 3.35182C12.8294 2.74963 12.4793 2.38552 12.5913 1.18115C12.6333 0.817033 12.3252 0.494934 11.9471 0.494934H11.8771C11.541 0.494934 11.2469 0.761016 11.2189 1.09712C11.1069 2.39952 11.499 3.53387 12.5493 4.64021C12.8154 4.9343 13.4456 5.42445 13.3055 6.75486Z" fill="#B4151B"/>
</svg>
