<svg width="20" height="20" viewBox="0 0 20 20" fill="none" xmlns="http://www.w3.org/2000/svg">
<path d="M10 0C4.42857 0 0 4.42857 0 10C0 15.5714 4.42857 20 10 20C15.5714 20 20 15.5714 20 10C20 4.42857 15.5714 0 10 0ZM14.4286 14.4286C14.113 14.7442 13.6013 14.7442 13.2857 14.4286L10.7071 11.85C10.3166 11.4594 9.68342 11.4594 9.29289 11.85L6.71429 14.4286C6.3987 14.7442 5.88702 14.7442 5.57143 14.4286V14.4286C5.25584 14.113 5.25584 13.6013 5.57143 13.2857L8.15004 10.7071C8.54056 10.3166 8.54056 9.68342 8.15004 9.29289L5.57143 6.71429C5.25584 6.3987 5.25584 5.88702 5.57143 5.57143V5.57143C5.88702 5.25584 6.3987 5.25584 6.71429 5.57143L9.29289 8.15004C9.68342 8.54056 10.3166 8.54056 10.7071 8.15004L13.2857 5.57143C13.6013 5.25584 14.113 5.25584 14.4286 5.57143V5.57143C14.7442 5.88702 14.7442 6.3987 14.4286 6.71429L11.85 9.29289C11.4594 9.68342 11.4594 10.3166 11.85 10.7071L14.4286 13.2857C14.7442 13.6013 14.7442 14.113 14.4286 14.4286V14.4286Z" fill="#CCCCCC"/>
</svg>
