<?xml version="1.0" encoding="UTF-8"?><svg id="Layer_1" xmlns="http://www.w3.org/2000/svg" viewBox="0 0 344.7 344.7"><defs><style>.cls-1{fill:none;}.cls-1,.cls-2,.cls-3,.cls-4,.cls-5,.cls-6,.cls-7,.cls-8,.cls-9,.cls-10,.cls-11,.cls-12,.cls-13,.cls-14{stroke-width:0px;}.cls-2{fill:#195b3b;}.cls-3{fill:#0f3f1f;}.cls-4{fill:#0e5230;}.cls-5{fill:#064e2b;}.cls-6{fill:#135635;}.cls-7{fill:#1d5836;}.cls-8{fill:#155736;}.cls-9{fill:#155533;}.cls-10{fill:#115534;}.cls-11{fill:#ea7624;}.cls-12{fill:#ea7424;}.cls-13{fill:#eb7624;}.cls-14{fill:#eb7724;}</style></defs><rect class="cls-1" width="344.7" height="344.7"/><path class="cls-12" d="m13.53,147.83c6.87-.03,13.75,0,20.63-.14,2.07-.04,1.71,1.22,1.71,2.41,0,10.32.26,20.64-.08,30.95-.29,8.8,2.28,13.09,13.21,14.91,2.08.34,4.21.5,6.31.48,2.15-.03,1.63,1.43,1.56,2.52-.07,1,.84,2.63-1.44,2.58-11.21-.22-22.39-.67-33.22-3.97-3.57-1.09-6.96-2.63-8.68-6.33v-43.4h0Z"/><path class="cls-6" d="m331.17,149.41c-1.53-.37-2.52.32-3.25,1.6-1.62,2.82-3.4,5.55-4.88,8.45-1.24,2.44-.5,5.16-.43,7.75.03,1.01,1.22.72,1.98.78.52.04,1.13-.01,1.17.72.04.76-.58.77-1.1.78-2.64.02-5.28,0-7.92.01-.55,0-1.15-.02-1.2-.7-.04-.69.52-.86,1.09-.78,2.13.28,2.32-.91,2.45-2.68.23-3.32-.38-6.28-2.62-8.78-2.13-2.39-2.32-6.42-6.2-7.35-.15-.04-.28-.6-.25-.92.04-.45.47-.44.81-.44,2.46-.01,4.93,0,7.39-.02.47,0,.91.06.95.64.04.69-.38.88-1,.87-2.23-.06-1.73,1-.92,2.23,1.43,2.18,2.82,4.37,4.43,6.88,1.46-2.51,2.76-4.66,3.97-6.86.64-1.17.34-2.05-1.14-2.22-.57-.07-1.39.11-1.31-.83.09-1.14,1.06-.67,1.66-.68,2.11-.06,4.23-.02,6.34-.02v1.59h0Z"/><path class="cls-5" d="m103.53,190.7c-.24,2.89-2.4,4.16-4.61,5.29-4.86,2.48-10.18,3.39-15.5,4.15-6.9.99-13.86,1.28-20.83,1.47-1.46.04-2.45-.05-2.16-1.89.23-1.42-.86-3.41,2.14-3.31,3.88.12,7.72-.5,11.41-1.87,5.2-1.95,7.47-5.02,7.49-10.56.04-11.11.11-22.22-.05-33.33-.04-2.54.77-3.03,3.09-2.95,6.16.19,12.34.13,18.51.17,0,13.37-.01,26.74.01,40.11,0,.92-.35,1.96.51,2.74h0Z"/><path class="cls-11" d="m251.25,183.05c0,4.54.01,9.08,0,13.63-.01,2.41,1.85,2.86,3.59,3.3-.02,1.17-.79.95-1.34.95-4.76.02-9.53.02-14.29,0-.57,0-1.48.27-1.59-.49-.17-1.18.92-.71,1.51-.83,1.08-.2,1.42-.67,1.15-1.83-.8-3.49-1.16-3.85-4.65-3.85-.97,0-1.95.11-2.91-.02-2.5-.35-2.54,1.66-3.08,3.13-.6,1.65.4,2.23,1.84,2.41.47.06.89.22.84.79-.06.75-.68.68-1.19.68-4.94.01-9.88.01-14.82,0-.51,0-1.16.09-1.22-.66-.06-.75.53-.81,1.08-.77,2.07.14,2.21-1.15,2.19-2.74-.05-4.41-.05-8.82,0-13.23.02-1.67-.07-3.08-2.31-2.88-.45.04-.92-.07-.96-.64-.05-.73.48-.83,1.05-.83h7.67c.6,0,1.06.18,1.02.87-.04.61-.55.63-.97.59-2.04-.17-2.25,1.05-2.22,2.67.06,4.32-.01,8.64.04,12.96.02,1.21-.59,2.91,1.42,3.13,1.84.2,3.79.3,4.68-1.95,1.1-2.79,2.2-5.57,3.29-8.36,1.12-2.87,2.21-5.75,3.37-8.61.24-.59.29-1.53,1.22-1.53s.98.93,1.22,1.52c2.26,5.54,4.52,11.08,6.66,16.67.71,1.85,1.71,2.75,3.75,2.35,2.03-.4,2.38-1.78,2.37-3.52-.03-4.15-.05-8.29.02-12.43.03-1.69-.08-3.06-2.31-2.83-.58.06-1.11-.13-1.02-.85.06-.52.53-.64,1-.64,1.85,0,3.7.02,5.55,0,1.25-.02,1.29.99,1.58,1.78,1.55,4.31,3.07,8.63,4.61,12.93.14.38.09.91.91,1.04,1.48-4.33,3.13-8.65,4.41-13.08.65-2.23,1.75-3,3.92-2.7.78.11,1.59-.03,2.38.03.73.06,1.91-.4,2.01.64.12,1.19-1.13.77-1.82.87-1.21.17-1.27,1.02-1.27,1.95,0,4.94.1,9.88-.04,14.81-.07,2.49,1.99,1.86,3.36,2.3-.49,1.35-1.38,1.05-2.08,1.06-2.29.03-4.59.02-6.88,0-.43,0-.95-.01-.97-.61-.02-.59.49-.7.93-.67,2.16.2,2.41-1.06,2.38-2.81-.07-4.47-.03-8.94-.59-13.54-1.44,4.09-2.87,8.19-4.29,12.29-.46,1.33-.86,2.68-1.35,4.01-.2.52-.22,1.31-1.09,1.28-.82-.03-.88-.75-1.08-1.3-1.9-5.21-3.79-10.42-5.69-15.63-.12-.32-.31-.61-.46-.92-.16.01-.33.02-.5.03v.03Zm-16.46.63c-1.17,2.93-2.09,5.23-3.01,7.54-.32.82.02,1.13.83,1.1,1.74-.05,4.01.54,5.07-.33,1-.82-.77-2.72-1.23-4.17-.38-1.21-.94-2.36-1.66-4.14h0Z"/><path class="cls-14" d="m205.77,183.01c-1.78,5.21-3.55,10.43-5.38,15.63-.29.83-.13,2.23-1.45,2.18-1.06-.04-.99-1.29-1.28-2.07-1.94-5.25-3.86-10.52-6.26-15.71,0,4.75-.06,9.5.03,14.25.04,2.07,2.01,2.29,3.7,2.67l-.26.93c-2.71,0-5.43.01-8.14-.01-.4,0-.63-.3-.56-.71.07-.41.42-.52.78-.55,2.5-.24,2.79-2.02,2.79-4,0-4.14-.03-8.28.02-12.42.02-1.54-.26-2.64-2.13-2.51-.62.04-1.38.04-1.27-.86.08-.63.74-.64,1.29-.64,1.67,0,3.35.06,5.02-.02,1.51-.07,1.62,1.1,1.96,2.05,1.65,4.58,3.26,9.18,5.15,14.5,1.71-5.01,3.12-9.31,4.65-13.58.37-1.01.23-2.66,1.54-2.82,2.07-.26,4.2-.06,6.31.01.31.01.5.48.39.86-.12.4-.47.52-.83.48-2.28-.23-2.29,1.27-2.28,2.89.03,4.41.04,8.81,0,13.22-.02,1.58.13,2.86,2.19,2.73.46-.03.9.1.95.67.05.59-.37.75-.84.75-2.64.01-5.28,0-7.93,0-.46,0-.89-.11-.91-.68-.01-.57.4-.77.87-.72,2.36.24,2.45-1.21,2.41-2.98-.07-4.49-.03-8.98-.03-13.47-.18-.02-.35-.04-.53-.07h.02Z"/><path class="cls-8" d="m216.78,148.04c5.69-.44,11.39-.12,17.08-.22.71-.01,1.44-.07,1.47,1,.06,1.94.2,3.87.24,5.8,0,.28-.24.74-.47.82-.47.15-.82-.13-.93-.65-.07-.34-.15-.69-.26-1.02-1.16-3.79-4.94-5.76-8.69-4.58-.67.21-1.1.57-1.1,1.28-.03,2.02-.03,4.05-.04,6.07,0,.65.33.94.98.9,1.37-.07,2.58-.35,3.36-1.68.46-.77.02-2.47,1.24-2.23,1.24.25.52,1.8.58,2.76.11,1.67.04,3.35.03,5.02,0,.59.21,1.42-.53,1.59-.89.21-.79-.69-.97-1.24-.21-.67-.43-1.33-1-1.82-.93-.81-2.09-1.21-3.18-.84-1.06.36-.41,1.53-.51,2.34-.1.78-.17,1.62.01,2.37.35,1.45-1.16,3.54,1.26,4.28,2.89.89,7.17-.15,8.27-1.96.49-.82.75-1.77,1.12-2.66.3-.74-.04-2.19,1.15-1.96,1.07.21.41,1.53.39,2.31-.19,5.78-.22,5.78-5.95,5.78-3.7,0-7.4.02-11.1-.02-.61,0-1.59.4-1.66-.7-.05-.87.75-.83,1.36-.78,1.87.13,1.87-1.13,1.87-2.44-.01-4.05,0-8.1,0-12.15,0-4.27-.78-4.9-5.05-4.08-.06-.75.6-.93,1.02-1.3h0Z"/><path class="cls-10" d="m251.01,158.62c2.48.96,3.17,2.88,3.54,5.03.15.86.39,1.72.64,2.56.2.66.35,1.53,1.19,1.54.85.01.99-.83,1.18-1.51.14-.52-.25-1.5.68-1.42,1.06.1.62,1.09.56,1.71-.21,2.09-1.26,3.47-3.5,3.57-2.18.1-3.19-1.22-3.51-3.18-.21-1.3-.28-2.63-.51-3.93-.13-.77-.31-1.58-.7-2.23-1.1-1.79-3.02-1.86-4.71-1.57-1.62.28-.65,1.9-.79,2.9-.15,1.12.03,2.29-.05,3.43-.13,1.67.23,2.8,2.25,2.56.53-.06,1.13.06,1.19.74.06.77-.59.75-1.1.75-2.56.02-5.11.02-7.67,0-.52,0-1.13.02-1.13-.75,0-.73.55-.84,1.1-.78,1.93.19,2.09-.94,2.07-2.47-.06-4.58-.05-9.17,0-13.75.02-1.48-.05-2.71-2.03-2.49-.56.06-1.11-.07-1.12-.77-.01-.78.65-.7,1.14-.7,3.97,0,7.94-.11,11.9.08,2.89.14,4.74,2.03,4.99,4.55.29,2.86-.76,4.38-3.8,5.5-.49.18-.99.35-1.81.65h.01Zm-6.13-5.06c.37,1.66-1.12,4.24,2.5,4.1,4.02-.15,5.87-1.36,5.89-4.38.03-3.03-1.56-4.05-5.62-4.24-4-.18-2.36,2.7-2.77,4.51h0Z"/><path class="cls-13" d="m158.29,190.1c.03,6.59-4.29,11.33-10.31,11.31-6.15-.02-10.45-4.77-10.42-11.51.03-6.45,4.51-11.25,10.48-11.23,5.94.03,10.22,4.8,10.25,11.43Zm-16.77-.08c.07,1.23.11,2.47.24,3.69.08.69.29,1.38.51,2.05.94,2.82,2.85,4.26,5.66,4.32,2.64.06,4.88-1.5,5.69-4.27,1.11-3.8,1.17-7.67,0-11.47-.92-3.01-2.86-4.32-5.91-4.26-2.8.06-4.58,1.49-5.51,4.45-.56,1.79-.71,3.63-.69,5.49h0Z"/><path class="cls-6" d="m260.29,165.31c0-1.05,0-2.11,0-3.17,0-.43-.03-.94.56-.99.5-.04.76.31.92.77.38,1.07.64,2.21,1.18,3.2,1.6,2.93,4.7,4.16,7.88,3.26,1.95-.55,2.94-1.89,3.03-3.84.08-1.8-.85-3.02-2.56-3.56-2.09-.66-4.25-1.14-6.31-1.9-3.91-1.45-5.21-3.86-4.24-7.55.79-3.01,3.98-4.8,7.58-4.13,1.1.21,2.15.74,3.2,1.18.5.21.89,1,1.48.1.32-.49.62-1.24,1.36-1.01.89.29.55,1.19.58,1.84.09,1.58.12,3.17.16,4.75.01.43.1.96-.45,1.09-.52.12-.74-.32-.92-.74-.43-.96-.78-1.97-1.33-2.85-1.5-2.42-4.13-3.5-6.84-2.83-1.47.36-2.55,1.16-2.75,2.81-.2,1.7.39,2.98,2.07,3.52,1.75.57,3.54,1.02,5.31,1.54,4.93,1.42,7.04,4.72,5.74,8.95-1.1,3.54-5.71,5.38-9.97,3.93-.74-.25-1.54-.52-2.13-1-.84-.66-1.33-.59-1.82.33-.24.46-.6.95-1.22.64-.58-.29-.39-.92-.4-1.42-.02-.97,0-1.94,0-2.9h-.1v-.02Z"/><path class="cls-7" d="m120.57,172.15v-36.46c0-.53.02-1.06,0-1.58-.04-.7.09-1.27.94-1.23.93.03.78.76.8,1.36.01.44,0,.88,0,1.32v73.46c0,.53.01,1.06,0,1.58-.02.62.01,1.3-.93,1.24-.93-.06-.78-.77-.8-1.37-.02-.53,0-1.06,0-1.58v-36.73h0Z"/><path class="cls-14" d="m167.39,179.2c2.38,0,4.76.05,7.13-.02,1.24-.04,1.74.39,1.74,1.64,0,1.58.18,3.16.24,4.74.02.48.25,1.15-.47,1.32-.88.21-.95-.49-1.07-1.12-.91-4.91-3.26-5.23-8.56-5.1-.79.02-1.4.4-1.41,1.25-.04,2.02-.39,4.14.08,6.05.49,1.94,2.11.63,3.19.26.77-.26,1.1-1.09,1.35-1.86.2-.61.03-1.63,1.1-1.4.82.17.47,1.02.48,1.58.04,2.02.05,4.05,0,6.07-.02.6.41,1.58-.68,1.67-.9.08-.73-.8-.87-1.35-.19-.7-.47-1.34-1.04-1.8-.87-.7-1.99-.99-2.98-.74-1.15.29-.59,1.48-.65,2.28-.08,1.23.05,2.47-.04,3.7-.14,1.93.15,3.36,2.61,3.06.53-.06,1.1.12,1.01.86-.07.56-.56.61-1,.61-2.73.01-5.46,0-8.19,0-.38,0-.71-.12-.78-.53-.08-.54.23-.87.74-.83,2.67.24,2.4-1.58,2.4-3.29-.02-4.32-.03-8.63,0-12.94.01-1.44-.05-2.72-2.01-2.62-.52.03-1.16.05-1.12-.73.05-.92.82-.75,1.4-.76,2.47-.02,4.93,0,7.4-.01h-.01Z"/><path class="cls-6" d="m179.14,163.71c.03,1.49.11,2.99.08,4.49-.01.62.42,1.54-.55,1.8-.87.23-1.18-.65-1.57-1.18-3.47-4.66-6.92-9.34-10.37-14.01-.5-.67-1.02-1.32-1.98-2.55,0,5.05-.05,9.37.03,13.7.03,1.33,1.01,1.96,2.3,2.11.53.06,1.14.19,1.02.91-.13.73-.8.52-1.28.52-1.94.02-3.88.02-5.81,0-.49,0-1.15.13-1.2-.64-.03-.53.44-.72.88-.8,2.04-.39,2.29-1.9,2.29-3.6,0-4.14-.05-8.28.02-12.42.03-1.62-.22-2.8-2.16-2.89-.49-.02-1.18-.1-1.05-.85.12-.7.79-.5,1.29-.57,2.98-.38,5.25.22,7.03,3.13,2.52,4.11,5.62,7.87,8.5,11.77.25.34.43,1.05,1.14.55.14-.01.29-.02.43-.02.16.17.33.34.49.51.15,0,.31.01.46.01v.02Z"/><path class="cls-2" d="m299.65,147.81c2.47,0,4.94-.01,7.4.01.58,0,1.49-.23,1.56.57.22,2.45.27,4.91.35,7.38,0,.14-.32.39-.51.41-.45.05-.56-.36-.65-.69-.28-1.11-.48-2.23-.79-3.33-.41-1.44-1.27-2.48-2.77-2.92-1.93-.57-3-.25-2.94,2.13.12,4.76.07,9.52.01,14.27-.02,1.62.39,2.57,2.21,2.37.61-.07,1.34-.1,1.27.84-.08.96-.89.65-1.44.65-2.47.03-4.94.02-7.4,0-.56,0-1.37.26-1.42-.69-.05-.93.72-.87,1.31-.8,1.93.21,2.12-.92,2.1-2.44-.05-4.58,0-9.16-.04-13.74-.01-.96.54-2.34-.88-2.72-1.53-.41-3-.05-3.99,1.34-1,1.4-1.29,3.06-1.55,4.72-.08.54-.2,1.13-.91.98-.55-.12-.42-.67-.42-1.1,0-.09.02-.17.02-.26-.06-4.64,2.22-6.96,6.86-6.96h2.64,0Z"/><path class="cls-10" d="m216.78,148.04c-.42.37-1.08.56-1.02,1.3-1.2.61-1.68,1.73-2.12,2.9-2,5.25-3.98,10.52-6.03,15.75-.3.75-.21,1.99-1.33,2.05-1.18.06-1.13-1.21-1.42-1.94-2.19-5.46-4.31-10.96-6.44-16.44-.44-1.14-.7-2.43-2.36-2.4-.47.01-.87-.21-.87-.76,0-.79.64-.72,1.13-.73,2.29-.02,4.58-.02,6.87,0,.51,0,1.16-.1,1.21.65.04.68-.51.85-1.08.84-1.94-.05-1.92.87-1.32,2.34,1.69,4.15,3.29,8.32,5.12,12.97,1.73-4.46,3.36-8.5,4.86-12.59.56-1.53,0-2.61-1.83-2.64-.64-.01-1.02-.28-.92-.95.08-.59.59-.57,1.02-.55,2.19.12,4.39-.27,6.57.21h-.01Z"/><path class="cls-11" d="m278.25,189.91c0-2.11-.04-4.23.02-6.33.04-1.63.03-3.1-2.25-2.9-.44.04-.92-.04-.97-.62-.06-.74.49-.84,1.03-.84,2.55-.02,5.1,0,7.66-.01.47,0,.94.08,1.02.6.11.71-.41.91-.98.87-2.07-.17-2.21,1.11-2.19,2.7.05,4.49.06,8.98-.01,13.47-.03,1.65.23,2.82,2.23,2.68.47-.03.92.11.95.66.04.78-.58.76-1.1.76-2.46.02-4.93.02-7.39,0-.49,0-1.15.12-1.22-.62-.07-.74.53-.83,1.07-.79,2.1.14,2.19-1.2,2.15-2.75-.05-2.29-.02-4.58-.01-6.86h0Z"/><path class="cls-2" d="m189.58,147.81c1.23,0,2.46-.01,3.7,0,.51,0,1.14-.03,1.08.76-.04.49-.4.81-.91.74-2.31-.3-2.28,1.18-2.26,2.8.04,4.4.04,8.8,0,13.2-.01,1.52-.06,2.93,2.12,2.67.58-.07,1.09.16,1.05.84-.04.74-.68.67-1.19.67-2.55.01-5.1,0-7.66,0-.55,0-1.08-.07-1-.84.06-.56.46-.72.93-.67,2.23.26,2.35-1.1,2.32-2.79-.06-4.4-.05-8.8-.01-13.2.01-1.53.03-2.92-2.12-2.71-.55.05-1.12-.04-1.13-.75-.01-1.01.82-.71,1.36-.74,1.23-.04,2.46-.02,3.7-.02v.02Z"/><path class="cls-2" d="m283.26,169.51c-1.32,0-2.64.01-3.96,0-.53,0-1.1-.04-1.04-.81.04-.56.47-.74.93-.68,2.25.28,2.33-1.09,2.3-2.77-.07-4.49-.06-8.98,0-13.46.02-1.5-.13-2.67-2.07-2.45-.56.06-1.1-.06-1.15-.75-.06-.8.58-.75,1.09-.75,2.55-.02,5.1-.01,7.66,0,.53,0,1.14.04,1.11.77-.04.69-.61.79-1.16.73-1.99-.22-2.05,1.05-2.04,2.5.03,4.58.04,9.15,0,13.73-.02,1.5.16,2.67,2.1,2.45.58-.07,1.12.14,1.12.79,0,.72-.64.71-1.16.72-1.23.01-2.46,0-3.7,0h0Z"/><path class="cls-4" d="m143.78,169.51c-3.57-.84-5.17-2.72-5.26-6.49-.09-3.7-.07-7.4,0-11.09.03-1.69-.07-3.06-2.29-2.82-.45.05-.94-.02-1-.59-.07-.79.55-.75,1.07-.75,2.47,0,4.93-.01,7.4,0,.48,0,1.14-.2,1.21.6.05.68-.39.92-1.01.86-2.12-.2-2.16,1.16-2.13,2.71.05,3.52.02,7.04.02,10.56,0,2.61.89,4.64,3.59,5.5.05,1.11-1.21.82-1.58,1.48h0Z"/><path class="cls-9" d="m143.78,169.51c.37-.66,1.63-.37,1.58-1.48,1.31.1,2.61.32,3.93.08,2.46-.43,4.09-1.71,4.16-4.32.12-4.13.11-8.26.12-12.39,0-1.69-1.02-2.29-2.56-2.3-.44,0-.91-.11-.87-.7.03-.6.52-.62.95-.63,2.11-.02,4.22-.02,6.33-.01.44,0,.93.02,1.02.57.1.59-.36.77-.81.77-2.44,0-2.53,1.65-2.52,3.44.02,2.99.06,5.98-.01,8.97-.17,6.99-4.46,10-11.33,8v.02Z"/><path class="cls-2" d="m179.14,163.71c-.15,0-.31,0-.46-.01,0-3.16.03-6.32-.01-9.49-.01-.79.4-1.85-.91-2.13-.24-1.65-1.01-2.79-2.82-2.95-.45-.04-.92-.19-.88-.75.04-.57.53-.62.97-.62,2.12-.01,4.23-.01,6.35,0,.42,0,.93-.04,1.05.53.1.5-.12.86-.64.94-2.55.37-2.53,2.27-2.54,4.19-.02,3.43-.07,6.87-.11,10.3h0Z"/><path class="cls-3" d="m103.53,190.7c-.86-.78-.5-1.82-.51-2.74-.02-13.37-.01-26.74-.01-40.11,1,.07.7.86.7,1.39.01,13.65,0,27.3-.02,40.95,0,.16-.11.33-.16.5Z"/><path class="cls-3" d="m177.77,152.09c1.31.27.9,1.33.91,2.13.04,3.16.01,6.32.01,9.49-.16-.17-.33-.34-.49-.51-.22-3.35.48-6.74-.4-10.07l-.03-1.03h0Z"/><path class="cls-2" d="m177.8,153.12c.87,3.33.17,6.71.4,10.07-.14,0-.29.01-.43.02.01-3.36.03-6.73.04-10.09Z"/></svg>