<?xml version="1.0" encoding="UTF-8"?><svg id="Layer_1" xmlns="http://www.w3.org/2000/svg" xmlns:xlink="http://www.w3.org/1999/xlink" viewBox="0 0 344.7 344.7"><defs><style>.cls-1{fill:none;}.cls-1,.cls-2,.cls-3,.cls-4,.cls-5,.cls-6,.cls-7,.cls-8,.cls-9,.cls-10,.cls-11,.cls-12,.cls-13,.cls-14,.cls-15,.cls-16,.cls-17,.cls-18{stroke-width:0px;}.cls-2{fill:url(#linear-gradient);}.cls-3{fill:url(#linear-gradient-4);}.cls-4{fill:url(#linear-gradient-2);}.cls-5{fill:url(#linear-gradient-3);}.cls-6{fill:url(#linear-gradient-8);}.cls-7{fill:url(#linear-gradient-7);}.cls-8{fill:url(#linear-gradient-5);}.cls-9{fill:url(#linear-gradient-6);}.cls-10{fill:#2bace2;}.cls-11{fill:#595a5c;}.cls-12{fill:#61a744;}.cls-13{fill:#6dcff6;}.cls-14{fill:#231f20;}.cls-15{fill:#818285;}.cls-16{fill:#fff;}.cls-17{fill:#e6e5e5;}.cls-18{fill:#005389;}</style><linearGradient id="linear-gradient" x1="101.77" y1="-97.38" x2="133.61" y2="-97.38" gradientTransform="translate(0 75.52) scale(1 -1)" gradientUnits="userSpaceOnUse"><stop offset="0" stop-color="#2bace2"/><stop offset="1" stop-color="#fff"/></linearGradient><linearGradient id="linear-gradient-2" x1="176.4" y1="-70.99" x2="176.53" y2="-70.99" xlink:href="#linear-gradient"/><linearGradient id="linear-gradient-3" x1="115.36" y1="-77.83" x2="175.74" y2="-77.83" xlink:href="#linear-gradient"/><linearGradient id="linear-gradient-4" x1="240.03" y1="-98.57" x2="240.27" y2="-98.57" xlink:href="#linear-gradient"/><linearGradient id="linear-gradient-5" x1="240.02" y1="-100.5" x2="240.03" y2="-100.5" xlink:href="#linear-gradient"/><linearGradient id="linear-gradient-6" x1="239.81" y1="-101.53" x2="239.83" y2="-101.53" xlink:href="#linear-gradient"/><linearGradient id="linear-gradient-7" x1="176.59" y1="-70.88" x2="177.07" y2="-70.88" xlink:href="#linear-gradient"/><linearGradient id="linear-gradient-8" x1="171.95" y1="-111.96" x2="219.9" y2="-65.38" xlink:href="#linear-gradient"/></defs><rect class="cls-1" width="344.7" height="344.7"/><path class="cls-10" d="m242.23,109.96c-19.28-10.56-44.03-16.38-69.68-16.38s-50.39,5.82-69.67,16.38h0c-26.42,14.49-41.57,37.23-41.57,62.39s15.15,47.9,41.57,62.39c19.27,10.57,44.01,16.39,69.67,16.39s50.41-5.82,69.68-16.39c26.42-14.5,41.57-37.23,41.57-62.39s-15.15-47.89-41.57-62.39h0Zm-.6,123.67c-19.09,10.47-43.62,16.24-69.07,16.24s-49.98-5.76-69.07-16.24c-26-14.25-40.91-36.59-40.91-61.28s14.91-47.02,40.91-61.28h0c19.09-10.47,43.62-16.23,69.06-16.23s49.98,5.76,69.07,16.23c26,14.27,40.92,36.61,40.92,61.28s-14.92,47.02-40.92,61.28h0Z"/><path class="cls-16" d="m241.62,111.07c-19.09-10.47-43.62-16.23-69.07-16.23s-49.97,5.76-69.06,16.23h0c-26,14.26-40.91,36.6-40.91,61.28s14.92,47.02,40.91,61.28c19.09,10.47,43.62,16.24,69.07,16.24s49.98-5.76,69.07-16.24c26-14.26,40.92-36.6,40.92-61.28s-14.92-47.02-40.92-61.28h0Zm-1.01,120.72c-18.79,10.3-42.96,15.98-68.06,15.98s-49.27-5.67-68.06-15.98c-25.31-13.88-39.82-35.54-39.82-59.44s14.51-45.55,39.82-59.43c18.79-10.3,42.95-15.97,68.06-15.97s49.27,5.68,68.06,15.97c25.3,13.89,39.83,35.54,39.83,59.43s-14.53,45.56-39.83,59.44Z"/><path class="cls-18" d="m240.6,112.91c-18.79-10.3-42.96-15.97-68.06-15.97s-49.27,5.68-68.06,15.97c-25.31,13.89-39.82,35.54-39.82,59.43s14.51,45.56,39.82,59.44c18.79,10.3,42.96,15.98,68.06,15.98s49.27-5.67,68.06-15.98c25.3-13.88,39.83-35.54,39.83-59.44s-14.53-45.55-39.83-59.43Zm-5.77,109.75c-17.06,9.52-39.18,14.77-62.28,14.77s-45.22-5.24-62.28-14.77c-21.5-12-33.83-30.34-33.83-50.32s12.34-38.31,33.83-50.31c17.06-9.52,39.17-14.77,62.28-14.77s45.23,5.24,62.28,14.77c21.5,12,33.83,30.34,33.83,50.31s-12.33,38.32-33.83,50.32Z"/><path class="cls-17" d="m235.84,120.24c-17.35-9.69-39.83-15.03-63.28-15.03s-45.93,5.34-63.29,15.03c-22.17,12.37-34.89,31.37-34.89,52.1s12.72,39.74,34.89,52.11c17.36,9.69,39.84,15.03,63.29,15.03s45.92-5.34,63.28-15.03c22.17-12.37,34.89-31.37,34.89-52.11s-12.72-39.73-34.89-52.1Zm-15.72,77.82c-12.73,7.22-29.68,11.2-47.71,11.2s-34.99-3.97-47.71-11.2c-12.37-7.01-19.17-16.19-19.17-25.84s6.81-18.84,19.17-25.85c12.73-7.22,29.68-11.2,47.71-11.2s34.98,3.97,47.71,11.2c12.37,7.01,19.17,16.19,19.17,25.85s-6.81,18.83-19.17,25.84h0Z"/><path class="cls-16" d="m40.16,158.68v1.67c23.95,5.54,47.9-5.54,71.85,0v-1.67c-23.95-5.58-47.9,5.58-71.85,0Z"/><path class="cls-14" d="m40.16,187.35v.9c24.04,8.03,49.25-4.88,71.85,2.24v-3.14c-23.95-5.55-47.9,5.54-71.85,0Z"/><path class="cls-18" d="m112.01,188.08c-23.95-5.54-47.9,5.54-71.85,0v-27.74c23.95,5.54,47.9-5.54,71.85,0v27.74Z"/><path class="cls-16" d="m54.83,166.97c-3.97.04-9.95,1.63-9.95,3.94,0,.61.34,1.29.98,1.4l.11.02v-.12c.18-2.53,5.43-3.96,8.07-3.97,1.68.04,2.53.65,2.53,1.82,0,1.31-.78,2.78-2.08,3.9-1.24,1.07-2.72,1.62-3.97,1.48.85-2.86,1.62-4.87,2.12-5.51l.07-.09-.09-.06c-.26-.18-.74-.32-1.2-.23-.33.07-.6.26-.77.54-.57.93-1.48,3.14-2.08,5.08-.38-.12-.98-.44-1.24-.73l-.11-.12-.07.15c-.18.44-.2.86-.04,1.21.18.37.54.66,1.08.85-.46,1.59-.74,3.16-.74,3.99,0,.46.19.86.53,1.12.26.21.59.31.97.31.18,0,.38-.02.58-.07l.12-.03-.06-.12c-.12-.24-.18-.73-.18-1.11,0-.82.23-2.05.7-3.77,1.62.17,3.83-.76,5.68-2.37,1.72-1.51,2.71-3.3,2.71-4.91s-1.31-2.56-3.69-2.61h.01Z"/><path class="cls-16" d="m60.78,174.02c-1.12.04-1.93,1.27-2.34,2.58,0-.23.02-.46.02-.66,0-.87-.17-1.62-.79-1.61-.37,0-.75.19-1.01.42.35.5.4,1.41.4,2.33,0,1.12-.54,2.65-.54,3.56s.76.98,1.39.97c.17-2.47,1-5.99,2.64-6.04.4-.01.73.11,1,.3.65-1.15.15-1.87-.75-1.84h-.01Z"/><path class="cls-16" d="m64.08,177.8c1.53-.1,3.07-1.26,3.07-2.97,0-.78-.58-1.12-1.31-1.06-2.18.15-3.98,2.8-3.98,5.17,0,1.59.79,2.27,2.3,2.17,1.45-.09,2.97-1.17,2.97-1.85,0-.27-.17-.44-.17-.44-.56.75-1.51,1.25-2.17,1.29-.91.06-1.24-.68-1.24-1.73,0-.16.02-.39.06-.59.15.01.31.03.48.01Zm1.1-3.03c.23-.01.33.16.33.46,0,.91-.68,1.76-1.43,1.81-.08,0-.21.01-.31,0,.29-1.09.87-2.22,1.41-2.25h0Z"/><path class="cls-16" d="m76.52,173.19c-1.16.09-2.74,2.23-3.42,3.56.12-.6.37-1.63.35-2.2-.02-.62-.4-1.04-1-.99-1.01.09-2.53,2.13-3.11,3.34.12-.35.52-2.14.52-2.85,0-.95-1.14-.82-1.78-.36.12.24.12.72.12.99,0,1.53-.98,4.09-.98,5.37,0,.82.89.82,1.43.78.15-2.02,2.26-5.79,2.97-5.85.35-.03.02,1.59-.29,2.92-.17.7-.29,1.42-.29,1.69,0,.59.52.84,1.31.8.04-1.4,2.51-5.66,3.36-5.73.5-.04-.48,3.03-.48,4.6,0,.68.23,1.1.79,1.06.37-.03.85-.27,1.08-.51-.17-.19-.27-.53-.27-.92,0-1.37.66-2.88.66-4.61,0-.73-.41-1.13-.98-1.09h.02Z"/><path class="cls-16" d="m81.76,168.82c0-.46-.73-.62-1.45-.58-.04.73-.31,2.07-.46,2.7,1.18.38,1.91-1.34,1.91-2.12Z"/><path class="cls-16" d="m89.21,172.97c0-.5-.66-.62-1.49-.6-.06,1.84-2.65,5.98-3.42,6.01-.12,0-.17-.13-.17-.36,0-1.03.93-3.88.93-4.84,0-.57-.89-.73-1.7-.65.1.91-.12,2.09-.38,3.22-.65,1.29-2.1,2.86-2.88,2.91-.29.01-.33-.37-.33-.71,0-1.26.68-4.15,1.12-5.13-.79-.5-1.62-.12-1.93.76-.37,1.15-.89,3.58-.89,4.94,0,1.07.46,1.47,1.2,1.42,1.22-.09,2.5-1.25,3.31-2.36-.07.39-.12.75-.12,1.05,0,.75.48,1.03,1,1.01,1.33-.06,2.8-2,3.48-3.3-.12.64-.29,1.53-.29,2.06,0,.59.06,1.28.73,1.27.52,0,1.04-.23,1.24-.5-.18-.16-.31-.46-.31-.94,0-.55.15-1.57.37-2.62.23-1.05.52-2.09.52-2.64h0Z"/><path class="cls-16" d="m99.39,174.71c0-.73-.41-1.23-.98-1.32-1.16-.18-2.74,1.65-3.42,2.87.12-.58.37-1.56.35-2.13-.02-.62-.4-1.11-1-1.16-1.01-.09-2.53,1.75-3.11,2.89.12-.34.52-2.08.52-2.78,0-.96-1.14-.96-1.78-.57.12.26.12.73.12,1.01,0,1.53-.98,4-.98,5.27,0,.82.89.9,1.43.93.15-2.01,2.26-5.52,2.97-5.46.35.03.02,1.59-.29,2.88-.17.68-.29,1.37-.29,1.65,0,.59.52.92,1.31,1.01.04-1.4,2.51-5.22,3.36-5.08.5.07-.48,2.92-.48,4.49,0,.68.23,1.15.79,1.23.37.05.85-.08,1.08-.27-.17-.24-.27-.59-.27-.98,0-1.37.66-2.72.66-4.45h.02Z"/><path class="cls-16" d="m304.54,161.6v-1.67c-23.95,5.58-47.9-5.58-71.85,0v1.67c23.95-5.54,47.9,5.54,71.85,0Z"/><path class="cls-14" d="m232.69,188.6v3.14c22.6-7.11,47.82,5.79,71.85-2.24v-.9c-23.95,5.54-47.9-5.54-71.85,0Z"/><path class="cls-18" d="m232.69,189.34c23.95-5.54,47.9,5.54,71.85,0v-27.74c-23.95,5.54-47.9-5.54-71.85,0v27.74Z"/><path class="cls-16" d="m264.08,172.74c-.06,1.81-2.65,6.32-3.42,6.57-.12.03-.17-.1-.17-.32,0-1.04.93-4.08.93-5.04,0-.57-.89-.56-1.7-.26.21,1.73-.89,4.86-.89,6.35,0,.75.48.88.99.73,1.33-.4,2.8-2.58,3.48-3.97-.12.65-.29,1.57-.29,2.09,0,.59.06,1.26.73,1.18.52-.07,1.04-.34,1.24-.62-.18-.15-.31-.43-.31-.91,0-.55.15-1.59.37-2.65s.52-2.13.52-2.68c0-.5-.66-.59-1.49-.47h0Z"/><path class="cls-16" d="m285.19,171.26c0-.46-.73-.74-1.45-.84-.04.73-.31,2.01-.46,2.61,1.18.62,1.91-1,1.91-1.77Z"/><path class="cls-16" d="m290,181.07c0-.21-.21-.43-.21-.43-.35.48-.93.88-1.49.87-.52-.02-.6-.51-.6-1.29,0-.93.41-2.69.73-3.82.95.04,1.99-.03,2.34-.36.23-.17.21-.6.12-.82-.43.15-1.43.31-2.24.29.27-1.04.95-3.31.95-4.02,0-.48-.56-.7-1.34-.65-.08,1-.75,3.41-1.1,4.6-.27-.01-.62-.11-.93-.21-.18.76.15.95.7,1.06-.15.63-.32,1.31-.46,1.98-.62,1.24-2.14,2.65-2.94,2.54-.29-.04-.33-.43-.33-.78,0-1.26.68-4.01,1.12-4.91-.79-.65-1.62-.45-1.93.37-.19.54-.42,1.42-.59,2.32-.95,1.3-2.42,2.41-3.49,2.23-1.18-.21-1.43-1.62-1.43-3.26,0-.32.02-.66.06-.99,1.93-1.05,5.04-3.95,5.04-7.75,0-1.09-.56-1.91-1.58-2.08-2.57-.44-4.71,5.52-5.14,9.54-.79,1.61-2.04,3.62-2.88,3.52-.31-.04-.43-.35-.43-.93,0-1.19.66-3.47,1.06-4.56-.58-.45-1.47-.7-1.68-.17-.25-.35-.83-.59-1.12-.62-2.49-.24-4.41,3.09-4.41,5.44,0,1.09.54,1.6,1.33,1.62,1.1.01,2.57-1.73,3.28-2.93-.12.42-.18.92-.18,1.29,0,1.12.48,1.87,1.51,1.98,1.3.15,2.61-1.36,3.47-2.87.09,1.92.8,3.5,2.54,3.8,1.3.23,2.83-.74,3.84-1.85-.04.37-.07.71-.07,1.01,0,1.07.46,1.58,1.2,1.69,1.32.21,2.71-.93,3.5-2-.02.21-.03.4-.03.57,0,1.18.37,1.93,1.34,1.99.87.07,2.49-.54,2.49-1.4h-.01Zm-10.1-14.02c.29.05.35.45.35.97,0,2.92-1.97,5.77-3.19,6.63.37-3.06,1.82-7.78,2.84-7.61h0Zm-12.11,11.52c-.21,0-.31-.19-.31-.62,0-1.34,1.12-4.35,2.42-4.24.48.04.85.31,1.1.59-.76,1.89-2.51,4.29-3.22,4.27h0Z"/><path class="cls-16" d="m296.88,174.79c-.23.54-.46,1.22-.7,1.96-.51,1.13-2.67,4.02-3.41,3.99-.12,0-.15-.21-.12-.41.11-.95,1.34-3.69,1.46-4.81.05-.48.01-.84-.47-.83-.37,0-.9.15-1.18.25.08.21.07.64.04.95-.16,1.41-1.45,3.97-1.62,5.43-.06.52.07.87.5.9,1.2.07,3.05-1.67,4.22-3.49-.1.35-.32,1.11-.43,1.63-.82,3.12-1.83,5.84-3.25,5.82-1.34,0-2.72-2.16-2.8-3.25-.39.14-.95.47-1.01,1.01-.15,1.32,1.81,3.22,3.22,3.25,2.56.05,3.79-1.78,5.29-6.87.74-2.5,1.49-5.05,2.25-6.23-.92-.39-1.64-.07-1.98.69h0Z"/><path class="cls-16" d="m254.98,179.91c.95-1.03,1.84-2.31,2.53-3.8,2.16-4.63,1.73-9.4-.97-10.66s-6.62,1.48-8.78,6.12-1.73,9.4.97,10.66c1.48.69,3.33.18,5.05-1.2,1.62,1.71,3.8,3.03,6.34,2.46-1.58-.41-3.57-1.84-5.13-3.58h0Zm-5.52,1.34c-1.78-.8-1.74-4.76.1-8.83,1.83-4.08,4.76-6.74,6.54-5.95,1.78.8,1.74,4.76-.1,8.83-.58,1.3-1.28,2.45-2,3.39-.76-1.06-1.32-2.17-1.52-3.19-.12-1.87-2.87-1.45-2.41-1.04,0,0,.22-.15.73,1.73.21.76.93,2.28,2.06,3.76-1.23,1.17-2.47,1.7-3.4,1.29h0Z"/><path class="cls-14" d="m112.31,143.07c-.28-.27-.4-.29-.49-.2-.09.1-.11.15-.3.87-.51,1.8-1.43,2.88-1.89,3.34-3.5,3.54-7.97-.47-9.13-1.62-.82-.81-2.6-2.75-2.91-4.91-.11-.73-.02-2.09,1.31-3.44,1-1.01,3.07-2.25,4.35-1.24.57.46.65.53.97.2.37-.37.21-.52-.24-.97-.29-.29-1.51-1.74-1.7-1.93-.37-.36-.79-.35-1.2-.17-.5.23-1.23.68-2.41,1.88-1.95,1.98-3.31,4.26-3.71,6.75-.48,3.09.54,5.6,3.08,8.1,3.94,3.89,7.93,3.57,11.38.06,1.87-1.9,2.72-3.9,2.91-4.41.55-1.5.61-1.7-.01-2.31h0Z"/><path class="cls-14" d="m139.35,128.79c-.12-.32-.29-.28-.61-.17-.44.16-.46.32-.34.82.41,1.59-1.9,2.97-4.07,3.75-1.31.48-1.71.44-2.31-1.19-.4-1.18-1.12-3.04-1.56-4.24-.15-.41-.18-.73.19-1,.68-.5,4.61-1.79,5.07-2.12.47-.3.38-1.15.33-1.29-.08-.23-.26-.19-.57-.11l-3.04,1.12c-.7.26-2.29.83-2.68.65-.26-.11-.32-.14-1.2-2.57-.15-.41-.62-1.7-.61-1.98,0-.37.26-.66,1.94-1.27.98-.35,2.01-.52,2.8-.49,1.04.07,1.31.49,1.57.91.39.61.41.68.82.53.26-.1.41-.23.35-.41-.12-.35-.26-.65-.39-1-.09-.25-.44-1.53-.54-1.8-.26-.73-.79-.68-1.53-.41-1.87.68-3.71,1.47-5.59,2.14-2.05.74-4.16,1.37-6.21,2.11-.24.1-.36.16-.25.46.15.41.21.5.6.38,1.51-.47,1.88-.29,2.28.45.23.41,2.01,5.42,2.32,6.27.31.85,2.12,5.85,2.2,6.34.06.32.07.57-.03.8-.57.18-1.2.21-2.19-.1-1.78-.56-7.23-3.75-7.34-3.96-.12-.21.15-.53.37-.77,1.56-1.67,1.92-3.59.92-5.35-1.73-3.06-5.21-1.25-6.62-.44-1.71.97-3.36,2.05-5.07,3.03-1.2.68-2.47,1.26-3.66,1.95-.23.13-.32.21-.17.49.22.38.29.46.66.27,1.41-.72,1.8-.6,2.33.05.29.37,2.9,5,3.35,5.78.45.79,3.08,5.41,3.25,5.87.29.76.21,1.15-1.12,2.01-.35.23-.34.3-.13.66.17.29.29.26.52.12,1.22-.69,2.36-1.45,3.58-2.14,1.24-.7,2.5-1.31,3.74-2.01.25-.14.32-.24.15-.53-.19-.34-.27-.37-.62-.21-1.45.71-1.79.57-2.3-.07-.29-.35-2.49-4.16-2.78-4.68-.37-.65-.43-.85-.15-1.01.57-.32.76-.43,2.23.56,6.27,4.26,6.85,4.19,8.23,3.4.56-.32,1.26-.75,1.96-1.19.81-.31,2.83-1.12,3.35-1.31,1.15-.41,6.81-2.35,8.07-2.81.76-.27,1.45-.63,1.17-1.87-.07-.42-.53-2.06-.66-2.43h.01Zm-24.46,4.2c-.47.27-.76.35-.97.13-.17-.18-1.17-1.95-1.38-2.33-.25-.45-1.3-2.29-1.3-2.6.01-.35.42-.57.91-.86,1.96-1.12,3.33-.74,4.22.8,1.18,2.08.51,3.72-1.47,4.85h0Z"/><path class="cls-14" d="m154.2,125.69c-.07-.34-.25-.32-.58-.25-.46.1-.5.26-.45.76.18,1.63-2.31,2.67-4.56,3.14-1.37.29-1.76.19-2.12-1.51-.23-1.23-.68-3.17-.94-4.41-.09-.43-.08-.76.33-.96.73-.4,4.82-1.13,5.32-1.38.51-.23.54-1.09.51-1.23-.05-.24-.24-.23-.54-.18l-3.17.68c-.73.15-2.39.5-2.75.27-.24-.15-.3-.18-.83-2.72-.09-.43-.37-1.77-.32-2.05.06-.36.35-.62,2.1-.98,1.01-.21,2.07-.23,2.83-.1,1.02.21,1.23.67,1.42,1.12.29.66.31.73.74.65.28-.06.44-.17.4-.36-.07-.36-.17-.69-.24-1.04-.05-.26-.22-1.57-.28-1.86-.16-.76-.69-.78-1.45-.62-1.95.41-3.88.93-5.83,1.34-2.13.44-4.31.77-6.44,1.22-.26.05-.37.1-.31.41.09.43.13.52.54.46,1.56-.25,1.9-.02,2.2.76.17.44,1.23,5.65,1.41,6.54.18.88,1.26,6.09,1.29,6.58.04.82-.15,1.15-1.68,1.57-.4.11-.41.18-.33.59.07.33.2.33.46.28.54-.11,3.15-.76,3.76-.88,1.19-.25,7.07-1.37,8.39-1.65.79-.16,1.53-.42,1.42-1.69,0-.42-.23-2.12-.31-2.5v-.03Z"/><path class="cls-14" d="m182.73,119.07c-3.49-1.76-5.04-2.55-4.94-4.38.07-1.51,1.39-2.32,3.3-2.23,1.76.09,3.59.84,3.69,1.99.09.86.1.98.47,1,.57.03.57-.1.62-1.06.01-.34.2-1.89.21-2.14,0-.15.03-.54-.38-.73-.84-.43-3.76-.6-3.81-.61-4.58-.23-8.17,1.49-8.36,5.27-.11,2.17.95,3.2,4.96,5.18,2.73,1.36,3.87,1.93,3.79,3.61-.11,2.12-2.12,2.41-3.54,2.34-1.5-.07-4.1-1.06-4.46-2.62-.17-.72-.22-.72-.64-.74-.31-.01-.4.15-.46.42,0,.11-.22,1.59-.32,2.31-1.34-.87-5.04-4.93-7.01-7.3-.87-1.07-.98-1.18-1-1.42-.01-.26.35-.63.62-.87.44-.42,2.49-2.55,2.97-3.03,2.03-2.01,2.37-2.32,3.48-2.49.57-.09.56-.21.54-.54-.01-.26-.02-.39-.34-.37-.9.06-1.8.24-2.71.29-1.19.07-2.36.03-3.55.1-.31.01-.33.12-.31.46.01.24.05.41.54.38.26-.01,1.16-.07,1.2.58.01.24-.1.49-.46,1.01-.46.59-5.02,5.74-5.58,5.78-.13,0-.18-.09-.22-.21-.04-.24-.05-.43-.07-.7-.05-.8-.27-4.35-.24-4.94.08-.76.35-1.07,1.89-1.24.41-.05.43-.15.4-.57-.02-.32-.15-.36-.41-.34-1.45.1-2.89.31-4.33.4-1.37.09-2.75.05-4.12.14-.26.01-.39.04-.37.36.03.44.06.54.48.53,1.58-.03,1.89.25,2.06,1.06.11.46.41,5.76.47,6.67.06.9.39,6.21.35,6.7-.08.81-.32,1.12-1.89,1.31-.41.05-.43.12-.4.54.02.34.15.36.41.34,1.37-.09,2.71-.27,4.08-.35,1.45-.09,2.93-.09,4.38-.18.29-.01.38-.07.36-.41-.02-.39-.08-.46-.47-.46-1.59,0-1.86-.25-2.04-1.06-.11-.48-.4-5.06-.45-5.86-.01-.29-.05-.8.18-.82.18-.01.52.48.55.53,1.56,2.08,3.14,4.15,3.99,5.22,2.17,2.75,2.74,2.71,3.49,2.67.54-.04,1.08-.12,1.62-.18.82-.09,1.81-.18,2.76-.26,1.12.41,2.67.65,3.86.71,4.6.24,8.59-1.54,8.78-5.37.12-2.39-1.65-3.41-3.64-4.41v-.03Z"/><path class="cls-14" d="m202.49,117.41c-.06.51.06.58.4.63.46.07.47,0,.57-.55.07-.38.45-2.08.51-2.46.12-.75-.3-1.04-1.15-1.18-1.25-.21-3.02-.32-5.49-.73-3.27-.54-6.05-1.18-7.48-1.42-.64-.11-.97-.01-1.22.21-.19.19-.23.26-.38,1.2-.09.55-.14,1.61-.21,2.06-.06.36,0,.45.44.52.33.06.42.02.48-.39.33-1.98,3.14-1.65,4.11-1.49.69.12.88.24.87.64,0,.2-.58,3.64-.67,4.19-.18,1.08-1.45,8.61-1.59,9.06-.27.82-.59,1.04-2.17.87-.39-.04-.43.03-.49.44-.06.34.04.37.32.43.36.06,1.08.15,1.26.16.7.09,1.41.18,2.89.43,1.53.26,2.25.4,2.86.52.18.05.89.2,1.24.26.31.05.39.01.45-.32.07-.38.02-.46-.33-.55-1.54-.35-1.76-.66-1.75-1.51,0-.47,1.75-11.3,1.97-12.65.16-.96.35-1.1,1.23-.95,1.18.2,3.55.79,3.33,2.58h0Z"/><path class="cls-14" d="m220.97,127.64c1.5-4.64-.24-8.69-5.94-10.53-5.69-1.84-10.8.05-12.73,6.04-1.14,3.53-.3,5.67.68,7.17.92,1.37,2.44,2.73,5.15,3.61,6.29,2.03,11.13-1.02,12.84-6.29h0Zm-4.82-.58c-.65,2.02-2.11,4.83-3.91,5.55-1.03.41-2.05.29-2.79.04-4.31-1.4-3.04-6.7-2.37-8.76.69-2.14,2.64-6.82,6.73-5.49,2.74.88,3.08,2.76,3.09,4.33,0,1.67-.47,3.49-.74,4.33h0Z"/><path class="cls-14" d="m238.75,131.62c.9-1.26,1.15-1.37,2.39-.74.54.26.61.29.82-.07.18-.32.1-.43-.09-.53-.72-.41-1.7-.83-2.62-1.36-.99-.57-1.89-1.23-2.89-1.79-.29-.17-.39-.11-.58.23-.13.24-.12.35.18.52.95.54,1.7,1.04,1.52,1.88-.21.89-3.35,6.37-4.05,7.6-.19.34-1.15,2.01-1.29,2.21-.07.12-.17.18-.24.15-.04-.02-.1-.34-.14-.7-.29-3.82-.65-9.93-.92-13.73-.11-1.47-.37-1.81-.84-2.09s-2.84-1.29-3.97-1.93c-.99-.57-1.02-.56-1.18-.29-.26.45-.21.47.42.83.81.46,1.35.83.71,2.09-.75,1.51-2.97,5.44-3.35,6.12-.46.81-2.5,4.36-2.89,4.89-.4.55-1.01,1.25-2.07.7-.81-.41-.9-.4-1.11-.04-.15.27-.08.4.17.54.4.24,2.25,1.17,2.66,1.41.45.26,2.36,1.46,2.74,1.68.32.18.44.11.6-.16.15-.26.15-.42-.32-.69-1.67-.95-1.57-1.43-1.49-1.73.22-.8,4.66-8.92,5.39-10.21.09-.15.29-.51.4-.44.09.05.11.23.12.52.24,4.13.9,14.6.94,14.9.06.93.1,1.34.52,1.59.23.13.86.32,1.34.51,1.63.65,1.72.65,2.05.07.63-1.1,1.56-2.88,2.19-3.98.54-.95,3.98-6.8,4.88-8v.02Z"/><path class="cls-14" d="m253.58,141.74c-1.4-1.42-2.88-2.76-4.27-4.19-1.52-1.56-2.98-3.21-4.5-4.77-.18-.18-.29-.26-.51-.04-.32.31-.37.4-.1.7,1.05,1.18,1.04,1.59.54,2.26-.28.38-4.09,4.08-4.74,4.71-.65.63-4.44,4.35-4.85,4.64-.67.47-1.06.49-2.23-.57-.31-.28-.37-.25-.68.04-.24.24-.17.35,0,.54.38.39,2.34,2.25,2.78,2.69.85.87,4.97,5.21,5.91,6.18.57.57,1.18,1.06,2.19.29.35-.24,1.66-1.34,1.94-1.61.24-.24.13-.39-.1-.62-.32-.33-.48-.29-.89.04-1.28,1.04-3.49-.5-5.1-2.14-.98-1-1.11-1.38.12-2.59.9-.85,2.3-2.29,3.2-3.18.32-.31.59-.48.99-.24.73.4,3.55,3.45,4.04,3.74.47.3,1.2-.13,1.31-.23.18-.17.07-.32-.13-.56l-2.28-2.3c-.53-.54-1.7-1.74-1.71-2.17,0-.29,0-.35,1.84-2.17.32-.31,1.29-1.26,1.55-1.37.34-.15.71-.04,1.96,1.23.73.74,1.31,1.62,1.61,2.34.37.98.1,1.39-.18,1.81-.4.61-.45.66-.14.97.2.21.38.28.52.15.26-.26.48-.51.75-.77.19-.19,1.2-1.04,1.41-1.24.56-.54.28-1-.26-1.56h.01Z"/><path class="cls-14" d="m223.94,219.94c-.21-.56-.63-.7-1.32-.45l-1.12.41,1.08,2.89.45-.17-.46-1.24.48-.18,1.25.95.48-.18-1.31-.97c.41-.21.65-.55.47-1.07h0Zm-1.04.91l-.47.18-.35-.92.59-.22c.3-.11.66-.18.79.21.18.46-.18.62-.58.76h0Z"/><path class="cls-14" d="m225.48,220.06c-.51-1.4-2.04-2.04-3.4-1.53-1.36.51-2.09,2-1.58,3.39.53,1.42,2.06,2.06,3.42,1.56,1.35-.5,2.09-1.99,1.55-3.41h0Zm-1.68,3.05c-1.16.43-2.39-.15-2.83-1.36-.44-1.18.11-2.43,1.26-2.86,1.15-.43,2.37.15,2.81,1.34.45,1.21-.1,2.45-1.24,2.89h0Z"/><path class="cls-14" d="m132.53,227.73c-1.81-.7-2.13-.89-2.21-1.48-.07-.43.34-1.66.8-3.05.25-.74.68-1.93.87-2.51.26-.79.29-.88.44-.98.58-.43,4.85,1.26,5.78,1.42.44.07,1.01-.72,1.04-.82.1-.28-.3-.41-.52-.48-.88-.29-1.76-.56-2.64-.85-2.21-.73-2.67-.92-2.81-1.25-.11-.24-.18-.29.57-2.51.15-.44.62-1.87.83-2.17.26-.35.59-.45,2.28.12.66.22,1.3.54,1.89.89,1.51.94,1.35,1.92,1.27,2.5-.07.44.11.5.33.57.47.15.5.07.77-.75.18-.56.61-1.57.81-2.17.25-.74-.32-1.01-.96-1.22-2.61-.87-5.22-1.61-7.83-2.48-1.35-.45-2.69-1.03-4.04-1.48-.29-.1-.38-.08-.49.24-.12.37-.1.48.26.62,1.5.58,1.63.93,1.49,1.76-.07.46-1.76,5.51-2.04,6.37l-.7,2-1.26,3.8c-.48,1.38-.98,1.45-2.48,1.05-.4-.11-.45-.04-.58.35-.11.32,0,.39.25.47,1.28.43,2.56.75,3.84,1.17,1.62.54,3.24,1.18,4.86,1.73.29.1.37.04.47-.26.12-.37.1-.48-.26-.6h-.01Z"/><path class="cls-14" d="m157.66,233.14c-1.55-.31-1.82-.7-2.2-2.13-.22-.83-2-9.9-2.61-14.37-.2-1.4-.21-1.58-.54-1.64-.23-.04-2.12-.11-3.18-.18-.83-.05-.87.01-1.53,1.01-3,4.61-3.91,6.04-7.51,11.38-1.54,2.27-2.15,2.28-2.97,2.17-.69-.1-.76,0-.82.32-.09.48.17.53.35.56.46.08,2.57.37,3.06.46.97.18,2.15.48,2.92.62.38.07.51-.06.59-.46.06-.31-.01-.35-.68-.49-.63-.16-1.67-.4-1.52-1.19.08-.46.31-.84,2.36-4.21.46-.76.62-.98.94-.97.26,0,4.27.55,4.66.62.54.1.7.2.9,1.13.22.98.4,2.55.59,3.55.59,2.98.72,3.72,2.12,3.98.33.06,2.03.26,2.42.32.9.11,1.75.24,2.64.4.36.07.5,0,.57-.37.04-.24,0-.4-.54-.49v-.03Zm-8.31-9.97c-.05.29-.42.29-1.16.16-.84-.15-1.84-.33-2.64-.53-.46-.11-.51-.26-.47-.46.04-.24,2.86-4.78,3.05-4.9.06-.04.12-.1.2-.09.18.03.21.33.29.87.21,1.42.46,2.81.68,4.22.07.46.08.59.05.73h0Z"/><path class="cls-14" d="m178.58,233.72c-1.09-.05-1.87-.1-2.97-1.34-1.23-1.4-4.25-6.94-4.24-7.19,0-.24.4-.38.71-.47,2.2-.62,3.5-2.08,3.55-4.11.09-3.51-3.81-3.76-5.45-3.8-1.97-.05-3.94.01-5.9-.04-1.37-.04-2.77-.19-4.14-.23-.26,0-.39.01-.4.33-.01.44.01.54.43.57,1.58.12,1.86.41,1.96,1.25.07.46-.1,5.78-.12,6.68-.03.9-.16,6.22-.25,6.7-.15.8-.42,1.09-2,1.15-.42.01-.44.09-.46.5,0,.34.12.37.38.37,1.4.04,2.78-.03,4.17,0,1.42.04,2.82.17,4.24.21.29,0,.39-.04.4-.38,0-.39-.04-.46-.43-.5-1.6-.14-1.83-.44-1.94-1.25-.07-.44.02-4.85.04-5.44.02-.76.07-.95.39-.94.65.01.88.02,1.62,1.63,3.17,6.89,3.7,7.12,5.28,7.17,1.42.04,3.68-.05,5.08-.01.39,0,.49-.09.51-.5,0-.37-.17-.37-.46-.37h0Zm-11.37-9.2c-.54-.01-.83-.1-.9-.39-.04-.24,0-2.27.02-2.71.01-.51.07-2.64.23-2.9.19-.29.65-.27,1.23-.26,2.25.06,3.24,1.09,3.19,2.86-.06,2.39-1.49,3.45-3.77,3.39h0Z"/><path class="cls-14" d="m205.17,230.25c-1.79.26-1.91-.17-2.67-3.46-.81-3.41-1.92-8.52-2.17-10.21-.11-.75,0-1.48,1.63-1.74.43-.07.47-.19.43-.51-.04-.32-.12-.45-.63-.37-.84.12-4.39.79-5.18.95-1.27.26-1.62.4-1.86,1.42-.29,1.25-1.72,9.07-2.13,10.76-.08.33-.15.76-.31.79-.1.01-.17-.07-.24-.16-.14-.23-4.46-8.15-5.03-9.22-1.04-1.89-1.26-2.31-2.15-2.17-.23.04-.57.08-1.15.21-1.85.42-3.46.68-4.85.87-.26.04-.38.08-.32.51.05.34.15.32,1,.23,1.34-.17,1.4.26,1.54,1.26.32,2.25,1.1,11.54,1.09,12.36-.04,1.68-.21,1.81-1.42,2.13-.73.18-.79.19-.73.53.04.29.13.37.57.31.41-.06,2.42-.45,2.89-.51.41-.06,2.3-.24,2.63-.28.38-.06.5-.17.44-.56-.05-.34-.18-.32-.85-.29-1.15.04-1.56.03-1.76-1.27-.41-2.85-.5-3.62-1.02-8.47-.29-2.37-.44-3.56-.24-3.59.1-.01.21.14.24.21l1.38,2.46c1.77,3.14,3.55,6.29,5.3,9.44.61,1.15.75,1.37,1.26,1.29.21-.03.73-.18,1.31-.36.68-.22.9-.28.99-.59.12-.43,1.04-5.87,1.14-6.59.65-3.79.65-3.84,1.26-6.98.04-.23.15-.76.33-.79.1-.01.23.12.26.33.22.81.59,2.62.78,3.53,1.12,5.38,1.23,5.98,1.68,7.76.55,2.19.87,2.75,2.03,2.58.36-.05,2.11-.43,2.52-.49.82-.12,1.56-.27,2.38-.4.38-.06.45-.16.38-.59-.06-.39-.19-.39-.75-.31h0Z"/><path class="cls-14" d="m214.47,217.71c-3.89-.37-5.62-.54-6.19-2.28-.48-1.43.45-2.67,2.27-3.28,1.67-.56,3.65-.52,4.16.51.39.77.46.87.8.76.54-.18.5-.29.19-1.22-.11-.32-.5-1.84-.58-2.07-.04-.14-.17-.51-.62-.54-.93-.1-3.72.8-3.77.82-4.35,1.45-7.06,4.36-5.88,7.95.68,2.06,2.05,2.63,6.5,3.03,3.04.27,4.31.39,4.84,1.98.67,2.01-1.1,3.01-2.45,3.47-1.42.48-4.2.5-5.1-.82-.42-.6-.47-.59-.86-.46-.29.1-.32.29-.28.56.04.14.6,2.55.63,2.64.14.42.46.65,1.09.66,1.2,0,2.83-.35,4.01-.74,4.38-1.46,7.44-4.56,6.23-8.19-.76-2.27-2.77-2.57-4.99-2.78h0Z"/><path class="cls-16" d="m173.04,210.74c-37.82,0-68.6-17.24-68.6-38.43s30.77-38.44,68.6-38.44,68.59,17.24,68.59,38.44-30.77,38.43-68.59,38.43Z"/><path class="cls-2" d="m137.22,166.1v.9c-.14-.07-.29-.16-.46-.27-2-1.28-4.66-.96-4.68-.96l-.58.07-.05-.58c-.3-3.74-2.89-6-7.12-6.19h-.27l-.15-.22c-2.51-3.44-6.45-2.75-6.61-2.71l-.38.07-.21-.33c-.59-.98-1.31-1.84-2.08-2.49-5.87,5.57-9.24,12.13-9.24,19.05,0,7.34,3.81,14.2,10.36,20l8.5-.13v-12.17l12.98-3.69v-10.31h-.01Z"/><polygon class="cls-4" points="176.53 146.47 176.4 146.54 176.53 146.47 176.53 146.47"/><path class="cls-5" d="m123.4,156.71c.23.19.46.4.68.65h0c.18.19.35.4.53.61,1.4.09,2.65.4,3.72.91h0c.31.14.59.3.86.48h0c.71.45,1.3.99,1.79,1.63h0c.11.14.21.28.31.43h0c.33.51.59,1.06.79,1.67h0c.06.13.1.27.12.41h0c.11.36.18.73.24,1.11.9-.02,2.85.05,4.74,1.08v.4c1.9,1.14,3.3,3.03,3.78,5.27.22-.01.44-.04.67-.04.96,0,1.89.14,2.77.39l2-6.1s.03-.05.05-.07l19.12-14.01h0v-.03s.07-.02.07-.02l10.08-4.66c-2.08-1.01-4.26-.77-4.29-.76l-.06-.37-.34-.14c-.26-3.31-1.05-5.6-4.68-8.12-2.32-1.62-8.5-2.38-8.53-2.42-17.87,2.27-33.11,9.16-42.48,17.6.19.17.45.43.63.62.4.4.78.84,1.12,1.33h0c.1.12.18.26.27.39.6-.07,1.88-.12,3.33.33h.04c.85.26,1.76.7,2.61,1.4h0l.02.04Z"/><path class="cls-10" d="m202.3,138.6s-.02,0-.03,0h0s.03,0,.03,0Z"/><path class="cls-10" d="m238.31,172.94v.05s.03,0,.04.01c-.01-.02-.03-.04-.04-.07h0Z"/><path class="cls-10" d="m202.5,138.18c.21.43.66,1.44.8,1.91.05.18.1.37.14.57.12.47.2.96.26,1.47h0c.01.12.02.24.04.37.49,0,1.27.01,2.17.2h0c1.09.21,2.35.65,3.48,1.51.21.15.43.33.62.53h0c.45.43.86.92,1.22,1.51.11.18.21.36.31.56.23.44.43.94.59,1.48.06.19.12.38.17.58,0,.01,0,.02,0,.04,1.01,0,3.47.13,5.9,1.48h0c.25.14.5.29.75.46h0c.51.33,1,.73,1.47,1.18.14.13.26.26.39.4.15.15.29.32.41.47.45.53.81,1.05,1.09,1.59.08.15.15.3.22.45h0c.24.53.41,1.07.54,1.61.04.14.07.28.08.43.1.52.14,1.05.15,1.59,0,.15.01.32.01.48v.11c0,.35-.01.71-.04,1.08.46.04,1.13.12,1.86.37h0c.35.12.71.28,1.07.49.64.36,1.26.86,1.77,1.56.1.15.21.31.3.47h0c.25.45.46.96.62,1.55.04.13.07.27.09.41.51-.11,1.26-.18,2.06.07h0c.12.04.24.09.36.14.65.29,1.17.78,1.58,1.45.09.15.18.3.26.46.07.13.12.27.18.43.37.15,1.23.51,2.24,1.17,0,0,0,0,.01,0h0c.2.14.4.28.62.44h0c.59.43,1.2.96,1.76,1.59.13.15.26.3.39.46.38.47.73,1.01,1.04,1.59.08.15.15.31.23.47.07.14.12.3.18.46.08.05.16.1.23.15.05-.51.07-1.01.07-1.52,0-14.75-14.6-28.48-37.8-34.24h.01Z"/><path class="cls-3" d="m240.27,173.98c-.08-.05-.16-.1-.23-.15.07.18.14.34.21.52.01-.12.03-.25.04-.38h0Z"/><path class="cls-8" d="m240.02,176.05s0-.04.01-.07c0,.02,0,.04-.01.07Z"/><path class="cls-9" d="m239.81,177.1s.01-.07.02-.1c0,.03-.01.07-.02.1Z"/><polygon class="cls-7" points="176.59 146.51 177.07 146.29 176.59 146.51 176.59 146.51"/><path class="cls-6" d="m239.36,175.64c-.19-.99-.56-1.87-1.01-2.63,0,0-.03,0-.04-.01v-.05c-1.89-3.09-5.36-4.33-5.41-4.34l-.26-.09-.09-.26c-.32-.96-.84-1.62-1.52-1.92-1.04-.48-2.19-.02-2.2-.02l-.68.27-.09-.72c-.59-4.74-5.07-4.55-5.27-4.54l-.63.04.04-.63c.2-3.55-.12-5.54-2.53-7.89-3.19-3.11-7.69-2.8-7.73-2.8l-.5.04-.1-.5c-1.31-6.63-7.76-5.97-8.03-5.94l-.58.07-.05-.58c-.15-1.87-.54-3.5-1.45-4.91-8.53-2.74-28.39-4.71-38.58-3.03.46.08,1.18.3,1.63.45,0,0,.12.1.12.1l.21.04c.5.15.62.23,1.09.46.3.15.48.26.76.45.38.26.68.48,1.01.75.25.19.45.36.67.57-.19.59.83.93,1.26,1.35.15.18.19.48.51.57.6.17.62,1.2.94,1.61.09.18.09.34.15.51.18.44.29.62.4,1.09.04.19.32.37.35.57.07.4.13.81.18,1.23.35,0,.84,0,1.41.07.01,0,.02,0,.04,0h.07c.66.08,1.45.25,2.24.56h.04c.46.18.89.4,1.34.7l15.99-7.37.06.05,19.62,13.67v.05s5.62,21.14,5.9,22.2l1.14,1.22,2.48,2.67.52.57.19.21-1.63,1.54-.2-.21h0l-1.77-.07v8.5h13.81c3.22-3.56,5.44-7.45,6.48-11.55-.11-1.02-.19-1.76-.26-2.07l-.06-.02Z"/><path class="cls-13" d="m137.22,165.69c-1.89-1.03-3.84-1.1-4.74-1.08-.06-.38-.13-.76-.24-1.11h0c-.02-.14-.07-.28-.12-.41h0c-.19-.6-.46-1.16-.79-1.67h0c-.1-.15-.2-.29-.31-.43h0c-.49-.64-1.09-1.18-1.79-1.63h0c-.27-.18-.56-.34-.86-.48h0c-1.07-.51-2.32-.82-3.72-.91-.18-.21-.35-.42-.53-.61h0c-.22-.24-.46-.46-.68-.65h0c-.85-.7-1.76-1.15-2.61-1.4h-.04c-1.46-.46-2.73-.4-3.33-.33-.09-.13-.18-.26-.27-.39h0c-.35-.49-.73-.93-1.12-1.33-.19-.2-.46-.46-.65-.62-.13.12-.26.27-.38.39,0,0,0,.01-.01.01-.14.13-.26.26-.4.38.77.65,1.52,1.48,2.12,2.46l.21.33.38-.07c.17-.04,4.1-.73,6.61,2.71l.15.21h.27c4.22.2,6.82,2.45,7.12,6.2l.05.58.58-.07s2.67-.32,4.68.96c.18.11.33.2.46.27v-1.33Z"/><path class="cls-13" d="m240.21,174.34h0c-.01.19-.04.37-.06.55-.01.18-.04.36-.07.53-.11.78-.26,1.54-.46,2.31-.11-1.04-.19-1.78-.26-2.1-.98-5.09-6.41-7.01-6.47-7.04l-.26-.09-.09-.26c-.32-.96-.84-1.62-1.52-1.92-1.04-.48-2.19-.02-2.2-.02l-.68.27-.09-.72c-.59-4.74-5.07-4.55-5.27-4.54l-.63.04.04-.63c.2-3.55-.12-5.54-2.53-7.89-3.19-3.11-7.69-2.8-7.73-2.8l-.5.04-.1-.5c-1.31-6.63-7.76-5.97-8.03-5.94l-.58.07-.05-.58c-.15-1.87-.54-3.49-1.46-4.9.26.07.93.15.93.15.15.04.43.15.57.2.21.44.43,1.04.57,1.52.05.18.1.37.14.57.12.47.2.96.26,1.47h0c.01.12.02.24.04.37.49,0,1.27.01,2.17.2h0c1.09.21,2.35.65,3.48,1.51.21.15.43.33.62.53h0c.45.43.86.92,1.22,1.51.11.18.21.36.31.56.24.44.43.94.59,1.48.06.19.12.38.17.58,0,.01,0,.02,0,.04,1.01,0,3.47.13,5.9,1.48h0c.25.14.5.29.75.46h0c.51.33,1,.73,1.47,1.18.14.13.26.26.39.4.15.15.29.32.41.47.45.53.81,1.05,1.09,1.59.08.15.15.3.22.45h0c.24.53.41,1.07.54,1.61.04.14.07.28.08.43.1.52.14,1.05.15,1.59,0,.15.01.32.01.48v.11c0,.35-.01.71-.04,1.08.46.04,1.13.12,1.86.37h0c.35.12.71.28,1.07.49.64.36,1.26.86,1.77,1.56.1.15.21.31.3.47h0c.25.45.46.96.62,1.55.04.13.07.27.09.41.51-.11,1.26-.18,2.06.07h0c.12.04.24.09.36.14.65.29,1.17.78,1.58,1.45.09.15.18.3.26.46.07.13.12.27.18.43.37.15,1.23.51,2.24,1.17,0,0,0,0,.01,0h0c.2.14.4.28.62.44h0c.59.43,1.2.96,1.76,1.59.13.15.26.3.39.46.38.47.73,1.01,1.04,1.59.08.15.15.31.23.47.15.32.27.65.39,1.01h.01Z"/><path class="cls-14" d="m241.09,172.09v-.02h-.16.15c-.02-.23-.07-.46-.11-.68-.02,0-.05,0-.07.01.02,0,.06-.02.09-.02-.1-.68-.24-1.36-.43-2.02h0s0-.04-.02-.04c-.06-.05-.12-.07-.22-.06-.12.02-.29.12-.32.26l.03.28c-.02.16-.27.1-.37.04-.36-.18-.23-.46-.35-.77-.07-.21-.4-.47-.63-.56-.1-.04-.24-.04-.35.01-.09.04-.67.62-.66.68h-.07v-.02c-.23-.08-.64-.54-.91-.23-.2.22.21.46-.04.69-.04.05-.11.09-.19.1-.07-.01-.14-.02-.21-.03-.08-.02-.18-.04-.25-.1-.14-.14-.01-.46-.29-.49-.24-.03-.38.17-.62.19-.14-.07-.29-.05-.38-.18-.12-.15.02-.34.07-.48.04-.15-.12-.25-.15-.37-.01-.15.13-.26.07-.42-.04-.08-.14-.12-.22-.16-.45.09-.55.53-.99.65-.19.04-.39-.06-.57-.06-.09,0-.16.01-.21.09-.15.21.57.48.21.76-.28.21-.71-.32-1.12-.09-.07.04-.14.1-.16.17-.02.16.15.26.18.4.02.13-.08.21-.03.35.06.07.12.15.18.21.07.08.12.2.24.24.19.07.6-.12.7,0,.12.15-.16.42-.15.48-.22-.03-.71-.15-.78.15,0,.06,0,.13.03.18.03.07.55.37.21.41l-1.06-.28c-.15-.15.16-.35-.15-.49-.09-.04-.21-.03-.3,0-.65.19-.15.87-.8.93-.21-.08-.43-.06-.62-.21-.03-.03-.09-.07-.03-.07.1-.21.36-.18.54-.3.06-.04.09-.12.15-.13,0-.04,0-.03-.04-.03-.1-.14-.46-.17-.48-.32-.03-.02-.04-.03,0-.03.03-.07.24-.48.15-.47-.32-.39-.79.19-1,.36-.09.07-.21.12-.35.14-.1-.07-.28-.13-.32-.25-.09-.21.4-.38.15-.6-.07-.06-.16-.07-.26-.04-.12.02-.24.05-.32.12-.12.07-.21.26-.38.25-.18,0-.3-.24-.54-.26-.07,0-.18.01-.25.04-.29.11-.08.42-.26.53-.03.01-.07.03-.1.05h-.07c-.1-.04-.26,0-.35-.07-.03-.04-.06-.09-.1-.13-.13-.21-.29-.39-.6-.36-.1,0-.21.03-.26.1-.18.19.04.48-.23.63-.18.1-.58.03-.61.29-.06.4.76.14.87.4.04.1-.01.15-.09.22-.1.12-.23.25-.43.22-.11,0-.21-.04-.34,0-.4.13.01.51-.09.53-.18.39-.87.04-1.23.32-.08.06-.13.12-.13.21.02.35.51.22.78.19.04,0,.07-.02.07.02h.04v.03c-.13.18-.07.4-.16.55-.23.37-.82-.07-1.04-.2-.12-.06-.57-.22-.7-.21-.1.15-.23.3-.24.48,0,.13,0,.26,0,.39,0,.07-.1.14-.1.2h-.07v-.02c-.14-.05-.27-.09-.4-.13-.43-.01-.35.49-.46.69-.06.12-.17.23-.28.32-.04.04-.13.16-.19.17.12.14.36.21.57.24-.05.1-.1.19-.17.29-.05.05-.1.1-.14.15-.02.02-.04.05-.07.07-.15.11-.25.26-.43.37-.2.12-.52.1-.74.2-.22.1-.27.39-.42.57-.07.09-.19.12-.29.18-.15.1-.29.32-.28.49.01.11.1.2.19.26.29.22.62.18.98.07.11-.03.21-.06.3-.09.03,0,.06.01.1.04v.03h0s.01.07.02.11c-.17.17-.21.33-.26.55-.01.03-.04.06.02.05.05.06.11.12.19.12.16.03.29-.03.41-.1.01.04.04.07.05.12,0,.01.01.02.01.04.07.15.12.31.15.46.04.12.01.27,0,.41-.02.15-.06.3-.05.43,0,.11.02.21.05.32.04.14.07.29.07.44-.01.14-.04.28-.05.43,0,.32,0,.65,0,.98,0,2.27.04,4.43,0,6.59,0,.04,0,.09,0,.14,0,.15,0,.31,0,.46,0,.46,0,.9.01,1.34,0,.15.01.32.02.47,0,.12,0,.24-.02.37,0,.04,0,.08,0,.12,0,.04,0,.08,0,.13.04.46.11,1.37.04,2.05-.01.1-.02.18-.04.27-.05.26-.13.46-.27.54,0,.04.13.04.27.04h4.99c.62,0,1.23,0,1.84,0,.17-.12.32-.24.48-.36h0c.06-.04.11-.08.15-.12.05-.04.1-.07.15-.11h.15l.86-.09c.12-.09.24-.18.37-.29.03-.01.05-.04.09-.07h0s.06-.05.1-.08c.32-.25.63-.5.93-.75.46-.37.9-.76,1.34-1.14h0c.59-.53,1.18-1.06,1.72-1.6.32-.31.62-.62.93-.94,1.2-1.26,2.28-2.56,3.19-3.87.55-.79,1.06-1.58,1.5-2.38h0c.17-.31.33-.62.48-.92.15-.29.29-.59.42-.87.35-.76.63-1.53.87-2.29,0,0,0-.01,0-.02.12-.37.23-.73.32-1.1.08-.35.15-.68.21-1.01h0c.16-.86.25-1.73.29-2.59,0,0,0,0,.01-.01.04-.78.01-1.57-.07-2.36v-.04Z"/><rect class="cls-17" x="137.41" y="150.57" width="14.03" height="25"/><path class="cls-14" d="m118.26,194.43c12.27,9.41,32.16,15.54,54.57,15.54s42.3-6.13,54.57-15.54h-109.14Z"/><path class="cls-15" d="m199.96,195.7h-18.09c7.67,6.4-20.62,13.43-23.76,13.35,4.74.59,9.67.91,14.73.91,13.53,0,26.13-2.24,36.7-6.08-1.06-5.38-7.56-7.48-9.58-8.18h0Z"/><path class="cls-14" d="m128.78,175.58c-.1-.07-.21-.08-.3-.18-.17-.18-.25-.5-.47-.59-.22-.09-.54-.01-.75-.13-.24-.12-.36-.37-.62-.45,0,.11-.75.65-.82.1-.04-.21-.01-.48.22-.51.08,0,.18,0,.26,0,.21-.04.5-.15.62-.35-.06,0-.17-.13-.21-.17-.12-.09-.24-.2-.31-.32-.12-.21-.11-.79-.52-.72-.12.07-.25.12-.38.2v.04h-.07c0-.07-.1-.13-.12-.21,0-.15-.01-.29-.04-.44-.04-.2-.18-.35-.29-.51-.13,0-.56.23-.66.32-.21.17-.74.74-1.01.35-.11-.15-.07-.4-.21-.59v-.04h.04c0-.05.02-.04.07-.04.26,0,.76.09.75-.31,0-.1-.07-.17-.15-.22-.37-.26-1.01.2-1.23-.21-.1,0,.26-.48-.14-.58-.12-.02-.22.02-.33.05-.19.05-.32-.08-.44-.2-.07-.07-.14-.12-.11-.24.08-.3.91-.11.82-.55-.06-.28-.44-.15-.63-.25-.29-.14-.1-.49-.3-.68-.07-.07-.18-.08-.27-.08-.32,0-.45.22-.56.47-.04.05-.06.11-.08.15-.09.09-.24.07-.34.13h-.07s-.07-.02-.11-.04c-.18-.11-.01-.47-.31-.57-.07-.01-.18-.02-.25,0-.22.05-.32.32-.5.36-.17.04-.27-.17-.4-.24-.09-.06-.21-.08-.33-.09-.11,0-.19,0-.26.08-.22.27.28.4.21.65-.04.13-.2.22-.29.32-.13,0-.26-.05-.36-.12-.24-.15-.75-.76-1.02-.28-.08,0,.17.43.2.51.04,0,.02,0,0,.04,0,.17-.36.24-.44.4-.04,0-.04-.01-.04.04.06,0,.1.1.15.13.18.12.43.05.56.27.06,0,0,.05-.02.08-.17.2-.39.2-.59.32-.65,0-.21-.82-.88-.95-.1-.01-.21,0-.3.04-.28.2.04.37-.09.57l-1.01.44c-.35,0,.13-.4.15-.48.01-.06.02-.14,0-.21-.1-.33-.57-.13-.78-.07,0-.07-.31-.33-.2-.52.08-.15.51.01.69-.08.11-.07.15-.2.21-.3.05-.08.1-.17.15-.26.04-.15-.07-.24-.07-.39,0-.15.18-.29.13-.46-.02-.08-.1-.14-.18-.18-.43-.21-.79.43-1.09.24-.38-.26.3-.65.13-.87-.05-.07-.12-.09-.21-.07-.18.02-.37.15-.56.13-.44-.07-.59-.56-1.04-.6-.07.05-.18.12-.2.21-.05.18.11.29.11.46,0,.15-.15.27-.11.44.06.15.22.34.12.53-.08.15-.22.15-.36.25-.24,0-.4-.2-.63-.14-.27.07-.12.41-.24.59-.06.07-.15.11-.24.14-.07.01-.14.04-.21.06-.08,0-.15-.04-.2-.08-.26-.23.11-.55-.11-.77-.3-.31-.65.26-.87.37v.04h-.07c0-.06-.63-.64-.72-.68-.12-.05-.25-.04-.35.02-.21.12-.51.46-.57.7-.07.36.07.65-.26.9-.09.07-.32.17-.37,0v-.32c-.04-.14-.21-.24-.34-.25-.09,0-.15.02-.21.09,0,0-.01.01-.01.04,0,0,0,0,0,.01-.12.76-.19,1.53-.21,2.31.04,0,.07,0,.09.01-.02,0-.04,0-.07-.01,0,.26-.04.51-.04.78.05,0,.1,0,.15-.01-.05,0-.11.01-.15.01v.02c0,.89.06,1.78.18,2.64,0,0,.01,0,.01,0,.12.96.29,1.92.54,2.86h0c.09.37.2.74.32,1.11.13.4.27.79.43,1.2,0,0,0,.01,0,.02.32.83.68,1.65,1.09,2.46.15.31.32.62.5.93.18.32.37.65.57.97h0c.51.84,1.09,1.67,1.72,2.49,1.04,1.36,2.23,2.69,3.53,3.96.33.32.66.64,1.01.95.59.55,1.21,1.07,1.85,1.59h0c.46.38.94.76,1.42,1.12.32.25.65.49,1,.73.04.02.07.05.1.07h0s.06.05.09.07c.13.1.26.19.39.27h.85c.14-.01.27-.04.4-.05.43-.04.9-.02,1.32-.04.15,0,.31.01.46.01.28-.01.58-.04.88-.04.1,0,.2,0,.3,0v-.22s0-.04,0-.07h0s0-.07,0-.11c0-.05,0-.11,0-.15v-.43c.01-.12.04-.24.05-.37-.01-.18-.04-.37-.05-.54-.01-.57.02-1.15.02-1.69,0-.3-.04-.6-.02-.91.01-.25.04-.5.06-.75-.01-.2-.04-.4-.06-.6,0-.14.01-.27.02-.4,0-.12-.01-.22-.01-.34.01-.15.04-.32.05-.47,0-.26-.07-.47-.06-.75.01-.19.04-.38.06-.57,0-.62,0-1.23,0-1.86,0-.56-.05-1.11,0-1.62,0-.36,0-.71,0-1.08,0-.12-.02-.25-.04-.37.01-.14.04-.29.05-.44,0-.21,0-.43.01-.65v-.12s0-.01,0-.02c0-.05.02-.1.04-.15.04-.07.06-.14.04-.22,0-.04-.01-.07-.04-.1,0-.02-.01-.04-.04-.06-.04-.04-.07-.08-.1-.11-.04-.04-.09-.05-.15-.05-.09-.01-.19,0-.28.04-.09.01-.18.05-.24.07v.04h-.07s-.01-.04-.04-.06h0c-.06-.07-.15-.14-.18-.19-.09-.21-.09-.37-.01-.47.09-.14.3-.2.57-.22,0-.11,0-.19-.04-.26,0-.05-.04-.09-.06-.12-.04-.05-.07-.08-.12-.11-.08-.06-.19-.08-.32-.12,0,.05-.07.05-.11.06-.33.1-.3-.35-.23-.57.21,0,.43-.04.64-.01.13.02.26.15.4.15.15,0,.26-.14.4-.19.21-.05.44-.1.65-.15.04-.02.07-.06.11-.09.18-.32-.7-.35-.83-.27-.31,0-.4-.25-.1-.29.21,0,.43-.01.63-.02.15-.01.33-.08.47-.02.26.11.38.36.7.36.02,0,.05,0,.07,0,.32-.04.27-.47.58-.57.32-.09.54.25.86.14.07-.02.13-.09.18-.17.07,0,.04-.02.01-.06-.09-.25-.14-.44-.35-.62-.07,0,.04-.17.13-.18.1.02.2.05.31.07.37.09.69.09.95-.19.07-.08.15-.19.15-.32,0-.2-.17-.41-.32-.51h.04Z"/><path class="cls-12" d="m124.06,176.14c-.05-.15,0-.3-.01-.46-.03-.24-.27-.54-.49-.61v.04c-.12.04-.59.12-.62.22-.04.09,0,.18.04.26.05.12.11.25.23.35.12.11.46.16.45.39,0,.07-.07.15-.13.18-.15.05-.32.01-.44.12-.36.3-.06.96.38.96.29-.26.45-.07.78-.07.07-.01.13-.02.2-.04.05-.03.1-.06.15-.09.27-.24-.21-.44-.21-.68.32-.4-.23-.33-.3-.55h0Z"/><path class="cls-12" d="m122.8,184.58c-.19-.08-.29.04-.48.03-.15,0-.64-.28-.68-.44-.07-.33.58-.51.27-.89-.03-.03-.07-.05-.1-.08-.07-.05-.38-.1-.64-.13.01-.12.02-.25.04-.36.04-.17.07-.35.12-.51-.26-.22-.58-.51-.58-.88.65-.76.45-1.32-.58-1.39-.41.3-.51.48-.51,1.02h-.07v.07c-.3-.06-.63-.4-.93-.35-.18.02-.33.2-.46.33-.1.09-.17.18-.24.26-.03-.02-.05-.04-.1-.06-.18-.08-.62,0-.62-.26.51-.29.85-.53.87-1.09-.51-.22-.96.16-1.43.24-.34.05-.54-.07-.87.07-.05.02-.13.03-.13.09-.24-.11-.15-.24-.19-.43-.03-.14-.15-.26-.29-.36-.06-.04-.13-.1-.22-.11-.43-.04-.62,1.17-.98,1.37-.18.1-.47-.05-.7,0-.12.02-.23.1-.28.18-.03.1-.06.21-.09.32.1.06.2.12.3.18.32.12.46-.23.76-.23.13.16.21.37.4.49.35.22,1.03-.28,1.25-.48.04-.04.29-.14.29-.03h.04c-.01.11-.04.22-.05.33-.12.45-.4,1.01.01,1.41.07.07.16.13.28.13.33,0,.67-.62.78-.62,0-.05.03-.07-.04-.07-.17-.21-.76-.24-.27-.62.04-.03.18-.12.18-.05.19.07.29.27.51.29.12,0,.24-.05.34-.13-.04.28.04.57.28.92.13.19.32.31.54.38.82.29.79-.65,1.29-.61.4.04.44.59.71.84-.12.21-.15.5-.05.67.23.15.07.47.04.4-.2.01-.45-.1-.63.01-.07.04-.1.1-.12.17,0,.12.01.23.02.35,0,.19-.16.36-.05.54.09.15.27.21.44.24.75.15.28-.6.84-.84.3-.13.62.13.93.08.07-.01.26-.15.3-.08.01,0,.03-.01.04-.02.09.29-.23.59-.09.81.4.02.9.41,1.12-.07.1-.2.08-.39.01-.59-.2-.1-.32-.36-.53-.45h0Z"/><path class="cls-12" d="m111.59,185.1c.23.07.51-.18.56-.38,0-.13.01-.26.02-.38.04-.14.18-.25.18-.4-.12-.07-.26-.15-.39-.24-.24-.12-.85-.31-.66-.71.32-.67.77-.02,1.18-.02.22-.19.65-.27.62-.65,0-.12-.06-.22-.15-.3-.37-.3-.84.27-1.14.04-.08-.07-.11-.19-.11-.31,0-.75-.09-.82-.84-.84v.04c-.66.31-.04,1.3-.54,1.48-.28.1-1.02-.85-1.69-.76-.7.11-.04.96-.66,1.01h-.01c.15.31.32.62.5.93.14.02.28.08.43.05.22-.05.27-.31.45-.43.05-.04.11-.05.18-.04.12.07.25.14.37.21.15.06.36.04.46.2.15.22-.15.43-.18.63-.01.15.07.32.14.44.05.1.09.2.21.22.07,0,.12.02.12-.05.08-.2.23-.77.59-.53.26.18.05.68.36.78h-.01Z"/><path class="cls-12" d="m109.9,174.76c-.4,0-1.08.56-.55.88.04.01.08.02.12.04.27.01.29-.32.51-.37.21-.05.38.12.59.12.05,0,.14-.04.14.02.1.06.21.11.32.17.15.05.5-.01.48-.23v-.03s-.02-.04-.03-.06c-.02-.02-.04-.04-.07-.07-.02-.01-.04-.03-.06-.04-.01,0-.02-.01-.04-.03-.14-.1-.87-.38-.74-.57.04-.04.12-.15.18-.15v-.1c-.35-.24-.61-.47-1.04-.54v.04c-.21.11-.46.78-.04.78.2-.11.3.14.24.14v.04-.02Z"/><path class="cls-12" d="m113.71,175.7c-.17.11-.35.23-.51.34-.48.12-.87-.25-1.37-.21-.45.04-.38.54-.73.64-.36.09-.7-.26-1.04-.29-.41-.05-.6.23-.95.29-.25-.04-.51-.07-.76-.1-.12.01-.25.12-.28.24-.09.32.04.72.3.88.12.07.33.15.39.3.08.24-.21.49-.05.73.22.33.71.2,1.07.28.28.06.47.27.79.28.91.03,1.02-.59.55-1.2-.12-.15-.21-.37-.09-.55.1-.15.27-.22.47-.19.18.07.35.13.52.2.71.25.36.73.21,1.14-.07-.06-.15-.1-.24-.11h-.06v.04c-.3.18-.09.76-.12,1.04-.04.26-.27.59-.12.87,0,0,0,.01.01.02.15.24.5.07.73.16.13.05.18.21.32.26.02,0,.04,0,.07,0,.09-.13.23-.24.23-.4-.04-.03-.25-.27-.1-.27.13.1.35.23.54.17.41-.13.65-.48.16-.73-.3-.16-.73-.1-1.02-.27-.06-.04-.08-.08-.1-.13.8.26.87-.83,1.47-.73.26.04.46.34.7.46.08.04.48.13.48.2h.06c.22-.35.22-.87.59-1.06.05-.03.14-.1.14,0,.26.15.12.65.46.7.12.01.22-.04.3-.1.36-.33-.19-.62-.31-.9-.04-.21-.07-.42-.1-.62-.07-.22-.29-.37-.29-.62.1-.08.2-.16.3-.24.04-.02.07-.04.12-.05.02.04.04.08.04.13.02.16-.03.31-.04.46-.03.45.34.58.73.58.13-.07.38-.1.44-.27.01-.05.02-.13,0-.18-.04-.08-.56-.67-.56-.67,0-.06-.01-.04.04-.04.17-.21.35-.03.58-.01.09,0,.71-.09.78-.12.13-.08.17-.21.26-.33.04-.06.1-.1.18-.12.36-.04.79.72,1.12.27.09-.12.11-.26.1-.43-.02-.26-.2-.49-.41-.64-.21-.14-1.14-.41-1.04-.8.03-.14.22-.18.32-.26.13-.12.25-.46.46-.46.19.34.04.69.59.52.05-.01.07,0,.07-.07.23.07.38.37.65.34.42-.06.46-.48.73-.64.07-.04.14-.07.21-.09,0,.04.01.08.03.12.16.54.84.11,1.1.4.12.15-.05.35.18.56.24.21.51.39.81.2.08-.05.15-.14.25-.14.11,0,.18.1.27.15.18.1.48,0,.59-.14.29-.38-.62-.57-.51-.87.15-.41.58-.1.86-.1.08-.07.2-.1.27-.19.14-.18.08-.53-.15-.59-.21-.05-.3.31-.49.31-.21,0-.34-.22-.59-.13-.27.1-.11.61-.51.54-.23-.04-.3-.36-.43-.52-.12-.16-.3-.21-.48-.25v.04c-.14.07-.18.21-.2.37-.07.64-.31.36-.59.14.04-.01.09-.02.13-.04.01,0,.03-.01.04-.02.02-.01.04-.04.06-.05.04-.04.08-.11.08-.18-.17-.18-.33-.35-.5-.52-.14-.26,0-.43-.34-.58-.25-.12-.5.15-.71.03-.17-.1-.24-.38-.47-.38-.15.05-.3.1-.46.15-.14-.04-.28-.07-.41-.1-.06,0-.16.01-.16-.05h-.04v-.17c.23-.12.56-.26.37-.6-.23-.42-.52-.39-.83-.1-.05.04-.12.05-.12.12-.06,0-.08.03-.08-.04-.46-.21-.51-.8-.99-.91-.21.27-.18.65.11.88.18.15.42.12.51.37.04.12.1.62.07.76-.01.04-.15.19-.15.1-.24-.12-.37-.57-.62-.58-.51-.03-.45,1.04-.78,1.04-.19-.29-.54-1.27-1.05-.68-.18.21-.14.59-.45.7-.25.08-.71-.22-.84.1-.22.52.76,1.09,1.19,1.09.08-.01.17-.03.25-.04.09-.03.19,0,.26.04.33.19-.12.51-.14.71-.03.21.21.46.03.64-.11.1-.29.06-.43.08-.18.03-.29.18-.47.22-.28.06-.57-.18-.75.14-.07.14.07.3.14.4.05.13.11.26.16.39.16.22.38,0,.57-.06-.02.1-.04.21-.06.31-.04.11-.23.2-.23.29-.15-.06-.27-.11-.39-.22-.01-.02-.04-.04-.05-.05-.22-.24-.28-.54-.6-.68-.05-.02-.12-.09-.12.01l-.06-.02Z"/><path class="cls-12" d="m120.85,177.45c-.15-.06-.33-.04-.43-.17-.1-.12.04-.29.07-.42.07-.37-.58-.51-.84-.54-.28.21-.37.39-.48.71-.02.07-.04.13-.07.19-.23-.03-.44-.18-.68-.15-.12.01-.18.15-.27.15.03.11.07.23.07.36,0,.18-.1.4.01.55.14.17.53.07.61.29.1.26-.2.44-.08.72.37.93,1.04.08,1.55-.12.18-.07.41-.02.56-.13.18-.14.1-.31.11-.51.01-.33.29-.79-.14-.95h0Z"/><path class="cls-12" d="m122.2,178.46c.08-.05.18-.05.25-.12.1-.09.11-.21.15-.32.12-.3.26-.57-.14-.75v.04c-.12.06-.17.18-.28.26-.09.06-.21.04-.28.12-.02.1-.04.19-.07.29-.09.37-.17.48.35.48h0Z"/><path class="cls-12" d="m107.83,172.9c.08.15-.04.4-.01.59.01.1.07.2.15.24.09.03.18.05.26.08.05-.09.1-.17.15-.26.1-.26-.18-.4-.18-.64.13-.1.29-.17.4-.32.12.32.73.46.99.59.14.1.27.19.41.29.18.09.39.11.56.21.04.02.75.58,1.45.58.2-.18.43-.29.44-.6,0-.1-.02-.2-.03-.3.02-.15.04-.32.06-.47-.12-.09-.26-.22-.32-.35-.09-.26.14-.65.44-.59.69.13.15.66.5,1,.13.13.35.09.48-.01.04-.06.1-.12.14-.18.04-.11-.18-.96-.25-1.04-.13-.16-.48-.15-.48-.4.42-.37.11-.64-.35-.66-.21-.01-.35.16-.55.13-.19-.03-.14-.27-.04-.37.03-.03.47-.39.47-.39-.07-.18-.3-.4-.18-.62.23-.42.78-.06,1.08-.4.31-.36-.23-.65-.51-.69-.13.09-.29.18-.47.18-.2,0-.4-.1-.57.01-.25.17-.12.59-.43.7-.18.06-.35-.11-.51-.15-.4-.09-.46.27-.53.56-.05.18-.1.35-.15.52-.05.3.22.4.48.4.28-.11.81.32.6.62-.19.26-.73.06-1.02.11-.1.02-.21.07-.27.16-.19.26.43,1.04.3,1.04v.04c-.32-.03-.59-.12-.89-.2-.23-.06-.69-.35-.84-.14-.1-.26-.29-.52-.39-.64-.03-.04-.12-.24-.02-.24v-.04c.1.01.18.03.28.04.38.11.84.35,1.18,0,.06-.07.12-.13.12-.23,0-.28-.52-.57-.52-.66-.04,0-.06-.02-.06.04-.18.14-.21.65-.52.23-.03-.04-.1-.15-.04-.15.06-.16.23-.24.24-.43.01-.29-.4-.54-.4-.62-.08.03-.18.08-.22.18-.07.15,0,.52-.22.52-.23-.43-.44-.72-.9-.74-.19.43.13.82.19,1.21.04.29-.06.46.05.73.01.04.02.11.07.11-.1.2-.2.12-.37.16-.12.03-.23.13-.31.24-.04.05-.09.11-.1.19-.03.37.98.54,1.15.84h0Z"/><path class="cls-12" d="m108.8,181.14c.13-.06.27-.17.34-.29.19-.37-.29-.52-.44-.76,0,0,0,0,0,0-.07-.12-.04-.33-.07-.47-.08-.26-.72-.65-.96-.73-.47.44-.74.26-1.24.11.13.4.27.79.43,1.2,0,0,0,.01,0,.02.2-.04.41-.05.64.04.52.2.44,1.29,1.31.9h0Z"/><path class="cls-12" d="m110.02,185.66c-.21-.29-.41-.58-.63-.87-.11-.1-.23-.17-.37-.21.51.84,1.09,1.67,1.72,2.49.12-.11.21-.25.2-.47-.04-.12-.07-.22-.12-.33-.26-.2-.54-.4-.81-.59h0Z"/><path class="cls-12" d="m121.8,189.48c-.2-.1-.34-.34-.53-.45-.17-.09-.37-.05-.52-.17-.12-.08-.14-.23-.2-.35-.13-.26-.39-.37-.65-.37-.48,0-.21.78-.73.76-.14-.05-.28-.1-.43-.14-.09-.02-.17-.01-.23.04-.24.18,0,.82-.4.82-.1-.22-.07-.53-.18-.75-.07-.13-.18-.24-.3-.32-.18-.05-.35-.1-.52-.15-.26-.12-.51-.41-.79-.4-.49.01-.35.85-1.02.33-.11-.09-.26-.2-.3-.35-.12-.43.59-.52.5-1.11-.12-.75-1.35-.39-.53-1.53.09-.14.22-.46.37-.52.07-.02.14,0,.18.07.14.22.04.56.17.79.12.22.45-.04.62.26,0,.01.01.04.02.06.15.37,0,1.29.46,1.4.18.04.3-.06.46-.06.18.34.18,1.04.72.84.12-.05.26-.14.32-.28.22-.6-1.02-.71-.9-1.28.01-.07.08-.13.15-.17.91-.35.93,1.78,1.92,1.34.15-.07.29-.18.35-.37.15-.51-1.04-1.06-1.16-1.53-.07-.21.09-.35.26-.36.32-.02.39-.15.32-.49-.08-.35.11-.69-.09-.98-.14-.22-.33-.37-.59-.34-.11.01-.21.06-.32.01-.32-.14-.7-.78-1.08-.59-.58.26.43,1.34-.58,1.46-.12.02-.24.05-.37.07-.36-.06-.15-.83-.27-1.11-.21-.48-.65-.68-1.11-.75-.07.09-.12.19-.18.28-.12.31-.06.65-.38.79-.46.21-.97-.98-1.31-.64-.21.21-.05.9.01,1.16.04.11.07.21.11.32-.3.24-.46.63-.38,1.08.04.12.07.25.1.37.07,0,.05-.01.05.05-.18.1-.34.21-.56.22-.28,0-.63-.32-.85,0-.07.1-.1.25-.07.4.06.52.46.52.89.52.09-.01.18-.04.27-.05.18-.12.7-.26.92-.26-.04.39-.48,1.58.19,1.67.28.04.44-.32.7-.24.08.04.12.11.13.2.09.39.12.65.45.86.13.08.26.17.39.25.02.04.05.07.08.12.04.07.08.12.08.21-.08.04-.18.1-.28.1-.15,0-.32-.18-.46-.04-.13.13-.09.43-.21.58-.06.08-.13.15-.2.22.33.32.66.64,1.01.95h.14c.63-.62.49.05,1.2.05.1-.04.2-.08.3-.13.4-.31.62-.71,1.17-.59.13.02.27.08.37.2.27.36-.18.89.51.89.02,0,.06.01.08.04.11.06.62.71.62.84.06,0,.04-.01.04.06h-.04v.05c-.07,0-.05.01-.05-.05-.24-.2-.57-.47-.87-.47-.11.25-.04.4,0,.68.1.9.78.21,1.24.21.02.07.28.51.28.51h.09v-.05c.46-.2.54-.38.31-.85-.11-.21.05-.51-.09-.69-.15-.13-.32-.26-.48-.4-.12-.12-.25-.24-.38-.34-.21-.17-.44-.29-.65-.46-.12-.1-.32-.17-.39-.36-.07-.19.01-.51.05-.69.04-.21.04-.46.18-.6.05-.05.13-.08.2-.04.11.06.57.78.57.95,0,.18-.12.24-.17.39-.12.46.4.7.72.7.08-.06.17-.12.25-.18.4-.51-.34-.7-.34-1.06.31-.2.72-.41,1.1-.41.56-.24.93.94,1.49.18.12-.17.09-.41-.04-.57-.22-.25-.6-.15-.88-.28h0Z"/><path class="cls-12" d="m127.53,175.97c-.12-.24-.47-.21-.66-.37-.19-.16-.28-.38-.48-.51-.12-.07-.3-.07-.43-.1v.04c-.18.08-.25.36-.38.39-.35.08-.57-.54-.9-.06-.05.07-.06.15-.06.26,0,.39.3.43.49.69.13.19-.19.26-.34.26-.07.31.13.51.45.51.08-.01.16-.02.25-.04.22-.09.51.04.73-.04.35-.13.12-.43.36-.59.23-.15.59,0,.82-.13.07-.04.11-.08.15-.15,0-.03,0-.07,0-.1,0-.01,0-.02,0-.04h0Z"/><path class="cls-12" d="m121.88,176.78c.15-.15.02-.36.05-.55.02-.12.12-.17.15-.28.03-.12-.04-.23,0-.35.05-.15.21-.22.26-.39h-.04c0-.07-.22-.02-.27,0-.59,0-.51-.81-1.04-.91-.09.16-.1.4-.1.61,0,.1-.03.26.01.35.11.25.71-.05.75.36.01.19-.29.35-.46.29-.08-.05-.16-.1-.24-.15-.05,0-.1,0-.12.05-.05.07-.04.21-.04.31,0,.1,0,.21.05.29.1.16.75.31.95.39,0,.07.05,0,.08-.02h-.01Z"/><path class="cls-12" d="m105.95,172.95c.07.01.15.04.22.05.11.04.21.08.32.13.18.01.48-.17.41-.38-.04-.13-.17-.19-.25-.31-.12-.18-.14-.43-.39-.49-.14-.04-.29.06-.43-.01-.14-.09-.2-.3-.36-.37-.02,0-.04,0-.07-.01,0,.26-.04.51-.04.78.05,0,.1,0,.15-.01.07,0,.11.09.18.09-.04.24.02.45.24.54h0Z"/><path class="cls-12" d="m107.15,176.74v.1c-.21.2-.04.95.3.81.12-.06.24-.14.3-.26.1-.2-.12-.33-.09-.53.02-.12.12-.21.18-.32.05-.13.04-.24.12-.34.06-.06.12-.12.19-.18.14-.13.13-.39.11-.59,0,0,0-.01,0-.04-.06-.26-.63-.56-.84-.32-.08.09,0,.22-.06.34-.02.06-.08.08-.15.07-.01,0-.04-.01-.06-.02-.04-.02-.07-.05-.12-.07-.06-.05-.12-.1-.18-.15-.04-.04-.09-.08-.13-.13-.15-.25.51-.46.1-.7-.07-.04-.13-.06-.19-.09-.06-.01-.31-.12-.31-.07-.28.15-.18.68-.14.95,0,.04.04.1-.02.1v.04c-.23-.06-.4-.19-.58-.3.12.96.29,1.92.54,2.86h0c.12-.12.29-.18.41-.32.13-.13.41-.82.62-.82v-.02Z"/><path class="cls-17" d="m218.16,179.66l-2.81-2.98s-5.64-22.43-5.67-22.53c-.07-.05-13.61-10.08-16.38-12.01,0,0-.57-.9-.58-.9-.7.33-3.48,1.81-4.45,2.25-.19.09-.39.18-.59.27-1.18.55-2.5,1.15-3.88,1.79-.21.09-.4.19-.62.28-1.27.59-2.59,1.2-3.89,1.79-.2.09-.4.18-.6.28-.57.26-1.15.52-1.7.78l-2.17,1.01-.62.28-3.89,1.79-.6.28-2.22,1.02c-.04.13-.12.39-.22.76-.02.08-.05.18-.08.28-.14.48-.32,1.09-.53,1.79-.02.09-.05.19-.08.28-.15.56-.33,1.15-.52,1.79-.02.09-.05.18-.08.28-.17.57-.35,1.18-.52,1.79-.04.09-.06.18-.08.27-.18.59-.36,1.2-.53,1.79-.02.1-.05.19-.08.28-.18.6-.36,1.2-.52,1.79-.04.09-.06.19-.08.28-.18.62-.36,1.22-.52,1.78-.04.09-.06.19-.09.28-.19.65-.37,1.26-.52,1.79-.02.1-.06.19-.08.28-.24.84-.43,1.47-.52,1.79-.05.17-.07.26-.07.26v.07s-.09.02-.09.02l-6.14,1.71-1.01.28-6.26,1.74-.12.04-1.01.28-6.4,1.78-1.01.28-3.6,1.01-1.01.28-1.01.28-.51.14-1.35.38-.32.08-2.35.65-.54.15-1.01.28-1.01.28-2.23.62-.84.24h-.05s-.23.08-.23.08v13.94l95.1.26v-14.86l-1.17-1.04v.05Z"/><path class="cls-12" d="m238.67,180.66c-.68-.01-1.34.9-1.64.84-.52-.11.01-1.06-.68-1.26v-.04c-.76.1-.84.17-.78.83,0,.1,0,.21-.08.28-.27.24-.8-.21-1.15.09-.09.07-.12.18-.12.28,0,.34.44.37.69.51.42-.04.82-.66,1.2-.1.23.34-.37.57-.6.7-.12.08-.25.17-.37.25.01.14.17.22.22.34.02.11.04.22.06.34.07.18.37.37.59.28.3-.12.04-.54.29-.73.34-.25.54.24.64.4,0,.07.07.04.13.03.12-.04.15-.12.2-.22.06-.12.13-.26.1-.4-.04-.18-.37-.32-.23-.54.1-.15.29-.15.45-.23.12-.08.23-.16.35-.23.07-.01.12,0,.18.01.18.08.26.31.49.32.15.01.28-.05.42-.09.15-.29.29-.59.42-.87.09-.19.08-.19-.01,0-.63.02-.05-.8-.76-.82h.01Z"/><path class="cls-12" d="m235.36,175.17s-.02.02-.04.03c-.01.01-.04.03-.05.04-.02.02-.04.04-.06.07,0,.02-.01.04-.02.06v.03c0,.19.35.21.51.15.1-.06.2-.12.3-.18,0-.05.09-.03.13-.03.21-.02.37-.19.59-.16.23.02.28.32.55.28.04-.01.08-.03.12-.04.5-.35-.24-.76-.64-.72v-.03c-.07,0,.01-.22.23-.15.43-.04.12-.6-.1-.68v-.03c-.43.1-.68.34-1,.59,0,.03,0,.06,0,.09.05,0,.15.08.19.12.15.15-.57.48-.69.58h-.02Z"/><path class="cls-12" d="m233.78,170.19c.15.18-.07.4-.12.57,0,0,.48.27.51.29.1.08.18.29-.01.34-.2.04-.35-.1-.57-.06-.46.07-.74.33-.29.62.02.22-.33.26-.46.41-.07.08-.21.85-.15.95.05.05.1.1.16.15.15.08.36.1.48-.04.32-.34-.27-.75.41-.94.3-.09.57.24.5.48-.04.12-.18.26-.28.35.04.14.07.27.1.41v.26c.04.27.29.35.5.48.7-.07,1.37-.64,1.4-.66.17-.11.37-.15.54-.25.13-.1.26-.2.39-.29.25-.14.84-.32.95-.62.12.12.29.16.43.24.02.22-.26.36-.12.59.06.07.12.14.18.21.09-.03.18-.07.26-.1.07-.04.12-.14.12-.23.01-.18-.13-.37-.07-.52.14-.29,1.14-.54,1.07-.86-.01-.07-.07-.12-.11-.15-.1-.1-.21-.18-.33-.18-.18-.01-.27.07-.38-.1.05,0,.05-.07.06-.1.08-.26-.04-.4-.01-.66.02-.36.31-.73.08-1.09-.47.07-.65.35-.84.75-.21.02-.18-.32-.27-.44-.05-.08-.15-.12-.23-.13,0,.07-.39.33-.35.59.03.17.21.22.29.36.06,0,0,.1-.03.13-.28.4-.36-.04-.55-.15,0-.06-.02-.04-.07-.03,0,.08-.48.4-.46.64,0,.09.07.15.14.2.38.27.82.01,1.2-.12.1-.02.18-.04.28-.07v.04c.1,0,.03.18,0,.21-.09.12-.26.37-.33.6-.18-.16-.61.13-.84.21-.29.1-.57.21-.88.27v-.04c-.12.01.42-.74.21-.95-.07-.07-.18-.11-.29-.12-.29-.02-.82.22-1.04,0-.24-.24.26-.68.55-.61.26-.03.52-.14.44-.4-.07-.15-.13-.29-.2-.45-.1-.24-.18-.56-.59-.43-.15.04-.32.22-.5.18-.32-.07-.23-.46-.49-.58-.18-.09-.37.03-.58.04-.18.01-.35-.05-.49-.12-.29.07-.8.38-.46.67.33.27.85-.11,1.12.24h0Z"/><path class="cls-12" d="m239.38,178.1c-.23.09-.84.51-.9.75-.03.13.04.32-.03.43,0,0,0,0,0,0-.13.22-.6.4-.37.71.08.1.23.18.37.22.91.25.73-.7,1.23-.93.22-.1.43-.1.64-.1,0,0,0-.01,0-.02.12-.37.23-.73.32-1.1-.5.18-.75.37-1.26.04h.01Z"/><path class="cls-12" d="m240.04,172.88c.1-.06.2-.1.31-.15.07-.02.15-.04.22-.07.21-.1.25-.3.19-.5.07,0,.1-.08.17-.1h.15c-.02-.23-.07-.46-.11-.68-.02,0-.05,0-.07.01-.15.07-.19.26-.32.36-.12.08-.29,0-.43.06-.24.09-.24.31-.35.48-.07.11-.19.18-.22.3-.04.2.28.32.46.29h0Z"/><path class="cls-12" d="m240.58,174.78v-.03c-.06,0-.04-.05-.04-.09.01-.25.07-.72-.23-.83,0-.05-.25.07-.3.09-.06.04-.12.07-.18.1-.39.26.29.37.17.61-.04.05-.08.09-.12.13-.05.05-.12.1-.17.15-.04.03-.07.05-.11.08-.01,0-.04.02-.06.03-.07.01-.12,0-.15-.05-.06-.1,0-.22-.09-.29-.23-.18-.78.14-.82.37v.03c0,.18,0,.4.16.51.07.04.15.09.21.13.1.09.1.18.15.29.06.09.17.17.21.26.05.17-.16.32-.04.48.07.1.2.16.32.21.35.09.46-.59.23-.74v-.09c.2-.02.55.56.69.66.14.11.31.15.45.24h0c.16-.86.25-1.73.29-2.59-.18.12-.34.26-.56.33h0Z"/><path class="cls-12" d="m234.16,180.45c-.06-.07-.18-.12-.3-.13-.24-.01-.51.15-.71.08-.37-.14-.68-1.18-1.11-1.11-.1.01-.15.07-.21.12-.12.1-.24.22-.26.35-.03.18.07.29-.15.4,0-.05-.08-.05-.14-.06-.35-.08-.54.04-.88.04-.48-.02-.96-.31-1.46-.06.07.48.43.67.97.87.02.22-.43.2-.6.29-.04.01-.07.04-.09.07-.07-.07-.16-.14-.26-.21-.15-.1-.31-.24-.5-.24-.31,0-.61.32-.91.4v-.07s-.05,0-.07,0c-.05-.48-.17-.63-.61-.85-1.04.17-1.19.69-.46,1.29.04.32-.26.62-.51.84.05.15.11.29.16.44,0,.02,0,.04.01.06.05,0,.1,0,.15,0,.67-.15,0-.57.4-.85.05-.04.12-.06.19-.05.21.01.32.25.56.25.25,0,.37-.26.59-.28.18-.02.43.09.46.27,0,.12,0,.23,0,.36.02.17.15.31.31.37.04-.01.08-.02.12-.04.21-.09.39-.21.51-.4.21-.33.27-.6.2-.84.11.06.23.1.35.08.23-.04.3-.23.49-.31,0-.07.13,0,.18.02.53.28-.07.37-.21.57-.08,0-.04.02-.04.07.11-.01.51.5.84.47.12-.01.2-.07.27-.15.38-.4.05-.86-.12-1.25-.02-.1-.05-.19-.08-.29h.04c0-.1.24-.03.29,0,.24.15.97.52,1.3.29.18-.13.24-.32.35-.48.29-.03.47.26.78.12.1-.07.19-.13.29-.19-.04-.09-.08-.18-.12-.27h0Z"/><path class="cls-12" d="m234.5,182.52c-.37-.26-.78.84-1.26.7-.34-.1-.3-.4-.46-.66-.07-.07-.13-.15-.21-.23-.46.11-.88.33-1.05.78-.1.26.18.93-.18,1.01-.12,0-.25-.01-.37-.02-1.03,0-.11-1.06-.72-1.23-.16-.05-.32.02-.46.14.1.23-.38.9-.28,1.01.21.24.55-.4.85-.11.06.06.1.14.1.22,0,.12-.34.5-.29.5.12.18.35.12.46.32.12.21-.08.36-.07.57,0,.12.09.24.15.32.06.08.13.14.24.14.07-.15.17-.47.35-.57,0-.04.01-.08.02-.11,0-.01.01-.04.02-.05.14-.29.5-.09.59-.3.1-.22-.03-.5.1-.71.04-.07.1-.1.18-.08.15.04.32.31.43.43.12.12.2.21.25.29-.02-.1.01-.21.18-.37.07-.07.18-.18.28-.18.13.18.26.43.52.43.05-.04.1-.08.15-.12.1-.12.14-.28.3-.34,0,0,.01,0,.02,0,.01,0,.04,0,.06-.01.23-.03.39.1.57.13-.07-.25-.23-.45-.46-.58.03-.1.06-.2.08-.29.04-.24.14-.86-.09-1.03h0Z"/><path class="cls-12" d="m226.16,179.39s0,.1-.03.15c.15.05.36,0,.52.04.52.12,1.27.8,1.57-.06.09-.26-.22-.4-.15-.63.07-.21.46-.16.59-.32.11-.14-.01-.34-.04-.49-.01-.12.02-.22.04-.32-.09,0-.18-.1-.29-.1-.23,0-.44.15-.66.2-.03-.06-.05-.11-.08-.16-.14-.27-.25-.43-.55-.58-.26.05-.9.24-.79.57.04.11.19.24.1.36-.07.1-.2.12-.32.16.04.07.06.15.02.23-.05.07-.1.12-.15.19-.07.09-.1.16-.1.22.02.06.04.12.06.18.1.12.26.21.26.38h0Z"/><path class="cls-12" d="m225.87,177.31c.04-.07.04-.17.03-.26,0-.09-.01-.21-.07-.27-.03-.04-.07-.04-.12-.03-.08.05-.15.1-.23.15-.15.07-.48-.04-.48-.21,0-.37.63-.17.72-.4.03-.08,0-.23-.02-.31-.02-.18-.05-.39-.15-.53-.52.15-.37.85-.97.92-.05-.01-.28-.04-.27.03h-.04c.07.15.23.18.3.32.04.09,0,.18.04.28.18-.15.49-.17.54.12.04.19-.13.36-.26.47-.02.02-.05.04-.07.07.01.03.04.05.07.07.03.02.09.07.08.01.2-.09.83-.29.93-.44h0Z"/><path class="cls-12" d="m221.22,175.18c.28-.03.69-.35.87,0,.01.03.01.06,0,.09.1-.05.22-.05.37.09.11.11.12.25.22.37.12.13.35.1.43.28h0c.18-.02.33-.15.47-.28.22-.21.02-.37.13-.51.23-.29.96.03,1.07-.47,0-.04.01-.07.01-.11.07.01.15.03.22.06.29.11.37.48.79.48.28,0,.4-.27.63-.37,0,.06.03.04.08.05.57.09.38-.21.54-.52.21-.02.36.26.5.36.1.07.3.08.35.2.12.33-.78.67-.98.82-.21.15-.36.38-.35.61,0,.15.04.27.14.37.37.37.73-.36,1.1-.35.07,0,.14.04.18.08.1.1.15.21.29.26.07.02.7.04.79.02.23-.04.39-.21.58-.04.06,0,.04-.01.04.03,0,0-.47.57-.5.65-.01.04,0,.11.01.15.07.15.32.14.46.19.4-.04.75-.2.68-.59-.02-.13-.09-.25-.08-.4,0-.04.01-.08.03-.12.04.01.09.02.12.04.11.06.21.12.32.18.02.23-.18.38-.23.58-.01.18-.03.37-.05.57-.09.26-.62.58-.23.83.09.05.19.09.32.06.33-.08.14-.51.4-.67,0-.1.09-.04.14-.01.39.13.43.59.68.87h.06c0-.06.4-.18.47-.23.23-.14.4-.41.66-.48.59-.16.76.8,1.55.48,0,.04-.03.09-.08.12-.28.19-.71.17-1.01.35-.46.28-.19.56.23.63.19.04.4-.1.53-.21.15-.01-.04.22-.08.25.01.15.17.23.28.33.02,0,.04,0,.07-.01.14-.06.18-.2.3-.26.22-.11.59,0,.71-.22,0,0,0-.01.01-.02.12-.27-.15-.54-.21-.76-.07-.25.1-.78-.23-.91v-.03s-.02,0-.03,0h-.03c-.1.02-.17.07-.23.12-.19-.35-.59-.73.1-1.03.17-.07.34-.15.51-.23.2-.04.37,0,.49.12.15.15.07.35-.04.49-.42.59-.25,1.12.66,1,.32-.04.49-.25.76-.33.35-.11.87-.04,1.05-.36.13-.23-.18-.41-.12-.64.04-.15.24-.23.36-.31.25-.17.34-.54.22-.81-.04-.1-.18-.18-.3-.18-.25.06-.5.11-.76.17-.36,0-.57-.24-.98-.15-.34.07-.65.41-1.02.37-.37-.04-.35-.5-.8-.48-.51.01-.87.39-1.37.33-.18-.08-.37-.16-.55-.25,0-.09-.07-.02-.12,0-.32.16-.35.43-.54.67-.01.01-.04.04-.05.05-.11.11-.23.17-.37.24,0-.08-.21-.15-.26-.24l-.09-.26c.19.03.43.21.58,0,.04-.12.09-.24.12-.36.06-.1.2-.26.1-.37-.21-.27-.48-.02-.77-.04-.18-.01-.31-.14-.49-.15-.15,0-.33.05-.45-.03-.2-.14.01-.39-.03-.57-.04-.18-.52-.4-.21-.61.07-.04.17-.08.26-.07.09,0,.17,0,.26,0,.43-.04,1.37-.65,1.09-1.09-.16-.26-.6.05-.86,0-.32-.06-.32-.4-.51-.57-.57-.46-.82.44-.99.71-.34.04-.37-.91-.88-.83-.25.04-.35.44-.57.57,0,.08-.14-.04-.15-.07-.05-.12-.04-.56,0-.68.07-.24.32-.24.48-.39.26-.24.26-.57.03-.79-.48.15-.47.68-.91.91,0,.06-.02.04-.08.04,0-.07-.08-.07-.13-.1-.34-.22-.64-.21-.83.18-.15.32.19.41.43.49,0,.05,0,.1.01.15h-.04c0,.06-.1.05-.16.07-.13.04-.27.09-.41.13-.15-.03-.32-.06-.47-.09-.23.02-.28.29-.44.38-.21.13-.48-.08-.73.05-.32.18-.17.3-.29.55-.15.17-.3.34-.46.51,0,.06.05.11.1.15.02.01.04.03.07.04.01,0,.03,0,.04.01.04,0,.09.01.13.02-.26.23-.48.5-.6-.07-.03-.14-.08-.26-.23-.31v-.03c-.18.07-.35.12-.46.27-.12.15-.15.45-.38.51-.4.11-.28-.37-.57-.43-.26-.05-.37.16-.58.18-.19.02-.32-.29-.53-.22-.23.08-.26.4-.1.54.08.07.21.08.29.14v.04Z"/><path class="cls-12" d="m230.14,186.61c.1-.26.48-.5.13-.76-.37-.29-.4.6-.8.52-.06-.18-.16-.43-.08-.63.1-.29.73-.43.44-.82-.33-.43-.74,0-1.08.1-.26.08-.64-.1-.58-.4.18-.09.51-.2.59-.41.17-.45-.89-1.25-1.22-1.37,0,.01,0,.04,0,.05-.23.05-.73.32-.79.57.05.06.25.36.14.34,0,.03-.01.07-.02.1-.51-.01-.9-.85-1.41-.55-.07.04-.14.1-.16.19.02.15.04.29.06.44,0,.27-.12.48,0,.73.03.07.82.76.84.77-.01.07,0,.05-.06.04-.24.26-.31.8.13.9.26.06.58-.17.77.09.34.43.32,1.78,1.3,1.56.73-.17-.13-1.27-.2-1.64v-.04s.04,0,.05,0c.25-.3.82-.2,1.01.13.17.29-.07.61.31.79.09.04.24.09.34.06.38-.1.19-.46.3-.74v-.02Z"/><path class="cls-12" d="m233.22,188.86c-.41.18-.34.17-.77.02-.12.1-.09.32-.01.51.02.07.07.14.11.2.04.05.07.1.11.13.27-.28.54-.57.79-.85,0-.02-.01-.04-.02-.06-.05.05-.13.02-.19.05h0Z"/><path class="cls-12" d="m225.13,178.88c-.21-.09-.55-.08-.68-.28-.02-.04-.07-.06,0-.07.1-.11.18-.22.28-.34.04-.12,0-.22-.06-.3-.26-.39-.69-.32-1.11-.43-.17-.04-.37-.11-.51-.21-.21-.15-.1-.4-.23-.57-.14-.18-.43-.11-.61-.23-.16-.1-.15-.29-.35-.37-.01,0-.02,0-.04,0-.1.21,0,.32-.07.51-.04.12-.21.2-.23.34-.04.24.22.49.43.55.12.02.24.04.37.05.15.05.27.18.37.28.06.06.15.14.15.23-.18.15-.77.62-.76.87.26.13.5.38.84.32.24-.18.3-.01.46-.04-.12.33-.3.54-.29.92,0,.05-.02.09.05.07v.04h0c-.07.09-.18.12-.32,0-.08-.1-.17-.2-.25-.3-.79.23-.48,1.05-.04,1.51.87-.1.37-.56.71-.81.06-.04.15-.04.23-.04.19.01.32.18.51.15.23-.04.49-.51.45-.82.18,0,.4-.07.38-.26-.04-.12-.07-.24-.12-.37.13-.11.26-.22.39-.33v-.09h.01Z"/><path class="cls-12" d="m222.56,182.25c-.14.07-.14.24-.27.31-.18.09-.56-.16-.64.13-.02.09,0,.15.06.21.26.29.44.04.72.03.15,0,.29.14.43.04.1-.07.2-.49.29-.49v-.07c-.18-.12-.37-.15-.59-.2v.03Z"/><path class="cls-12" d="m225.86,187.17c-.36-.88-1.7-.28-1.87-.81-.05-.14.08-.25.23-.29.46-.11,1.12-.1.87-.65-.05-.11-.26-.16-.26-.26-.28.02-.51.03-.67-.16,0-.01-.01-.02-.02-.04h.07c.12-.15.25-.3.37-.45.12-.44-.57-.43-.93-.51-.24-.07-.47-.14-.71-.21-.62.67-.62.62-1.59.32-.16-.04-.32-.08-.49-.12-.26.34-.18.91-.02,1.27.02.05.03.04-.04.04-.08.12-.16.24-.24.36-.13.36.32.7.36,1.05,0,.06.05.15-.05.15v.05c-.23,0-.54-.04-.69.06-.28.18-.07.54.26.56.39.02.89-.66,1.34-.75.23-.05.4.06.56.17,1.07.78-.6.82-.86,1.2-.18.26,1.05.73,1.34.73.66-.03.21-.51.26-.78.05-.25.54-.7.83-.8.64-.23,1.34.59,1.81.59.19-.24.26-.43.14-.72h0Z"/><path class="cls-12" d="m227.81,190c-.11-.21-.51-.29-.51-.54,0-.05,0-.07.04-.07.1-.07.29-.1.32-.25.06-.25-.37-.52-.59-.48-.17.03-.21.2-.33.29-.1.07-.18.04-.27,0-.28-.16.18-.46.3-.53.03-.02.37-.25.37-.25-.12-.29-.43-.37-.73-.39-.12.17-.35.63-.35.85.04.05.18.35.07.35v.04h-.12c-.07-.19-.65-1.13-.93-.78-.09.12.02.28,0,.43-.04.25-.3.49-.04.74.16.15.77.03.77-.15.43.23,0,.52,0,.82,0,.2.18.4.33.51.28.21.41-.21.64-.26.25-.01.51-.04.76-.05.1-.03.2-.21.28-.21,0-.05.01-.04-.04-.04h0Z"/><path class="cls-12" d="m232.66,188.29c.21-.6-1.06-.62-1.06-1-.02-.09.11-.39.19-.39-.12-.25-.3-.26-.58-.27-.12.07-.33.1-.43.22-.16.21.2.48,0,.71-.23.27-.68-.23-.84.31-.04.13.02.27.1.37.1.12.25.21.4.25.64.14.4-.73.84-.7.43.03.24,1.13,1.09.76.12-.06.24-.11.29-.25h0Z"/><path class="cls-12" d="m235.13,185.39c-.36.11-1-.46-1.23-.12-.32.44.65.6.9.63,0,.1-.01.19-.02.28-.21-.01-.43-.04-.65-.07-.18-.02-.33-.11-.51-.07-.21.05-.33.38-.57.37-.09,0-.4-.22-.41-.14-.11.05-.19.12-.24.22-.14.31.28.45.51.46.17-.04.32-.07.49-.1.32-.05.98,0,1.09.33.06.15-.12.21-.24.21-.27-.01-.62-.21-.89-.08-.17.08-.21.24-.23.44-.07.48.13.75.59.82.92-1.07,1.75-2.17,2.49-3.28-.17-.13-.39-.17-.62-.21-.12.13-.29.27-.46.32h0Z"/><path class="cls-14" d="m145.24,165.73c0,.08.06.15.15.15.02,0,.73,0,.73,0l.11-.04.04-.11-.04-.11-.1-.04h-.76s-.12.07-.12.15h0Z"/><path class="cls-14" d="m145.79,167.51l-.1.31h-.31c-.08,0-.14-.07-.14-.15s.07-.15.12-.15h.43Z"/><path class="cls-14" d="m146.13,159.77h-.77s-.12.07-.12.16c0,.08.06.15.14.15h.73l.12-.06.04-.1-.04-.11-.1-.04h0Z"/><path class="cls-14" d="m146.13,161.71h-.76s-.12.07-.12.15h0c0,.09.06.15.14.16h.73c.09-.01.16-.08.16-.16l-.04-.11-.1-.04h0Z"/><path class="cls-14" d="m146.13,152.06h-.76s-.12.07-.12.15h0c0,.09.06.15.15.16.02,0,.73,0,.73,0l.11-.04.04-.11c0-.09-.07-.15-.15-.15Z"/><path class="cls-14" d="m145.39,154.29h.73s.12-.06.12-.06l.04-.1-.04-.11-.1-.04h-.76s-.12.07-.12.15h0c0,.09.06.15.15.16h-.01Z"/><path class="cls-14" d="m146.14,155.91h-.76s-.12.07-.12.16.06.15.14.16h.73l.12-.06.04-.1-.04-.11-.1-.04h-.01Z"/><path class="cls-14" d="m146.14,157.85h-.76s-.12.07-.12.15.06.15.14.15h.73c.09-.01.16-.08.16-.16l-.04-.11-.1-.04h-.01Z"/><path class="cls-14" d="m146.13,163.64h-.76s-.12.07-.12.15.06.15.14.15h.73c.09-.01.16-.08.16-.17l-.04-.11-.1-.04h0Z"/><path class="cls-14" d="m150.71,150.95c-.36.12-.74-.08-.86-.43-.14-.43-.32-.84-.55-1.23.08.23.15.46.21.71.09.34-.12.69-.46.77-.34.09-.68-.12-.77-.46-.15-.62-.4-1.21-.7-1.73.12.43.23.87.3,1.34.05.32-.17.62-.49.68-.32.05-.62-.18-.67-.5-.11-.76-.32-1.46-.6-2.08.07.56.11,1.16.12,1.81,0,.3-.24.55-.53.56-.3,0-.55-.24-.55-.54-.01-.84-.09-1.59-.21-2.25-.12.66-.18,1.42-.2,2.25,0,.3-.26.54-.55.54-.3,0-.54-.26-.54-.56.01-.84.08-1.61.19-2.28-.39.72-.68,1.59-.82,2.53-.04.26-.29.44-.54.4-.26-.04-.44-.29-.4-.55.14-.95.41-1.82.78-2.58-.72.77-1.26,1.77-1.54,2.91-.05.22-.28.36-.51.3-.22-.06-.36-.28-.3-.51.27-1.1.77-2.09,1.42-2.91-1.06.82-1.89,1.95-2.33,3.28-.06.18-.26.29-.44.23-.18-.06-.29-.26-.22-.44.49-1.51,1.45-2.78,2.67-3.68.9-.44,1.89-.69,2.94-.69,3,0,5.58,2,6.46,4.87-.08.12-.19.21-.34.26h0Zm-6.91,22.6l-.57.15,7.26-11.17,1.47-1.07v-9.94c-.64-3.74-3.74-6.41-7.38-6.41s-6.68,2.62-7.37,6.23v24.04l.35-.1.35-.1v-2.46c.07-.07.17-.14.34-.22,1.98-.43,4.04-.7,6.15-.82h.01l.08-.26s-.06-.05-.1-.05c-2.12-.12-4.21-.07-6.19.14-.09,0-.2-.01-.3-.12v-2.54c.07-.07.17-.14.35-.22,1.97-.43,4.04-.71,6.15-.82.07,0,.14-.07.14-.15,0-.08-.07-.15-.14-.15-2.13-.12-4.22-.08-6.19.14-.09,0-.21-.01-.31-.13v-2.52c.07-.07.17-.15.35-.23,1.98-.43,4.04-.71,6.15-.81.07,0,.14-.07.14-.15s-.07-.15-.14-.15c-2.12-.13-4.21-.08-6.19.13-.09,0-.21-.01-.31-.12v-2.54c.07-.07.17-.15.35-.22,1.97-.43,4.03-.7,6.14-.82.08,0,.14-.07.14-.15,0-.08-.06-.15-.14-.15-2.12-.12-4.21-.08-6.19.13-.09.01-.2,0-.3-.12v-2.53c.07-.08.17-.15.35-.23,2-.44,4.06-.71,6.15-.82.07,0,.14-.07.14-.15s-.06-.15-.14-.15c-2.12-.12-4.21-.07-6.19.14-.09,0-.21-.01-.31-.12v-2.53c.07-.07.17-.15.35-.22,1.97-.44,4.03-.7,6.15-.82.07,0,.14-.07.14-.15,0-.07-.06-.14-.14-.15-2.12-.12-4.21-.08-6.19.13-.09.01-.21-.01-.31-.11v-.64c1.03-.18,2.1-.33,3.21-.44.11,0,.22,0,.34-.02.44-.04.89-.07,1.34-.09.58-.02,1.17-.04,1.78-.04s1.18.01,1.77.04c.46.02.9.06,1.34.09.12.01.23.01.34.02.57.05,1.1.12,1.64.19.49.07.96.15,1.43.24.04,0,.08,0,.13.01,0,.04.01.08.02.12v.81c-1.01-.24-2.06-.31-3.14-.24,0,0-.04.05-.04.13,0,.09.04.14.05.14,1.07.13,2.12.41,3.14.84v2.94c-1.02-.22-2.07-.3-3.14-.22,0,0-.04.05-.04.13s.04.13.05.13c1.05.13,2.11.41,3.14.84v2.94c-1.01-.24-2.06-.31-3.14-.24,0,0-.04.05-.04.13,0,.09.04.14.05.14,1.05.12,2.11.4,3.13.84v1.03"/><path class="cls-14" d="m149.04,163.61l-.48.36c-.14-.02-.28-.05-.43-.07-.01,0-.05-.05-.05-.14,0-.08.04-.13.04-.13.31-.01.62-.02.91-.01h0Z"/><path class="cls-10" d="m144.58,145.82c-1.04,0-2.04.25-2.94.69-1.23.9-2.18,2.17-2.67,3.68-.06.18.04.38.22.44.18.06.38-.04.44-.23.43-1.33,1.26-2.47,2.33-3.28-.65.82-1.15,1.81-1.42,2.91-.06.22.08.45.3.51.22.06.45-.08.51-.3.28-1.14.83-2.14,1.54-2.91-.37.76-.64,1.63-.78,2.58-.04.26.14.51.4.55.26.04.51-.14.54-.4.14-.95.43-1.81.82-2.53-.11.68-.18,1.45-.19,2.28,0,.3.23.55.54.56.3,0,.54-.24.55-.54.01-.84.09-1.59.2-2.25.12.66.18,1.42.21,2.25,0,.3.26.54.55.54.3,0,.54-.26.53-.56-.01-.65-.06-1.26-.12-1.81.28.62.48,1.32.6,2.08.05.32.35.54.67.5.32-.05.54-.35.49-.68-.07-.46-.17-.91-.3-1.34.3.52.54,1.11.7,1.73.09.34.43.55.77.46.34-.08.54-.43.46-.77-.06-.24-.13-.47-.21-.7.22.38.41.79.55,1.23.12.36.5.55.86.43.15-.04.26-.15.34-.26-.89-2.86-3.47-4.87-6.46-4.87h0Z"/><polygon class="cls-14" points="194.14 189.95 193.63 190.69 193.29 191.19 191.13 194.29 196.12 194.29 193.97 191.19 194.48 190.44 196.51 193.37 196.51 186.53 194.48 189.45 194.14 189.95"/><polygon class="cls-14" points="193.63 189.21 196.12 185.62 191.13 185.62 193.29 188.72 193.63 189.21"/><polygon class="cls-14" points="192.77 189.46 190.75 186.55 190.75 193.36 193.11 189.96 192.77 189.46"/><polygon class="cls-14" points="185.91 189.95 185.4 190.69 185.06 191.19 182.9 194.29 187.9 194.29 185.75 191.19 186.27 190.44 188.29 193.37 188.29 186.53 186.27 189.45 185.91 189.95"/><polygon class="cls-14" points="185.4 189.21 187.9 185.62 182.9 185.62 185.06 188.72 185.4 189.21"/><polygon class="cls-14" points="184.55 189.46 182.53 186.55 182.53 193.36 184.89 189.96 184.55 189.46"/><path class="cls-14" d="m210.25,184.33v-.9h-41.47v.9h12.33v11.38h16.81v-11.38m-8.78,10.81h-7.45v-10.37h7.45v10.37Zm8.22,0h-7.45v-10.37h7.45v10.37Z"/><path class="cls-14" d="m191.55,145.2c-.12-.12-.28-.18-.45-.18h-3.39c-.35,0-.62.29-.62.62l-.02,2.34c0,.17.07.32.18.45.12.12.28.18.44.18h3.38c.35.01.62-.26.62-.6l.03-2.36c0-.17-.07-.33-.18-.45h.01Zm-.68,2.59h-2.93c-.13,0-.24-.12-.24-.27s.11-.28.24-.29h2.93c.13,0,.24.12.24.28s-.11.28-.24.28Zm0-1.48h-2.93c-.13,0-.24-.12-.24-.27s.11-.28.24-.28h2.93c.13,0,.24.12.24.27s-.11.28-.24.28Z"/><path class="cls-14" d="m187.72,169.31h-5.01l2.5,4.27,2.5-4.27Zm-1.08.62l-1.42,2.43-1.42-2.43h2.86,0Z"/><path class="cls-14" d="m182.37,170.55v7.89l2.31-3.95-2.31-3.94Zm.62,2.26l.98,1.67-.98,1.68v-3.36Z"/><path class="cls-14" d="m188.06,179.66v-9.11l-5.34,9.11h5.34Zm-.62-6.86v3.38l-.98-1.69.98-1.68h0Zm-1.34,2.29l1.34,2.29v1.67h-.09l-1.78-3.04.53-.91h0Zm.54,3.96h-2.86l1.43-2.44,1.42,2.44h0Z"/><path class="cls-14" d="m189.59,167.59h-8.99v13.6h17.37v-13.6h-8.38Zm-.62,12.99h-7.53v-12.19h7.53v12.19Zm8.38,0h-7.53v-12.19h7.53v12.19Z"/><path class="cls-14" d="m196.09,169.31h-5.01l2.5,4.27,2.5-4.27Zm-1.08.62l-1.42,2.43-1.42-2.43h2.86,0Z"/><path class="cls-14" d="m190.75,170.55v7.89l2.31-3.95-2.31-3.94Zm.62,2.26l.98,1.67-.98,1.68v-3.36Z"/><path class="cls-14" d="m196.43,179.66v-9.11l-5.34,9.11h5.34Zm-.62-6.86v3.38l-.98-1.69.98-1.68h0Zm-1.34,2.29l1.34,2.29v1.67h-.09l-1.78-3.04.53-.91h0Zm.54,3.96h-2.86l1.43-2.44,1.42,2.44h0Z"/><path class="cls-14" d="m129.51,177.88l-.76.58s0,0-.01,0l-.15.12-.47.36h-.01l-.12.11h-2.83l-1.55,1.51v14.85h34.69v.29h2.81v-17.81h-31.57Z"/><path class="cls-17" d="m126.68,183.89c-.08,0-.14.07-.14.14v10.38c0,.07.06.14.14.14.07,0,.14-.07.14-.14v-10.38c0-.07-.07-.14-.14-.14Z"/><path class="cls-17" d="m146.18,181.67c-.18,0-.32.14-.32.32v1.85c.16.02.32.07.43.18.1.09.15.21.2.33v-2.37c0-.18-.14-.32-.32-.32h0Z"/><path class="cls-17" d="m144.98,182.14c0-.17-.13-.3-.3-.3s-.3.13-.3.3v1.78s.04-.01.05-.01l.54-.04v-1.73h0Z"/><path class="cls-17" d="m128.18,183.73c-.08,0-.15.07-.15.15v10.54c0,.08.07.15.15.15.09,0,.15-.07.15-.15v-10.54c0-.08-.07-.15-.15-.15Z"/><path class="cls-17" d="m155.18,180.62c-.21,0-.4.18-.4.4v1.82l.79-.08v-1.75c0-.21-.18-.4-.4-.4h0Z"/><path class="cls-17" d="m147.97,183.52h.04v-1.7c0-.18-.14-.33-.32-.33s-.33.15-.33.33v2.06c.14-.2.36-.35.62-.37h0Z"/><path class="cls-17" d="m132.68,183.21c-.11,0-.19.09-.19.2v11.02c0,.11.08.19.19.19s.19-.08.19-.19v-11.02c0-.11-.08-.2-.19-.2Z"/><path class="cls-17" d="m158.18,180.28c-.12,0-.23.05-.31.13-.07.07-.12.18-.12.29v1.84l.35-.04c.15-.01.39.06.5.09v-1.9c0-.08-.02-.15-.07-.21-.07-.12-.21-.21-.36-.21h0Z"/><path class="cls-17" d="m156.68,180.46c-.22,0-.4.18-.4.4v1.84l.82-.08v-1.76c0-.22-.18-.4-.4-.4h0Z"/><path class="cls-17" d="m149.53,181.66c0-.18-.15-.34-.34-.34s-.35.15-.35.34v1.81l.48-.04c.07,0,.14.01.21.03v-1.8h0Z"/><path class="cls-17" d="m152.55,181.34c0-.2-.17-.37-.37-.37s-.37.17-.37.37v1.81l.74-.05v-1.76h0Z"/><path class="cls-17" d="m145.86,189.49v4.92c0,.18.14.32.32.32s.32-.14.32-.32v-5.43c-.1.28-.33.48-.63.51h0Z"/><path class="cls-17" d="m150.69,181.15c-.2,0-.36.15-.36.35v12.93c0,.07.01.13.06.19.06.1.17.17.3.17.05,0,.09,0,.13-.02.02-.01.05-.02.07-.05.04,0,.06-.04.07-.07.05-.06.07-.13.07-.21v-5.03c-.11-.04-.21-.1-.29-.19-.16-.16-.25-.37-.24-.6l.05-4.58c0-.33.2-.62.48-.76v-1.76c0-.19-.15-.35-.35-.35h0Z"/><path class="cls-17" d="m134.18,183.04c-.12,0-.21.09-.21.21v11.17c0,.11.07.19.18.2,0,0,.02,0,.04,0s.01,0,.02,0c.04,0,.07,0,.09-.02.06-.04.09-.1.09-.18v-11.17c0-.12-.09-.21-.21-.21h0Z"/><path class="cls-17" d="m147.38,189.24s-.02-.04-.04-.05v5.23c0,.18.15.33.33.33s.32-.15.32-.33v-4.93h-.02c-.23,0-.44-.09-.6-.25h0Z"/><path class="cls-17" d="m148.83,189.49v4.93c0,.08.04.15.08.21.01.02.04.04.07.06.01.01.04.04.07.04.04.01.08.02.13.02.08,0,.15-.04.21-.08.04-.02.07-.06.08-.1.02-.04.04-.1.04-.15v-4.96c-.05,0-.1.03-.15.03h-.54,0Z"/><path class="cls-17" d="m153.67,180.8c-.21,0-.38.18-.38.38v2c.07.04.15.07.21.12.17.16.26.38.26.62v4.69c0,.33-.2.62-.48.75v5.06s0,.07.02.1c.04.17.18.28.36.28.03,0,.06,0,.08-.01l.04-10.95c0-.25.1-.48.26-.65v-2c0-.21-.17-.38-.38-.38Z"/><path class="cls-17" d="m151.81,194.42c0,.12.06.22.14.28.06.06.14.08.22.08.12,0,.24-.06.29-.15.06-.06.08-.13.08-.21v-4.97h-.74v4.97h0Z"/><path class="cls-17" d="m144.38,189.5v4.92c0,.17.13.3.3.3s.3-.13.3-.3v-4.91h-.53s-.04-.01-.07-.01h0Z"/><path class="cls-17" d="m143.18,182c-.15,0-.29.13-.29.29v12.12c0,.15.13.29.29.29s.29-.13.29-.29v-12.12c0-.15-.13-.29-.29-.29Z"/><path class="cls-17" d="m138.68,182.52c-.14,0-.25.12-.25.25v11.65c0,.14.11.25.25.25.13,0,.24-.11.24-.25v-11.65c0-.13-.11-.25-.24-.25Z"/><path class="cls-17" d="m140.18,182.35c-.14,0-.26.12-.26.26v11.81c0,.14.12.26.26.26.15,0,.26-.12.26-.26v-11.81c0-.14-.12-.26-.26-.26Z"/><path class="cls-17" d="m158.17,183.15l-3.41.34c-.18.01-.32.17-.32.35l-.05,11.25h.7s.04-10.33.04-10.93c.46-.04,2.17-.21,2.72-.27v11.2h.7v-11.59c0-.1-.04-.19-.12-.26-.07-.07-.17-.1-.27-.09h0Z"/><path class="cls-17" d="m152.9,183.63l-.36.02-.74.05-.44.04c-.15,0-.26.12-.26.27l-.05,4.59c0,.07.04.15.08.2.05.06.12.08.2.08h1.59c.15,0,.28-.12.28-.28v-4.69c0-.07-.04-.15-.09-.21-.06-.05-.13-.07-.21-.07h0Zm-.26,4.69h-1.03c0-.21.01-1,.02-1.81h.17l.74-.07h.1v1.88h0Zm0-2.45h-.1l-.74.06h-.15c0-.76.01-1.45.01-1.65.04,0,.09,0,.14,0,.22-.01.5-.04.74-.04.04,0,.07,0,.1,0v1.65Z"/><path class="cls-17" d="m149.53,184.04c-.05-.04-.11-.05-.17-.05l-.52.04-.82.06h0c-.15.01-.26.13-.26.27l-.04,4.29c0,.07.02.14.07.2.06.05.12.08.21.08h1.39c.06,0,.11-.01.15-.05.08-.04.13-.13.13-.24v-4.38c0-.07-.02-.15-.08-.21-.01,0-.04-.02-.05-.02h0Zm-.43,4.33h-.83c0-.21,0-.92.01-1.67l.55-.04h.26s0,1.71,0,1.71h0Zm0-2.29h-.26s-.54.06-.54.06c0-.7,0-1.33.01-1.51.17,0,.34-.02.52-.04.08,0,.18,0,.26-.01v1.5h0Z"/><path class="cls-17" d="m146.05,188.74v-4.16c0-.07-.04-.15-.09-.21-.04-.02-.07-.04-.1-.06-.04,0-.07-.01-.12-.01l-.77.06-.51.04s-.06,0-.09.02c-.1.04-.18.14-.18.26l-.04,4.06c0,.07.02.15.08.2.04.04.08.07.13.07.01,0,.04,0,.07,0h1.33s.07,0,.09-.02c.11-.04.19-.13.19-.26h0Zm-.57-.28h-.76c0-.21,0-.86.01-1.55h.24s.51-.06.51-.06v1.61h0Zm0-2.17l-.51.04h-.22c0-.63,0-1.21.01-1.39.07,0,.14,0,.21-.01.17,0,.33-.02.51-.04v1.4Z"/><path class="cls-17" d="m137.18,182.69c-.13,0-.24.11-.24.24v2.27l.47-.04v-2.23c0-.13-.11-.24-.24-.24h0Z"/><path class="cls-17" d="m135.68,182.86c-.12,0-.22.1-.22.22v2.25l.44-.04v-2.2c0-.12-.09-.22-.21-.22h0Z"/><path class="cls-17" d="m137.77,188.54h-2.86c-.07,0-.15-.02-.2-.08-.04-.04-.06-.07-.07-.12v.6c-.01.07,0,.15.07.21.05.05.12.08.2.08h.53v5.18s0,.01,0,.02c0,.1.08.18.18.19,0,0,.02,0,.04,0,.12,0,.21-.1.21-.22v-5.18h1.04v5.18c0,.13.11.24.24.24.12,0,.24-.1.24-.24v-5.18h.37c.15,0,.28-.12.28-.28v-.7c0,.15-.12.28-.28.28h0Z"/><path class="cls-17" d="m129.85,183.72c0-.09-.08-.17-.18-.17s-.17.07-.17.17v2.11h.05l.29-.02v-2.08h0Z"/><path class="cls-17" d="m131.36,183.56c0-.1-.08-.18-.18-.18s-.18.08-.18.18v2.14h.05l.31-.03v-2.11h0Z"/><path class="cls-17" d="m131.41,188.74s-.02,0-.04,0h-2.75c-.07,0-.15-.02-.2-.08-.01-.01-.04-.04-.04-.07-.01-.01-.02-.04-.02-.05s0-.03,0-.05v.55c-.01.05,0,.11.03.15,0,.02.02.04.04.06.05.05.12.08.2.08h.9v5.07c0,.09.07.17.17.17s.18-.07.18-.17v-5.07h1.15v5.07c0,.1.08.18.18.18s.18-.08.18-.18v-5.07h0s.02,0,.04,0c.14,0,.25-.12.25-.27v-.57c-.01.13-.11.24-.23.24h-.02Z"/><polygon class="cls-17" points="125.36 181.04 124.52 181.27 124.52 194.99 125.36 194.99 125.36 181.04 125.36 181.04"/><path class="cls-17" d="m134.16,178.59l-1.35.38-.32.08-2.35.65h-.01,11.15v15.28h1.12v-15.28h16.82v15.28h1.12v-16.4h-26.19,0Z"/><path class="cls-12" d="m210.8,203.44s-1.09-5.67-9.73-7.73c14.06-.03,24.59,0,24.59,0,0,0-4.02,3.58-14.86,7.73Z"/><polygon class="cls-14" points="180.6 174.59 157.19 174.53 156.47 174.81 180.6 174.87 180.6 174.59"/><path class="cls-14" d="m180.6,170.44l-18.34-.04c-.04.14-.07.21-.07.21l-.21.07,18.62.04v-.28h0Z"/><path class="cls-14" d="m197.04,151.79l-27.23-.02c-.15.1-.3.19-.43.28l27.96.02c-.1-.1-.19-.18-.29-.28h0Z"/><path class="cls-14" d="m205.16,149.72h-15.57c-.1.08-.21.18-.31.26h16.09c-.07-.08-.14-.17-.21-.26h0Z"/><path class="cls-14" d="m213.67,164.24l-19.7-.04c0,.1-.02.18-.03.28l19.76.04c0-.1-.02-.18-.03-.28h0Z"/><path class="cls-14" d="m177.75,166.32l-14.34-.05c0,.1-.01.19-.02.28l14.39.05c0-.1-.01-.18-.02-.28Z"/><path class="cls-14" d="m200.35,162.17l-25.23-.04c-.01.1-.03.19-.04.28l25.31.04c-.01-.1-.03-.19-.04-.28h0Z"/><polygon class="cls-14" points="169.5 155.93 166.47 155.92 166.47 156.2 169.5 156.2 169.5 155.93"/><path class="cls-14" d="m205.76,158.29h6.29c-.02-.09-.05-.18-.07-.28h-6.21v.28h0Z"/><rect class="cls-14" x="181.94" y="155.03" width=".28" height="6.23" transform="translate(23.61 339.93) rotate(-89.9)"/><polygon class="cls-14" points="171.67 160.07 165.16 160.07 165.16 160.35 171.67 160.35 171.67 160.07"/><path class="cls-14" d="m187.09,145.64s.01-.05.01-.08h-3.66c-.2.1-.4.18-.61.28h4.24v-.21h0Z"/><path class="cls-14" d="m184.68,147.63h-5.89c-.15.09-.29.18-.44.28h6.33v-.28h0Z"/><path class="cls-14" d="m193.95,147.92h8.45c-.1-.09-.21-.18-.32-.28h-8.13v.28Z"/><path class="cls-14" d="m172.38,168.39l-9.55-.05c-.01.1-.03.19-.04.28l9.6.05v-.28h0Z"/><polygon class="cls-14" points="160.73 178.69 160.73 178.97 176.95 179.01 176.95 179.01 176.95 178.74 176.95 178.74 160.73 178.69"/><path class="cls-14" d="m219.69,179.05l-.26-.28h-9.75v-3.88h6.77c-.02-.08-.05-.18-.07-.27h-6.69v-5.95h5.12c-.02-.09-.05-.18-.08-.28h-5.04v-.79h-11.77v.73h11.07v11.31h10.41l-.55-.59h.84Z"/><path class="cls-14" d="m211.02,172.82h4.89c-.02-.09-.04-.18-.06-.27h-4.83v.27Z"/><path class="cls-14" d="m208.06,180.56v-11.31h-10.15v.74h9.39v3.93h-7.95v.26h7.95v4.39h-7.94v.27h7.94v2.47h10.55l.2-.73h0l-9.99-.04h0Z"/><polygon class="cls-14" points="201.6 171.58 197.63 171.57 197.63 171.85 201.6 171.87 201.6 171.58"/><polygon class="cls-14" points="201.6 176.25 197.74 176.24 197.74 176.52 201.6 176.53 201.6 176.25"/><polygon class="cls-14" points="219.88 179.98 219.01 179.98 219.01 195.14 218.16 195.14 218.16 178.48 217.48 178.48 217.48 180.56 160.7 180.56 160.7 181.34 217.48 181.34 217.48 195.14 123.57 195.14 123.57 195.7 219.57 195.7 219.57 195.41 219.88 195.41 219.88 179.98"/><path class="cls-14" d="m232.44,189.39l-3.11-.06v1.22l-2.8-.05h-.43l-3.72-.07v-1.22l-2.5-.04h-.54s-.17-.01-.17-.01v8.35l3.22.06v-.96l1.92.04h0c.07-.04.14-.08.21-.14.14-.08.27-.18.4-.26.07-.04.13-.09.2-.14.35-.23.7-.47,1.04-.72.04-.02.08-.06.12-.09h0c.07-.05.13-.09.19-.14.02-.01.05-.04.07-.06.17-.12.32-.24.48-.36l.17-.12c.15-.12.31-.24.46-.36.02-.01.05-.04.07-.06h0c.06-.04.12-.09.18-.14.35-.26.68-.54,1.01-.82h0c.06-.05.11-.09.15-.14h0c.07-.06.15-.12.21-.18.05-.04.1-.08.14-.12.05-.04.09-.07.13-.11.05-.04.1-.08.15-.13.05-.04.1-.08.14-.12.14-.12.27-.24.4-.37,0,0,.01-.01.01-.01,0,0,.01,0,.01,0,.01,0,.02-.01.04-.04.04-.02.06-.05.09-.08.14-.12.28-.26.43-.39,0,0,.01,0,.01-.01,0,0,.01,0,.01-.01.12-.11.23-.21.34-.32.06-.05.11-.1.17-.15.05-.04.1-.09.14-.14.08-.08.17-.17.25-.25.06-.05.12-.11.18-.18.15-.14.29-.29.43-.44.06-.05.11-.1.14-.15v-.45h-.11.03Z"/><path class="cls-11" d="m229.89,189.91v1.08h-.57s-6.94-.13-6.94-.13h-.57v-1.09l-1.94-.04h-.15v7.23h.4v-6.88h.62v6.9h1.07s0-.81,0-.81h.57s2.54.06,2.54.06c.07-.04.13-.09.2-.14.35-.24.7-.47,1.04-.72.04-.02.08-.06.12-.09h0c.07-.05.13-.09.19-.14l-2.76-.05-1.34-.02h-.57v-.98h.57s5.36.11,5.36.11h0c.06-.04.12-.09.18-.14.35-.26.68-.54,1.01-.82h0c.06-.05.11-.09.15-.14l-6.72-.12h-.57v-.98h.57s6.94.14,6.94.14h.57v.3c.14-.12.27-.24.4-.37v-1.78h.01l.59.02v1.2c.12-.11.24-.21.34-.32.06-.05.11-.1.17-.15.05-.04.1-.09.14-.14.08-.08.17-.17.25-.25.06-.05.12-.11.18-.18v-.48l-2.09-.04h0Z"/><path class="cls-12" d="m120.11,195.83s10.64,9.51,35.57,12.86c10.93-1.49,32.09-7.77,26-12.97-3.83-.03-61.57.12-61.57.12h0Z"/><path class="cls-14" d="m173.91,196.11h.07c.12-.04.25-.04.37-.01v-1.16s-.03.01-.04.01l-.4.06v1.1h0Z"/><path class="cls-14" d="m193.51,153.91v8.21h-8.21v-8.21h8.21m.3-.3h-8.81v8.81h8.81v-8.81h0Z"/><path class="cls-14" d="m192.35,154.46h-6.04l3.02,2.89,3.02-2.89Zm-1.3.42l-1.72,1.65-1.72-1.65h3.44Z"/><path class="cls-14" d="m185.91,155.3v5.35l2.79-2.67-2.79-2.67Zm.74,1.53l1.19,1.14-1.19,1.14v-2.28Z"/><path class="cls-14" d="m192.77,161.48v-6.18l-6.43,6.18h6.43Zm-.74-4.65v2.28l-1.19-1.15,1.19-1.14Zm-1.62,1.55l1.62,1.55v1.13h-.11l-2.15-2.06.64-.62h0Zm.65,2.68h-3.44l1.73-1.65,1.72,1.65Z"/><path class="cls-13" d="m175.79,146.83s-2.57-1.11-4.87-.7c-.33-4.49-2.37-11.52-15.14-10.18,6.83-1.22,7.33-.88,7.33-.88,0,0,7.92,1.48,8.82,9.84,1.74-.1,3.67.41,5.13,1.27-.62.62-1.28.65-1.28.65h0Z"/><rect class="cls-14" x="173.36" y="184.77" width="1.18" height="1.12"/><rect class="cls-14" x="174.94" y="184.77" width="1.18" height="1.12"/><rect class="cls-14" x="176.52" y="184.77" width="1.18" height="1.12"/><rect class="cls-14" x="173.36" y="186.29" width="1.18" height="1.12"/><rect class="cls-14" x="174.94" y="186.29" width="1.18" height="1.12"/><rect class="cls-14" x="176.52" y="186.29" width="1.18" height="1.12"/><path class="cls-14" d="m172.53,184v6.75h6.01v-6.75h-6.01Zm5.6,6.32h-5.18v-6.01h5.18v6.01Z"/><rect class="cls-14" x="173.36" y="188.16" width="4.35" height="1.76"/><path class="cls-14" d="m222.75,179.23l-.52-.57-2.48-2.67-1.14-1.22c-.29-1.06-5.9-22.2-5.9-22.2v-.05l-19.62-13.67-.06-.05-15.99,7.37-.62.28-.65.3-10.08,4.66-.06.02v.02h0l-19.12,14.01s-.04.04-.05.07l-2.64,8h0l-.54.15h-.01l-5.32,1.49-.35.1-.36.1-13.45,3.75-.64.18-.14.04v.07s.58,2.01.58,2.01l.02.09.64-.18.24-.07h.05s.84-.25.84-.25l2.23-.62,1.01-.28,1.01-.28.54-.15,2.35-.65.32-.08,1.35-.38.51-.14,1.01-.28,1.01-.28,3.6-1.01,1.01-.28,6.4-1.78,1.01-.28.12-.04,6.26-1.74,1.01-.28,6.14-1.71.07-.02v-.07s.04-.09.09-.26c.1-.32.28-.95.52-1.79.02-.09.06-.18.08-.28.15-.53.33-1.14.52-1.79.04-.09.06-.19.09-.28.17-.57.34-1.17.52-1.78.02-.09.05-.19.08-.28.17-.59.35-1.18.52-1.79.04-.09.06-.18.08-.28.18-.59.36-1.2.53-1.79.02-.09.05-.18.08-.27.18-.62.36-1.22.52-1.79.04-.1.06-.19.08-.28.19-.64.37-1.23.52-1.79.04-.09.06-.19.08-.28.21-.71.39-1.31.53-1.79.04-.1.06-.2.08-.28.11-.37.18-.63.22-.76l2.22-1.02.6-.28,3.89-1.79.62-.28,2.17-1.01c.56-.26,1.13-.52,1.7-.78.2-.1.4-.19.6-.28,1.3-.59,2.62-1.2,3.89-1.79.21-.09.4-.19.62-.28,1.37-.64,2.7-1.24,3.88-1.79.21-.09.4-.18.59-.27.97-.45,1.84-.84,2.54-1.18l1.53-.86c2.77,1.93,17.27,12.64,17.34,12.7.03.1,5.67,22.53,5.67,22.53l3.62,4,2.13.09h0l.2.21,1.63-1.54-.19-.21v-.04Z"/><polygon class="cls-10" points="158.66 169.42 163.08 154.4 162.01 155.16 157.74 169.68 158.66 169.42"/><polygon class="cls-10" points="150.31 171.74 153.55 161.21 152.41 162.02 149.33 172.02 150.31 171.74"/><polygon class="cls-10" points="146.98 172.67 149.73 163.94 148.55 164.77 145.98 172.96 146.98 172.67"/><polygon class="cls-10" points="147.81 165.31 146.82 166.02 144.58 173.35 145.32 173.14 147.81 165.31"/><polygon class="cls-10" points="148.64 172.21 151.64 162.57 150.49 163.4 147.65 172.49 148.64 172.21"/><polygon class="cls-10" points="151.98 171.29 155.46 159.84 154.34 160.65 151.02 171.55 151.98 171.29"/><polygon class="cls-10" points="160.36 168.95 165.01 153.02 163.96 153.78 159.46 169.2 160.36 168.95"/><polygon class="cls-10" points="156.99 169.89 161.18 155.76 160.09 156.53 156.05 170.14 156.99 169.89"/><polygon class="cls-10" points="155.32 170.35 159.28 157.12 158.18 157.91 154.37 170.61 155.32 170.35"/><polygon class="cls-10" points="153.65 170.83 157.37 158.48 156.26 159.27 152.7 171.08 153.65 170.83"/><path class="cls-10" d="m218.01,175.12c-.06-.22-5.88-22.18-5.88-22.18l-19.16-13.36-.23.11-26.55,12.23s-5,17.05-5.14,17.52c-.48.13-37.26,10.4-37.26,10.4l.24.88,37.75-10.54s5.05-17.21,5.16-17.6c.37-.17,25.47-11.74,25.93-11.95.41.29,18.19,12.68,18.46,12.87.09.32,5.85,22.08,5.85,22.08l4.19,4.49.67-.62s-3.88-4.16-4.03-4.32h0Z"/><path class="cls-14" d="m175.87,191c-.04-.06-.07-.11-.12-.15-.01-.01-.02-.04-.04-.04-.19-.2-.46-.32-.76-.32h-.23c-.25,0-.55.09-.76.3-.14.14-.14.14-.01,0-.05.05-.1.11-.13.17-.02.04-.06.09-.07.13-.07.14-.11.29-.11.45v.68l-8.19,1.18h0v-.41c.01-.28-.08-.54-.26-.74l-.04-.04c-.18-.2-.45-.32-.74-.34h-.24c-.22-.01-.43.04-.62.15-.02.01-.04.02-.06.05-.02,0-.04.01-.06.04-.01,0-.04.01-.05.04,0,.01-.01.02,0,.01-.21.2-.32.46-.33.73v.7s-.01.04-.01.04h0l-11.79,1.58v-.96c0-.25-.07-.47-.21-.66h0c-.04-.07-.09-.12-.14-.18-.1-.09-.21-.18-.34-.22-.04-.02-.09-.04-.13-.05-.04-.01-.06-.02-.09-.02-.08-.02-.17-.04-.26-.04h-.26c-.1,0-.2,0-.29.04-.06,0-.12.02-.18.04-.07.04-.13.07-.2.11-.05.04-.1.07-.14.12-.01,0-.02.01-.04.04,0,0-.01.01-.01.02-.04.04-.07.08-.12.13h0c-.14.2-.21.43-.21.67v1.25l-12.04.62v-1.34c0-.25-.07-.48-.21-.67,0,0,0-.01-.01-.02-.02-.04-.06-.08-.09-.12-.11-.12-.24-.21-.37-.28-.13-.07-.28-.12-.44-.13-.04,0-.07,0-.12,0h-.26c-.26-.01-.5.06-.69.19-.07.04-.14.1-.2.15-.04.04-.07.08-.1.12-.04.02-.05.05-.06.07-.01.01-.02.04-.04.06-.01.01-.02.02-.01.04h0c-.1.18-.15.37-.15.57v1.59l-3.77.18-8.28.4c.14.1.29.19.44.28.01,0,.04.02.05.04.06.04.12.07.18.11.55.35,1.1.68,1.67,1.01.14.08.28.17.43.24h0c.17.11.34.21.51.3.11.07.21.12.33.18.05.04.11.07.17.09h0l1.91-.09,6.35-.32v2.2l-3.91.4c.18.08.37.17.55.25.09.04.18.09.28.13h0c.22.1.45.2.67.3.57.25,1.15.49,1.73.72.05.02.11.05.15.07h0c.18.07.34.14.51.21.05.01.09.04.13.05.07.02.12.05.18.07.02,0,.04.01.06.01.04.01.06.02.08.04.08.04.17.07.25.1h0s.07.04.1.04c.04.01.06.02.09.04.18.07.37.14.55.21.13.05.26.09.4.14s.26.1.4.15c.01,0,.04.01.06.02.02,0,.06.01.08.02.01,0,.04.01.05.01.1.04.2.07.3.11,0,0,0,0,.01,0v-.82l12.04-1.34v1.52l-3.02.45-4.88.72-1.77.26c.21.07.43.14.65.21.09.04.18.07.27.09h0c.62.2,1.23.38,1.87.57.29.09.58.18.88.25h0c.38.12.77.22,1.16.32h0c.18.05.37.1.57.15.05.01.11.04.17.04h0l.31-.04,3.77-.56v.11c0,.15.04.31.09.45.02.07.06.12.09.18.04.06.07.11.12.15l.05.05c.05.05.12.1.18.15.19.12.41.2.65.21h.28c.18,0,.34-.04.49-.1.06-.04.11-.06.15-.09.04-.01.06-.04.08-.06.04-.02.07-.05.1-.08.02-.02.03-.02,0-.01.12-.12.2-.25.26-.39.05-.13.07-.27.07-.43v-.57l11.54-2.61v.35c-.01.26.07.49.21.68.02.04.05.07.08.1.05.05.11.09.17.14.17.11.37.18.58.19h.29c.15,0,.3-.03.43-.07.05-.02.09-.05.14-.07.06-.04.11-.08.15-.12.04-.02.06-.06.08-.09.02-.02.04-.04.06-.07h0c.12-.18.19-.37.2-.59v-.54s.01-.45.01-.45v-.04s8.45-2.06,8.45-2.06h0s0,.01,0,.02c.01.19.08.37.19.53.04.05.07.1.12.14h0c.05.06.1.1.15.13.18.12.38.19.6.19h.23c.07,0,.14,0,.21,0,.1-.02.2-.06.29-.11.05-.02.09-.06.14-.09.04-.02.07-.06.11-.09.02-.02.03-.02,0-.01h0c.05-.06.09-.11.12-.15.12-.18.18-.37.18-.57v-8.63c0-.21-.06-.4-.15-.56h.03Zm-27.25,8.45l-12.04,1.34h0v-2.25l12.04-.62v1.55h0Zm2.63-2.07l11.73-1.56v.68s-.03.58-.03.58v.04l-11.69,2.22v-1.95h0Zm0,4.16l11.64-2.21v.04l-.02.82v.43s-11.61,2.62-11.61,2.62v-1.7h0Zm22.39-4.33v1.04l-8.38,2.03v-.11l.04-1.13v-.18l8.34-1.7v.04h0Zm0-1.98l-8.28,1.7v-.44l.02-.46v-.57s.01-.15.01-.15l8.25-1.19v1.12h0Z"/><path class="cls-11" d="m174.96,190.75h-.23c-.22,0-.42.07-.57.23-.15.15-.23.35-.23.56v.63l.12-.02c.11-.01.21,0,.32.02v-.76c0-.12.1-.21.23-.21h.08c.12,0,.23.1.23.21v1.07c.11.13.19.28.22.46.04.28-.05.54-.22.74v1.81c.1.12.18.25.21.41.06.29-.04.57-.21.79v1.81c.09.11.17.23.21.38.07.3-.02.59-.21.82v.99c0,.12-.1.21-.23.21h-.08c-.12,0-.23-.1-.23-.21v-.65l-.44.11h0c0,.46.36.82.81.82h.23c.22,0,.43-.07.57-.23.15-.15.23-.35.23-.56v-8.62c0-.44-.36-.8-.81-.81h0Z"/><path class="cls-11" d="m174.68,198.81c-.06-.26-.32-.41-.57-.35l-9.11,2.22.07-2.41,9.25-1.89c.26-.05.42-.3.37-.56-.05-.26-.3-.42-.56-.37l-9.03,1.85.07-2.61,9.13-1.31c.26-.04.44-.28.4-.54-.04-.26-.28-.44-.54-.4l-8.97,1.29.02-.77c.01-.45-.35-.82-.8-.84h-.24c-.22-.02-.43.06-.59.21-.16.15-.25.35-.26.56,0,0,0,.27-.02.73.16,0,.31.03.45.09l.02-.93c0-.12.11-.21.24-.21h.08c.13,0,.23.11.23.23l-.04,1.38c.06.11.1.23.12.36.03.24-.04.47-.15.67l-.07,2.31c.1.12.17.26.21.43.06.33-.04.64-.23.88l-.06,2.06c.13.14.24.3.29.5.09.39-.06.76-.33,1.01l-.04,1.4c0,.12-.11.21-.24.2h-.08c-.13,0-.24-.11-.23-.23l.03-1.07-.46.1c0,.26-.01.42-.01.42-.01.45.35.82.8.84h.24c.22.02.43-.05.59-.21.16-.15.25-.35.26-.56l.04-1.62,9.36-2.28c.26-.06.41-.32.35-.57h.01Z"/><path class="cls-11" d="m163.94,201.33c-.07-.29-.36-.48-.65-.41l-12.34,2.78v-2.82h.04l12.52-2.37c.29-.06.48-.34.43-.63-.06-.29-.34-.48-.63-.43l-12.35,2.34v-3.08h0l12.52-1.67c.29-.04.51-.31.46-.61-.04-.29-.31-.51-.61-.46l-12.38,1.65v-1.39c0-.48-.4-.88-.89-.89h-.26c-.24,0-.46.08-.63.25-.17.16-.26.38-.26.62v1.23h.19c.1-.02.2,0,.29,0v-1.39c0-.12.12-.24.26-.23h.09c.14,0,.26.11.26.24v1.69c.22.21.37.5.38.82.02.37-.13.7-.38.95v2.21c.2.19.34.44.37.73.04.39-.1.76-.37,1.01v2.23h0s0,0,0,0c.05.04.09.09.12.15.11.15.18.32.21.52,0,.07.01.13.01.2,0,.26-.08.5-.22.69h0c-.04.06-.08.11-.13.15h0v1.15c0,.13-.12.24-.26.24h-.09c-.14,0-.26-.11-.26-.24v-.83s-.05.01-.07.01l-.27.04h-.13v.18c0,.48.4.88.89.89h.26c.24,0,.47-.08.63-.25.17-.16.26-.38.26-.62v-1.21h.06l12.52-2.83c.29-.07.48-.36.41-.65h0Z"/><path class="cls-11" d="m149.05,205.03l.32-.05s.02,0,.04,0c.04,0,.06,0,.08-.01.12-.05.24-.12.3-.24.04-.04.05-.08.07-.12.04-.1.05-.2.04-.31,0-.08-.04-.15-.07-.22-.05-.07-.11-.14-.18-.19-.04-.04-.09-.06-.14-.07-.02,0-.05-.01-.08-.02-.07,0-.13,0-.21,0l-.14.02h-.13s-.3.06-.3.06h-.1s-4.86.73-4.86.73l-3.77.57c.62.2,1.23.38,1.87.57.29.09.58.18.88.25h0l1.7-.25,4.28-.64.3-.04h.13s-.01-.01-.01-.01Z"/><path class="cls-11" d="m149.89,200.35c-.04-.33-.34-.57-.68-.54l-12.96,1.43v-3.5l13.07-.68c.34-.01.59-.3.58-.64-.01-.34-.3-.59-.64-.58l-13.01.68v-1.78c0-.29-.14-.56-.37-.72-.12-.1-.27-.17-.44-.18-.04-.01-.07-.01-.12-.01h-.27c-.25,0-.48.08-.66.26,0,0-.01.01-.01.02-.13.14-.21.32-.24.51,0,.04,0,.07,0,.11v1.56h.12s.01,0,.01,0c.12,0,.24,0,.36.04v-1.75c0-.13.12-.24.27-.24h.09c.07,0,.14.04.19.07s.08.11.08.18v2.15c.11.13.19.3.24.48.01.07.04.15.04.22,0,.12,0,.22-.04.33-.04.18-.12.35-.24.49v3.1s.02.02.02.04h0c.12.18.2.37.22.58v.04c.01.18,0,.34-.07.5-.02.07-.07.15-.11.22-.01.04-.04.07-.07.1v.74c.13.05.26.09.4.14.13.05.26.1.4.15.01,0,.04.01.06.02.02,0,.06.01.08.02.01,0,.04.01.05.01v-1.47l13.09-1.45c.33-.04.57-.34.54-.68h.01Z"/><path class="cls-11" d="m134.73,196.87s-.06-.04-.09-.06c-.07-.04-.13-.05-.2-.06-.04,0-.08,0-.12,0h-.18l-.32.02-9.12.45-2.26.11c.55.35,1.1.68,1.67,1.01.14.08.28.17.43.24h0l4.94-.24,4.34-.21h.32s.24-.01.24-.01c.04,0,.07-.01.12-.02h0s.09-.02.13-.05c.04-.01.07-.04.09-.05.18-.13.3-.35.29-.59,0-.06-.01-.12-.04-.18-.04-.15-.13-.26-.26-.35h0Z"/><path class="cls-11" d="m135,201.96s0-.02,0-.04h0c-.02-.19-.12-.35-.26-.45-.04-.02-.06-.04-.09-.06-.04-.01-.07-.04-.12-.04-.07-.02-.15-.04-.24-.02h-.14s-.32.05-.32.05l-3.07.32c.22.1.45.2.67.3.57.25,1.15.49,1.73.72.05.02.11.05.15.07h0l.51-.06h.11l.21-.04h.14l.12-.02h0c.08,0,.15-.04.23-.07.04-.01.07-.04.09-.06.17-.12.28-.32.28-.53h0s0-.03,0-.04v-.04h0Z"/><path class="cls-14" d="m172.83,211.45c-38.02,0-68.94-17.54-68.94-39.09s30.93-39.1,68.94-39.1,68.94,17.54,68.94,39.1-30.93,39.09-68.94,39.09Zm0-76.71c-37.2,0-67.46,16.88-67.46,37.62s30.26,37.61,67.46,37.61,67.46-16.87,67.46-37.61-30.26-37.62-67.46-37.62h0Z"/><rect class="cls-14" x="172.72" y="156.58" width="1.48" height="1.44"/><rect class="cls-14" x="174.71" y="156.58" width="1.48" height="1.44"/><rect class="cls-14" x="176.7" y="156.58" width="1.48" height="1.44"/><path class="cls-14" d="m171.67,155.54v5.5h7.57v-5.5h-7.57Zm7.04,2.6v2.39h-6.52v-4.48h6.52v2.09Z"/><rect class="cls-14" x="172.72" y="158.56" width="1.48" height="1.44"/><rect class="cls-14" x="174.71" y="158.56" width="1.48" height="1.44"/><rect class="cls-14" x="176.7" y="158.56" width="1.48" height="1.44"/><rect class="cls-14" x="201.31" y="184.77" width="1.18" height="1.12"/><rect class="cls-14" x="202.89" y="184.77" width="1.18" height="1.12"/><rect class="cls-14" x="204.48" y="184.77" width="1.18" height="1.12"/><rect class="cls-14" x="201.31" y="186.29" width="1.18" height="1.12"/><rect class="cls-14" x="202.89" y="186.29" width="1.18" height="1.12"/><rect class="cls-14" x="204.48" y="186.29" width="1.18" height="1.12"/><path class="cls-14" d="m200.48,184v6.75h6.01v-6.75h-6.01Zm5.6,6.32h-5.18v-6.01h5.18v6.01Z"/><rect class="cls-14" x="201.31" y="188.16" width="4.35" height="1.76"/><rect class="cls-14" x="199.24" y="156.58" width="1.48" height="1.44"/><rect class="cls-14" x="201.23" y="156.58" width="1.48" height="1.44"/><rect class="cls-14" x="203.21" y="156.58" width="1.48" height="1.44"/><path class="cls-14" d="m198.19,155.54v5.5h7.57v-5.5h-7.57Zm7.04,2.6v2.39h-6.52v-4.48h6.52v2.09Z"/><rect class="cls-14" x="199.24" y="158.56" width="1.48" height="1.44"/><rect class="cls-14" x="201.23" y="158.56" width="1.48" height="1.44"/><rect class="cls-14" x="203.21" y="158.56" width="1.48" height="1.44"/></svg>