<?xml version="1.0" encoding="UTF-8"?><svg id="Layer_1" xmlns="http://www.w3.org/2000/svg" viewBox="0 0 344.7 344.7"><defs><style>.cls-1{fill:none;}.cls-1,.cls-2{stroke-width:0px;}.cls-2{fill:#61be79;}</style></defs><rect class="cls-1" width="344.7" height="344.7"/><path class="cls-2" d="m201.18,209.51h20.35v-84.4h-20.35v84.4Zm-35.86-24.02c0,3.02-2.44,5.46-5.45,5.46h-11.84c-3.01,0-5.45-2.44-5.45-5.46v-34.05h-20.35v35.76c0,14.62,9.35,22.31,23.17,22.31h19.93c12.73,0,20.35-9.16,20.35-22.31v-35.76h-20.35v34.05h0Zm114.8-34.05v34.05c0,3.02-2.43,5.46-5.45,5.46h-11.84c-3.01,0-5.45-2.44-5.45-5.46v-34.05h-20.36v35.76c0,14.62,9.35,22.31,23.18,22.31h19.93c12.73,0,20.35-9.16,20.35-22.31v-35.76h-20.36Zm-195.61,0h-13.05c-4.58,0-6.88,1.24-6.88,1.24v-27.57h-20.34v84.4h20.34v-34.06c0-3.01,2.45-5.45,5.46-5.45h11.84c3.01,0,5.45,2.44,5.45,5.45v34.06h20.35v-36.7c0-15.42-10.29-21.37-23.17-21.37Z"/></svg>