<?xml version="1.0" encoding="UTF-8"?><svg id="Layer_1" xmlns="http://www.w3.org/2000/svg" viewBox="0 0 344.7 344.7"><defs><style>.cls-1{fill:none;}.cls-1,.cls-2,.cls-3,.cls-4,.cls-5{stroke-width:0px;}.cls-2{fill:#fff;}.cls-3{fill:#f26a25;}.cls-4{fill:#025878;}.cls-5{fill:#038e97;}</style></defs><rect class="cls-1" width="344.7" height="344.7"/><path class="cls-4" d="m257.64,123.01c-1.91.46-6.6.6-8.6.6s-4.83-.3-9.18,1.6c-3.12,1.36-5.21,4.09-6.16,5.53.3-.42.58-.75.81-.93,0,0,3.17-3.65,9.64-3.18-.21.33-.4.79-.19,1.25,0,0,0,.01.01.02.03.06.07.12.11.18h0s.02.03.03.05c0,0,2.32-.75,3.96-1.24,3.56-.88,5.77-1.48,8.17-2.47,3.28-1.34,4.33-1.94,4.22-2.19-.11-.25-.92.33-2.82.79h0Z"/><path class="cls-2" d="m234.51,129.81c-.24.18-.51.51-.81.93-1.17,1.64-2.6,4.61-2.6,4.61,2.16-3.2,8.96-5.9,12.99-7.27-.04-.06-.08-.12-.11-.18,0,0,0-.01-.01-.02-.21-.45-.03-.92.19-1.25-6.48-.47-9.64,3.18-9.64,3.18h0Z"/><path class="cls-3" d="m241,205.31c-1.38,2.79,2.2,11.42,5.47,13.99-2.39-.72-14.9-4.27-16.91.35-2.21,5.09,10.02,23.75,11.4,27.24-5.64-5.59-21.07-18.13-23.26-16.69-2.19,1.43-1.65,8.42-1.08,11.97-2.12-2.58-5.76-6.72-8.9-5.48-3.14,1.24-2.76,13.23-2.96,18.34-2.59-6.01-6.83-18.12-10.75-17.67-3.92.44-8.32,8.68-9.15,11.82-.6-3.15-3.16-10.08-7.04-10.08s-12.9,18.34-15.62,24.29c-.01-4.61,1.09-27.1-1.35-28.22-2.44-1.12-10.69,4.01-12.47,6.34.66-2.96,1.21-12.94-.98-14.15-2.2-1.21-8.47-1.59-19.82,8.9,1.88-4.02,4.98-8.4,5.74-12.65,4.7-.24,9.35-.77,14.04-1.69,10.23,7.41,22.82,11.78,36.41,11.78,34.35,0,62.19-27.84,62.19-62.19,0-2.69-.17-5.34-.5-7.94,2.3-2.17,4.51-4.27,6.57-6.23-.47,1.13-.73,2.48-.69,4.16.13,5.24,13.72,6.36,20.94,6.95-8.06,1.09-22.15,6.93-19.47,10.06,2.68,3.13,10.48,7.43,11.59,7.97-3.72,0-15.95,1.26-17.31,4.73-1.37,3.47,17.69,15.08,24.67,17.81-8.68-2.44-29.39-6.52-30.76-3.73h0Z"/><path class="cls-3" d="m230.48,115.93c-4.07.8-8.26,1.97-12.6,3.58-9.79-6.43-21.5-10.17-34.09-10.17-34.34,0-62.19,27.84-62.19,62.19,0,8.27,1.62,16.16,4.55,23.37-3.54,2.62-6.93,4.7-10.4,6.31,2.54-3.02,4.74-8.84,1.88-10.39-1.96-1.06-11.07-1.48-11.07-1.48,0,0,10.26-6.9,10.02-11.88-.24-4.98-16.6-7.54-23.07-8.97,5.71-1.2,24.19-5.38,24.99-9.1.8-3.72-5.78-6.36-8.54-7.65,3.1.04,10.94,1.35,12-2.48,1.21-4.39-18.12-15.83-22.52-17.42.98.23,19.39,4.53,26.12,3.07,5.01-1.09-.83-7.83-1.79-8.62,1.48.72,9.92,2.46,12.33-1.55,2.42-4.01-5.78-19.96-10.37-26.72,4.07,4.06,22.68,17.3,25.46,15.05,2.78-2.25.66-9.53-.83-11.93,3,2.81,5.95,6.56,9.76,6.48,1.91-.04,4.31-6.35,4.7-20.61,2.58,7.99,8.75,18.85,13.27,18.19,4.53-.66,6.08-7.38,6.7-10.25.52,3.07,2.9,10.98,5.92,11.27,3.71.58,10.8-15.92,13.39-23.38.39,3.68-2.31,22.6,1.69,24.17,3.99,1.58,10.6-6.39,14.35-10.85-2.27,4.32-6.72,14.76-4.07,17.26,2.65,2.5,11.8-.12,15.37-3.06-1,2.19-1.21,3.94-.94,5.58h0Z"/><path class="cls-5" d="m279.29,115.65c-4.74.47-14.24,3.89-14.24,3.89-17.35-4.51-37.95-5.01-63.21,10.36-4.72,2.87-9.02,5.84-13.01,8.87-3.98,3.03-7.65,6.11-11.06,9.2-1.48,1.33-3.37,3.04-4.99,4.68-8.2,2.73-11.84.18-23.11,1.66-8.92,1.17-12.38,4.22-14.34,6.61-.25.69-.23,1.29.24,1.66,1.06.85,2.71.43,5.83.2,3.12-.23,7.84-.15,10.96,1.8,2.01,1.25,2.92,4.27,3.26,5.94-2.34,2.48-4.63,4.88-6.94,7.16-14.23,14.08-23.81,22.48-34.53,26.67-23.26,9.1-36.36-1.59-41.61-4.74h0c-6.37-4.08-14.82-5.43-19.35-6.28-4.53-.85-7.01-3.04-7.97-3.86s-1.71-2.21-2.81-1.89c-.28.08-.53.17-.71.33.18-.16.42-.25.71-.33.17,1.97,6.77,18.37,27.73,21.35,5.99.85,7.89.58,9.01.5-3.52-3.1-6.43-7.42-6.67-7.67.8.7,1.6,1.36,2.4,1.99,6.25,6.68,13.36,9.43,19.34,10.43.39.12,6.28.38,6.28.38,6.87-.14,16.1-2.17,24.67-4.65,25.14-7.3,49.4-29.09,49.4-29.09,0,0-1.35,5.87-1.87,7.95-.34,1.64-1.58,7.15-3.9,12.91,0,0-.7,1.74-1.71,3.86-1.49,3.14-3.59,7.1-3.59,8.76,0,.08,0,.15.01.22,0,0,.02.18.09.41,1.89-1,4.46-2.74,7.38-5.21,4.58-3.82,10.38-9.63,17.09-17.91,15.09-18.61,17.48-31.35,28.09-41.26,4.49-4.2,16.3-10.69,22.34-12.8.07-.04.12-.06.13-.07,0,0,0,0,0,0h0c10.21-5.83,20.21-10.34,21.83-11,5.98-2.4,26.99-9.38,29.2-5.91h0c-.93-4-5.72-5.59-10.39-5.12h0Zm-23.04,8.77c-2.4.99-4.61,1.59-8.17,2.47-1.64.5-3.96,1.24-3.96,1.24-.01-.01-.02-.03-.03-.05-4.02,1.37-10.82,4.07-12.98,7.26.09-.18,1.47-3.01,2.6-4.6.94-1.44,3.03-4.16,6.15-5.53,4.35-1.9,7.18-1.6,9.18-1.6s6.7-.14,8.6-.6c1.91-.46,2.72-1.05,2.83-.79.11.25-.94.85-4.22,2.19h0Z"/><path class="cls-2" d="m172.67,188.76c-.34,1.64-1.58,7.15-3.9,12.91-8.22,4.36-21.35,9.95-33.24,12.73-23.4,5.49-38.38.73-40.95-.11l-.37-.12c.57.12,6.26.37,6.26.37,1.23.03,17.2.65,34.74-5.93,14.34-5.24,28.44-13.79,37.45-19.86h0Z"/><path class="cls-4" d="m174.54,180.81s-1.35,5.87-1.87,7.95c-9.02,6.07-23.12,14.62-37.45,19.86-17.54,6.58-33.51,5.95-34.74,5.93,6.87-.14,16.1-2.17,24.67-4.65,25.14-7.3,49.4-29.09,49.4-29.09Z"/><path class="cls-5" d="m234.2,170.53c-1.79,5.5-4.53,13.03-7.88,19.4-3.99,7.57-9.25,12.79-12.02,14.8-.46-.28-.63-.87-.65-1.47-.02-1.08,2.35-6.64,3.28-18.35,2.99-2.25,5.68-4.39,8.05-6.36,3.02-2.51,6.13-5.23,9.22-8.01h0Z"/><path class="cls-4" d="m95.94,196.76c0,.74-.1,1.5-.3,2.27-.36,1.32-1.05,2.91-2.18,4.56-.68,1-1.8,2.27-1.82,2.29-.18.01-1.05.05-1.78-.03-.73-.07-1.51-.2-1.83-.26h0c-.2-.28,9.44-6.81,6.83-9.99.14-.02,1.03-.22,1.08,1.17h0Z"/><path class="cls-4" d="m288.44,124.94h0s-.39.58-1.68,1.71c-1.29,1.13-3.49,2.82-7.12,5.05-3.47,2.13-13.14,8.67-20.56,15.54-.28.25-20.12,18.99-20.62,19.45-.05.17-2.63,9.76-8.78,22.24-4.31,8.74-10.74,14.2-13.02,15.45-.14.08-1.47.92-2.36.35,2.77-2.01,8.03-7.23,12.02-14.8,3.36-6.37,6.1-13.89,7.88-19.4-3.09,2.78-6.2,5.5-9.22,8.01-2.38,1.97-5.06,4.11-8.05,6.36,0,.01-6.43,4.73-10.07,7.15h0c-2.04,1.35-11.36,7.16-17.02,10.25-4.8,2.62-14.86,7.39-14.89,7.4h0c-5.24,4.42-9.34,6.49-10.44,6.21-.67-.17-.91-.96-.92-1,1.89-1,4.46-2.74,7.38-5.21,4.58-3.82,10.38-9.63,17.09-17.91,15.09-18.61,17.48-31.35,28.09-41.26,4.49-4.2,16.3-10.69,22.34-12.8.07-.04.12-.06.13-.07-6.92,3.95-13.93,8.5-18.5,12.86-8.86,8.28-11.89,17.96-20.67,31.17l-.22.34c29.58-22.43,52.43-48.41,76.06-56.71.75-.26,1.47-.51,2.15-.74.03-.01.06-.02.08-.03,8.04-2.72,11.3-3.14,11.53-1.63.1.66-.42,1.64-.62,2h-.01Z"/><path class="cls-5" d="m88.04,205.58h0c-5.96-1.14-12.95-5.2-15.11-6.44.74-.72,2.57-2.03,6.04-1.81,4.76.29,10.02.68,12.48-.06,2.11-.63,2.52-1.56,3.42-1.68h0c2.61,3.18-7.03,9.71-6.83,9.98h0Z"/><path class="cls-4" d="m149.66,154.31c11.26-1.48,14.91,1.08,23.11-1.66,1.62-1.64,3.51-3.35,4.99-4.68-2.32.75-4.11,1.19-5.81,1.49-3.84.76-6.62.56-14.59,1.61-12.51,1.65-18.36,5.57-20.01,7.08-.5.46-.87.85-1.39,1.58-.36.5-.61,1.09-.65,1.2,1.97-2.39,5.43-5.44,14.34-6.61h0Z"/><path class="cls-4" d="m167.07,205.54c-1.49,3.14-3.59,7.1-3.59,8.76,0,.08,0,.15.01.22-19.08,7.45-34.64,7.1-34.69,7.11-26.23,1.24-46.88-9.44-46.88-9.44h-.42c-2.46,0-14.65-.19-22.65-3.9-8.75-4.06-13.78-10.42-15.97-15.21-1.63-3.56-1.71-4.7-1.19-5.17.04-.04.09-.08.14-.11h0c.16-.1.35-.16.56-.22.17,1.97,6.77,18.37,27.73,21.35,5.99.85,7.89.58,9.01.5-3.52-3.1-6.43-7.42-6.67-7.67.8.7,1.6,1.36,2.4,1.99,6.25,6.68,13.36,9.43,19.34,10.43,0,0,.01,0,.03,0h.03s.34.12.34.12c2.57.84,17.55,5.6,40.95.11,11.88-2.78,25.02-8.37,33.24-12.73,0,0-.7,1.74-1.71,3.86h0Z"/><path class="cls-2" d="m291.91,121.39c-.04-.95-.22-1.5-.22-1.5h0c-1.15-4.02-5.24-6.49-10.82-6.49-.59,0-1.2.03-1.79.09-4.27.42-11.88,3-14.13,3.79-7.08-1.79-13.72-2.66-20.28-2.66-3.39,0-6.76.24-10.12.71h0l-1.39.18s-.54-1.75.87-5.85c.73-2.13,1.73-4.08,1.73-4.08,0,0-15.42,8.02-17.35,5.46-1.93-2.56,6.7-22.91,6.7-22.91,0,0-14.87,16.52-17.79,15.79-1.14-.29-1.25-6.27-1.31-12.71-.08-8.72.22-18.69.22-18.69,0,0-12.24,30.44-15.23,30.28-2.59-.14-6.36-16.39-6.36-16.39,0,0-2.36,14-6.61,15.72-4.25,1.71-15.18-24.47-15.18-24.47,0,0-.5,26.21-3.55,26.8-3.04.59-12.72-9.21-12.72-9.21,0,0,4.54,13.06,3,14.78-.92,1.02-10.23-4.73-19.91-11.68-5.6-4.01-10.28-7.38-10.28-7.38,0,0,5.46,9.07,9.8,18.55,2.99,6.53,4.8,12.79,4.02,14.01-1.92,2.99-16.3-1.27-16.3-1.27,0,0,8.17,7.87,7.65,9.9-.26.99-8.38.27-16.64-.85-8.76-1.2-17.68-2.85-17.68-2.85,0,0,29.18,16.96,28.26,20.02-.72,2.42-18.88.44-18.88.44,0,0,15.79,7.21,15.72,9.6-.07,2.38-30.9,10.19-30.9,10.19,0,0,27.93,5.84,28.47,8.96.53,3.11-11.02,13.11-11.02,13.11,0,0,13.45,1.22,14.11,2.98s-3.27,8.72-6.68,9.82c-4.22,1.36-8.07,2.23-12.74,2.23-.67,0-1.33-.02-1.97-.05.23-.3.46-.61.66-.9,1.15-1.69,2.01-3.49,2.48-5.21v-.04c.25-.95.37-1.88.38-2.8v-.08c-.03-1.04-.37-1.92-.98-2.52-1.14-1-2.21-.88-2.98-.54l-2.65,1.3c-.2.09-.42.17-.69.25-.51.15-1.58.33-3.8.33-2.1,0-4.61-.16-7.03-.31,0,0-1.49-.08-1.77-.08-2.89,0-4.82.92-5.98,1.76l-.63-.33c-5.91-3.14-12.78-4.41-17.08-5.2-.33-.06-.65-.12-.95-.18-4.74-.93-7.34-3.74-7.55-3.97-.4-.43-.92-1-1.61-1.39,0,0-1.23-.77-3.06-.21-1.19.42-1.7,1.35-1.7,1.35-1.02,1.7-.05,4.19,1.24,7.01,1.46,3.2,6.05,11.18,17.04,16.28,3.6,1.67,8.33,2.86,14.06,3.53,4.32.51,7.96.57,9.41.57,1.4.68,5.7,2.67,12.1,4.67,7.03,2.19,18,4.81,30.58,4.86,0,0,4.47.06,6.87-.1.24,1-1.5,4.6-3.6,8.81-2.48,4.99-5.67,10.89-5.67,10.89,0,0,5.75-5.08,11.12-8.85,5.4-3.8,11.44-6.84,12.87-5.09,2.7,3.32-.18,17.02-.18,17.02,0,0,10.9-9.65,13.44-8.34,1.16.6,1.27,7.81,1.28,15.41,0,9-.22,18.56-.22,18.56,0,0,15.02-30.4,18.15-29.53,3.13.87,6.54,14.73,6.54,14.73,0,0,5.71-16.88,9.2-16.47,1.39-.17,4.39,5.31,7.05,10.9,2.92,6.13,5.42,12.13,5.42,12.13,0,0,.06-6.27.5-12.68.39-5.79,1.13-11.44,2.4-11.75,2.68-.66,10.46,9.76,10.46,9.76,0,0-2.75-14.52-.59-15.75,2.15-1.23,28.03,21.14,28.03,21.14,0,0-16.98-31.46-14.91-33.87s20.2,2.5,20.2,2.5c0,0-2.7-3.19-5.02-6.8-2.42-3.77-4.43-7.98-3.48-9,.86-.92,10.31.04,20.09,1.93,11.26,2.18,18.59,3.74,18.59,3.74,0,0-6.63-3.59-16.42-9.48-8.47-5.1-15.92-10.83-15.61-11.76.68-2.01,20.91-3.93,20.91-3.93,0,0-3.4-2-7.04-4.23-3.96-2.42-8.19-5.44-8.19-6.54,0-.96,5.07-3.36,11.76-5.41,8.02-2.47,15.44-4.12,15.44-4.12,0,0-27.58-2.21-29.3-6.15-1.18-2.69.99-6.19,2.57-8.45,1.58-2.26,3.85-4.31,3.85-4.31,7.54-6.96,17.13-13.36,20.19-15.25.22-.13.42-.26.63-.39,0,0,7.08-5.22,7.8-5.83.63-.53,2.25-2.23,2.61-4.39,0,0,.13-.59.09-1.55h0Zm-174.29,69.42c-1.96-1.06-11.07-1.48-11.07-1.48,0,0,10.26-6.9,10.02-11.88-.24-4.98-16.6-7.54-23.07-8.97,5.71-1.2,24.19-5.38,24.99-9.1.8-3.72-5.78-6.36-8.54-7.65,3.1.04,10.94,1.35,12-2.48,1.21-4.39-18.12-15.83-22.52-17.42.98.23,19.39,4.53,26.12,3.07,5.01-1.09-.83-7.83-1.79-8.62,1.48.72,9.92,2.46,12.33-1.55,2.42-4.01-5.78-19.96-10.37-26.72,4.07,4.06,22.68,17.3,25.46,15.05,2.78-2.25.66-9.53-.83-11.93,3,2.81,5.95,6.56,9.76,6.48,1.91-.04,4.31-6.35,4.7-20.61,2.58,7.99,8.75,18.85,13.27,18.19,4.53-.66,6.08-7.38,6.7-10.25.52,3.07,2.9,10.98,5.92,11.27,3.71.58,10.8-15.92,13.39-23.38.39,3.68-2.31,22.6,1.69,24.17,3.99,1.58,10.6-6.39,14.35-10.85-2.27,4.32-6.72,14.76-4.07,17.26,2.65,2.5,11.8-.12,15.37-3.06-1,2.19-1.21,3.94-.94,5.58-4.07.8-8.26,1.97-12.6,3.58-9.79-6.43-21.5-10.17-34.09-10.17-34.34,0-62.19,27.84-62.19,62.19,0,8.27,1.62,16.16,4.55,23.37-3.54,2.62-6.93,4.7-10.4,6.31,2.54-3.02,4.74-8.84,1.88-10.39h0Zm-38.66,6.52c4.76.29,10.02.68,12.48-.06,2.11-.63,2.52-1.56,3.42-1.68h0c.14-.02,1.03-.22,1.08,1.17,0,.74-.1,1.5-.3,2.27-.36,1.32-1.05,2.91-2.18,4.56-.68,1-1.8,2.27-1.82,2.29-.18.01-1.05.05-1.78-.03-.73-.07-1.51-.2-1.83-.26-5.96-1.15-12.95-5.21-15.11-6.44.74-.72,2.57-2.03,6.04-1.81h0Zm193.33-28.87c-8.06,1.09-22.15,6.93-19.47,10.06,2.68,3.13,10.48,7.43,11.59,7.97-3.72,0-15.95,1.26-17.31,4.73-1.37,3.47,17.69,15.08,24.67,17.81-8.68-2.44-29.39-6.52-30.76-3.73-1.38,2.79,2.2,11.42,5.47,13.99-2.39-.72-14.9-4.27-16.91.35-2.21,5.09,10.02,23.75,11.4,27.24-5.64-5.59-21.07-18.13-23.26-16.69-2.19,1.43-1.65,8.42-1.08,11.97-2.12-2.58-5.76-6.72-8.9-5.48-3.14,1.24-2.76,13.23-2.96,18.34-2.59-6.01-6.83-18.12-10.75-17.67-3.92.44-8.32,8.68-9.15,11.82-.6-3.15-3.16-10.08-7.04-10.08s-12.9,18.34-15.62,24.29c-.01-4.61,1.09-27.1-1.35-28.22-2.44-1.12-10.69,4.01-12.47,6.34.66-2.96,1.21-12.94-.98-14.15-2.2-1.21-8.47-1.59-19.82,8.9,1.88-4.02,4.98-8.4,5.74-12.65,4.7-.24,9.35-.77,14.04-1.69,10.23,7.41,22.82,11.78,36.41,11.78,34.35,0,62.19-27.84,62.19-62.19,0-2.69-.17-5.34-.5-7.94,2.3-2.17,4.51-4.27,6.57-6.23-.47,1.13-.73,2.48-.69,4.16.13,5.24,13.72,6.36,20.94,6.95h0Zm17.39-47.7c-2.21-3.47-23.23,3.51-29.2,5.91-1.62.66-11.62,5.16-21.85,11-6.92,3.95-13.93,8.5-18.5,12.86-8.86,8.28-11.89,17.96-20.67,31.17l-.22.34c29.58-22.43,52.43-48.41,76.06-56.71.75-.26,1.47-.51,2.15-.74.03-.01.06-.02.08-.03,8.04-2.72,11.3-3.14,11.53-1.63.1.66-.42,1.64-.62,2,0,0-.39.57-1.68,1.71-1.29,1.13-3.49,2.82-7.12,5.05-3.47,2.13-13.14,8.67-20.56,15.54-.28.25-20.12,18.99-20.62,19.45-.05.17-2.63,9.76-8.78,22.24-4.31,8.74-10.74,14.2-13.02,15.45-.14.08-1.47.92-2.36.35-.46-.28-.63-.87-.65-1.47-.02-1.08,2.35-6.64,3.28-18.35,0,.01-6.43,4.73-10.07,7.15-2.04,1.35-11.36,7.16-17.02,10.25-4.8,2.62-14.86,7.39-14.89,7.4-5.24,4.42-9.34,6.49-10.44,6.21-.67-.17-.91-.96-.92-1-.07-.23-.09-.41-.09-.41-19.08,7.45-34.64,7.1-34.69,7.11-26.23,1.24-46.88-9.44-46.88-9.44h-.42c-2.46,0-14.65-.19-22.65-3.9-8.75-4.06-13.78-10.42-15.97-15.21-1.63-3.56-1.71-4.7-1.19-5.17.18-.17.42-.25.71-.33,1.1-.31,1.84,1.07,2.81,1.89.97.82,3.44,3.01,7.97,3.86,4.53.85,12.98,2.2,19.35,6.28,5.25,3.15,18.35,13.85,41.61,4.74,10.72-4.19,20.3-12.59,34.53-26.67,2.31-2.29,4.61-4.69,6.94-7.16-.33-1.67-1.25-4.69-3.26-5.94-3.12-1.95-7.84-2.02-10.96-1.8-3.12.23-4.77.66-5.83-.2-.38-.3-.45-.79-.35-1.24.1-.46.31-.9.56-1.3.07-.11.13-.21.2-.31.52-.72.9-1.12,1.39-1.58,1.64-1.52,7.49-5.44,20.01-7.08,7.96-1.05,10.75-.85,14.59-1.61,1.69-.3,3.48-.74,5.81-1.49,3.42-3.09,7.08-6.17,11.06-9.2,3.99-3.03,8.3-6,13.01-8.87,25.26-15.37,45.86-14.87,63.21-10.36,0,0,9.5-3.42,14.24-3.89,4.68-.47,9.47,1.12,10.39,5.12h0Z"/></svg>