<?xml version="1.0" encoding="utf-8"?>
<!-- Generator: Adobe Illustrator 27.8.1, SVG Export Plug-In . SVG Version: 6.00 Build 0)  -->
<svg version="1.1" id="Layer_1" xmlns="http://www.w3.org/2000/svg" xmlns:xlink="http://www.w3.org/1999/xlink" x="0px" y="0px"
	 viewBox="0 0 344.7 344.7" style="enable-background:new 0 0 344.7 344.7;" xml:space="preserve">
<style type="text/css">
	.st0{fill:none;}
	.st1{fill-rule:evenodd;clip-rule:evenodd;fill:#CCCCCC;}
</style>
<rect y="0" class="st0" width="344.7" height="344.7"/>
<path class="st1" d="M193.9,142.4c0,2.7-0.6,5.8-2.8,8.5h5.9v-42.8h-18.8v17.5C188.4,128.5,193.9,134.7,193.9,142.4L193.9,142.4
	L193.9,142.4z"/>
<path class="st1" d="M161.6,124.1c4.2,0,8.2,0.9,11.2,1.7c-6.4-1.1-16.3,0.5-21.4,4.2v20.9h18.7v-23.7c4,0.6,7.1,2.2,9,3.4v20.3h4.1
	c-3.8,4.1-11,6.6-17.2,5.7v0.8c17.9,1.4,25.4-6.7,25.4-15.7c0-10.5-10.4-16.8-21.2-18v-15.6h-18.7v15.8c-12.2,2.3-24,9.2-24,20.4
	c0,17.4,25.7,28.1,48,28.1c34,0,60.1-15.5,60.1-37.3c0-26.4-37.7-45.2-67.3-45.2c-34,0-59,20.3-59,42.1c0,11.3,6.7,20.8,15.1,27.4
	l0.6-0.5c-6.7-5.2-12.7-13.5-12.7-24.6c1.7-23.9,32.9-37.3,60.5-37.3c19.6,0,54.8,4.2,54.8,35.2c0,16.1-18.3,37.1-56.6,37.1
	c-19.6,0-34.8-9.9-34.8-24.2C136.1,132.8,146.3,124,161.6,124.1L161.6,124.1L161.6,124.1z"/>
<polygon class="st1" points="89,234.5 89,232.1 95.5,232.1 95.5,211 78,211 78,232.1 84.7,232.1 84.7,234.5 60.5,234.5 60.5,232.1 
	66.7,232.1 66.7,189.2 60.5,189.2 60.5,186.7 84.7,186.7 84.7,189.2 78,189.2 78,208.1 95.5,208.1 95.5,189.2 89,189.2 89,186.7 
	112.9,186.7 112.9,189.2 106.8,189.2 106.8,232.1 112.9,232.1 112.9,234.5 89,234.5 "/>
<path class="st1" d="M122.2,186.7h11v5.7h-11L122.2,186.7C122.2,186.7,122.2,186.7,122.2,186.7z M116.8,234.5v-2.5h5.9v-29.4h-5.9
	v-2.4h16.9v31.8h5.5v2.5H116.8L116.8,234.5z"/>
<polygon class="st1" points="141.4,234.5 141.4,232.1 147.6,232.1 147.6,182.9 141.4,182.9 141.4,180.5 158.6,180.5 158.6,232.1 
	164.2,232.1 164.2,234.5 141.4,234.5 "/>
<path class="st1" d="M181.4,234.5c-6,0-9.2-2.9-9.2-7.4v-24.4h-5.9v-2.4h5.9v-13.6c3.3,0,6.8,0.1,10.2,0v13.6h8.4v2.4h-8.4v29.4h8.6
	v2.5H181.4L181.4,234.5z"/>
<path class="st1" d="M232.1,224.2c-1.2,3.2-6.4,11.2-19,11.2c-13.9,0-21.1-9.1-21.1-18.2c0-12.7,12-17.9,20.9-17.9
	c7.9,0,19.3,4.5,20.2,17.4C233.4,219.1,233.1,221.9,232.1,224.2L232.1,224.2L232.1,224.2z M220.3,205.8c-1.5-3-4-4.4-7.4-4.4
	c-8.6,0-8.8,8.4-8.8,15.7c0,9.7,0.9,11.4,1.6,12.6c1.1,1.9,3.4,3.8,7.2,3.8c8.5,0,8.5-8.8,8.4-16.8
	C221.3,208,220.8,206.9,220.3,205.8L220.3,205.8L220.3,205.8z"/>
<path class="st1" d="M262.5,234.5v-2.5h4.9v-20.1c0-4.6,0-9.1-5.3-9.1c-3,0-8,2.8-9.1,7.4c-0.5,1.5-0.4,2.9-0.4,6.8v15h5.5v2.5
	h-22.3v-2.5h5.9v-29.4h-5.9v-2.4h16.8v5.1c1.8-2.2,3.3-3.8,6.9-5c2.6-1.1,5-1.3,6.6-1.3c0.6,0,2.7,0,5,0.6c7,1.9,7.3,7,7.3,10.5
	v21.8h5.8v2.5L262.5,234.5L262.5,234.5z"/>
<path class="st1" d="M226,164.6h-1.7v-0.6h4.4v0.6h-1.8v6H226L226,164.6L226,164.6L226,164.6z M233.6,169.4L233.6,169.4l2.3-5.5h1.1
	v6.7h-0.8v-4.9H236l-2,4.9h-0.8l-2.1-4.9H231v4.9h-0.8v-6.7h1.2L233.6,169.4L233.6,169.4L233.6,169.4z"/>
</svg>
