<?xml version="1.0" encoding="utf-8"?>
<!-- Generator: Adobe Illustrator 27.8.1, SVG Export Plug-In . SVG Version: 6.00 Build 0)  -->
<svg version="1.1" id="Layer_1" xmlns="http://www.w3.org/2000/svg" xmlns:xlink="http://www.w3.org/1999/xlink" x="0px" y="0px"
	 viewBox="0 0 344.7 344.7" style="enable-background:new 0 0 344.7 344.7;" xml:space="preserve">
<style type="text/css">
	.st0{fill:none;}
	.st1{fill-rule:evenodd;clip-rule:evenodd;fill:#CCCCCC;}
</style>
<rect y="0" class="st0" width="344.7" height="344.7"/>
<path class="st1" d="M58.9,230.6c0.9-1.6,1.9-3.1,3-4.6l-2.8,0.4c-3.6,5.7-9.4,11.6-16.5,11.6c-2.5,0-4.2-1.2-4.2-2.8
	c0-1.1,0.8-1.9,1.6-1.9s1.6,0.4,1.6,1.5s-0.8,1.5-1.3,1.5c-0.3,0-0.6,0-0.6,0.3c0,0.8,1.6,1.1,2.8,1.1c6.4,0,10.6-6.9,13.7-10.9
	c-3.4,0.8-6.4,2.2-8.5,4.2l-0.3-0.1c1.5-1.8,5.9-4.2,9.1-4.5c2.5-3.7,8-10.1,12.5-12.9v-0.1c-1.9,1.2-3.4,1.9-5.2,1.9
	c-3,0-4-3-7.7-3s-7.9,3.4-7.9,7.1c0,2.2,1.8,3.3,3.3,3.3c3.1,0,7.4-3.6,8.2-6.4h0.3c-0.8,3.4-4.2,6.9-8,6.9c-2.5,0-4.2-1.3-4.2-4
	c0-4,6.1-8.2,9.8-8.2c3.3,0,5.2,3.3,8.2,3.3c1.9,0,3.9-1.5,5.5-2.7l0.1,0.4c-5.2,3.7-8.6,8.9-12,14.1l2.8-0.4
	c1.5-2.1,3.4-4.3,4.3-5.1l0.1,0.1c-1.3,1.2-2.7,3.1-3.7,4.9l2.8-0.4c2.2-3,11.6-13.8,15.5-13.8c0.8,0,1.2,0.4,1.2,1.1
	c0,4.6-9.5,12.1-14.1,12.8c-1.6,2.2-5.9,7.6-5.9,10.4c0,1.5,1.3,2.1,2.5,2.1c5.5,0,11-6.7,11-9.4c0-1.2-0.6-1.9-1.6-1.9
	c-2.4,0-5.2,2.8-6.6,4.5h-0.4c1.6-1.9,4.3-4.9,7-4.9c1.5,0,2.1,1.1,2.1,2.5c0,4.5-7,9.7-11,9.7c-2.8,0-3.9-1.5-3.9-3.9
	c0-2.8,2.5-6.4,4-8.6l-2.7,0.4c-0.9,1.2-1.9,2.8-2.7,4.6L58.9,230.6L58.9,230.6L58.9,230.6z M81.2,211.7c-2.5,0-11.3,11.3-12.7,12.9
	l0,0c4.9-1.1,13.4-8.9,13.4-12.5C81.9,211.9,81.6,211.7,81.2,211.7L81.2,211.7L81.2,211.7z"/>
<path class="st1" d="M92,231.2c-0.6,0.4-1.8,1.2-2.8,1.2c-0.9,0-1.5-0.3-1.9-0.8c-3.6,4.5-6.6,6.4-9.5,6.4c-1.1,0-2.2-0.9-2.2-2.2
	c0-3.6,6.8-10.1,10.8-10.1c0.8,0,1.3,0.3,1.5,0.9c0.1-0.1,0.3-0.1,0.4-0.1c0.6,0,0.8,0.4,0.8,1.1c0,1.3-0.9,3.1-1.6,3.9
	c0.6,0.4,1.2,0.6,1.8,0.6s1.8-0.4,2.7-1.2L92,231.2L92,231.2L92,231.2z M87.4,226.9c0-0.3-0.3-0.8-0.9-0.8c-1.6,0-4.6,3.6-8.6,8.2
	c-0.9,1.1-1.1,1.6-1.1,2.2c0,0.4,0.3,1.1,1.3,1.1c2.5,0,6.1-2.8,8.6-6.2c-0.3-0.6-0.4-1.2-0.4-1.9C86.4,228.4,86.8,227.4,87.4,226.9
	L87.4,226.9L87.4,226.9z"/>
<path class="st1" d="M103.3,218.7h2.4l-4.8,5.1h2.4l-0.3,0.4h-2.4l-9.2,10c-1.6,1.8-2.4,2.5-2.4,3c0,0.3,0.4,0.4,0.9,0.4
	c1.1,0,3.3-1.1,9.4-6.4l0.3,0.3c-5.2,4.6-8.2,6.6-9.8,6.6c-0.9,0-1.3-0.6-1.3-1.5c0-1.1,0.6-2.4,2.7-4.8l7-7.6h-2.4l0.3-0.4h2.5
	L103.3,218.7L103.3,218.7L103.3,218.7z"/>
<path class="st1" d="M111.1,231.8c-3.4,3-7.9,6.2-11.9,6.2c-1.2,0-2.4-0.4-2.4-1.8c0-4,7.3-10.3,11.3-10.3c0.9,0,1.6,0.8,1.6,1.6
	c0,3.4-6.6,5.4-9.2,5.4c-2.2,2.4-2.5,3.3-2.5,3.7c0,0.8,0.8,0.9,1.5,0.9c3.3,0,7.1-2.7,11.6-6.2V231.8L111.1,231.8L111.1,231.8z
	 M108.1,226.5c-1.5,0-3.4,1.8-7.3,6.1c4,0,8-3.4,8-5.4C108.8,226.8,108.5,226.5,108.1,226.5L108.1,226.5L108.1,226.5z"/>
<path class="st1" d="M121.2,232.3c-5.7,5.1-8.5,5.8-10.1,5.8c-1.5,0-2.1-0.9-2.1-2.2c0-4.5,18.7-24.4,22.6-24.4
	c0.8,0,1.3,0.4,1.3,1.3c0,4.3-10.8,11.3-16.5,15c0,0-6.6,8-6.6,8.9c0,0.6,0.4,0.9,0.9,0.9c2.1,0,4.9-1.2,9.2-4.9L121.2,232.3
	L121.2,232.3L121.2,232.3z M131.8,211.9c-1.5,0-6.7,4.9-14.6,14.9h0.1c7.1-5.1,15.2-10.3,15.2-14
	C132.5,212.2,132.2,211.9,131.8,211.9L131.8,211.9L131.8,211.9z"/>
<path class="st1" d="M156.9,226.5c-2.4,2.2-5.8,6.1-8.5,8.9c-0.6,0.8-0.9,1.2-0.9,1.5c0,0.6,0.4,0.8,0.9,0.8c2.2,0,7.9-4.5,9.7-6.4
	l0.4,0.3c-1.9,1.9-7.4,6.6-10.3,6.6c-1.1,0-1.6-0.8-1.6-1.5c0-0.6,0.1-1.1,0.4-1.5h-0.1c-2.1,1.9-4,3-5.5,3s-2.4-0.9-2.4-2.4
	c0-4.6,8.2-9.7,11.2-9.7c1.2,0,2.2,0.6,2.2,1.5c0,0.3,0,0.4-0.1,0.9h0.1l1.9-1.9L156.9,226.5L156.9,226.5z M150.6,226.5
	c-1.6,0-3,0.8-9.2,7.3c-1.5,1.6-1.5,2.4-1.5,2.8c0,0.6,0.4,1.1,1.5,1.1c3.4,0,10.6-7.9,10.6-9.8C152,226.9,151.2,226.5,150.6,226.5
	L150.6,226.5L150.6,226.5z"/>
<path class="st1" d="M162.7,226.5h2.2l-3.3,3.4l0.1,0.1c1.8-1.6,4.6-3.9,6.2-3.9c1.3,0,2.2,0.9,2.2,2.2c0,3-6.2,7.4-6.2,8.8
	c0,0.3,0.1,0.4,0.6,0.4c1.2,0,3.6-1.8,8.8-6.4v0.4c-4,3.7-7.3,6.4-8.8,6.4c-0.9,0-1.5-0.4-1.5-1.6c0-2.8,6.2-7.3,6.2-8.8
	c0-0.6-0.4-1.1-1.2-1.1c-2.2,0-8.2,5.1-13.2,10.9h-2.5L162.7,226.5L162.7,226.5L162.7,226.5L162.7,226.5z"/>
<path class="st1" d="M196.5,215.5h2.7l-18.7,19.5c-1.2,1.2-1.5,1.8-1.5,2.1c0,0.4,0.3,0.6,1.1,0.6c2.1,0,4.8-1.8,9.8-6.4l0.1,0.3
	c-5.4,4.9-7.6,6.6-10.3,6.6c-0.6,0-1.6-0.3-1.6-1.3c0-0.6,0-1.1,0.3-1.5l0,0c-1.6,1.6-3.6,2.8-5.2,2.8c-1.8,0-2.2-1.2-2.2-2.4
	c0-4,6.9-9.5,10.9-9.5c1.3,0,2.4,0.4,2.4,1.5c0,0.4-0.1,0.8-0.3,1.2l0,0L196.5,215.5L196.5,215.5L196.5,215.5z M182.3,226.6
	c-1.8,0-7.3,4.6-9.4,7.4c-1.1,1.5-1.2,1.9-1.2,2.4c0,0.8,0.6,1.2,1.5,1.2c3,0,10.4-8,10.4-9.8C183.7,227.1,183.1,226.6,182.3,226.6
	L182.3,226.6L182.3,226.6z"/>
<path class="st1" d="M218.3,214.7c0,5.1-4.9,11-10,11c-2.1,0-3.3-1.5-3.3-3.4c0-5.7,9.5-11.5,18.3-11.5c2.4,0,4.6,0.4,5.8,1.1
	c0.9-0.4,1.8-0.8,2.5-0.9l0.1,0.3c-0.8,0.3-1.5,0.6-2.1,0.8c1.9,1.1,3.4,2.7,3.4,4.9c0,3.9-4.6,6.2-7.9,6.9c0.3,0.6,0.4,1.1,0.4,1.6
	c0,2.5-5.7,6.6-5.7,10c0,1.6,1.5,2.2,2.8,2.2c3.3,0,9.2-5.5,9.2-8.8c0-1.1-0.9-1.8-1.9-1.8c-1.5,0-3.3,1.8-4.2,2.8l-0.4-0.1
	c1.1-1.2,2.8-3.1,4.6-3.1c1.2,0,2.4,0.8,2.4,2.4c0,3.9-5.2,9.1-9.7,9.1c-2.4,0-4.2-1.6-4.2-4.2c0-3.9,5.8-7.3,5.8-10.1
	c-0.4,0.1-1.2,0.3-2.1,0.3c-1.3,0-2.4-0.9-2.4-1.9H220c-4.5,6.2-10.1,15.9-19,15.9c-2.7,0-4.5-1.2-4.5-3c0-1.2,1.1-1.9,1.8-1.9
	c1.1,0,1.8,0.8,1.8,1.8c0,1.3-1.9,1.2-1.9,1.5c0,0.6,1.3,1.2,3,1.2c9.7,0,17-21.7,27.5-25.4c-1.5-0.8-3.9-0.9-4.9-0.9
	c-10.1,0-18.1,6.6-18.1,10.7c0,1.8,0.9,3.3,2.8,3.3c3.4,0,9.5-5.9,9.5-10.6L218.3,214.7L218.3,214.7L218.3,214.7z M229.2,212.3
	c-2.4,1.5-4.9,3.6-8.9,9.2l0.1,0.1c0.3-0.3,0.9-0.3,1.5-0.3c0.9,0,2.5,0.4,3.3,1.9c3-0.8,6.2-4,6.2-7
	C231.4,214.3,230.3,213.1,229.2,212.3L229.2,212.3L229.2,212.3z M224.6,223.5c-0.3-1.2-1.6-1.6-2.8-1.6c-0.8,0-1.2,0.1-1.2,0.6
	s0.8,1.2,2.1,1.2C223.4,223.6,224.1,223.6,224.6,223.5L224.6,223.5z"/>
<path class="st1" d="M247,231.8c-3.4,3-8.5,6.2-12.4,6.2c-1.2,0-2.4-0.4-2.4-1.8c0-4,7.3-10.3,11.3-10.3c0.9,0,1.6,0.8,1.6,1.6
	c0,3.4-6.6,5.4-9.2,5.4c-2.2,2.4-2.5,3.3-2.5,3.7c0,0.8,0.8,0.9,1.5,0.9c3.3,0,7.7-2.7,12.1-6.2V231.8L247,231.8L247,231.8z
	 M243.6,226.5c-1.5,0-3.4,1.8-7.3,6.1c4,0,8-3.4,8-5.4C244.4,226.8,244.1,226.5,243.6,226.5L243.6,226.5L243.6,226.5z"/>
<path class="st1" d="M272.6,231.2c-0.8,0.4-1.8,1.2-3,1.2c-0.9,0-1.3-0.3-1.9-0.8c-3.6,4.5-6.5,6.4-9.4,6.4c-1.2,0-2.4-0.9-2.4-2.2
	c0-3.6,7-10.1,10.9-10.1c0.8,0,1.3,0.3,1.6,0.9c0.1-0.1,0.3-0.1,0.5-0.1c0.5,0,0.8,0.4,0.8,1.1c0,1.3-1,3.1-1.6,3.9
	c0.5,0.4,1,0.6,1.6,0.6c0.8,0,1.9-0.4,2.7-1.2L272.6,231.2L272.6,231.2L272.6,231.2z M268,226.9c-0.1-0.3-0.5-0.8-0.9-0.8
	c-1.6,0-4.6,3.6-8.6,8.2c-0.9,1.1-1.2,1.6-1.2,2.2c0,0.4,0.5,1.1,1.5,1.1c2.5,0,6.1-2.8,8.6-6.2c-0.3-0.6-0.5-1.2-0.5-1.9
	C266.9,228.4,267.4,227.4,268,226.9L268,226.9L268,226.9z"/>
<path class="st1" d="M276.3,226.5h2.5l-4.8,5.2l0,0c1.2-0.9,2.7-1.5,4.6-2.1c0.3-1.6,2.2-3.4,3.1-3.4c0.6,0,0.9,0.1,0.9,0.8
	c0,1.3-2.4,2.7-3.6,3c0,1.1,0.5,1.9,1.3,1.9c0.8,0,6.4-2.7,6.7-3l0.1,0.3c-0.3,0.3-6.2,3.1-6.9,3.1c-1,0-1.8-0.9-1.8-2.2
	c-3.1,0.8-5.4,2.4-7.4,4.8l-2.2,2.7h-2.4L276.3,226.5L276.3,226.5L276.3,226.5L276.3,226.5z"/>
<path class="st1" d="M294.8,218.7h2.5l-4.8,5.1h2.2l-0.3,0.4h-2.4l-9.2,10c-1.5,1.8-2.2,2.5-2.2,3c0,0.3,0.5,0.4,0.8,0.4
	c1.2,0,5-0.8,11.2-6.1l-0.1,0.3c-4.8,4.8-9.4,6.2-11.2,6.2c-0.9,0-1.3-0.6-1.3-1.5c0-1.1,0.8-2.4,2.8-4.8l7-7.6h-2.5l0.5-0.4h2.4
	L294.8,218.7L294.8,218.7L294.8,218.7z"/>
<path class="st1" d="M42.7,166.7H38v-1.2h25.6l0.3,9.4h-1.2c-0.8-3-1.3-6.2-4.5-7.6c-1-0.4-2.8-0.6-4.8-0.6h-4.9v13.2
	c4.3,0,6.7-0.8,7-5.7h1.2v12.9h-1.2c-0.5-5.2-2.1-6.2-7-6.1v14h4.5v1.2h-15v-1.2h4.6L42.7,166.7L42.7,166.7L42.7,166.7z"/>
<path class="st1" d="M64.5,184.2c0-5.7,4.9-11.3,10.7-11.3s10.7,5.7,10.7,11.3c0,6.2-3.9,12.6-10.7,12.6S64.5,190.5,64.5,184.2
	L64.5,184.2z M80.9,180.6c0-1.3-0.1-2.4-0.6-3.4c-0.6-2.1-2.1-3.6-5.1-3.6c-3.1,0-4.6,1.5-5.2,3.6c-0.3,1.1-0.4,2.1-0.4,3.4v7.4
	c0,1.3,0,2.7,0.3,3.9c0.8,2.4,2.1,4,5.4,4s4.6-1.6,5.2-4c0.3-1.2,0.4-2.5,0.4-3.9L80.9,180.6L80.9,180.6L80.9,180.6z"/>
<path class="st1" d="M112.4,173.4v0.9H109v14.4c0,3.4-0.8,5.1-2.1,6.4c-1.5,1.2-3.6,1.8-6.7,1.8c-2.4,0-4.6-0.8-6.1-1.9
	c-1.5-1.1-2.1-3.3-2.1-7.1v-13.5h-3.4v-0.9h11.2v0.9h-3.4v12.5c0,4.8-0.4,8.9,5.8,8.9c4,0,5.7-2.5,5.7-6.2v-15.2h-3.3v-0.9
	L112.4,173.4L112.4,173.4L112.4,173.4z"/>
<path class="st1" d="M122.7,195.4h3.4v0.9h-11.2v-0.9h3.4v-21.1h-3.4v-0.9h11.5c3.7,0,8.2,0.4,8.2,5.2c0,3.9-4,5.2-7.3,5.7l0,0
	c5.4,0.9,6.5,3.7,6.5,9.4c0,1.2,0.1,2.5,3.4,1.9v0.8c-0.9,0.3-1.9,0.4-2.8,0.4c-3.6,0-5.4-1.8-5.4-5.2c0-2.8-0.4-5.1-1.3-5.8
	c-1.1-0.8-2.1-1.2-3.1-1.2h-1.9L122.7,195.4L122.7,195.4L122.7,195.4z M122.7,183.6h2.8c3.1,0,4.3-1.5,4.3-4.6
	c0-3.7-1.1-4.8-4.2-4.8h-3L122.7,183.6L122.7,183.6L122.7,183.6z"/>
<path class="st1" d="M151.7,196.6h-0.8v-9.2h1.3c0.9,4.5,3.6,8.5,8.5,8.5c3.6,0,6.9-2.7,6.9-6.4c0-4.3-3.9-5.2-7.3-6.4
	c-0.9-0.3-1.8-0.6-2.8-0.9c-4.2-1.3-6.4-4.5-6.4-8.9c0-4.8,3.6-8.3,8.5-8.3c2.7,0,4.6,0.6,6.7,2.2l1.8-1.8h0.8v8.6h-1.5
	c-0.4-4.3-3.3-8-7.9-8c-3,0-5.8,2.2-5.8,5.4c0,3.6,2.5,3.9,5.4,4.6c1.2,0.3,2.1,0.8,2.8,0.9c0.9,0.3,2.1,0.6,3.1,1.1
	c3.9,1.9,5.2,4.9,5.2,9.1c0,5.8-3.7,10.1-9.7,10.1c-2.2,0-5.1-0.9-6.6-2.4L151.7,196.6L151.7,196.6L151.7,196.6z"/>
<path class="st1" d="M182.3,174.3v9.8c3.3,0,5.1-0.4,5.2-4.2h0.9v9.5h-0.9c-0.3-3.7-1.5-4.6-5.2-4.5v10.4h4.8c4.5,0,5.5-2.5,6.2-6.4
	h0.9l-0.3,7.3h-19.5v-0.9h3.4v-21.1h-3.4v-0.9h19l0.1,6.2h-0.9c-0.8-3.3-2.1-4.6-3.9-5.1c-0.9-0.3-1.8-0.3-3-0.3L182.3,174.3
	L182.3,174.3L182.3,174.3z"/>
<path class="st1" d="M196.7,196.3v-0.9h2.8l8.2-22.5h1.2l7.7,22.5h2.8v0.9h-10.9v-0.9h3.6l-2.1-5.9h-7.4l-2.1,5.9h3.4v0.9H196.7
	L196.7,196.3z M203,188.5h6.7l-3.1-9.7L203,188.5L203,188.5L203,188.5z"/>
<path class="st1" d="M223.1,196.6h-0.6v-6.9h0.9c0.8,3.3,2.7,6.2,6.4,6.2c2.7,0,5.1-2.1,5.1-4.8c0-3.3-2.8-3.9-5.4-4.8
	c-0.8-0.3-1.5-0.4-2.1-0.8c-3.3-0.9-4.8-3.3-4.8-6.6c0-3.6,2.7-6.2,6.2-6.2c1.9,0,3.4,0.4,4.9,1.6l1.3-1.3h0.6v6.6h-1.1
	c-0.4-3.3-2.5-6.1-5.9-6.1c-2.2,0-4.3,1.6-4.3,4c0,2.5,1.9,2.8,4,3.4c0.9,0.3,1.5,0.4,2.1,0.8c0.8,0.1,1.6,0.4,2.4,0.8
	c2.8,1.3,3.9,3.6,3.9,6.7c0,4.3-2.8,7.6-7.3,7.6c-1.6,0-3.7-0.8-4.9-1.8L223.1,196.6L223.1,196.6z"/>
<path class="st1" d="M241.4,184.2c0-5.7,4.9-11.3,10.7-11.3s10.6,5.7,10.6,11.3c0,6.2-3.9,12.6-10.6,12.6S241.4,190.5,241.4,184.2
	L241.4,184.2L241.4,184.2z M257.6,180.6c0-1.3-0.1-2.4-0.5-3.4c-0.8-2.1-2.1-3.6-5.1-3.6c-3.1,0-4.6,1.5-5.2,3.6
	c-0.3,1.1-0.4,2.1-0.4,3.4v7.4c0,1.3,0,2.7,0.3,3.9c0.6,2.4,2.1,4,5.4,4s4.6-1.6,5.2-4c0.3-1.2,0.3-2.5,0.3-3.9L257.6,180.6
	L257.6,180.6L257.6,180.6z"/>
<polygon class="st1" points="285.4,196.7 284.4,196.7 269.9,175 269.9,195.4 273.2,195.4 273.2,196.3 265.5,196.3 265.5,195.4 
	268.7,195.4 268.7,174.3 265.5,174.3 265.5,173.4 274.2,173.4 284.4,188.4 284.4,174.3 281.1,174.3 281.1,173.4 288.8,173.4 
	288.8,174.3 285.4,174.3 285.4,196.7 "/>
<path class="st1" d="M293,196.6h-0.6v-6.9h1c0.8,3.3,2.7,6.2,6.2,6.2c2.7,0,5.2-2.1,5.2-4.8c0-3.3-3-3.9-5.5-4.8
	c-0.6-0.3-1.3-0.4-2.1-0.8c-3.1-0.9-4.8-3.3-4.8-6.6c0-3.6,2.7-6.2,6.2-6.2c2.1,0,3.4,0.4,5,1.6l1.3-1.3h0.6v6.6h-1.2
	c-0.3-3.3-2.4-6.1-5.8-6.1c-2.2,0-4.3,1.6-4.3,4c0,2.5,1.8,2.8,3.9,3.4c0.9,0.3,1.6,0.4,2.2,0.8c0.6,0.1,1.5,0.4,2.2,0.8
	c2.8,1.3,3.9,3.6,3.9,6.7c0,4.3-2.8,7.6-7.1,7.6c-1.6,0-3.7-0.8-4.9-1.8L293,196.6L293,196.6L293,196.6z"/>
<path class="st1" d="M194.7,123.2c0.6,0,1.1-0.6,1.1-1.1c0-0.6-0.4-1.2-1.1-1.2s-1.1,0.6-1.1,1.2
	C193.6,122.6,194.1,123.2,194.7,123.2L194.7,123.2z"/>
<polygon class="st1" points="193.3,120.9 194.2,121.2 194.7,120.3 195,121.2 196,120.9 195.6,121.8 196.5,122.2 195.6,122.5 
	196,123.6 195,123.1 194.7,124 194.2,123.1 193.3,123.6 193.6,122.5 192.7,122.2 193.6,121.8 193.3,120.9 "/>
<path class="st1" d="M167.9,75.9c1.6,0.1,3,0.9,3.1,3C169.1,78.8,168.2,77.6,167.9,75.9L167.9,75.9z"/>
<path class="st1" d="M167.9,72.8c1.6,0.1,3,0.9,3.3,2.8C169.1,75.7,168.2,74.5,167.9,72.8L167.9,72.8z"/>
<path class="st1" d="M168,69.6c1.6,0.1,2.8,0.9,3.1,3C169.2,72.4,168.3,71.2,168,69.6L168,69.6z"/>
<path class="st1" d="M168,66.4c1.6,0.1,3,0.9,3.1,2.8C169.2,69.3,168.3,68.1,168,66.4L168,66.4z"/>
<path class="st1" d="M168,63.2c1.6,0.1,3,1,3.3,3C169.2,66,168.3,64.8,168,63.2C168,63.2,168,63.2,168,63.2z"/>
<path class="st1" d="M168.2,60c1.6,0.1,2.8,0.9,3.1,2.8C169.4,62.9,168.5,61.7,168.2,60L168.2,60z"/>
<path class="st1" d="M167.1,148.7h8.8v-0.3l-2.8-1.3l-1.5-87c0-0.1-0.1-0.1-0.1-0.1V60l-1.5,87l-2.8,1.3V148.7L167.1,148.7z"/>
<path class="st1" d="M191.8,87.8c-0.3,1.8-1.2,3-3.1,3C188.8,88.9,190.2,88,191.8,87.8L191.8,87.8z"/>
<path class="st1" d="M192,90.8c-0.3,1.6-1.2,2.8-3.1,2.8C189,91.7,190.4,91,192,90.8L192,90.8z"/>
<path class="st1" d="M181.9,87.7c-1.9,0-2.8-1.2-3.1-2.8C180.4,85,181.7,85.8,181.9,87.7L181.9,87.7z"/>
<path class="st1" d="M176.5,97.1c-2.1,0-3-1.2-3.3-2.8C175,94.4,176.2,95.1,176.5,97.1L176.5,97.1z"/>
<path class="st1" d="M197.8,106c-1.6,0.1-3,0.9-3.3,2.8C196.6,108.8,197.5,107.6,197.8,106L197.8,106z"/>
<path class="st1" d="M195.1,117.4c1.8,0.1,3.1,0.9,3.3,2.8C196.3,120.3,195.4,119.1,195.1,117.4L195.1,117.4z"/>
<path class="st1" d="M198.7,113.3c-1.8-0.1-3.1-0.9-3.1-3C197.6,110.4,198.5,111.6,198.7,113.3L198.7,113.3z"/>
<path class="st1" d="M145,123.1c-0.3-0.3-0.3-0.6-0.3-0.6l-0.6-17c0-0.3-0.1-0.4-0.1-0.4c-0.1,0-0.1,0.1-0.1,0.4l-0.8,18
	c0,0,0,0.4,0.3,0.6l28.1,16.5v-4L145,123.1L145,123.1L145,123.1z"/>
<path class="st1" d="M197.9,123.1c0.4-0.3,0.4-0.6,0.4-0.6l0.6-17c0-0.3,0-0.4,0.1-0.4c0,0,0.1,0.1,0.1,0.4l0.6,18
	c0,0,0.1,0.4-0.1,0.6l-28.3,16.5v-4L197.9,123.1L197.9,123.1L197.9,123.1z"/>
<path class="st1" d="M149.9,110.9c-0.3-0.1-0.3-0.3-0.3-0.3l-0.4-14.3c0-0.1,0-0.3-0.1-0.3c0,0-0.1,0.1-0.1,0.3l-0.4,15
	c0,0-0.1,0.3,0.1,0.4l22.9,13.5v-3.3L149.9,110.9L149.9,110.9L149.9,110.9z"/>
<path class="st1" d="M193,110.9c0.3-0.1,0.3-0.3,0.3-0.3l0.6-14.3V96c0.1,0,0.1,0.1,0.1,0.3l0.6,15c0,0,0,0.3-0.1,0.4l-23.1,13.5
	v-3.3L193,110.9L193,110.9L193,110.9z"/>
<path class="st1" d="M155.2,98.8c-0.3-0.1-0.3-0.3-0.3-0.3l-0.3-10.7l-0.1-0.1l-0.1,0.1l-0.3,11.6c0,0,0,0.3,0.1,0.4l17.3,10.3v-2.8
	L155.2,98.8L155.2,98.8L155.2,98.8z"/>
<path class="st1" d="M187.8,98.8c0.1-0.1,0.1-0.3,0.1-0.3l0.4-10.7v-0.1c0.1,0,0.1,0.1,0.1,0.1l0.4,11.6c0,0,0,0.3-0.1,0.4
	l-17.4,10.3v-2.8L187.8,98.8L187.8,98.8L187.8,98.8z"/>
<path class="st1" d="M160.2,87.2c-0.1,0-0.1-0.1-0.1-0.1l-0.3-7.6c0-0.1-0.1-0.1-0.1-0.1v0.1l-0.4,8.2c0,0,0,0.3,0.1,0.3l12.2,7.3
	v-2.1L160.2,87.2L160.2,87.2L160.2,87.2z"/>
<path class="st1" d="M164.2,77.6v-0.1l-0.3-4.8c0-0.1-0.1-0.1-0.1-0.1v0.1l-0.3,5.4c0,0,0,0.1,0.1,0.1l7.9,4.6v-1.3L164.2,77.6
	L164.2,77.6L164.2,77.6z"/>
<path class="st1" d="M178.8,77.6c0.1,0,0.1-0.1,0.1-0.1l0.3-4.8v-0.1v0.1l0.3,5.4v0.1l-8,4.6v-1.3L178.8,77.6L178.8,77.6L178.8,77.6
	z"/>
<path class="st1" d="M182.9,87.2c0.1,0,0.1-0.1,0.1-0.1l0.3-7.6v-0.1c0.1,0,0.1,0.1,0.1,0.1l0.3,8.2c0,0,0,0.3-0.1,0.3l-12.2,7.3
	v-2.1L182.9,87.2L182.9,87.2L182.9,87.2L182.9,87.2z"/>
<path class="st1" d="M179.3,75.3c2.1,0,3-1.2,3.3-2.8C181,72.5,179.6,73.4,179.3,75.3L179.3,75.3z"/>
<path class="st1" d="M179.2,72.5c2.1,0,3-1.2,3.3-2.8C180.8,69.8,179.5,70.6,179.2,72.5L179.2,72.5z"/>
<path class="st1" d="M179,74.2c-1.9,0-2.8-1.3-3.1-3C177.5,71.3,178.9,72.2,179,74.2L179,74.2z"/>
<path class="st1" d="M178.9,77c-1.9-0.1-2.8-1.3-3.1-3C177.4,74.2,178.7,74.9,178.9,77L178.9,77z"/>
<path class="st1" d="M186.8,79.5c-0.3,1.8-1.2,3-3.1,3C183.8,80.5,185.1,79.7,186.8,79.5L186.8,79.5z"/>
<path class="st1" d="M186.6,76.5c-1.6,0.1-3,1.1-3.1,3C185.4,79.5,186.3,78.3,186.6,76.5L186.6,76.5z"/>
<path class="st1" d="M151.2,85c1.6,0.1,3,0.9,3.3,3C152.4,87.9,151.5,86.7,151.2,85L151.2,85z"/>
<path class="st1" d="M151.2,87.8c0.3,1.8,1.2,3,3.1,3C154.2,88.9,152.9,88,151.2,87.8L151.2,87.8z"/>
<path class="st1" d="M151.1,90.8c0.3,1.6,1.2,2.8,3.1,2.8C154.1,91.7,152.7,91,151.1,90.8L151.1,90.8z"/>
<path class="st1" d="M150.9,93.7c0.3,1.8,1.2,3,3.3,3C153.9,94.7,152.7,93.8,150.9,93.7L150.9,93.7z"/>
<path class="st1" d="M154.1,99.5c-1.9,0-2.8-1.2-3.1-2.8C152.6,96.8,153.9,97.5,154.1,99.5L154.1,99.5z"/>
<path class="st1" d="M159.3,87.7c-2.1,0-3-1.2-3.3-2.8C157.8,85,159,85.8,159.3,87.7L159.3,87.7z"/>
<path class="st1" d="M158.1,92.9c-1.6,0.1-3,1.1-3.1,3C156.9,95.9,157.8,94.7,158.1,92.9L158.1,92.9z"/>
<path class="st1" d="M155.1,98.7c1.9-0.1,2.8-1.3,3.1-3C156.6,95.9,155.3,96.6,155.1,98.7L155.1,98.7z"/>
<path class="st1" d="M160.5,97.1c-0.3,1.6-1.2,2.8-3.1,2.8C157.5,98,158.8,97.2,160.5,97.1L160.5,97.1z"/>
<path class="st1" d="M162.8,98.3c-0.3,1.6-1.2,2.8-3.1,2.8C159.8,99.2,161.2,98.4,162.8,98.3L162.8,98.3z"/>
<path class="st1" d="M165.2,99.5c-0.3,1.6-1.2,2.8-3.3,2.8C162.2,100.3,163.6,99.6,165.2,99.5L165.2,99.5z"/>
<path class="st1" d="M167.6,100.6c-0.3,1.6-1.3,2.8-3.3,3C164.6,101.5,165.8,100.8,167.6,100.6L167.6,100.6z"/>
<path class="st1" d="M166.7,104.8c1.9-0.1,2.8-1.3,3.1-3C168.2,102,166.9,102.7,166.7,104.8L166.7,104.8z"/>
<path class="st1" d="M160,87.1c2.1,0,3-1.2,3.3-2.8C161.5,84.4,160.3,85.2,160,87.1L160,87.1z"/>
<path class="st1" d="M165.5,85.5c-0.3,1.6-1.2,2.8-3.1,3C162.5,86.4,163.9,85.6,165.5,85.5L165.5,85.5z"/>
<path class="st1" d="M167.9,86.7c-0.3,1.6-1.2,2.8-3.1,3C164.9,87.6,166.3,86.8,167.9,86.7L167.9,86.7z"/>
<path class="st1" d="M170.3,87.8c-0.3,1.6-1.2,3-3.3,3C167.3,88.9,168.6,88,170.3,87.8L170.3,87.8z"/>
<path class="st1" d="M155.7,100.8c-0.3,1.6-1.3,2.8-3.3,2.8C152.7,101.7,153.9,101,155.7,100.8L155.7,100.8z"/>
<path class="st1" d="M154.7,104.9c0.3-1.9,1.5-2.8,3.3-3C157.6,103.8,156.6,104.9,154.7,104.9L154.7,104.9z"/>
<path class="st1" d="M156.9,106.3c0.3-1.9,1.5-2.8,3.3-3C159.9,105.1,158.8,106.3,156.9,106.3L156.9,106.3z"/>
<path class="st1" d="M159.1,107.6c0.3-2.1,1.5-2.8,3.3-3C162.1,106.3,161,107.5,159.1,107.6L159.1,107.6z"/>
<path class="st1" d="M163.6,110.2c0.3-1.9,1.5-2.7,3.3-2.8C166.6,109,165.5,110.2,163.6,110.2L163.6,110.2z"/>
<path class="st1" d="M160.8,88.9c-0.3,1.6-1.2,2.8-3.3,3C157.8,89.8,159,89,160.8,88.9L160.8,88.9z"/>
<path class="st1" d="M159.7,93.1c0.3-1.9,1.6-2.7,3.3-2.8C162.7,91.9,161.8,93.1,159.7,93.1L159.7,93.1z"/>
<path class="st1" d="M162.1,94.4c0.1-1.9,1.5-2.7,3.1-2.8C164.9,93.2,164,94.4,162.1,94.4L162.1,94.4z"/>
<path class="st1" d="M164.3,95.7c0.1-1.9,1.5-2.7,3.1-2.8C167.2,94.5,166.3,95.7,164.3,95.7L164.3,95.7z"/>
<path class="st1" d="M166.6,97.1c1.9,0,2.8-1.2,3.1-2.8C168,94.4,166.7,95.1,166.6,97.1L166.6,97.1z"/>
<path class="st1" d="M164.9,78.9c-0.3,1.6-1.3,2.8-3.3,3C161.9,79.8,163.1,79.1,164.9,78.9L164.9,78.9z"/>
<path class="st1" d="M164,83.1c0.1-1.9,1.5-2.7,3.1-2.8C166.9,81.9,166,83.1,164,83.1L164,83.1z"/>
<path class="st1" d="M166.3,84.4c0.1-1.9,1.5-2.7,3.1-2.8C169.1,83.2,168.2,84.4,166.3,84.4L166.3,84.4z"/>
<path class="st1" d="M163.4,78c-1.9,0-2.8-1.2-3.1-2.8C161.9,75.3,163.3,76.1,163.4,78L163.4,78z"/>
<path class="st1" d="M163.6,75.3c-1.9,0-2.8-1.2-3.1-2.8C162.1,72.5,163.4,73.4,163.6,75.3L163.6,75.3z"/>
<path class="st1" d="M163.7,72.5c-1.9,0-2.8-1.2-3.1-2.8C162.2,69.8,163.6,70.6,163.7,72.5L163.7,72.5z"/>
<path class="st1" d="M163.9,74c2.1,0,3-1.2,3.3-3C165.5,71.2,164.2,72.1,163.9,74L163.9,74z"/>
<path class="st1" d="M164.2,77c1.9-0.1,2.8-1.3,3.1-3C165.7,74.2,164.3,74.9,164.2,77L164.2,77z"/>
<path class="st1" d="M156.1,82.1c0.3,1.6,1.2,2.8,3.1,3C159.1,82.9,157.8,82.2,156.1,82.1L156.1,82.1z"/>
<path class="st1" d="M156.3,79.4c0.3,1.6,1.2,2.8,3.1,2.8C159.3,80.3,157.9,79.5,156.3,79.4L156.3,79.4z"/>
<path class="st1" d="M156.3,76.5c1.8,0.1,3,1.1,3.3,3C157.5,79.5,156.6,78.3,156.3,76.5L156.3,76.5z"/>
<path class="st1" d="M145.3,106c1.6,0.1,3,0.9,3.1,2.8C146.5,108.8,145.6,107.6,145.3,106L145.3,106z"/>
<path class="st1" d="M145.6,97.4c1.6,0.1,3,1.1,3.1,3C146.8,100.3,145.9,99.2,145.6,97.4L145.6,97.4z"/>
<path class="st1" d="M145.4,100.3c1.6,0.1,3,0.9,3.3,3C146.6,103.2,145.7,102,145.4,100.3L145.4,100.3z"/>
<path class="st1" d="M180.8,108.8c0.6,0,1.1-0.4,1.1-1.1s-0.4-1.1-1.1-1.1s-1.2,0.4-1.2,1.1S180.2,108.8,180.8,108.8L180.8,108.8z"
	/>
<polygon class="st1" points="179.5,106.4 180.4,106.7 180.8,105.8 181.1,106.7 182.2,106.4 181.7,107.3 182.6,107.8 181.7,108.1 
	182.2,109.1 181.1,108.7 180.8,109.6 180.4,108.7 179.5,109.1 179.8,108.1 178.9,107.8 179.8,107.3 179.5,106.4 "/>
<path class="st1" d="M177.3,117c0.6,0,1.1-0.6,1.1-1.2s-0.4-1.1-1.1-1.1s-1.1,0.4-1.1,1.1S176.7,117,177.3,117L177.3,117z"/>
<polygon class="st1" points="175.9,114.5 177,114.9 177.3,114 177.7,114.9 178.6,114.5 178.3,115.5 179.2,115.8 178.3,116.2 
	178.6,117.1 177.7,116.9 177.3,117.8 177,116.9 175.9,117.1 176.4,116.2 175.5,115.8 176.4,115.5 175.9,114.5 "/>
<path class="st1" d="M184.1,125.6c0.6,0,1.1-0.6,1.1-1.2s-0.4-1.1-1.1-1.1s-1.1,0.4-1.1,1.1S183.5,125.6,184.1,125.6L184.1,125.6z"
	/>
<polygon class="st1" points="182.8,123.1 183.7,123.6 184.1,122.7 184.6,123.6 185.4,123.1 185,124.1 186,124.4 185,124.9 
	185.4,125.8 184.6,125.5 184.1,126.4 183.7,125.5 182.8,125.8 183.1,124.9 182.2,124.4 183.1,124.1 182.8,123.1 "/>
<path class="st1" d="M186.3,136.6c0.6,0,1.1-0.6,1.1-1.2c0-0.4-0.4-1.1-1.1-1.1s-1.1,0.6-1.1,1.1C185.3,136,185.7,136.6,186.3,136.6
	L186.3,136.6z"/>
<polygon class="st1" points="185,134.1 185.9,134.6 186.3,133.7 186.8,134.6 187.7,134.1 187.4,135.1 188.3,135.4 187.4,135.9 
	187.7,136.8 186.8,136.5 186.3,137.4 185.9,136.5 185,136.8 185.3,135.9 184.4,135.4 185.3,135.1 185,134.1 "/>
<path class="st1" d="M183.5,136.5c0.3,1.6-0.1,3.1-1.9,3.9C181,138.4,181.9,137.2,183.5,136.5L183.5,136.5z"/>
<path class="st1" d="M196.2,131.9c-1.8-0.1-3.1-1.1-3.1-3C195.1,128.9,196,130.2,196.2,131.9L196.2,131.9z"/>
<path class="st1" d="M179.9,125.2c-1.8-0.1-3.1-0.9-3.3-2.8C178.8,122.4,179.6,123.6,179.9,125.2L179.9,125.2z"/>
<path class="st1" d="M193.5,106.9c-1.9-0.1-2.8-1.3-3.1-3C192,104.1,193.3,104.8,193.5,106.9L193.5,106.9z"/>
<path class="st1" d="M182.8,116.1c-1.9,0-3-1.2-3.3-2.8C181.3,113.4,182.5,114.2,182.8,116.1L182.8,116.1z"/>
<path class="st1" d="M188.1,95.9c-2.1,0-3-1.2-3.3-3C186.6,93,187.8,94,188.1,95.9L188.1,95.9z"/>
<path class="st1" d="M204.2,119.7c-1.8-0.1-3.1-0.9-3.3-3C203,116.8,203.9,118,204.2,119.7L204.2,119.7z"/>
<path class="st1" d="M185.1,106.6c0.3,1.6-0.1,3.1-1.9,3.9C182.6,108.5,183.6,107.3,185.1,106.6L185.1,106.6z"/>
<path class="st1" d="M187.5,117.4c0.3,1.6-0.1,3.1-1.9,3.9C185,119.4,186,118.2,187.5,117.4L187.5,117.4z"/>
<path class="st1" d="M179.5,132.3c-1.9,0-2.8-1.2-3.1-3C178,129.5,179.3,130.4,179.5,132.3L179.5,132.3z"/>
<path class="st1" d="M192.4,144.5c0-2.2,1.9-4.2,4.2-4.2s4,1.9,4,4.2s-1.8,4.2-4,4.2S192.4,146.7,192.4,144.5L192.4,144.5z
	 M199.9,144.5c0-1.8-1.5-3.3-3.3-3.3c-1.9,0-3.4,1.5-3.4,3.3c0,1.9,1.5,3.3,3.4,3.3C198.4,147.8,199.9,146.4,199.9,144.5
	L199.9,144.5z M198.7,146.7h-1.1l-1.1-1.9h-0.9v1.9h-0.9v-4.5h2.2c0.3,0,0.9,0,1.2,0.3c0.4,0.1,0.4,0.6,0.4,1.1
	c0,0.9-0.3,1.2-1.2,1.2L198.7,146.7L198.7,146.7L198.7,146.7z M197.1,144.2c0.4,0,0.9-0.1,0.9-0.6c0-0.6-0.8-0.6-1.1-0.6h-1.2v1.2
	L197.1,144.2L197.1,144.2z"/>
<path class="st1" d="M303.5,232.1c-0.5,0.4-3.6,2.7-6.5,3.9c0.3-0.4,0.6-0.8,0.9-1.1c0.9-1.1,1.3-2.1,1.3-3.6
	c-0.1-1.6-1.5-2.7-2.4-4c0.6-0.6,1.8-1.8,1.8-2.8c0-0.3-0.3-0.6-0.6-0.6c-1.3,0-1.9,1.5-1.9,2.5c0,0.3,0.3,0.9,0.3,0.9
	c-1.8,2.7-5.4,5.1-6.2,5.9c-0.3,0.3-1.3,1.5-1.3,2.7c-0.1,1.3,0.1,2.5,2.1,2.5c1.3,0,3.4-0.6,5.2-1.8c3.9-1.2,7.7-4.3,7.7-4.3
	L303.5,232.1L303.5,232.1L303.5,232.1L303.5,232.1z M290.5,238.1c-1.2,0-1.3-1.1-1.3-1.9c0.1-1.1,0.6-1.8,1.2-2.2
	c0.8-0.9,4.3-3.3,6.2-6.2c0,0,1,1.8,1,2.7C297.9,233.9,292.7,237.8,290.5,238.1L290.5,238.1L290.5,238.1z"/>
<path class="st1" d="M258.3,232c-0.5,0.3-3.6,2.5-6.6,3.7c0.3-0.3,0.6-0.8,0.9-1.1c0.9-1.1,1.3-2.1,1.3-3.6
	c-0.1-1.6-1.5-2.7-2.4-3.9c0.6-0.8,1.8-1.9,1.8-2.8c0-0.3-0.3-0.8-0.6-0.8c-1.3,0-1.9,1.5-1.9,2.5c0,0.4,0.3,0.9,0.3,0.9
	c-1.8,2.7-5.4,5.2-6.2,5.9c-0.3,0.4-1.3,1.6-1.3,2.7c-0.1,1.3,0.1,2.5,2.1,2.5c1.3,0,3.4-0.6,5.2-1.8c3.9-1.2,7.7-4.3,7.7-4.3
	L258.3,232L258.3,232L258.3,232z M245.2,237.8c-1.2,0.1-1.3-0.9-1.3-1.9c0.1-0.9,0.6-1.6,1.2-2.2c0.8-0.9,4.3-3.3,6.2-6.2
	c0,0,1.1,1.8,1.1,2.7C252.7,233.6,247.5,237.6,245.2,237.8L245.2,237.8L245.2,237.8z"/>
<path class="st1" d="M133.1,232c-0.6,0.4-3.6,2.7-6.7,3.7c0.3-0.3,0.8-0.6,0.9-1.1c0.9-1.1,1.5-1.9,1.3-3.6
	c-0.1-1.6-1.5-2.7-2.4-3.9c0.6-0.6,1.8-1.8,1.8-2.8c0-0.3-0.3-0.6-0.6-0.6c-1.2,0-1.8,1.5-1.8,2.5c0,0.3,0.1,0.9,0.1,0.9
	c-1.8,2.7-5.2,5.1-6.1,5.9c-0.4,0.3-1.3,1.5-1.5,2.7c-0.1,1.3,0.1,2.4,2.1,2.4c1.3,0,3.4-0.4,5.2-1.8c3.9-1.1,7.7-4.2,7.7-4.2
	L133.1,232L133.1,232L133.1,232z M119.8,237.8c-1.2,0.1-1.3-0.9-1.2-1.9c0-0.9,0.6-1.6,1.1-2.2c0.8-0.9,4.3-3.3,6.4-6.1
	c0,0,0.9,1.6,0.9,2.7C127.3,233.8,122.2,237.6,119.8,237.8L119.8,237.8L119.8,237.8z"/>
</svg>
