<?xml version="1.0" encoding="UTF-8"?><svg id="Layer_1" xmlns="http://www.w3.org/2000/svg" xmlns:xlink="http://www.w3.org/1999/xlink" viewBox="0 0 344.7 344.7"><defs><style>.cls-1{clip-path:url(#clippath);}.cls-2{fill:none;}.cls-2,.cls-3,.cls-4,.cls-5,.cls-6,.cls-7,.cls-8,.cls-9,.cls-10,.cls-11{stroke-width:0px;}.cls-3{fill:url(#radial-gradient);}.cls-12{clip-path:url(#clippath-1);}.cls-13{clip-path:url(#clippath-4);}.cls-14{clip-path:url(#clippath-3);}.cls-15{clip-path:url(#clippath-2);}.cls-16{clip-path:url(#clippath-7);}.cls-17{clip-path:url(#clippath-8);}.cls-18{clip-path:url(#clippath-6);}.cls-19{clip-path:url(#clippath-5);}.cls-4{fill:url(#radial-gradient-2);}.cls-5{fill:#cb9700;}.cls-5,.cls-6,.cls-7,.cls-8{fill-rule:evenodd;}.cls-6,.cls-9{fill:#c5982c;}.cls-7{fill:#ebce7c;}.cls-8{fill:#fff;}.cls-10{fill:#fcfcfc;}.cls-11{fill:#002a44;}</style><clipPath id="clippath"><path class="cls-2" d="m131.41,230.11c12.32,9.51,27.76,15.16,44.52,15.16,40.27,0,72.92-32.65,72.92-72.92,0-3.28-.22-6.52-.64-9.69-9.71-3.77-20.27-5.84-31.31-5.84-43.28,0-79.13,31.78-85.49,73.29"/></clipPath><radialGradient id="radial-gradient" cx="-540.89" cy="44.11" fx="-540.89" fy="44.11" r="1.45" gradientTransform="translate(32406.6 -2380.72) scale(59.51)" gradientUnits="userSpaceOnUse"><stop offset="0" stop-color="#9abadc"/><stop offset=".05" stop-color="#94b6da"/><stop offset=".12" stop-color="#83abd5"/><stop offset=".2" stop-color="#689acc"/><stop offset=".2" stop-color="#6799cc"/><stop offset=".34" stop-color="#4176a6"/><stop offset=".53" stop-color="#124b76"/><stop offset=".62" stop-color="#003b64"/><stop offset=".85" stop-color="#002e4c"/><stop offset="1" stop-color="#002a44"/></radialGradient><clipPath id="clippath-1"><path class="cls-2" d="m105.06,155.09c8.85,4.94,19.05,7.75,29.9,7.75,33.62,0,60.93-27,61.44-60.5-6.5-1.9-13.37-2.92-20.48-2.92-34.33,0-63.11,23.72-70.87,55.66"/></clipPath><radialGradient id="radial-gradient-2" cx="-541.45" cy="46.38" fx="-541.45" fy="46.38" r="1.45" gradientTransform="translate(23031.41 -1862.19) scale(42.29)" gradientUnits="userSpaceOnUse"><stop offset="0" stop-color="#9abadc"/><stop offset=".05" stop-color="#94b6da"/><stop offset=".12" stop-color="#83abd5"/><stop offset=".2" stop-color="#689acc"/><stop offset=".2" stop-color="#6799cc"/><stop offset=".34" stop-color="#4176a6"/><stop offset=".53" stop-color="#124b76"/><stop offset=".62" stop-color="#003b64"/><stop offset=".85" stop-color="#002e4c"/><stop offset="1" stop-color="#002a44"/></radialGradient><clipPath id="clippath-2"><path class="cls-2" d="m133.11,204.1c-.68.2-1.29.51-1.81.91-.52.4-.94.91-1.25,1.5-.31.6-.47,1.29-.47,2.09s.17,1.48.51,1.99c.34.5.77.91,1.28,1.21.52.31,1.07.55,1.67.73.6.18,1.16.36,1.67.54.52.18.94.4,1.28.66.34.26.51.61.51,1.06,0,.26-.06.5-.2.69-.13.2-.31.36-.52.48-.22.13-.46.22-.73.28-.27.06-.54.09-.8.09-.54,0-1.07-.12-1.58-.36s-.93-.59-1.27-1.04l-2.32,2.55c.71.65,1.48,1.13,2.3,1.42s1.71.44,2.67.44c.77,0,1.49-.1,2.18-.29.69-.2,1.3-.5,1.82-.9s.94-.91,1.24-1.52c.31-.61.46-1.33.46-2.15s-.17-1.55-.5-2.07c-.34-.52-.76-.93-1.27-1.23s-1.06-.54-1.64-.71c-.58-.17-1.13-.33-1.64-.5s-.93-.37-1.27-.6c-.33-.24-.5-.58-.5-1.03,0-.28.07-.52.21-.71.14-.2.32-.35.54-.47.22-.12.46-.21.71-.26.25-.06.49-.08.73-.08.4,0,.83.08,1.28.24s.81.41,1.08.74l2.24-2.45c-.63-.56-1.33-.95-2.11-1.19s-1.59-.36-2.43-.36c-.72,0-1.43.1-2.11.3"/></clipPath><clipPath id="clippath-3"><polygon class="cls-2" points="140.84 204.17 140.84 207.05 145.06 207.05 145.06 218.96 148.32 218.96 148.32 207.05 152.54 207.05 152.54 204.17 140.84 204.17"/></clipPath><clipPath id="clippath-4"><path class="cls-2" d="m158.39,208.47l1.82,4.6h-3.61l1.8-4.6h-.01Zm-1.25-4.31l-6.4,14.8h3.59l1.23-3.13h5.75l1.28,3.13h3.68l-6.43-14.8h-2.7Z"/></clipPath><clipPath id="clippath-5"><path class="cls-2" d="m171.01,207.18h1.92c.68,0,1.33.09,1.95.26s1.16.44,1.62.78c.46.35.82.79,1.1,1.33.27.54.41,1.17.41,1.89,0,.84-.14,1.54-.41,2.12s-.64,1.05-1.12,1.4c-.47.36-1.04.61-1.68.76-.65.15-1.35.23-2.1.23h-1.69v-8.78h0Zm-3.26-3.01v14.8h5.33c1.1,0,2.15-.16,3.16-.48,1-.32,1.89-.79,2.65-1.41.76-.62,1.37-1.39,1.83-2.3.45-.91.68-1.97.68-3.17,0-1.35-.23-2.5-.7-3.45s-1.1-1.72-1.89-2.31-1.72-1.02-2.79-1.29c-1.07-.26-2.19-.4-3.38-.4h-4.89Z"/></clipPath><clipPath id="clippath-6"><rect class="cls-2" x="183.57" y="204.17" width="3.26" height="14.8"/></clipPath><clipPath id="clippath-7"><path class="cls-2" d="m199.02,204.17v8.97c0,.46-.07.89-.22,1.28s-.35.73-.61,1.01c-.27.29-.58.51-.94.67s-.76.24-1.19.24-.83-.08-1.2-.24-.69-.38-.95-.67c-.27-.29-.47-.62-.62-1.01s-.22-.81-.22-1.28v-8.97h-3.26v9.09c0,.88.13,1.69.4,2.42.26.74.66,1.38,1.18,1.92.52.54,1.17.97,1.95,1.28s1.69.46,2.72.46,1.92-.15,2.7-.46c.78-.31,1.43-.73,1.95-1.28.52-.54.92-1.18,1.18-1.92s.4-1.55.4-2.42v-9.09h-3.27Z"/></clipPath><clipPath id="clippath-8"><polygon class="cls-2" points="217.09 204.17 213.67 213.82 213.62 213.82 210.22 204.17 205.28 204.17 205.28 218.96 208.55 218.96 208.55 207.62 208.59 207.62 212.33 218.96 214.82 218.96 218.7 207.62 218.74 207.62 218.74 218.96 222 218.96 222 204.17 217.09 204.17"/></clipPath></defs><rect class="cls-2" width="344.7" height="344.7"/><path class="cls-11" d="m248.85,172.35c0,40.27-32.65,72.92-72.92,72.92s-72.92-32.65-72.92-72.92,32.65-72.92,72.92-72.92,72.92,32.64,72.92,72.92"/><g class="cls-1"><rect class="cls-3" x="131.41" y="156.82" width="117.44" height="88.45"/></g><g class="cls-12"><rect class="cls-4" x="105.06" y="99.43" width="91.34" height="63.41"/></g><path class="cls-5" d="m175.78,94c-43.28,0-78.35,35.08-78.35,78.35s35.07,78.34,78.35,78.34,78.35-35.08,78.35-78.34-35.08-78.35-78.35-78.35Zm0,151.17c-40.22,0-72.83-32.6-72.83-72.82s32.61-72.83,72.83-72.83,72.82,32.6,72.82,72.83-32.6,72.82-72.82,72.82h0Z"/><path class="cls-8" d="m309.9,180.8h0c-.17-.8-.72-1.46-1.47-1.76l-4.32-1.75h-.01c-.1-2.86-.94-5.72-2.32-8.07,5.4-2.63,10.57-7.72,10.57-15.13,0-2.81-.91-5.38-2.64-7.42h-.02c-.12-.15-1.86-2.37-1.86-2.37-2.12-2.76-5.44-4.3-9.36-4.37.74-2.94,2.53-10.04,2.53-10.04l.08-.62c0-.57-.19-1.14-.55-1.58l-3.27-4.04c-.46-.56-1.13-.89-1.84-.89h-11.24c-1.09,0-2.04.76-2.31,1.84,0,0-3.3,12.99-4.72,18.58l-.28-.23c-2.12-1.55-6.02-3.11-9.97-3.11-6.83,0-13.35,4.3-17.36,11.2-.56-1.14-1.98-3.08-1.95-3.04-.19-.25-.67-.85-2.09-2.6-2.77-3.58-6.95-5.56-11.74-5.56-3.18,0-6.27.84-9.09,2.43,0-4.37-1.3-8.2-3.73-11.08l-1.79-2.21c-3.23-4.06-8.52-6.22-15.29-6.22h-10.31c-.79,0-1.53.4-1.98,1.07l-.24.37c-1.74,2.62-3.39,4.04-7.13,4.04h-.64c-1.08,0-2.04.75-2.31,1.83l-2.04,8c-.05.21-.08.42-.08.63,0,.57.19,1.13.56,1.57l3.01,3.72c.4.49.96.8,1.57.87,0,0,.4.04.43.04-.87,3.42-8.26,32.47-8.26,32.47l-.07.62c0,.57.2,1.13.55,1.57l3.28,4.05c.45.56,1.13.88,1.83.88h11.47c1.09,0,2.04-.75,2.31-1.83,0,0,.67-2.65,1.51-5.93-.16,1.3-.27,2.71-.27,4.42,0,3.32,1.07,6.28,3.09,8.55l1.99,2.31c2.48,3.04,6.47,4.74,11.19,4.74,3.8,0,7.12-1.21,9.88-3.61l1.71-1.62c.5-.47.77-1.13.77-1.81,0-.18-.02-.37-.06-.55,0,0-.82-3.63-1.34-5.99,1.77.78,3.69,1.21,5.67,1.21,7.33,0,14.13-4.23,18.07-11.03.94,1.75,2.12,3.32,3.59,4.59l2.55,2.26c2.74,2.52,6.22,3.87,10.03,3.87,3.18,0,5.44-.66,6.77-1.21,0,0,.44-.2.48-.21.37.45.78.96.78.96.45.56,1.12.88,1.83.88h11.27c.31,0,.6-.07.87-.18.45,1.77,1.25,3.38,2.45,4.7l1.96,2.28c2.17,2.64,5.6,4.11,9.62,4.11,3.37,0,6.88-1.21,8.93-3.07l1.65-1.57c.5-.47.77-1.13.77-1.81,0-.17-.01-.35-.05-.52l-1.61-7.64h-.01Zm-38.72-14.12c-.08-.08-.33-.32-.33-.32-.81-.81-2.03-.92-2.98-.29l-.55.38c-.64.43-1.33.67-3.02.69l-.02-.49c0-6.42,3.28-9.87,5.65-9.87l.56.06c1.21.22,2.55,1.48,2.55,1.48,0,0,.12.14.2.22-.28,1.11-1.34,5.27-2.07,8.14h0Z"/><path class="cls-8" d="m173.59,122.76h-11.26c-1.09,0-2.04.76-2.32,1.84,0,0-3.34,13.14-4.16,16.33-1.48-.69-3.11-1.08-4.78-1.08-3.55,0-7,1.3-10.07,3.75l-2.4-2.4c-.14-.11-.48-.35-.87-.56-1.08-.48-2.3-.73-3.52-.73-1.51,0-3.04.44-4.57,1.27-.44-.44-1.03-.7-1.65-.7h-11.02c-1.09,0-2.04.75-2.31,1.84,0,0-.49,1.93-.58,2.27-.84-1.04-2.61-3.22-2.61-3.22-.46-.56-1.13-.88-1.84-.88h-11.05c-.68,0-1.29.31-1.73.8-1.6-.93-3.41-1.43-5.25-1.43-3.51,0-6.97,1.34-10.01,3.75,1.46-5.73,3.48-13.71,3.48-13.71.05-.21.08-.42.08-.62,0-.57-.19-1.13-.56-1.58l-3.27-4.04c-.46-.56-1.12-.89-1.84-.89h-11.47c-1.09,0-2.04.76-2.32,1.84,0,0-.34,1.36-.84,3.35-.05-.09-.08-.19-.15-.27l-3.28-4.04c-.45-.56-1.13-.89-1.84-.89h-10.09c-.79,0-1.52.4-1.97,1.07l-.25.37c-1.73,2.62-3.38,4.04-7.12,4.04h-.64c-1.08,0-2.04.75-2.31,1.83l-2.05,8c-.05.21-.08.42-.08.63,0,.57.19,1.13.56,1.57l3.01,3.72c.4.49.95.8,1.57.87,0,0,.4.04.43.04-.87,3.42-8.26,32.47-8.26,32.47l-.08.62c0,.57.2,1.13.56,1.57l3.28,4.05c.45.56,1.13.88,1.84.88h11.47c1.09,0,2.04-.75,2.31-1.84,0,0,.34-1.33.85-3.35.05.08.08.18.14.25l3.28,4.05c.45.56,1.13.88,1.84.88h11.47c1.08,0,2.04-.75,2.31-1.84,0,0,1.11-4.36,2.09-8.23.47.87.99,1.7,1.6,2.45,0-.02,2.03,2.51,2.03,2.51,2.44,3.16,5.93,4.99,9.56,4.99,3.14,0,5.89-1,8.19-2.95,1.76,1.87,4.25,2.95,6.9,2.95s4.76-.53,6.48-1.67c0,0,.07-.05.15-.11.39.48.82,1.01.82,1.01.45.56,1.12.88,1.84.88h11.27c1.08,0,2.04-.75,2.31-1.83l4.25-16.67c.72-2.88,1.68-5.06,2.65-6.2-.42,2.14-.66,4.32-.66,6.53,0,3.96,1.3,7.71,3.64,10.55l.31.37,1.72,2.13c2.44,3.17,5.93,5,9.56,5,1.8,0,3.55-.42,5.21-1.2.14.18.35.43.35.43.45.56,1.13.88,1.84.88h9.63c1.09,0,2.04-.75,2.32-1.84l13.4-52.78c.2-.77.02-1.59-.47-2.2h0l-3.28-4.04c-.45-.56-1.12-.89-1.83-.89l.06.05Z"/><path class="cls-7" d="m81.88,129.48l-13.13,51.73h-10.45l.43-1.7h8.64l12.7-50.02h1.81Zm-23.8,15.34l3.9-15.34h-1.81l-3.9,15.34h1.81Zm-14.85-3.14l.49-1.93c-.8.16-1.6.25-2.37.26l-.41,1.61c.56.07,1.14.09,1.72.09.19,0,.38,0,.58-.03h-.01Zm144.01,0l.49-1.93c-.8.16-1.6.25-2.37.26l-.41,1.61c.56.07,1.14.09,1.71.09.19,0,.38,0,.58-.03h0Zm-128.31,16.67l.43-1.7h-6.09l-5.79,22.85h-8.64l-.43,1.7h10.45l5.8-22.85h4.28,0Zm175.37-4.6c-.31-.86-.77-1.38-1.29-1.38-2.98,0-5.8,5.84-5.8,12.01,0,1.71.33,2.99.78,3.72-.02-.28-.03-.58-.03-.88,0-6.25,2.66-12.49,6.34-13.47h0Zm12.98.25c.16,1.07.25,2.19.25,3.36,0,12.4-8.92,22.48-19.88,22.48-1.31,0-2.55-.2-3.73-.55,1.76,1.15,3.82,1.79,6.02,1.79,10.52,0,18.33-9.92,18.33-20.88,0-2.31-.35-4.39-.99-6.19h0Zm-154.34,22.23c-2.19,2.36-5,3.62-8.26,3.62-.85,0-1.67-.12-2.46-.33,1.44,1,3.08,1.56,4.76,1.56,3.35,0,5.67-1.45,7.28-3.24-.49-.46-.94-.99-1.32-1.61h0Zm-5.43-8.83c0-5.81,2.76-11.98,6.44-12.98-.29-.86-.73-1.39-1.25-1.39-3,0-5.94,5.71-5.94,11.53,0,.71.07,2.68.76,3.53,0-.22-.01-.46-.01-.7h0Zm17.29,1.07c.6,0,1.05-.07,1.45-.24l.46-.18,5.3-20.86h-1.81l-5.4,21.28h0Zm34.21-20.51l.36-1.39c-.47-.21-1.05-.37-1.7-.43l-1.66,6.5c.86-1.72,1.87-3.29,3-4.67h0Zm-5.57,7.65l.16-.63s-.88-.55-2.02-.63c-.34-.02-.67,0-1,.1-3.05,1.08-4.92,5.26-5.86,9l-4.09,16.03h-8.44l-.43,1.7h10.25l4.09-16.04c1.08-4.34,3.2-9.56,7.19-9.56h.15v.03Zm-26.4,24.17l1.88-7.42c-.45.15-.97.24-1.64.24l-1.41,5.58c-.47.39-1.03.74-1.75,1.01-1.26.52-2.74.77-4.58.77-.39,0-.78-.03-1.18-.09,1.12.8,2.45,1.19,3.73,1.19,2.54,0,3.94-.55,4.95-1.29h0Zm67.12-50.31l-12.7,50.02h-6.81l-.42,1.7h8.6l13.13-51.73h-1.81,0Zm-27.19,37.93c0-5.81,2.76-11.98,6.44-12.98-.28-.86-.74-1.39-1.25-1.39-2.99,0-5.94,5.71-5.94,11.53,0,.71.07,2.68.76,3.53,0-.22,0-.46,0-.7h0Zm2.74,12.1l.32-1.3c-1.73,1.08-3.71,1.65-5.89,1.65-.84,0-1.66-.12-2.45-.33,1.44,1,3.08,1.56,4.75,1.56,2.21,0,3.97-.63,5.38-1.58h-2.11Zm71.1,2.93c-.39.27-.87.48-1.45.62l1.24,5.56-.72.63c-2.45,2.12-5.41,3.2-8.8,3.2-1.43,0-2.77-.17-4-.49,1.72.98,3.85,1.5,6.25,1.5,3.56,0,6.03-1.29,7.79-2.83l1.26-1.19-1.57-7h0Zm-8.13-13.88c0,1.86-.1,3.63-.19,5.33-.09,1.5-.17,2.92-.17,4.24,0,1.24.61,2.07,1.58,2.22,0-2.82.36-6,.36-9.39,0-4.14-1.43-7.6-3.09-9.89.92,2.18,1.51,4.73,1.51,7.48h0Zm54.97-16.26c-3.49,0-7.26,4.43-7.26,11.6,0,1.43.24,2.55.71,3.36,0-.17-.02-.34-.02-.52,0-7.87,4.28-13.26,8.87-13.26.38,0,.74.04,1.09.1-.83-.62-2.02-1.29-3.39-1.29h0Zm26.86-10.11l3.2-12.71h-1.71l-3.41,13.52c.65-.33,1.32-.6,1.92-.81h0Zm14.07,8.83c0,.12.02.23.02.35,0,7.14-5.57,12.42-11.79,14.61.31.43.58.89.84,1.37,5.49-1.69,11.5-6.33,11.5-13.26,0-1.08-.2-2.12-.57-3.07h0Zm-3.2,31.56l1.12,5.27-.69.62c-1.76,1.6-4.83,2.64-7.82,2.64-1.1,0-2.13-.13-3.09-.36,1.44.88,3.25,1.37,5.33,1.37,2.58,0,5.33-.9,6.81-2.24l1.25-1.19-1.42-6.72c-.33.24-.88.47-1.48.62h0Zm-109.02-22.24l-4.86,19.17h-8.64l-.43,1.7h10.45l4.94-19.49c-.45-.56-.94-1.02-1.46-1.39h0Zm6.84-24.99h-.47l-3.38,13.34c.67,0,1.29-.07,1.86-.19l2.9-11.45h1.39c.53,0,1.02.05,1.48.13-1.02-1.82-2.98-1.83-3.77-1.83h0Zm17.78,2.96c.04.5.06,1.01.06,1.53,0,7.51-6.13,14.38-12.46,17.04.31.36.61.76.9,1.18,6.16-2.3,11.99-8.88,11.99-15.71,0-1.42-.17-2.78-.49-4.04h0Zm64.88,31.18l-2.54,10.02h-8.43l-.43,1.7h10.24l2.55-10.06c-.36-.71-.84-1.28-1.39-1.66h0Zm-14.09,2.37c-.58.36-1.18.63-1.87.81l-1.44,5.75-.73.31c-1.22.53-3.32,1.18-6.37,1.18-.67,0-1.33-.05-1.97-.15,1.48.67,3.1,1.02,4.82,1.02,2.58,0,4.42-.5,5.57-.97l1.99-7.96h0Zm5.97-23.77c-.4-.28-.89-.56-1.45-.83l-1.81,7.24c.52.36.98.75,1.37,1.14l1.89-7.55Zm12.63,10.72c1.54-2.6,3.7-4.66,5.78-5.3.05-.21.07-.42.07-.63,0-.5-.1-.83-.56-.95-2.77.45-5.82,3.64-7.43,7.42.75-.12,1.47-.31,2.15-.54h-.01Zm9.06,19.34c0,1.51.39,1.57,1.27,1.57h.2c.01-.56.03-1.14.03-1.85,0-2.58-.78-5.18-1.99-7.16.35,1.31.56,2.68.56,4.05l-.03,1.88-.03,1.52h-.01Z"/><path class="cls-6" d="m79.12,126.08l-13.13,51.73h-10.45l5.86-22.86h-9.51l-5.79,22.86h-10.45l10.33-40.62c-1.82.9-3.93,1.39-5.84,1.4-.58,0-1.16-.02-1.72-.09l1.77-6.95c4.9,0,7.55-2.1,9.78-5.48h9.26l-5.18,20.34h9.51l5.1-20.34h10.46Zm40.12,51.73l4.09-16.03c1.09-4.34,3.67-8.99,7.65-8.99,1.14,0,2.22.36,2.96.83l2.53-9.92c-.6-.26-1.36-.46-2.25-.46-3.14,0-6.2,2.88-7.68,5.34h-.09l1.16-4.77h-10l-8.62,34.01h10.25Zm114.51-34.65c-10.26,0-17.89,10.02-17.89,21.6,0,7.92,5.29,13.5,11.79,13.5,10.52,0,18.33-9.93,18.33-20.89,0-8.83-5.08-14.21-12.22-14.21h0Zm-4.91,27.16c-1.81,0-3.23-2.17-3.23-6,0-6.81,3.15-13.61,7.35-13.61,2.15,0,3.31,2.67,3.31,6.09,0,6-3.48,13.51-7.43,13.51h0Zm-65.87-44.24l-5.24,20.58h-.07c-1.04-1.91-3.48-3.5-6.58-3.5-8.99,0-16.66,10.83-16.66,23.18,0,6.89,4.71,11.91,9.71,11.91,4.02,0,6.75-2.37,8.31-4.68h.06l-1.05,4.23h8.61l13.13-51.73h-10.24.02Zm-15.26,43.96c-2,0-3.1-2-3.1-5.54,0-6.35,3.29-13.12,7.49-13.12,1.85,0,3.15,2.08,3.15,5.46,0,5.79-3.38,13.21-7.54,13.21h0Zm-41.41-.33c-.42.11-.9.18-1.49.18-1.12,0-1.65-.54-1.66-1.49,0-.33.06-.71.15-1.13l5.96-23.47h-10.02l-.87,3.54h-.07c-.92-2.05-3.35-4.17-6.67-4.17-8.99,0-16.66,10.82-16.66,23.18,0,6.89,4.71,11.91,9.72,11.91,4.42,0,7.06-2.53,8.62-5.05h.07c.79,3.54,3.66,5.15,6.28,5.15,2.36,0,3.74-.48,4.73-1.14l1.91-7.51h0Zm-18.04.33c-2,0-3.1-2-3.1-5.54,0-6.35,3.29-13.12,7.49-13.12,1.85,0,3.16,2.08,3.16,5.46,0,5.79-3.38,13.21-7.55,13.21h0Zm125.89,12.03c-1.96,0-3.45-1.55-3.45-3.85,0-2.86.36-6.11.36-9.57,0-6.17-3.16-10.84-5.55-12.36l.02-.17c6.81-1.51,13.89-8.75,13.89-16.29,0-7.94-4.86-13.75-15.56-13.75h-9.87c-2.24,3.38-4.89,5.48-9.79,5.48l-1.77,6.95c.56.07,1.14.09,1.71.09,1.92,0,4.03-.5,5.85-1.4l-10.32,40.62h10.44l5.05-19.82c3.32.92,6.39,5.15,6.39,10.02s-1.27,7.66-1.27,13.16c0,6.03,4.47,9.69,10.81,9.69,3.56,0,6.03-1.3,7.8-2.83l-1.52-6.78c-.74.51-1.76.81-3.22.81h0Zm-14.92-31.79h-2.1l4.22-16.63h1.39c4.42,0,6.07,2.92,6.07,6.52,0,5.26-3.17,10.11-9.58,10.11Zm59.56,13.61c0-7.87,4.28-13.25,8.86-13.25,2.35,0,4.29,1.39,5.46,2.6l1.9-7.58c-1.56-1.14-4.83-2.49-8.11-2.49-9.84,0-17.86,10.67-17.86,21.15,0,8.23,5.4,13.94,12.3,13.94,2.71,0,4.61-.55,5.74-1.04l2.01-8c-1.31.9-2.72,1.25-5.06,1.25-3.17,0-5.25-2.14-5.25-6.56v-.02Zm41.91,17.42c-2.05,0-2.82-1.11-2.82-3.17,0-1.15.06-2.06.06-3.39,0-3.9-1.77-7.87-4.16-9.62v-.07c5.87-1.17,13.22-6.05,13.22-13.7,0-4.43-3.19-8.14-8.77-8.14-3.32,0-6.37,1.55-8.41,3.89h-.07l5.29-21.04h-10.22l-13.13,51.73h10.24l2.68-10.53c2.44.36,4.77,2.86,4.77,6.48,0,2.92-.4,4.7-.4,7.37,0,5.1,3.58,8.37,9.01,8.37,2.57,0,5.33-.9,6.8-2.25l-1.42-6.72c-.55.4-1.71.78-2.67.78h0Zm-14.49-20.29c1.02-5.28,5.38-10.48,9.03-10.48,1.54,0,2.43.89,2.43,2.42,0,3.88-5.08,8.06-11.46,8.06Z"/><path class="cls-10" d="m257.86,190.58h-1.15v-.42h2.81v.42h-1.16v3.38h-.5v-3.38Z"/><path class="cls-10" d="m263.13,192.29c-.03-.53-.06-1.16-.06-1.64h-.02c-.13.44-.29.92-.48,1.44l-.67,1.84h-.37l-.61-1.81c-.18-.53-.33-1.02-.44-1.47h-.01c-.01.47-.04,1.11-.07,1.68l-.1,1.63h-.47l.26-3.79h.62l.65,1.83c.16.47.29.88.38,1.28h.02c.1-.38.23-.8.4-1.28l.67-1.83h.62l.24,3.79h-.48l-.1-1.67h.02Z"/><path class="cls-9" d="m133.11,204.1c-.68.2-1.29.51-1.81.91-.52.4-.94.91-1.25,1.5-.31.6-.47,1.29-.47,2.09s.17,1.48.51,1.99c.34.5.77.91,1.28,1.21.52.31,1.07.55,1.67.73.6.18,1.16.36,1.67.54.52.18.94.4,1.28.66.34.26.51.61.51,1.06,0,.26-.06.5-.2.69-.13.2-.31.36-.52.48-.22.13-.46.22-.73.28-.27.06-.54.09-.8.09-.54,0-1.07-.12-1.58-.36s-.93-.59-1.27-1.04l-2.32,2.55c.71.65,1.48,1.13,2.3,1.42s1.71.44,2.67.44c.77,0,1.49-.1,2.18-.29.69-.2,1.3-.5,1.82-.9s.94-.91,1.24-1.52c.31-.61.46-1.33.46-2.15s-.17-1.55-.5-2.07c-.34-.52-.76-.93-1.27-1.23s-1.06-.54-1.64-.71c-.58-.17-1.13-.33-1.64-.5s-.93-.37-1.27-.6c-.33-.24-.5-.58-.5-1.03,0-.28.07-.52.21-.71.14-.2.32-.35.54-.47.22-.12.46-.21.71-.26.25-.06.49-.08.73-.08.4,0,.83.08,1.28.24s.81.41,1.08.74l2.24-2.45c-.63-.56-1.33-.95-2.11-1.19s-1.59-.36-2.43-.36c-.72,0-1.43.1-2.11.3"/><g class="cls-15"><rect class="cls-9" x="129.09" y="203.79" width="10.68" height="15.55"/></g><polygon class="cls-9" points="140.84 204.17 140.84 207.05 145.06 207.05 145.06 218.96 148.32 218.96 148.32 207.05 152.54 207.05 152.54 204.17 140.84 204.17"/><g class="cls-14"><rect class="cls-9" x="140.84" y="204.17" width="11.7" height="14.8"/></g><path class="cls-9" d="m158.39,208.47l1.82,4.6h-3.61l1.8-4.6h-.01Zm-1.25-4.31l-6.4,14.8h3.59l1.23-3.13h5.75l1.28,3.13h3.68l-6.43-14.8h-2.7Z"/><g class="cls-13"><rect class="cls-9" x="150.74" y="204.17" width="15.53" height="14.8"/></g><path class="cls-9" d="m171.01,207.18h1.92c.68,0,1.33.09,1.95.26s1.16.44,1.62.78c.46.35.82.79,1.1,1.33.27.54.41,1.17.41,1.89,0,.84-.14,1.54-.41,2.12s-.64,1.05-1.12,1.4c-.47.36-1.04.61-1.68.76-.65.15-1.35.23-2.1.23h-1.69v-8.78h0Zm-3.26-3.01v14.8h5.33c1.1,0,2.15-.16,3.16-.48,1-.32,1.89-.79,2.65-1.41.76-.62,1.37-1.39,1.83-2.3.45-.91.68-1.97.68-3.17,0-1.35-.23-2.5-.7-3.45s-1.1-1.72-1.89-2.31-1.72-1.02-2.79-1.29c-1.07-.26-2.19-.4-3.38-.4h-4.89Z"/><g class="cls-19"><rect class="cls-9" x="167.75" y="204.17" width="13.65" height="14.8"/></g><rect class="cls-9" x="183.57" y="204.17" width="3.26" height="14.8"/><g class="cls-18"><rect class="cls-9" x="183.57" y="204.17" width="3.26" height="14.8"/></g><path class="cls-9" d="m199.02,204.17v8.97c0,.46-.07.89-.22,1.28s-.35.73-.61,1.01c-.27.29-.58.51-.94.67s-.76.24-1.19.24-.83-.08-1.2-.24-.69-.38-.95-.67c-.27-.29-.47-.62-.62-1.01s-.22-.81-.22-1.28v-8.97h-3.26v9.09c0,.88.13,1.69.4,2.42.26.74.66,1.38,1.18,1.92.52.54,1.17.97,1.95,1.28s1.69.46,2.72.46,1.92-.15,2.7-.46c.78-.31,1.43-.73,1.95-1.28.52-.54.92-1.18,1.18-1.92s.4-1.55.4-2.42v-9.09h-3.27Z"/><g class="cls-16"><rect class="cls-9" x="189.8" y="204.17" width="12.48" height="15.17"/></g><polygon class="cls-9" points="217.09 204.17 213.67 213.82 213.62 213.82 210.22 204.17 205.28 204.17 205.28 218.96 208.55 218.96 208.55 207.62 208.59 207.62 212.33 218.96 214.82 218.96 218.7 207.62 218.74 207.62 218.74 218.96 222 218.96 222 204.17 217.09 204.17"/><g class="cls-17"><rect class="cls-9" x="205.28" y="204.17" width="16.72" height="14.8"/></g></svg>