<?xml version="1.0" encoding="UTF-8"?><svg id="Layer_1" xmlns="http://www.w3.org/2000/svg" viewBox="0 0 344.7 344.7"><defs><style>.cls-1{fill:none;}.cls-1,.cls-2,.cls-3,.cls-4,.cls-5,.cls-6,.cls-7{stroke-width:0px;}.cls-2{fill:#29b6e9;}.cls-3{fill:#38c2f1;}.cls-4{fill:#fff;}.cls-5,.cls-8{fill:#e93895;}.cls-6{fill:#e63b95;}.cls-7{fill:#010101;}.cls-8{stroke:#e93895;stroke-miterlimit:10;stroke-width:7.69px;}</style></defs><rect class="cls-1" width="344.7" height="344.7"/><path class="cls-5" d="m121.4,200l-8.12-17.34,1.13-.3c-.05-.16-.08-.34-.09-.52v-.49c.02-.32.09-.64.19-.94.34-.98.74-2.15,1.12-3.36.22-.7.39-1.25.55-1.77.22-.76.56-1.45,1.01-2.07.12-.17.23-.31.35-.44.14-.16.26-.29.38-.4l.86-.84-.86-.84c-1.94-1.9-3.33-3.91-4.13-5.98-2.17-5.65-2.33-30.85-2.33-31.1l-.05-9.4-3.46,8.75c-.87,2.21-8.55,21.75-9.23,27.18-.49,3.93-.16,10.12.03,13.01-5.24,1.44-10.33,3.44-15.15,5.95-11.18-3.52-26.27-5.27-26.92-5.34l-6.57-.75,5.28,4c.36.27,8.89,6.77,11.95,9.89.58.59,1.21,1.24,1.87,1.91-7.12,6.07-10.83,11.47-11.52,13.2-2.1,5.26-2,11.68.29,18.07.24.68.8,2.22,6.6,5.24-.98,2.11-2.29,4.87-3.63,7.53-2.08,4.14-9.14,12.27-11.68,15.06l-3.38,3.71,5.02-.7c3.71-.51,22.59-3.28,29.98-7.62,3.28-1.93,7.08-4.86,11.32-8.71,5.8,1.07,11.43,1.6,16.72,1.58,3.38-.02,6.67-.26,9.79-.71,4.03-.59,8.28-2.27,12.62-4.99,1.14-.71,2.31-1.51,3.47-2.37l-.7-.94-1.97-4.21c4.59-.39,8.36-.73,8.36-.73,0,0,5.81-8.42,7.57-11.93,1.41-2.82-18.36-8.28-26.66-10.28h-.01Z"/><path class="cls-2" d="m114.85,176.94c.19-.58.37-1.16.54-1.74.26-.9.67-1.71,1.18-2.42-2.23-2.17-3.8-4.47-4.75-6.94-1.86-4.83-2.69-21.8-2.82-29-2.35,6.12-7.54,19.72-8.04,23.73-.5,4.05.09,11.34.26,13.62,1.6-.39,3.6-.97,5.23-1.25,0,0-13.85,4.09-21.25,7.74,1.37.49,3.21,1.51,4.37,2.06l17.63-5.48s5.75-.45,7.64-.32h0Z"/><path class="cls-7" d="m100.54,160.34c.67-5.38,9.11-26.74,9.11-26.74,0,0,.12,25.69,2.45,31.75.94,2.44,2.52,4.64,4.56,6.64.14-.16.29-.33.45-.48-2.08-2.03-3.54-4.16-4.4-6.4-2.26-5.88-2.41-31.26-2.41-31.52l-.02-3.35-1.23,3.11c-.35.88-8.48,21.5-9.15,26.9-.54,4.37.06,11.99.22,14.05.21-.05.43-.11.64-.16-.16-2.17-.74-9.6-.21-13.81h0Z"/><path class="cls-7" d="m101.18,160.42c.5-4.01,5.51-17.36,7.87-23.48.12,7.2.6,23.8,2.45,28.63.95,2.46,2.52,4.76,4.75,6.94.13-.18.27-.36.41-.53-2.04-2-3.62-4.2-4.56-6.64-2.33-6.06-2.45-31.75-2.45-31.75,0,0-8.44,21.37-9.11,26.74-.53,4.2-.06,11.75.11,13.92.21-.05.42-.11.63-.16-.17-2.28-.61-9.63-.1-13.68h0Z"/><path class="cls-7" d="m101.1,174.51h0v-.09c-.32.07-.64.12-.64.12,0-.05-.01-.24-.03-.54-5.69,1.29-11.21,3.24-16.47,5.82.29.1.57.21.84.31,4.8-2.3,10.24-4.29,16.3-5.61h0Z"/><path class="cls-7" d="m106.6,172.86c-1.64.23-3.27.52-4.89.86,0,.17.01.31.02.43,0,.1-.31.2-.63.27v.09h0c-6.06,1.33-11.5,3.31-16.3,5.62.29.11.57.22.84.32,7.51-3.41,20.95-7.58,20.95-7.58h.01Z"/><path class="cls-7" d="m101.1,174.42c0-.1-.02-.29-.03-.56-.21.05-.43.09-.64.14.01.3.02.5.03.54,0,0,.32-.05.64-.12h0Z"/><path class="cls-7" d="m101.73,174.14c0-.12-.01-.26-.02-.43-.21.05-.43.09-.64.14.01.27.02.46.03.56.32-.07.64-.17.63-.27h0Z"/><path class="cls-7" d="m96.2,186.13c4.04-3.63,9.45-7.3,9.51-7.34l.3-.21.33.16s3.63,1.71,7,2.93c.04-.41.14-.82.29-1.23.4-1.06.82-2.17,1.22-3.3-1.89-.19-8.56-1.53-8.56-1.53l-16.88,6.53c.43.22.85.45,1.24.68,2.08,1.22,3.92,2.32,5.54,3.32h0Z"/><path class="cls-7" d="m106.07,179.33s3.76,1.77,7.26,3.02v-.33c-3.38-1.22-7.26-2.69-7.26-2.69Z"/><path class="cls-1" d="m97.35,186.84c4.61,2.87,7.15,4.66,7.7,5.06,1.41.07,2.87.18,4.36.31.54-1.19,1.63-2.09,2.9-2.37,1.72-.38,3.42-.74,5.23-1.12l1.79-.38c-1.29-.85-2.62-1.73-3.93-2.59-1.05-.68-1.72-1.63-1.97-2.69-3-1.05-6.25-2.52-7.3-3-1.15.8-5.39,3.77-8.78,6.77h0Z"/><path class="cls-7" d="m106.07,179.33l-9.25,7.18c.18.11.35.22.53.33,3.39-3,7.63-5.97,8.78-6.77,1.05.48,4.3,1.96,7.3,3-.05-.23-.09-.48-.1-.72-3.49-1.25-7.26-3.02-7.26-3.02h0Z"/><path class="cls-7" d="m96.82,186.51l9.25-7.18s-5.26,3.55-9.29,7.15c.02,0,.03.02.05.03h-.01Z"/><path class="cls-7" d="m113.35,181.67c-3.37-1.22-6.95-2.9-7-2.93l-.33-.16-.3.21c-.05.04-5.46,3.7-9.51,7.34.19.12.39.24.57.36,4.04-3.6,9.29-7.15,9.29-7.15,0,0,3.87,1.47,7.26,2.69,0-.12,0-.23.02-.35h0Z"/><polygon class="cls-8" points="118.54 213.4 135.93 213.39 134.82 219.42 127.75 224.53 116.58 221.74 118.54 213.4"/><path class="cls-7" d="m100.78,204.27c-.52,0-.92-.05-1.19-.09-.05,0-.09,0-.15-.02l-3.86-.41c2,.25,4.08.51,4.21.52h9.66-8.68.01Z"/><path class="cls-7" d="m233.14,163.91c-3.04,9.25-6.12,18.48-9.18,27.72-.72,2.18-1.44,4.36-2.19,6.65,2.95,0,5.79,0,8.63-.02.21,0,.5-.32.59-.56.32-.82.58-1.66.86-2.5,1.49-4.48,2.97-8.97,4.45-13.46.17-.53.38-.91,1.04-.83.42.05.86,0,1.29,0,.04.26.07.38.08.5.44,5.28.9,10.56,1.3,15.84.06.82.29,1.07,1.12,1.05,1.99-.06,3.99-.02,5.98-.02h3.09c-.1-1.28-.19-2.43-.28-3.59-.4-5.35-.82-10.69-1.18-16.04-.03-.5.15-1.13.46-1.51,4.23-5.23,8.5-10.43,12.76-15.63.23-.28.44-.57.77-1-3.04,0-5.88.02-8.72,0-.56,0-.91.18-1.27.61-3.5,4.31-7.03,8.61-10.56,12.9-.22.27-.55.6-.86.64-.83.09-1.68.03-2.65.03,1.58-4.79,3.11-9.43,4.67-14.13h-10.56c.16.67.34,1.28.43,1.89.06.48.11,1.01-.04,1.46h-.03Z"/><path class="cls-7" d="m202.28,163.75c-3.07,9.3-6.16,18.6-9.24,27.9-.72,2.18-1.44,4.35-2.2,6.64,2.8,0,5.48-.02,8.16.02.69,0,.97-.22,1.18-.87,1.69-5.18,3.41-10.35,5.14-15.52.13-.39.46-.98.75-1.01,1.11-.12,2.25-.05,3.5-.05-.55,5.85-1.09,11.58-1.64,17.37h9.62c.64-6.24,1.29-12.39,1.89-18.53.06-.66.33-.98.87-1.3,2.27-1.33,4.06-3.17,5-5.64,1.03-2.7,1.89-5.48,2.74-8.25.5-1.61-.11-2.81-1.7-3.39-.93-.34-1.96-.57-2.95-.58-6.93-.05-13.85-.03-20.78-.02-.26,0-.51.05-.82.09.19.73.39,1.33.49,1.95.07.39.09.83-.03,1.19h.02Z"/><path class="cls-7" d="m160.15,198.24c.38.02.65.05.93.05,2.37,0,4.75-.03,7.12.02.71.02,1.06-.22,1.36-.85,1.37-2.94,2.79-5.86,4.22-8.78.14-.28.43-.69.65-.69,1.98-.05,3.96-.03,6.06-.03-.63,3.5-1.23,6.86-1.85,10.33,2.94,0,5.75.02,8.56-.03.2,0,.53-.4.57-.66.42-2.68.79-5.36,1.17-8.04.86-6.08,1.73-12.17,2.59-18.25.5-3.55,1.01-7.11,1.53-10.79-4.39,0-8.62,0-12.86.03-.27,0-.64.34-.78.62-6.3,12.05-12.57,24.1-18.85,36.16-.14.27-.26.56-.42.92h0Z"/><path class="cls-7" d="m115.17,155.04c-.65.15-1.32.34-2.02.58-.55.19-1.08.41-1.59.66.34-.15.68-.29,1.04-.41.9-.3,1.75-.6,2.57-.83h0Z"/><path class="cls-7" d="m177.13,181.71c1.37,0,2.54-.03,3.71,0,.64.02.85-.21.96-.84.44-2.64.96-5.27,1.44-7.9.34-1.85.66-3.71.98-5.56-.06-.02-.12-.04-.17-.06-2.28,4.73-4.56,9.47-6.91,14.34h-.01Z"/><path class="cls-4" d="m225.31,172.76c1.03-2.7,1.89-5.48,2.74-8.25.5-1.61-.11-2.81-1.7-3.39-.93-.34-1.96-.57-2.95-.58-6.93-.05-13.85-.03-20.78-.02-.26,0-.51.05-.82.09.19.73.39,1.33.49,1.95.07.39.09.83-.03,1.19-3.07,9.3-6.16,18.6-9.24,27.9-.72,2.18-1.44,4.35-2.2,6.64,2.8,0,5.48-.02,8.16.02.69,0,.97-.22,1.18-.87,1.69-5.18,3.4-10.35,5.14-15.52.13-.39.46-.98.75-1.01,1.11-.12,2.25-.05,3.5-.05-.55,5.85-1.09,11.58-1.64,17.37h9.62c.64-6.24,1.29-12.39,1.89-18.53.06-.66.33-.98.87-1.3,2.27-1.33,4.06-3.17,5-5.64h.02Zm-9.26-.15c-.46.85-1.63,1.67-2.59,1.82-1.8.29-3.69.08-5.65.08.64-1.95,1.25-3.89,1.9-5.81.66-1.96.67-1.95,2.74-1.95h5.94c-.8,2.07-1.37,4.07-2.34,5.86h0Z"/><path class="cls-4" d="m248.71,178.66c-.03-.5.15-1.13.46-1.51,4.23-5.23,8.5-10.43,12.76-15.63.23-.28.44-.57.77-1-3.04,0-5.88.02-8.72,0-.56,0-.91.18-1.27.61-3.5,4.31-7.03,8.61-10.56,12.9-.22.27-.55.6-.86.64-.83.09-1.68.03-2.65.03,1.58-4.79,3.11-9.43,4.67-14.13h-10.56c.16.67.34,1.28.43,1.89.06.48.11,1.01-.04,1.46-3.04,9.25-6.12,18.48-9.18,27.72-.72,2.18-1.44,4.36-2.19,6.65,2.95,0,5.79,0,8.63-.02.21,0,.5-.32.59-.56.32-.82.58-1.67.86-2.5,1.49-4.48,2.97-8.97,4.45-13.46.17-.53.38-.91,1.04-.83.42.05.86,0,1.29,0,.04.26.07.38.08.5.44,5.28.9,10.56,1.3,15.84.06.82.29,1.07,1.12,1.05,1.99-.06,3.99-.02,5.98-.02h3.09c-.1-1.28-.19-2.43-.28-3.59-.4-5.35-.82-10.69-1.18-16.04h-.03Z"/><path class="cls-4" d="m193.06,160.52c-4.39,0-8.62,0-12.86.03-.27,0-.64.34-.78.62-6.3,12.05-12.57,24.1-18.85,36.16-.14.27-.26.56-.42.92.38.02.65.05.93.05,2.37,0,4.75-.03,7.12.02.71.02,1.06-.22,1.36-.85,1.37-2.94,2.79-5.86,4.22-8.78.14-.28.43-.69.65-.69,1.98-.05,3.96-.03,6.06-.03-.63,3.5-1.23,6.86-1.85,10.33,2.94,0,5.75.02,8.56-.03.2,0,.53-.4.57-.66.42-2.68.79-5.36,1.17-8.04.86-6.08,1.73-12.17,2.59-18.25.5-3.55,1.01-7.11,1.53-10.79h0Zm-9.83,12.47c-.48,2.63-.99,5.26-1.44,7.9-.11.63-.32.86-.96.84-1.16-.05-2.33,0-3.71,0,2.35-4.87,4.63-9.6,6.91-14.34.06.02.12.04.17.06-.33,1.85-.65,3.71-.98,5.56h.01Z"/><path class="cls-7" d="m138,154.58h-20.1c-.87,0-1.77.19-2.72.46.57-.13,1.12-.24,1.66-.31.09-.02.17-.02.26-.03-.08,0-.17.02-.26.03-.54.07-1.09.17-1.66.31-.82.23-1.67.52-2.57.83-.36.12-.7.26-1.04.41-.83.41-1.59.91-2.28,1.47-1.8,1.48-3.11,3.47-3.82,5.85-.8,2.67-1.71,5.32-2.58,7.81-1.12,3.21,0,6.33,2.93,8.12,2.05,1.26,4.13,2.56,6.16,3.82l-2.75.66c-2.76.67-5.37,1.29-8,1.95-2.09.52-3.82,2.13-4.53,4.2-.57,1.68-1.12,3.33-1.69,5.07l-2.65,8.01-.39,1.04c.63.08,3.58,0,3.58,0h3.78c.05.02.24,0,.29,0,.31-.02.68,0,1.19,0,1.49.05,2.99,0,4.48,0h166.77c.4,0,1.01-.19,1.42-.22h.09c1.2-.13,2.46-.39,3.76-.8,3.87-1.2,6.66-3.89,7.85-7.58.71-2.18,1.43-4.37,2.15-6.54s1.44-4.33,2.14-6.5c.06-.18.11-.32.15-.43.72-1.93,1.29-5.55-2.91-8.08-.11-.06-.23-.14-.38-.23-.05-.03-.1-.06-.15-.1,1.12-.27,2.23-.55,3.35-.82,2.09-.52,3.82-2.09,4.51-4.09.58-1.7,1.15-3.41,1.73-5.15l3.06-9.16h-160.83Zm-19.62.04h.11c.92,0,1.85,0,2.77-.02-.93,0-1.85,0-2.77.02h-.11Zm38.17,43.63c-2.84.05-5.68.03-8.64.03,1.93-5.82,3.81-11.52,5.74-17.33-.33-.03-.59-.08-.86-.08-2.06,0-4.11.03-6.17-.02-.7-.02-.98.25-1.19.88-1.72,5.27-3.48,10.52-5.22,15.79-.15.45-.25.79-.85.78-2.4-.03-4.81-.02-7.21-.02h-.76c-.12,0-.24-.05-.45-.1,1.11-3.35,2.18-6.57,3.24-9.8,1.35-4.07,2.7-8.15,4.05-12.22h0c.45-1.37.9-2.73,1.35-4.1h0c.91-2.75,1.82-5.51,2.73-8.26.13-.39.11-.87.04-1.29-.1-.64-.3-1.27-.47-1.95h10.57c-1.54,4.67-3.06,9.26-4.63,13.99.45.03.78.07,1.1.07,1.9,0,3.8-.04,5.69.02.84.03,1.22-.22,1.48-1.03,1.3-4.08,2.68-8.13,4-12.21.22-.67.51-.93,1.25-.91,2.65.05,5.3.02,8.09.02-.32,1.01-.6,1.93-.91,2.84-3.77,11.39-7.55,22.78-11.34,34.16-.1.29-.43.73-.66.73h.03Zm31.21-.65c-.04.25-.37.66-.57.66-2.81.04-5.61.03-8.56.03.62-3.48,1.22-6.83,1.85-10.33-2.1,0-4.08-.02-6.06.03-.23,0-.51.41-.65.69-1.42,2.92-2.84,5.84-4.22,8.78-.3.64-.65.87-1.36.85-2.37-.05-4.75-.02-7.12-.02-.28,0-.55-.03-.93-.05.16-.36.28-.65.42-.92,6.28-12.06,12.55-24.11,18.85-36.16.14-.28.52-.61.78-.62,4.24-.04,8.47-.03,12.86-.03-.52,3.68-1.03,7.23-1.53,10.79-.86,6.08-1.73,12.17-2.59,18.25-.38,2.68-.75,5.37-1.17,8.04h0Zm31.68-17.9c-.6,6.15-1.25,12.29-1.89,18.53h-9.62c.55-5.79,1.09-11.51,1.64-17.37-1.25,0-2.39-.07-3.5.05-.29.03-.62.62-.75,1.01-1.74,5.17-3.46,10.34-5.14,15.52-.21.65-.49.88-1.18.87-2.68-.04-5.37-.02-8.16-.02.76-2.29,1.48-4.47,2.2-6.64,3.08-9.3,6.17-18.59,9.24-27.9.12-.36.09-.8.03-1.19-.11-.62-.3-1.22-.49-1.95.31-.03.56-.09.82-.09,6.93,0,13.85-.02,20.78.02.99,0,2.01.24,2.95.58,1.59.58,2.19,1.78,1.7,3.39-.85,2.77-1.71,5.54-2.74,8.25-.94,2.46-2.73,4.3-5,5.64-.53.32-.8.64-.87,1.3h-.02Zm42.48-18.18c-4.26,5.21-8.53,10.4-12.76,15.63-.31.38-.49,1.01-.46,1.51.36,5.35.78,10.69,1.18,16.04.09,1.15.18,2.31.28,3.59h-3.09c-1.99,0-3.99-.04-5.98.02-.82.02-1.05-.22-1.12-1.05-.39-5.28-.86-10.56-1.3-15.84,0-.12-.04-.24-.08-.5-.43,0-.87.04-1.29,0-.66-.08-.86.3-1.04.83-1.47,4.49-2.96,8.97-4.45,13.46-.28.84-.53,1.68-.86,2.5-.09.23-.39.55-.59.56-2.84.04-5.68.02-8.63.02.76-2.29,1.47-4.48,2.19-6.65,3.07-9.24,6.14-18.47,9.18-27.72.15-.44.1-.98.04-1.46-.08-.62-.27-1.22-.43-1.89h10.56c-1.55,4.7-3.09,9.34-4.67,14.13.97,0,1.82.06,2.65-.03.31-.03.63-.37.86-.64,3.53-4.29,7.06-8.59,10.56-12.9.36-.44.7-.62,1.26-.61,2.84.03,5.68,0,8.72,0-.33.43-.54.72-.77,1h.04Z"/><path class="cls-1" d="m142.23,168.77c-.47,1.36-1.42,2.52-2.65,3.3-.45,1.37-.9,2.73-1.35,4.1l1.28.82-4.05,12.27c-.22.66-.44,1.32-.67,1.99-.48,1.41-.93,2.75-1.33,4.09-.32,1.07-.76,2.05-1.31,2.95,2.4,0,4.81,0,7.21.02.6,0,.7-.33.85-.78,1.73-5.27,3.5-10.52,5.22-15.79.21-.63.48-.9,1.19-.88,2.05.05,4.11.02,6.17.02.26,0,.53.05.86.08-1.93,5.82-3.81,11.52-5.74,17.33,2.96,0,5.8.02,8.64-.03.23,0,.56-.43.66-.73,3.79-11.38,7.57-22.77,11.34-34.16.3-.91.58-1.83.91-2.84-2.79,0-5.44.03-8.09-.02-.74-.02-1.04.24-1.25.91-1.31,4.08-2.69,8.13-4,12.21-.26.81-.65,1.06-1.48,1.03-1.9-.07-3.79-.02-5.69-.02-.33,0-.65-.04-1.1-.07,1.57-4.74,3.09-9.33,4.63-13.99h-7.48l-1.01,3.06c-.56,1.69-1.14,3.43-1.73,5.14h-.03Z"/><path class="cls-1" d="m193.06,160.52c-4.39,0-8.62,0-12.86.03-.27,0-.64.34-.78.62-6.3,12.05-12.57,24.1-18.85,36.16-.14.27-.26.56-.42.92.38.02.65.05.93.05,2.37,0,4.75-.03,7.12.02.71.02,1.06-.22,1.36-.85,1.37-2.94,2.79-5.86,4.22-8.78.14-.28.43-.69.65-.69,1.98-.05,3.96-.03,6.06-.03-.63,3.5-1.23,6.86-1.85,10.33,2.94,0,5.75.02,8.56-.03.2,0,.53-.4.57-.66.42-2.68.79-5.36,1.17-8.04.86-6.08,1.73-12.17,2.59-18.25.5-3.55,1.01-7.11,1.53-10.79h0Z"/><path class="cls-1" d="m225.31,172.76c1.03-2.7,1.89-5.48,2.74-8.25.5-1.61-.11-2.81-1.7-3.39-.93-.34-1.96-.57-2.95-.58-6.93-.05-13.85-.03-20.78-.02-.26,0-.51.05-.82.09.19.73.39,1.33.49,1.95.07.39.09.83-.03,1.19-3.07,9.3-6.16,18.6-9.24,27.9-.72,2.18-1.44,4.35-2.2,6.64,2.8,0,5.48-.02,8.16.02.69,0,.97-.22,1.18-.87,1.69-5.18,3.4-10.35,5.14-15.52.13-.39.46-.98.75-1.01,1.11-.12,2.25-.05,3.5-.05-.55,5.85-1.09,11.58-1.64,17.37h9.62c.64-6.24,1.29-12.39,1.89-18.53.06-.66.33-.98.87-1.3,2.27-1.33,4.06-3.17,5-5.64h.02Z"/><path class="cls-1" d="m248.71,178.66c-.03-.5.15-1.13.46-1.51,4.23-5.23,8.5-10.43,12.76-15.63.23-.28.44-.57.77-1-3.04,0-5.88.02-8.72,0-.56,0-.91.18-1.27.61-3.5,4.31-7.03,8.61-10.56,12.9-.22.27-.55.6-.86.64-.83.09-1.68.03-2.65.03,1.58-4.79,3.11-9.43,4.67-14.13h-10.56c.16.67.34,1.28.43,1.89.06.48.11,1.01-.04,1.46-3.04,9.25-6.12,18.48-9.18,27.72-.72,2.18-1.44,4.36-2.19,6.65,2.95,0,5.79,0,8.63-.02.21,0,.5-.32.59-.56.32-.82.58-1.67.86-2.5,1.49-4.48,2.97-8.97,4.45-13.46.17-.53.38-.91,1.04-.83.42.05.86,0,1.29,0,.04.26.07.38.08.5.44,5.28.9,10.56,1.3,15.84.06.82.29,1.07,1.12,1.05,1.99-.06,3.99-.02,5.98-.02h3.09c-.1-1.28-.19-2.43-.28-3.59-.4-5.35-.82-10.69-1.18-16.04h-.03Z"/><path class="cls-4" d="m134.79,191.25c.22-.66.45-1.32.67-1.99l4.05-12.27-1.28-.82c-1.35,4.07-2.7,8.15-4.05,12.22-1.07,3.23-2.14,6.45-3.24,9.8.22.05.33.1.45.1h.76c.55-.9,1-1.88,1.31-2.95.39-1.34.85-2.67,1.33-4.09h0Z"/><path class="cls-4" d="m161.36,160.5c-.74-.02-1.04.24-1.25.91-1.31,4.08-2.69,8.13-4,12.21-.26.81-.65,1.06-1.48,1.03-1.9-.07-3.79-.02-5.69-.02-.33,0-.65-.04-1.1-.07,1.57-4.74,3.09-9.33,4.63-13.99h-10.57c.17.68.37,1.31.47,1.95.07.42.09.89-.04,1.29-.91,2.76-1.82,5.51-2.73,8.26l-1.35,4.1c-1.35,4.07-2.7,8.15-4.05,12.22-1.07,3.23-2.14,6.45-3.24,9.8.22.05.33.1.45.1h.76c2.4,0,4.81,0,7.21.02.6,0,.7-.33.85-.78,1.73-5.27,3.5-10.52,5.22-15.79.21-.64.48-.9,1.19-.88,2.05.05,4.11.02,6.17.02.26,0,.53.05.86.08-1.93,5.82-3.81,11.52-5.74,17.33,2.96,0,5.8.02,8.64-.03.23,0,.56-.43.66-.73,3.79-11.38,7.57-22.77,11.34-34.16.3-.91.58-1.83.91-2.84-2.79,0-5.44.03-8.09-.02h-.03Z"/><path class="cls-4" d="m133.48,179.31c-.89,2.69-1.76,5.32-2.63,7.96-.68,2.07-1.42,4.13-2.04,6.22-.63,2.15-2.08,3.46-4.12,4.11-1.1.35-2.29.61-3.44.62-6.47.06-12.95.03-19.43.03-.21,0-.43-.04-.73-.07.71-2.15,1.4-4.25,2.11-6.34.06-.18.26-.4.44-.44,3.16-.78,6.33-1.54,9.68-2.35-.33,1.05-.6,1.94-.91,2.9.36.03.63.07.91.08,2,0,4-.02,6,.02.64,0,.96-.17,1.16-.8.8-2.53,1.62-5.06,2.5-7.56.25-.7.05-1-.52-1.35-4.21-2.59-8.4-5.23-12.61-7.82-.56-.34-.72-.62-.49-1.28.93-2.66,1.84-5.32,2.65-8.01.63-2.1,1.98-3.45,3.98-4.13,1.13-.38,2.34-.69,3.52-.7,6.54-.07,13.08-.04,19.62-.03.19,0,.37.03.65.06-.72,2.18-1.42,4.3-2.15,6.41-.06.18-.34.36-.55.42-3.04.76-6.1,1.49-9.15,2.23-.09.02-.18-.02-.36-.04.29-.92.56-1.8.88-2.83h-5.78c-1.36,0-2.26.65-2.68,1.95s-.05,2.31,1.12,3.03c3.74,2.33,7.48,4.66,11.22,7,.37.23.74.47,1.16.74h0v-.03Z"/><path class="cls-4" d="m289.97,160.54h-14.1s-.02-.02-.03-.02h-5.23c-.69,0-1.39.08-2.07.22-2.81.61-4.89,2-5.71,4.98-.7,2.55-1.62,5.04-2.49,7.53-.25.71-.05,1.04.57,1.41,4.2,2.58,8.38,5.2,12.58,7.79.53.33.65.64.46,1.22-.86,2.5-1.71,5.01-2.5,7.53-.22.72-.59.9-1.29.88-1.67-.05-3.35-.02-5.03-.02h-1.66c.32-1.03.59-1.91.91-2.93-.03,0-.07.02-.1.02,0-.02.01-.04.02-.06-3.34.81-6.5,1.57-9.65,2.34-.15.04-.34.2-.39.35-.72,2.11-1.42,4.23-2.14,6.42h.09v.03c.35.03.6.07.84.07,6.39,0,12.79.03,19.18-.03,1.15,0,2.33-.26,3.43-.6,1.96-.61,3.43-1.81,4.1-3.87,1.41-4.35,2.88-8.67,4.29-13.02.52-1.6.73-1.19-.74-2.11-4.05-2.53-8.1-5.06-12.16-7.57-.55-.34-.76-.64-.48-1.28.33-.78.57-1.6.8-2.42.15-.51.41-.68.95-.67,1.52.04,3.04,0,4.56,0h2.41c-.33,1.03-.6,1.89-.93,2.94.04,0,.07-.02.11-.02,0,.02-.01.03-.02.05,3.36-.82,6.49-1.57,9.61-2.35.18-.05.41-.22.46-.39.72-2.11,1.42-4.23,2.14-6.4-.32-.02-.53-.05-.75-.05h0l-.04.02Z"/><path class="cls-6" d="m155.07,203.37c-1.6-.68-3.17-1.32-4.73-1.92-15.65-6.08-29.42-8.59-40.77-9.26-1.49-.09-2.95-.15-4.36-.17-.57-.38-3.16-2.09-7.86-4.81-.18-.1-.36-.21-.54-.31-.02,0-.03-.02-.05-.03-.19-.11-.39-.22-.58-.33-1.65-.94-3.53-2-5.65-3.14-.4-.22-.83-.43-1.26-.64-1.16-.55-2.45-1.07-3.82-1.56-.28-.1-.57-.2-.85-.3-.28-.09-.57-.19-.85-.28-11.08-3.58-26.37-5.35-27.16-5.44l-2.34-.27,1.88,1.42c.09.07,8.9,6.75,12.08,10,.84.85,1.79,1.83,2.75,2.81-7.5,6.18-11.48,11.86-12.15,13.55-2,4.99-1.89,11.12.31,17.25.18.49.7,1.95,7.04,5.1-1.03,2.23-2.55,5.47-4.12,8.59-2.57,5.12-11.77,15.22-11.86,15.32l-1.21,1.32,1.77-.25c.89-.12,21.93-2.97,29.59-7.47,4.06-2.39,8.37-6.04,11.55-8.96,5.95,1.13,11.67,1.69,17.07,1.66,3.33-.02,6.54-.25,9.62-.7,3.87-.57,7.97-2.19,12.17-4.82,1.12-.7,2.26-1.48,3.39-2.32l1.95-1.45-6.1.72-1.38-2.07-1.47.99-.83-.81,3.55-2.72,2.52,2.76,4.37-4.18,1.26,3.65.72-.64c2.54-2.25,5.1-4.84,7.64-7.7,5.47-6.17,8.98-11.61,9.02-11.66l.42-.64-.7-.3h-.03Z"/><path class="cls-6" d="m45.9,251.87l3.38-3.71c.09-.1,9.21-10.14,11.68-15.06,1.34-2.66,2.65-5.43,3.63-7.53-5.81-3.01-6.36-4.56-6.6-5.24-2.29-6.4-2.39-12.82-.29-18.07.69-1.73,4.39-7.13,11.52-13.2-.65-.67-1.29-1.32-1.87-1.9-3.1-3.16-11.87-9.82-11.96-9.89l-5.27-4,6.57.75c.65.08,16.16,1.87,27.39,5.49.29.09.58.19.87.29.29.1.59.2.87.3,1.46.52,2.78,1.06,3.93,1.6.49.23.92.45,1.32.67,1.96,1.06,3.86,2.12,5.67,3.16l1.17.67c4.19,2.43,6.74,4.07,7.64,4.66,1.32.03,2.69.09,4.07.17,13.37.78,27.2,3.92,41.13,9.33,1.66.65,3.22,1.28,4.77,1.94l1.98.84-1.16,1.81c-.03.05-3.6,5.57-9.13,11.8-2.49,2.81-5.02,5.37-7.53,7.61h0l-4.87,3.99c-1.16.86-2.32,1.65-3.47,2.37-4.34,2.71-8.59,4.39-12.62,4.99-3.12.46-6.41.7-9.79.71-5.29.02-10.92-.51-16.72-1.58-4.24,3.86-8.04,6.79-11.32,8.71-7.38,4.34-26.26,7.11-29.97,7.62l-5.02.7h0Zm12.44-75.3c2.7,2.09,8.25,6.46,10.69,8.94.84.85,1.79,1.83,2.75,2.81l.89.91-.98.81c-7.49,6.17-11.28,11.75-11.81,13.08-1.89,4.73-1.77,10.56.32,16.42.34.96,2.7,2.58,6.46,4.45l1.02.5-.48,1.03c-1.01,2.19-2.55,5.47-4.14,8.62-2.14,4.27-8.61,11.73-11.08,14.52,5.13-.76,21.39-3.39,27.73-7.12,3.2-1.88,7.12-4.93,11.35-8.82l.43-.4.58.11c5.86,1.11,11.53,1.67,16.85,1.64,3.26-.02,6.45-.25,9.46-.69,3.71-.55,7.65-2.11,11.72-4.65.55-.34,1.1-.7,1.66-1.08l-2.37.28-1.13-1.69-1.29.87-2.48-2.42,5.47-4.19,2.44,2.67,4.82-4.61,1.29,3.72c2.31-2.1,4.65-4.48,6.95-7.08,4.44-5.01,7.57-9.51,8.56-11-1.33-.56-2.69-1.11-4.12-1.66-13.7-5.32-27.3-8.41-40.42-9.18-1.47-.09-2.92-.14-4.32-.17h-.34l-.29-.2c-.47-.32-3.06-2.03-7.8-4.77l-1.16-.67c-1.79-1.02-3.68-2.08-5.62-3.13-.36-.2-.76-.4-1.21-.61-1.08-.51-2.33-1.02-3.71-1.51-.28-.1-.56-.19-.84-.29-.28-.09-.56-.19-.84-.28-8.86-2.86-20.5-4.56-25.03-5.16h.02Zm71.12,47.26l1.08,1.61.7-.08-1.55-1.7-.22.17h0Z"/><path class="cls-7" d="m123.24,223.51l-3.81,2.24-2.81-2.51c-1.83.65-3.61,1.33-5.29,2.06,1.54.02,3.26.08,3.94.21.03,0,.06,0,.09.02l1.25-.84,2.21,2.1,4.08-2.25,2.62,1.88,1.59-1.08-.83-.81-.98.75-2.05-1.77h0Z"/><path class="cls-4" d="m141.99,211.07l-.92.83.03-1.31-5.51,1.31c-1.9.57-3.79,1.03-5.57,1.32-3.67.6-6.17.88-7.88,1,0,.06-.01.11-.03.17-.26.77-2.31.89-3.42.9-.42,0-.71,0-.72-.02-.67-.12-4.48-2.76-6.45-3.87l-3.79-.6c-2.08.29-4.88.91-7.25,2.22l1.28-2.7s-7.55,4.55-15.78,7.34c-.05.19-.09.38-.13.55,5.29.36,10.35,6.4,10.35,6.4-.02-.02-.9-.8-2.26-1.75-1.54,1.44-15.25,14.17-19.66,16.17-3.64,1.65-15.95,6.85-21.21,9.07,5.91-.94,20.65-3.53,26.61-6.93,6.54-3.73,17.01-12.51,17.01-12.51l14.71,4.99c2.39-.09,4.72-.3,6.97-.63,3.04-.45,6.23-1.58,9.52-3.38-5.99-.05-9.79-1.62-11.73-2.42-.49-.2-.92-.38-1.12-.42-1.01-.19-5.12-.21-6.62-.2h-2.82l2.53-1.22c13.24-6.48,34.95-10.27,37.4-10.68,3.96-4.48,6.85-8.54,8.08-10.34-1.78.93-5.36,2.72-9.57,4.49-.06.3-.46.82-2.05,2.25h0v-.03Z"/><path class="cls-2" d="m102.79,191.73c-2.21-1.39-6.46-3.99-12.89-7.47-7.11-3.86-21.41-6.35-28.81-7.44,4.76,1.47,12.61,3.97,15.88,5.42,4.85,2.16,12.8,10.45,12.8,10.45,0,0-14.13,1.68-22.81,7.92,0,0,2.45-5.62,6.78-8.85-.59-.6-1.24-1.27-1.9-1.95-7.51,6.17-11.31,11.74-11.86,13.1-.09.23-.18.47-.26.7.72,4.44,5.31,12.15,5.77,12.7.34.41,6.66,1.35,11.24,1.99.31-1.37.98-4.21,1.38-5.16.52-1.27,4.44-5.31,4.44-5.31,0,0-2.77,4.41-3.19,6.12-.31,1.26-.5,3.53-.57,4.64.32.04.62.08.89.12.34-1.33,1.26-4.9,1.77-6.13.62-1.52,5.3-6.34,5.3-6.34,0,0-3.31,5.26-3.81,7.3-.38,1.54-.62,3.86-.72,4.9.43-.04.87-.08,1.32-.11.11-.41,1.09-4.15,1.85-5.73.8-1.67,6.37-6.81,6.37-6.81,0,0-4.07,5.72-4.75,7.99-.37,1.22-.76,2.76-1.04,3.91,8.23-2.79,15.78-7.34,15.78-7.34l-1.28,2.7c2.37-1.31,5.17-1.93,7.25-2.22h0s7.59-2.38,9.48-1.9c1.77.44,4.09,3.46,4.71,4.59.15.28.25.5.23.73,1.7-.12,4.21-.4,7.88-1,1.78-.29,3.66-.75,5.57-1.32l-.16.04,4.13-2.07c3.41-1.7,3.78-1.7,3.9-1.71.24,0,.45.14.54.36.04.09.07.18.05.3,4.21-1.76,7.79-3.56,9.57-4.49.09-.13.17-.24.24-.35-2.54-1.02-5.05-1.94-7.5-2.79l-27.58.12h-.98c-.69,0-1.37,0-2.04,0h2.04l-3.28.02c-.68,0-1.37.02-2.05,0h-3.71s-1.91.07-2.32.02l.25-.67,1.7-5.21c.29-.88.56-1.71.84-2.55-8.47-.89-13.6-.75-13.63-.94,2.24-.16,4.65-.26,7.21-.27v-.02h-.02Z"/><path class="cls-2" d="m93.92,222.86c-2.23-1.56-5.76-3.56-8.92-3.37-3.28.2-6.06.56-8.36.96l5.88.61s.12,2.69-6.95,10.47c-5.55,6.11-17.21,12.65-21.96,15.17-.5.57-.94,1.08-1.32,1.5.23-.04.48-.08.75-.12,5.27-2.22,17.57-7.42,21.21-9.07,4.41-2,18.12-14.73,19.66-16.17h0v.02Z"/><path class="cls-4" d="m130.18,228.28c.36-.23.73-.46,1.1-.71l-1.94.23-1.1-1.65-2.73,1.85-2.68-1.92-2.29,1.29c2.36.64,5.55,1.14,9.65.91h0Z"/><path class="cls-4" d="m118.76,226.82l.06-.03-2.21-2.1-1.25.84c.32.07.72.24,1.29.47.55.22,1.25.52,2.11.81h0Z"/><path class="cls-4" d="m125.34,223.62l4.64-3.55,2.43,2.66,4.87-4.66,1.29,3.72c1.84-1.68,3.7-3.55,5.55-5.55-3.19.58-10.12,1.93-17.63,3.97,1.43.61-1.15,3.42-1.15,3.42h0Z"/><path class="cls-4" d="m126.49,220.2c-2.8.76-5.68,1.62-8.47,2.56l1.57,1.4,3.8-2.23,1.96,1.69s2.58-2.81,1.15-3.42h-.01Z"/><path class="cls-7" d="m92.26,232.76c-.2-.05-.32-.08-.32-.08-3.56,3.09-8.31,6.96-11.96,9.04-7.68,4.39-29.32,7.39-29.35,7.39h0s.54-.6,1.41-1.58c-.32.16-.5.26-.5.26l9.9-12.17,5.25-10.58c-.19-.09-.38-.19-.56-.28-1.03,2.23-2.55,5.47-4.12,8.59-2.57,5.12-11.77,15.22-11.86,15.32l-1.21,1.32,1.77-.25c.89-.12,21.93-2.97,29.59-7.47,4.06-2.39,8.37-6.04,11.55-8.96h-.04s.2-.28.44-.56h0Z"/><path class="cls-7" d="m79.66,241.16c-5.95,3.4-20.7,6-26.61,6.93-1.47.62-2.39,1.01-2.42,1.02.03,0,21.67-3,29.35-7.39,3.65-2.08,8.4-5.96,11.96-9.04l4.74-4.03s-10.48,8.77-17.01,12.51h0Z"/><path class="cls-7" d="m94.07,222.73s-.05.05-.14.13c1.36.95,2.24,1.73,2.26,1.75,0,0-5.06-6.03-10.35-6.4-.05.23-.1.44-.14.61,2.3.29,5.14,1.29,8.37,3.9h0Z"/><path class="cls-7" d="m82.19,218.79v.08c.62-.09,1.33-.15,2.13-.14l-.67-.33c-.48.14-.97.27-1.45.39h-.01Z"/><path class="cls-7" d="m80.24,219.24c.27-.05.6-.12.99-.2h-.08c-.3.08-.61.14-.91.2Z"/><path class="cls-7" d="m83.64,218.4l-.11-.05v-.04c-.45.03-.89.07-1.32.11-.02.16-.03.29-.03.38.48-.12.97-.26,1.45-.4h.01Z"/><path class="cls-7" d="m93.92,222.86c.09-.09.14-.13.14-.13-3.23-2.61-6.07-3.61-8.37-3.9-.08.33-.12.53-.12.53l-1.27-.63c-.8,0-1.51.05-2.13.14v.07l-.94.09c-.39.08-.72.15-.99.2.3-.06.6-.12.91-.19l-.31.03-5.1,1.29.91.09c2.3-.41,5.08-.76,8.36-.96,3.15-.19,6.68,1.81,8.92,3.37h-.01Z"/><path class="cls-7" d="m103.99,191.73c.4,0,.8,0,1.21.02-.57-.38-3.16-2.09-7.86-4.81-.16.15-.33.31-.49.46,3.58,2.07,5.94,3.55,7.14,4.33h0Z"/><path class="cls-7" d="m67.37,184.38h0l-3.31-2.85c-3.6-2.98-7.56-5.98-7.56-5.98,0,0,.25.03.72.08h0c3.23.4,16.72,2.2,26.57,5.41l-.3-.57c.08-.05.17-.09.25-.13-11.08-3.58-26.37-5.35-27.16-5.44l-2.34-.27,1.88,1.42c.09.07,8.9,6.75,12.08,10,.84.85,1.79,1.83,2.75,2.81.13-.1.25-.21.38-.31l-3.95-4.17h-.01Z"/><path class="cls-7" d="m74.1,191.49l-1.89-1.99c-.12.1-.24.2-.37.3.67.68,1.31,1.34,1.9,1.95.12-.09.23-.17.35-.26h.01Z"/><path class="cls-7" d="m56.5,175.54s3.96,3,7.56,5.98l-6.84-5.9c-.46-.06-.72-.09-.72-.09h0Z"/><path class="cls-7" d="m89.9,184.25c6.42,3.49,10.68,6.08,12.89,7.47h1.2c-1.21-.78-3.56-2.26-7.14-4.33-.04.04-.09.08-.13.12l-.45-.46h0l-7.76-4.27.75-.32c-1.16-.55-2.45-1.07-3.82-1.56-.48.23-.93.46-1.35.69l-.3-.57c-9.85-3.21-23.33-5.01-26.57-5.41,0,0,1.58.47,3.88,1.18,7.4,1.09,21.69,3.58,28.81,7.44h0v.02Z"/><path class="cls-7" d="m83.79,181.04h0c.26-.14.53-.28.8-.42-.28-.09-.57-.19-.85-.28-.08.05-.17.09-.25.13l.3.57h0Z"/><path class="cls-7" d="m85.44,180.92c-.28-.1-.57-.2-.85-.3-.27.14-.53.28-.8.42h0l.3.57c.42-.22.87-.46,1.35-.69h0Z"/><path class="cls-7" d="m96.27,187.07c.2.11.39.22.58.33.16-.15.32-.31.49-.46-.18-.1-.36-.21-.54-.31l-.53.44h0Z"/><path class="cls-7" d="m96.72,187.53s.09-.09.13-.12c-.19-.11-.38-.22-.58-.33l.45.46h0Z"/><path class="cls-7" d="m108.72,225.79c.37-.15,3.97-1.62,7.82-3.03l.22-.25c-2.84,1-5.58,2.09-8.05,3.28h.01Z"/><path class="cls-7" d="m111.62,225.96l-2.93-.16c-.09.05-.19.09-.28.13,0,0,1.56,0,3.21.02h0Z"/><path class="cls-7" d="m127.9,228.98c.37,0,.75,0,1.14,0h0c-.39,0-.77.02-1.14,0Z"/><path class="cls-7" d="m116.54,222.76c-3.85,1.41-7.45,2.87-7.82,3.03,0,0-.02,0-.03,0l2.93.16c1.08.02,2.19.05,2.93.12l.8-.54s-.06-.02-.09-.02c-.68-.12-2.4-.18-3.94-.21,1.68-.73,3.47-1.41,5.29-2.06l-.29-.26.2-.23h.02Z"/><path class="cls-7" d="m115.15,226.15h0s-.08,0-.12-.02c.04,0,.09,0,.12.02h0Z"/><path class="cls-7" d="m115.99,226.43c-.09-.04-.17-.07-.26-.1.08.03.16.06.26.1h0Z"/><path class="cls-7" d="m115.73,226.33c-.24-.09-.43-.16-.58-.19h0c.15.03.34.09.58.19Z"/><path class="cls-7" d="m105.6,226.59h2.82c1.5-.02,5.61,0,6.62.19.2.04.63.21,1.12.42,1.94.81,5.74,2.37,11.73,2.42.38-.21.77-.43,1.15-.66-.39,0-.77.02-1.14,0-.58,0-1.13-.02-1.66-.05-.39-.02-.78-.05-1.15-.09-3.72-.35-6.34-1.29-8.01-1.96-.21-.08-.4-.16-.57-.24-.18-.07-.34-.14-.49-.2h-.02l-.83-.29h0l-3.53-.19c-1.65-.03-3.21-.02-3.21-.02.09-.05.19-.09.28-.13h0s.01,0,.03,0c2.46-1.19,5.2-2.28,8.05-3.28l.43-.48.27.24c1.56-.53,3.15-1.04,4.74-1.52.53-.16,1.06-.32,1.59-.47.21-.06.43-.12.64-.18.43-.12.85-.24,1.27-.36.85-.23,1.69-.46,2.52-.67,1.24-.33,2.46-.63,3.64-.91.59-.14,1.17-.28,1.74-.41s1.13-.26,1.67-.38c.18-.04.36-.08.54-.12.53-.12,1.05-.23,1.56-.34.17-.04.33-.07.5-.11.33-.07.65-.14.96-.2.47-.1.92-.19,1.36-.28,2.06-.41,3.68-.7,4.65-.88.18-.2.36-.4.54-.6.05-.06.1-.12.15-.17-2.45.41-24.15,4.2-37.4,10.68l-2.53,1.24h-.03Z"/><path class="cls-7" d="m115.03,226.13c-.09,0-.2-.03-.32-.04-.05,0-.1,0-.15-.02h0c-.74-.06-1.86-.1-2.93-.12l3.53.19s-.08,0-.12-.02h0Z"/><path class="cls-7" d="m115.99,226.43c-.09-.04-.17-.07-.26-.1-.24-.09-.43-.16-.58-.19l.83.29h.01Z"/><path class="cls-7" d="m108.69,225.8s.02,0,.03,0c-.02,0-.03,0-.03,0h0Z"/><path class="cls-7" d="m116.5,226.65c.18.07.37.15.57.24,1.67.67,4.29,1.6,8.01,1.96.37.04.76.06,1.15.09.53.03,1.09.05,1.66.05.37,0,.75,0,1.14,0,.33-.19.67-.4,1-.6.05-.03.09-.06.14-.09-4.1.23-7.29-.28-9.65-.91l-.43.24c0-.27-.93.1-1.06-.13l-3.05-1.05h.02c.15.06.31.13.49.2h0Z"/><path class="cls-7" d="m114.55,226.08c.05,0,.11,0,.15.02.12,0,.23.02.32.04.04,0,.09,0,.12.02.15.03.34.09.58.19.08.03.16.06.26.1l3.05,1.05c-.08-.14-.74-.18-.77-.39l.49-.27c-.86-.3-1.56-.59-2.11-.81-.58-.24-.97-.4-1.29-.47l-.8.54h0v-.02Z"/><path class="cls-7" d="m114.71,226.09s-.1,0-.15-.02h0c.05,0,.11,0,.15.02Z"/><path class="cls-7" d="m138.83,216.6c-.31.06-.63.13-.96.2-.16.03-.33.07-.5.11-.5.11-1.02.22-1.56.34-.18.04-.36.08-.54.12-.54.12-1.1.25-1.67.38-.57.13-1.15.27-1.74.41-1.18.28-2.4.59-3.64.91-.83.22-1.67.44-2.52.67-.42.12-.85.24-1.27.36-.21.06-.43.12-.64.18-.53.15-1.06.31-1.59.47-1.59.48-3.17.98-4.74,1.52l.13.11c2.9-1.04,5.79-1.97,7.42-2.23.71-.11,1.18-.08,1.48.05,7.51-2.04,14.44-3.39,17.63-3.97.24-.26.48-.52.71-.78-.97.17-2.59.46-4.65.88-.43.09-.89.18-1.36.28h0,.02Z"/><path class="cls-7" d="m125.01,220.15c-1.63.26-4.51,1.19-7.42,2.23l.43.38c2.8-.95,5.67-1.8,8.47-2.56-.3-.13-.77-.16-1.48-.05h0Z"/><path class="cls-7" d="m122.2,220.75c-1.59.48-3.17.98-4.74,1.52h0c1.56-.53,3.15-1.04,4.74-1.52Z"/><path class="cls-7" d="m131.86,218.16c.59-.14,1.17-.28,1.74-.41-.57.13-1.15.27-1.74.41Z"/><path class="cls-7" d="m135.81,217.25c.53-.12,1.05-.23,1.56-.34-.5.11-1.02.22-1.56.34Z"/><path class="cls-7" d="m150.07,201.77c.98.38,1.96.77,2.94,1.18.07.03.13.05.2.08.53.22,1.06.44,1.59.67,0,0-3.46,5.37-8.96,11.58h0l.1.64s-.3.05-.8.14c-2.06,2.28-4.37,4.64-6.88,6.87l-1.28-3.69-4.62,4.42-2.47-2.72-4.1,3.14.47.46,3.55-2.72,2.52,2.76,4.37-4.18,1.26,3.65.72-.64c2.54-2.25,5.1-4.84,7.63-7.7,5.47-6.18,8.98-11.61,9.02-11.66l.42-.64-.7-.3c-1.6-.68-3.17-1.32-4.73-1.92h-1.78c.5.2,1.01.39,1.52.59h0Z"/><path class="cls-7" d="m105.32,191.83l-.26.38c-.13-.02-.27-.03-.41-.05.2.13.3.2.3.2.77,0,1.56.03,2.35.06.21,0,.41.02.62.02.47.02.94.05,1.42.07.04-.11.07-.22.11-.33.03-.09.07-.19.11-.28-1.49-.09-2.95-.15-4.36-.17.08.05.12.08.12.08h0v.02Z"/><path class="cls-7" d="m125.32,224.45l-2.01-1.73-3.8,2.24-2.19-1.96c-.23.08-.46.16-.7.24l2.81,2.51,3.81-2.24,2.05,1.77.98-.75-.47-.46-.49.38h.01Z"/><path class="cls-7" d="m150.07,201.77c.98.38,1.96.77,2.94,1.18-.99-.41-1.97-.8-2.94-1.18Z"/><path class="cls-7" d="m153.61,204.34c-1.24,1.8-4.13,5.85-8.08,10.34.14-.02.22-.04.23-.04l.1.64h0c5.5-6.21,8.96-11.58,8.96-11.58-.53-.23-1.06-.45-1.59-.67.53.22,1.06.44,1.59.67,0,0-.44.24-1.2.64h-.01Z"/><path class="cls-7" d="m109.35,192.53h0c-.48-.03-.95-.05-1.42-.07.47.02.94.05,1.42.07Z"/><path class="cls-7" d="m146.34,201.2c2.46.85,4.96,1.77,7.5,2.79-.07.1-.15.22-.24.35.76-.4,1.19-.63,1.2-.64-.53-.23-1.06-.45-1.59-.67-.07-.03-.13-.05-.2-.08-.99-.41-1.97-.8-2.94-1.18-.51-.2-1.01-.39-1.52-.58h-2.21,0Z"/><path class="cls-7" d="m102.79,191.73c-2.56,0-4.97.1-7.21.27.03.19,5.16.05,13.63.94.05-.14.09-.27.14-.41-.48-.03-.95-.05-1.42-.07-.21,0-.42-.02-.62-.02-.79-.03-1.58-.05-2.35-.06,0,0-.1-.07-.3-.2-.46-.05-.93-.08-1.39-.13-.15-.09-.31-.19-.48-.3h0v-.02Z"/><path class="cls-7" d="m150.07,201.77c-.51-.2-1.01-.39-1.52-.58h0c.5.19,1.01.38,1.52.58Z"/><path class="cls-7" d="m153.02,202.95c.07.03.13.05.2.08-.07-.03-.13-.05-.2-.08Z"/><path class="cls-7" d="m138.57,221.79l-1.29-3.72-4.87,4.66-2.43-2.66-4.64,3.55.46.46,4.1-3.14,2.47,2.72,4.62-4.42,1.28,3.69c2.51-2.23,4.83-4.59,6.88-6.87-.28.05-.63.11-1.05.19-1.85,2.01-3.71,3.87-5.55,5.55h.02Z"/><path class="cls-7" d="m123.38,221.93l-3.8,2.23-1.57-1.4c-.23.08-.47.16-.7.24l2.19,1.96,3.8-2.24,2.01,1.73.49-.38-.46-.46-1.96-1.69h0Z"/><path class="cls-7" d="m104.66,192.16c.14.02.27.03.41.05l.26-.38s-.05-.03-.12-.08c-.4,0-.81,0-1.21-.02.28.18.5.33.66.43h0Z"/><path class="cls-7" d="m102.79,191.73c.17.11.33.21.48.3.46.06.92.09,1.39.13-.16-.1-.38-.25-.66-.43h-1.21Z"/><path class="cls-7" d="m116.77,222.51h0l-.22.25c.12-.04.24-.09.36-.13l-.13-.12h-.01Z"/><path class="cls-7" d="m145.96,215.91l-.1-.64c-.23.26-.46.51-.69.77.49-.09.77-.13.8-.14h0Z"/><path class="cls-7" d="m116.54,222.76l-.2.23.29.26c.23-.08.46-.16.7-.24l-.42-.37c-.12.04-.24.09-.36.13h-.01Z"/><path class="cls-7" d="m116.77,222.51h0c.23-.08.46-.16.7-.24l-.27-.24-.43.48h0Z"/><path class="cls-7" d="m144.83,215.45c.66-.12,1.02-.17,1.02-.17l-.1-.64s-.09.02-.23.04c-.05.06-.1.12-.15.17-.18.2-.36.4-.54.6h0Z"/><path class="cls-7" d="m144.83,215.45c-.24.26-.48.53-.71.78.41-.08.76-.14,1.05-.19.23-.26.46-.52.69-.77h0s-.37.06-1.02.17h0Z"/><path class="cls-7" d="m116.77,222.51l.13.12c.23-.08.46-.17.69-.25l-.13-.11c-.23.08-.46.16-.7.24h0Z"/><path class="cls-7" d="m117.59,222.38c-.23.08-.46.16-.69.25l.42.37c.23-.08.47-.16.7-.24l-.43-.38h0Z"/><path class="cls-7" d="m116.77,222.51c.23-.08.46-.16.7-.24h0c-.23.08-.46.16-.7.24h0Z"/><path class="cls-7" d="m60.41,220.43h0c-.35-.35-.6-.68-.71-.98s-.21-.6-.31-.91c-.44-1.14-.92-2.86-1.2-5.36-.44-3.57-.14-7.19,1.19-10.53,0-.03.03-.06.04-.1.18-.56.3-.87.3-.87-.03.13-.06.27-.08.41,1.16-2.14,5.1-7.31,11.73-12.76-.15-.15-.3-.31-.45-.46-7.5,6.18-11.48,11.86-12.15,13.55-2,4.99-1.89,11.12.31,17.25.18.49.7,1.95,7.04,5.1.09-.2.19-.4.27-.59-2.59-1.29-4.86-2.62-5.99-3.75h.01Z"/><path class="cls-7" d="m60.41,220.43c1.13,1.12,3.4,2.46,5.99,3.75,0-.02.02-.04.02-.05l-6.02-3.69h.01Z"/><path class="cls-7" d="m59.43,202.56s-.03.07-.04.1c-1.33,3.34-1.63,6.96-1.19,10.53,0-.09-.02-.19-.03-.29-.44-4.36.7-8.57,1.27-10.34h-.01Z"/><path class="cls-7" d="m59.7,219.45c.11.3.35.64.71.98,0,0-.48-.52-1.01-1.89.1.3.2.6.31.91h-.01Z"/><path class="cls-7" d="m59.73,203.6c.08-.24.17-.47.26-.7.54-1.36,4.35-6.93,11.86-13.1-.15-.16-.3-.31-.45-.46-6.63,5.46-10.57,10.63-11.73,12.76-.05.43-.02.94.07,1.5h-.01Z"/><path class="cls-7" d="m66.98,224.46c-.19-.09-.39-.19-.58-.28-.08.19-.18.38-.27.59.18.09.37.18.56.28l.29-.58h0Z"/><path class="cls-7" d="m66.4,224.18c.19.09.38.19.58.28l-.55-.34s-.02.04-.02.05h-.01Z"/><path class="cls-7" d="m71.77,189.03l-.44-.47c-.13.1-.26.21-.38.31.15.15.3.31.45.46.12-.1.25-.2.37-.31h0Z"/><path class="cls-7" d="m72.21,189.5l-.44-.47c-.12.1-.25.2-.37.31.15.16.3.31.45.46.12-.1.24-.2.37-.3h0Z"/><path class="cls-7" d="m125.8,227.01l-2.94-1.7,2.64,1.9,2.9-1.96,1.24,1.86,4.08-.48c-1.09.81-2.21,1.58-3.35,2.29h0l.04.64c-.41.02-.81.04-1.19.05-3.46,2.01-7.09,3.49-10.77,4.03-7.82,1.15-15.99.77-23.66-.47-.98-.1-1.86-.27-2.37-.38-.19.17-.37.35-.57.53,5.95,1.13,11.67,1.69,17.07,1.66,3.33-.02,6.54-.25,9.62-.7,3.87-.57,7.97-2.19,12.17-4.82,1.12-.7,2.26-1.48,3.39-2.32l1.95-1.45-6.1.72-1.38-2.07-1.47.99.39.38-1.69,1.29h0Z"/><path class="cls-7" d="m122.9,224.54l-4.08,2.25.09.09c.24.08.49.16.75.24l3.21-1.8,2.94,1.7,1.69-1.29-.39-.38-1.59,1.08-2.62-1.88h0Z"/><path class="cls-7" d="m127.89,229.63c-3.29,1.8-6.49,2.93-9.52,3.38-2.25.33-4.58.54-6.97.63l1.29.43s-15.58-.74-17.36-.85c-.18,0-.35-.03-.52-.04,7.67,1.23,15.84,1.62,23.66.47,3.68-.54,7.31-2.02,10.77-4.03-.3,0-.6.02-.89.02h-.46Z"/><path class="cls-7" d="m120.52,227.37l2.29-1.29,2.68,1.92,2.73-1.85,1.1,1.65,1.94-.23c-.37.25-.73.48-1.1.71h.16l.04.64h0c1.14-.71,2.25-1.48,3.35-2.29l-4.08.48-1.24-1.86-2.9,1.96-2.64-1.9-3.19,1.81c.27.08.56.16.86.25h0Z"/><path class="cls-7" d="m118.9,226.87l-.09-.09-.06.03s.1.03.15.05h0Z"/><path class="cls-7" d="m122.86,225.31l-3.21,1.8h.02l3.19-1.81h0Z"/><path class="cls-7" d="m92.26,232.76c-.24.28-.44.56-.44.56h.04c.19-.18.38-.36.57-.53-.06,0-.12-.03-.16-.04h0Z"/><path class="cls-7" d="m129.04,228.97c.44,0,.88-.03,1.34-.05-.46.03-.9.05-1.34.05h0Z"/><path class="cls-7" d="m130.42,229.56l-.04-.64c-.38.24-.77.47-1.15.7.39,0,.79-.03,1.19-.05h0Z"/><path class="cls-7" d="m119.65,227.11c-.26-.08-.51-.16-.75-.24l.44.42.31-.17h0Z"/><path class="cls-7" d="m127.89,229.63h.45c.29,0,.59,0,.89-.02.39-.22.77-.46,1.15-.7h0c-.46.03-.9.04-1.34.05-.39.23-.77.45-1.15.66h0Z"/><path class="cls-7" d="m130.18,228.28s-.09.06-.14.09c-.33.21-.67.41-1,.6.44,0,.88-.03,1.34-.05l-.04-.64h-.16Z"/><path class="cls-7" d="m120.1,227.61l.43-.24c-.3-.08-.58-.16-.86-.25l-.63.36c.13.22,1.06-.14,1.06.13h0Z"/><path class="cls-7" d="m118.27,227.09c.03.21.69.25.77.39l.63-.36h-.02l-.31.17-.44-.42s-.1-.03-.15-.05l-.49.27h.01Z"/><path class="cls-7" d="m141.07,211.9l.92-.83c1.59-1.43,1.99-1.95,2.05-2.25-2.66,1.11-5.58,2.22-8.45,3.08l5.51-1.31-.03,1.31h0Z"/><path class="cls-7" d="m143.99,208.53c-.08-.22-.3-.36-.54-.36-.12,0-.49,0-3.9,1.71l-4.13,2.07.16-.04c2.87-.86,5.79-1.96,8.45-3.08.02-.12,0-.2-.05-.3h0Z"/><path class="cls-7" d="m117.96,215.27s.3.02.72.02c1.12,0,3.17-.12,3.42-.9.02-.06.03-.11.03-.17-3.19.22-3.58-.14-3.58-.14l-7.79-3.53s-1.26,0-3.04.26l3.79.6c1.97,1.11,5.79,3.75,6.45,3.87h0Z"/><path class="cls-7" d="m118.56,214.08s.39.36,3.58.14c.02-.22-.08-.45-.23-.73-.62-1.12-2.93-4.14-4.71-4.59-1.89-.47-9.48,1.9-9.48,1.9h0c1.79-.25,3.04-.26,3.04-.26l7.79,3.53h0Zm-.94-3.33c.74.19,1.88,1.44,2.56,2.35-.53-.02-1.3-.13-1.71-.53-.44-.44-.79-1.32-.97-1.85.04,0,.08,0,.12.02h0Z"/><path class="cls-4" d="m120.19,213.1c-.69-.91-1.82-2.17-2.56-2.35-.04,0-.08-.02-.12-.02.18.53.53,1.41.97,1.85.4.4,1.17.51,1.71.53h0Z"/><path class="cls-7" d="m78.78,218.57c0,.09-.01.17-.02.24.3-.04.6-.08.91-.12h0c-.27-.04-.57-.08-.89-.12h0Z"/><path class="cls-7" d="m75.58,231.54c7.07-7.78,6.95-10.47,6.95-10.47l-5.88-.61c-4.71.83-7.4,1.87-8.14,2.19-.51,1.14-2.87,6.35-5.35,11.29-1.8,3.6-6.57,9.35-9.55,12.78,4.75-2.52,16.41-9.06,21.96-15.17h0Z"/><path class="cls-7" d="m76.74,218.29c-4.58-.64-10.89-1.58-11.24-1.99-.46-.55-5.06-8.26-5.77-12.7-1.6,4.57-1.4,10.08.58,15.63.16.45,1.11,1.75,6.36,4.36.47-1.04.76-1.68.77-1.7l.1-.22.21-.1c.17-.08,3.15-1.48,9.26-2.49l-.44-.03s.07-.3.17-.76h0Z"/><path class="cls-7" d="m66.93,224.57l-.23.47h0l-5.25,10.58-9.9,12.17s.18-.09.5-.26c2.71-3.07,8.55-9.9,10.55-13.89,1.69-3.37,3.32-6.84,4.34-9.07h0Z"/><path class="cls-7" d="m63.17,233.93c2.48-4.93,4.84-10.15,5.35-11.29.74-.31,3.42-1.35,8.14-2.19l-.91-.09,5.1-1.29-1.29.12s.05-.19.13-.51c-.31.04-.61.08-.91.12-.02.24-.02.39-.02.39l-1.74-.12c-6.11,1.01-9.09,2.41-9.26,2.49l-.21.1-.1.22s-.29.66-.77,1.7c.19.09.39.19.59.29l-.33.69c-1.02,2.23-2.65,5.7-4.34,9.07-2.01,3.99-7.84,10.83-10.55,13.89.36-.19.9-.46,1.58-.83,2.97-3.43,7.74-9.18,9.55-12.78h0v.02Z"/><path class="cls-7" d="m59.39,218.54c-.56-1.74-.98-3.54-1.2-5.36.27,2.49.76,4.22,1.2,5.36Z"/><path class="cls-7" d="m59.73,201.69s-.12.32-.3.87c.06-.13.13-.29.23-.46.02-.15.04-.29.08-.41h-.01Z"/><path class="cls-7" d="m66.67,223.59c-5.25-2.61-6.2-3.91-6.36-4.36-1.98-5.54-2.18-11.06-.58-15.63-.09-.56-.12-1.07-.07-1.5-.09.18-.17.33-.23.46-.57,1.77-1.71,5.99-1.27,10.34,0,.1.02.19.03.29.22,1.82.64,3.62,1.2,5.36.53,1.37,1.01,1.89,1.01,1.89h0l6.02,3.69c.09-.19.17-.36.24-.53h.01Z"/><path class="cls-7" d="m66.93,224.57s.03-.07.05-.11l-.29.58h0l.23-.47h0Z"/><path class="cls-7" d="m67.26,223.88c-.2-.1-.4-.2-.59-.29-.08.17-.16.34-.24.53l.55.34s-.03.07-.05.11l.33-.69h0Z"/><path class="cls-7" d="m66.97,200.6c8.68-6.24,22.81-7.92,22.81-7.92,0,0-7.95-8.29-12.8-10.45-3.27-1.46-11.12-3.95-15.88-5.42-.88-.13-1.66-.24-2.32-.33,2.81,2.18,7.97,6.27,10.33,8.67,3.23,3.29,7.34,9.38,7.34,9.38-.03-.03-1.18-1.21-2.71-2.79-4.32,3.23-6.78,8.85-6.78,8.85h.01Z"/><path class="cls-7" d="m67.36,184.38c-.96-.88-2.11-1.86-3.31-2.85l3.31,2.85Z"/><path class="cls-7" d="m68.65,185.61c-.36-.37-.8-.78-1.28-1.22l3.95,4.17s.05-.05.08-.07c-1-1.06-1.96-2.08-2.75-2.88h0Z"/><path class="cls-7" d="m68.65,185.61c.79.81,1.75,1.82,2.75,2.88.01,0,.02-.02.04-.03l.4.5h0l.41.5s-.03.02-.04.03l1.89,1.99c-.12.08-.24.17-.35.26,1.54,1.58,2.68,2.76,2.71,2.79,0,0-4.11-6.09-7.34-9.38-2.36-2.4-7.52-6.49-10.33-8.67.66.09,1.44.2,2.32.33-2.3-.71-3.88-1.18-3.88-1.18h0l6.84,5.9c1.19.99,2.35,1.97,3.31,2.85h0c.48.45.92.86,1.28,1.23h-.01Z"/><path class="cls-7" d="m71.85,188.96c-.15-.16-.29-.31-.44-.47-.03.02-.05.05-.08.07l.44.47s.05-.04.08-.07h0Z"/><path class="cls-7" d="m71.4,188.49c.15.16.29.31.44.47l-.4-.5s-.02.02-.04.03h0Z"/><path class="cls-7" d="m72.25,189.46l-.41-.5s-.05.04-.08.07l.44.47s.03-.02.04-.03h.01Z"/><path class="cls-7" d="m95.82,186.6c.12-.11.23-.22.35-.34-1.65-.94-3.53-2-5.64-3.14-.4-.22-.83-.43-1.26-.64l-.75.32,7.76,4.27h0l-.45-.46h-.01Z"/><path class="cls-7" d="m96.27,187.06h0l.53-.44-.05-.03c-.16.15-.33.31-.48.46h0Z"/><path class="cls-7" d="m96.27,187.06c.16-.16.32-.31.48-.46-.19-.11-.39-.22-.58-.33-.12.11-.23.22-.35.34l.45.46h0Z"/><path class="cls-7" d="m84.93,218.21c.3-.02.6,0,.91,0,.04-.17.09-.36.13-.55-.62.21-1.24.41-1.87.6.27-.02.55-.04.83-.05h0Z"/><path class="cls-7" d="m85.97,217.67c.28-1.15.66-2.69,1.04-3.91.69-2.26,4.75-7.99,4.75-7.99,0,0-5.58,5.14-6.37,6.81-.76,1.58-1.74,5.32-1.85,5.73.19-.02.37-.03.57-.04.62-.19,1.25-.39,1.87-.6h-.01Z"/><path class="cls-7" d="m84.93,218.21c-.28.02-.56.04-.83.05-.15.05-.31.09-.46.14l.67.33c.44,0,.9.04,1.39.1.04-.17.09-.38.14-.61-.3-.02-.6-.03-.91,0h0Z"/><path class="cls-7" d="m83.64,218.4c.15-.05.31-.09.46-.14-.19,0-.38.03-.57.04v.04l.11.05h0Z"/><path class="cls-7" d="m85.58,219.36s.04-.2.12-.53c-.49-.06-.95-.09-1.39-.1l1.27.63Z"/><path class="cls-7" d="m82.22,218.41c.09-1.03.34-3.35.72-4.9.5-2.04,3.81-7.3,3.81-7.3,0,0-4.68,4.82-5.3,6.34-.5,1.22-1.43,4.8-1.77,6.13h.01c.8-.1,1.64-.19,2.53-.28h0Z"/><path class="cls-7" d="m81.15,219.04h.08c.29-.07.6-.12.94-.17v-.08c-.35.09-.69.17-1.04.25h.02Z"/><path class="cls-7" d="m82.18,218.95v-.07c-.35.05-.66.11-.94.16l.94-.09h0Z"/><path class="cls-7" d="m82.19,218.79c0-.09.02-.22.03-.38-.88.08-1.73.17-2.53.28,1.08.14,1.75.23,1.75.23l-.6.15.31-.03c.34-.08.69-.16,1.04-.25h0Z"/><path class="cls-7" d="m79.69,218.69h-.01c-.08.32-.13.51-.13.51l1.29-.12.6-.15s-.68-.09-1.75-.23h0Z"/><path class="cls-7" d="m79.36,213.93c.42-1.71,3.19-6.12,3.19-6.12,0,0-3.92,4.04-4.44,5.31-.39.95-1.06,3.79-1.38,5.16.74.1,1.43.2,2.05.28.08-1.1.27-3.38.57-4.64h0Z"/><path class="cls-7" d="m76.74,218.29c-.11.46-.17.76-.17.76l.44.03c.56-.09,1.15-.18,1.76-.27,0-.07,0-.15.02-.24-.62-.08-1.31-.18-2.05-.28h0Z"/><path class="cls-7" d="m78.75,219.2s0-.15.02-.39c-.61.09-1.2.18-1.76.27,0,0,1.74.12,1.74.12Z"/><path class="cls-7" d="m93.03,232.22c6.45,1.17,12.6,1.64,18.36,1.41l-14.71-4.99c-.17.16-1.56,1.6-3.65,3.57h0Z"/><path class="cls-7" d="m91.94,232.68s.12.03.32.08c0,0,0,0,.02-.02-.11-.02-.22-.04-.33-.06h0Z"/><path class="cls-7" d="m92.95,232.21s.05,0,.08.02c2.08-1.97,3.48-3.41,3.65-3.57l-4.74,4.03c.11.02.22.04.33.06.25-.28.53-.56.67-.53h0Z"/><path class="cls-7" d="m92.42,232.79c.52.12,1.39.29,2.37.38-.79-.13-1.57-.26-2.35-.41l-.02.02h0Z"/><path class="cls-7" d="m112.68,234.07l-1.29-.43c-5.76.22-11.91-.25-18.36-1.41-.19.18-.38.36-.58.55.77.14,1.56.28,2.35.41.17.02.34.03.52.04,1.78.11,17.36.85,17.36.85h0Z"/><path class="cls-7" d="m92.27,232.74s0,0-.02.02c.05,0,.1.02.16.04l.02-.02c-.06,0-.12-.02-.17-.03h0Z"/><path class="cls-7" d="m92.27,232.74c.06,0,.12.02.17.03.2-.19.39-.37.58-.55-.03,0-.05,0-.08-.02-.15-.03-.43.25-.67.53h0Z"/><path class="cls-2" d="m106.68,200.7l-.25.67c.41.05,2.32-.02,2.32-.02h2.45s.16,0,.19,0h1.07c.68,0,1.37,0,2.05,0l3.28-.02h-2.04,3.02l27.58-.13c-14.83-5.11-27.95-7.29-37.13-8.26-.28.84-.55,1.68-.84,2.55l-1.7,5.21h0v.02Z"/><path class="cls-7" d="m109.46,192.2c-.04.11-.07.22-.11.33.38.02.75.04,1.13.07,1.13.08,2.28.17,3.45.28.14,0,.28.02.42.04.53.05,1.05.11,1.58.17,2.13.24,4.31.55,6.56.93,5.62.95,11.61,2.36,17.94,4.36.63.2,1.27.4,1.91.61.03,0,.05.02.08.03,1.5.5,3.02,1.02,4.55,1.58.2.07.4.15.6.22.33.12.65.24.98.36h1.78c-15.65-6.09-29.42-8.6-40.77-9.27-.04.09-.07.18-.11.28h.01Z"/><path class="cls-4" d="m146.97,200.6c.2.07.4.15.6.22-.2-.07-.4-.15-.6-.22Z"/><path class="cls-4" d="m110.48,192.6c-.38-.02-.76-.05-1.13-.07h0c.38.02.75.04,1.13.07Z"/><path class="cls-7" d="m109.21,192.94c9.18.97,22.3,3.14,37.13,8.26h2.21c-.33-.13-.66-.25-.98-.37-.2-.07-.4-.15-.6-.22-1.54-.56-3.06-1.09-4.55-1.58-.03,0-.05-.02-.08-.03-.64-.21-1.28-.42-1.91-.61-6.33-1.99-12.32-3.4-17.94-4.36-2.25-.38-4.44-.69-6.56-.93-.53-.06-1.06-.12-1.58-.17-.14-.02-.28-.03-.42-.04-1.17-.11-2.32-.21-3.45-.28-.38-.02-.76-.05-1.13-.07-.05.14-.09.27-.14.41h0Z"/><path class="cls-7" d="m122.49,194.02c5.62.95,11.61,2.36,17.94,4.36-6.33-1.99-12.32-3.4-17.94-4.36h0Z"/><path class="cls-7" d="m115.92,193.09c2.13.24,4.31.55,6.56.93-2.25-.38-4.44-.69-6.56-.93Z"/><path class="cls-7" d="m148.56,201.18c-.33-.12-.66-.24-.98-.36.33.12.65.24.98.36h0Z"/><path class="cls-7" d="m142.42,199.02c1.5.5,3.02,1.02,4.55,1.58-1.54-.56-3.06-1.09-4.55-1.58h0Z"/><path class="cls-4" d="m196.28,144.02c-.93-2.29-1.8-4.44-2.68-6.58h-.15c-.85,4-1.7,8-2.56,12.03h-8.57c.12-.59.24-1.16.36-1.73,1.76-8.31,3.52-16.62,5.28-24.93.08-.39.23-.53.63-.52,2.1.02,4.2.02,6.3,0,.39,0,.56.15.7.49.95,2.38,1.92,4.75,2.88,7.12.08.19.16.39.29.68.19-.21.34-.37.48-.54,2.01-2.42,4.02-4.83,6.01-7.26.31-.37.62-.5,1.09-.5,2.18.02,4.37,0,6.55,0h.78c-1.94,9.11-3.85,18.15-5.77,27.19h-8.58c.85-4.02,1.69-7.99,2.53-11.96-.04-.03-.09-.06-.13-.09-1.79,2.16-3.58,4.33-5.45,6.58h0v.02Z"/><path class="cls-4" d="m266.36,130.63c.78-.94,1.48-1.78,2.17-2.62,1.46-1.76,2.91-3.53,4.39-5.28.17-.2.48-.41.72-.41,2.42-.03,4.84-.02,7.26-.02.08,0,.16.02.31.05-.04.24-.06.46-.11.68-1.82,8.59-3.65,17.18-5.46,25.77-.11.53-.29.73-.87.72-2.38-.04-4.75-.02-7.13-.02h-.74c.85-4.04,1.69-8,2.53-11.96-.05-.03-.1-.06-.15-.09-1.78,2.15-3.56,4.3-5.42,6.55-.92-2.27-1.8-4.41-2.67-6.55-.05,0-.1,0-.14,0-.05.2-.11.39-.15.59-.77,3.59-1.54,7.19-2.28,10.79-.1.48-.25.67-.78.67-2.44-.03-4.88,0-7.33,0h-.6c.08-.47.15-.88.24-1.29,1.79-8.42,3.58-16.84,5.35-25.27.11-.53.31-.68.84-.67,2.01.03,4.03.02,6.04,0,.44,0,.64.15.8.55.93,2.35,1.88,4.68,2.83,7.02.09.21.18.43.32.77h0l.03.02Z"/><path class="cls-4" d="m247.81,149.49h-8.62v-4.67h-2.86c-.74,0-1.65-.2-2.18.15-.5.33-.6,1.27-.87,1.94-.29.74-.55,1.48-.87,2.21-.07.17-.32.38-.48.38-2.91.02-5.82,0-8.73,0-.04,0-.07-.03-.16-.08.08-.19.15-.38.24-.56,4.21-8.67,8.42-17.33,12.62-26,.21-.43.44-.58.92-.58,2.89.02,5.78.02,8.67,0,.5,0,.7.1.73.65.52,8.63,1.06,17.27,1.59,25.9,0,.19,0,.38,0,.65h0Zm-8.12-18.33c-.06,0-.13-.02-.19-.03-.98,2.48-1.95,4.96-2.94,7.48h2.87c.09-2.5.18-4.97.26-7.45h0Z"/><path class="cls-4" d="m226.28,122.35c-.78,3.68-1.54,7.28-2.31,10.87-1.11,5.22-2.23,10.45-3.31,15.67-.1.5-.29.65-.79.65-2.49-.02-4.97,0-7.45,0h-.67c.22-1.08.43-2.09.65-3.1,1.66-7.83,3.33-15.67,4.98-23.5.1-.47.26-.63.75-.62,2.51.02,5.01,0,7.52.01.19,0,.38.02.64.04h-.01Z"/><path class="cls-4" d="m288.12,149.49h-8.72c.02-.19.02-.36.05-.51,1.84-8.7,3.69-17.39,5.53-26.09.07-.33.11-.6.57-.6,2.68.02,5.36.01,8.03.02.06,0,.12.03.28.07-1.92,9.04-3.83,18.07-5.75,27.11h.01Z"/><path class="cls-7" d="m166.77,130.71c-.75-1.3-2.65-2.66-5.09-3.61-2.11-.83-5.68-1.79-10.73-1.64-4.55.13-9.43,1.58-13.77,4.07-4.57,2.63-8.29,6.24-10.77,10.43-.15.26-.3.52-.44.78-1.24,2.23-2.09,4.42-2.53,6.51-.04.19-.07.39-.11.59-.18,1.03-.27,2.04-.26,3.02.02.9.12,1.78.3,2.59.28,1.25.75,2.35,1.35,3.15.29.57,1.05,1.66,2.86,2.82,1.14.73,2.7,1.48,4.83,2.14,1.58.49,3.68.74,5.96.74.35,0,.71,0,1.07-.02.68-.02,1.37-.07,2.07-.14,1.37-.14,2.75-.36,4.12-.67.52-.12,1.04-.24,1.56-.39,4.87-1.32,11.76-4.34,16.94-11.15,2.56-3.62,4.03-7.2,4.4-10.64.33-3.13-.29-6.1-1.79-8.59h.03Zm-40.76,24.24s-.05.07-.07.11c-.23-.41-.46-.95-.64-1.61-.11-.39-.19-.82-.26-1.28-.03-.21-.05-.43-.07-.65s-.03-.46-.03-.69v-.77c0-.12,0-.25.02-.37,0-.08.02-.16.02-.24,0-.11.02-.22.03-.34,0-.09.02-.17.03-.26.02-.11.03-.22.04-.33.02-.09.03-.18.05-.27.02-.11.04-.21.05-.32.02-.09.04-.19.06-.28.02-.11.04-.21.07-.32.02-.1.05-.19.07-.29.03-.1.05-.21.08-.31.03-.1.05-.2.08-.3s.06-.21.09-.31c.03-.1.06-.2.1-.3.03-.1.07-.21.1-.31.04-.1.07-.21.11-.31.04-.1.07-.21.11-.31s.08-.21.12-.31c.04-.1.08-.21.12-.31.04-.11.09-.21.14-.32.05-.1.09-.21.14-.31.05-.11.1-.22.15-.32s.1-.21.15-.31c.05-.11.11-.22.16-.33s.11-.21.16-.32c.06-.11.12-.22.17-.33.06-.11.11-.21.17-.32s.12-.22.19-.33c.03-.06.06-.11.09-.17h0c.06-.1.12-.2.19-.31,4.58-7.75,14.04-13.35,23-13.6,4.75-.14,8.06.75,10,1.51.12.05.23.09.34.14h0c.06.03.12.05.19.08.06.02.11.05.17.07.17.08.34.16.5.24.03.02.06.03.09.05.13.07.26.13.38.2.05.03.11.06.16.09.1.06.2.12.29.17.04.03.09.05.13.08.12.08.23.15.34.22.05.04.1.07.15.11.06.05.12.09.19.14.05.04.1.07.14.11,0,0,.02,0,.03.02h0s.04.03.06.05.04.03.06.05c.05.04.1.08.15.12h0c.09.08.17.15.24.23-.04.02-.08.03-.12.05s-.08.03-.12.05c-.39.16-.81.32-1.28.47-1.67.57-3.79,1.12-6.02,1.78l-2.49.78c-1.33.45-2.65.94-3.88,1.51-4.74,2.2-7.76,3.43-10.84,5.45h0c-.47.31-.93.63-1.39.95-.41.29-.82.59-1.22.89-.05.03-.09.07-.13.1-1.29.98-2.52,2-3.67,3.07-.63.58-1.25,1.18-1.85,1.79-.27.27-.53.55-.79.83-.08.08-.15.16-.23.25-.19.21-.38.42-.57.63-.07.09-.15.17-.22.25-.5.57-.98,1.15-1.44,1.74-.07.09-.14.18-.2.26-.17.22-.33.44-.5.66-.07.09-.13.18-.2.27-.16.22-.32.45-.48.68-.05.08-.11.15-.16.23-.26.39-.53.77-.78,1.16-.02.04-.05.07-.07.11v-.02l.04.03Zm36.67-6.12c-.46.6-.93,1.17-1.41,1.71h0c-.27.3-.55.6-.83.88l-.09.09c-.26.27-.53.53-.8.78-.04.04-.09.08-.13.12-.26.25-.53.48-.8.71-.05.04-.09.08-.14.12-.27.23-.54.45-.82.67-.04.03-.08.06-.12.09-.29.22-.57.43-.86.64-.02,0-.03.02-.05.03-.29.2-.58.4-.87.59-.02.02-.05.03-.07.05-.29.19-.57.36-.86.54-.04.03-.09.05-.13.08-.28.17-.55.33-.83.48-.05.03-.1.05-.15.08-.27.15-.55.29-.82.43-.04.02-.09.04-.13.07-.28.14-.56.28-.84.41-.03,0-.05.02-.08.04-.28.13-.56.26-.84.37-.02,0-.03,0-.04.02-.28.12-.55.23-.83.34-.04.02-.07.03-.11.04-.26.1-.52.2-.77.29-.04.02-.09.03-.13.05-.25.09-.5.18-.74.26-.04.02-.08.03-.12.04-.25.08-.49.16-.73.23-.03,0-.06.02-.09.03-.25.08-.5.15-.74.21-.13.04-.26.06-.39.1-2.24.58-4.36.89-6.26,1.01-3.05.18-5.54-.13-7.1-.62-.4-.12-.77-.25-1.12-.38-3.84-1.39-5.09-3.02-5.41-3.55.02-.04.05-.07.07-.11s.05-.07.07-.11c.23-.37.47-.73.71-1.09.26-.38.52-.75.78-1.12,6.43-8.87,15.64-14.2,22.53-17.17,5.6-2.41,10.52-3.67,13.09-4.22.54-.12.98-.2,1.29-.26.04,0,.08-.02.12-.02s.08-.02.12-.02c.13.22.24.43.35.66.02.04.04.09.06.13.1.22.2.43.29.66.02.04.03.08.05.12.09.22.17.45.24.67,0,0,0,.02,0,.04.08.24.14.48.2.72,0,.02.02.05.02.07h0c.99,4.16-.31,9.1-3.79,14.03h0l.04-.03Z"/><path class="cls-4" d="m166.46,134.8s-.09-.02-.13-.03c-.04,0-.08-.02-.12-.02-.39-.08-.82-.15-1.3-.21-1.97-.22-4.64-.12-8.07.84-6.04,1.7-15.97,7.22-24.97,18.07-.22.26-.44.53-.66.8-.37.46-.24,1.15.26,1.46,4.12,2.47,8.27,3.17,12.14,2.85,1.07-.09,2.12-.26,3.15-.48,5.51-1.22,10.23-4.23,13.16-6.48.24-.18.46-.36.67-.53.23-.18.44-.36.64-.52.48-.54.95-1.11,1.41-1.71,3.48-4.93,4.77-9.87,3.79-14.03h.03Z"/><path class="cls-4" d="m157.12,133.34c-.83.25-1.66.5-2.49.78l2.49-.78Z"/><path class="cls-4" d="m127.45,142.37c-.66,2.18-.91,3.85-.78,4.63.02.12.06.22.11.29.74,1,4.7-2.25,14.28-8.43,6.39-4.11,13.67-7.31,18.28-9.14.61-.24,1.18-.46,1.69-.66.05-.02.1-.04.15-.06.05-.02.11-.04.15-.06-.12-.05-.22-.1-.34-.14-1.94-.77-5.26-1.65-10-1.51-8.96.26-18.42,5.85-23,13.6-.06.11-.12.21-.19.32-.07.19-.13.38-.19.57-.06.2-.12.39-.18.58h.02Z"/><path class="cls-5" d="m167.89,130.05c-.91-1.57-3-3.09-5.73-4.16-2.22-.87-5.97-1.88-11.24-1.73-4.76.14-9.86,1.65-14.38,4.25-3.94,2.27-7.28,5.25-9.79,8.7-.52.71-1.01,1.45-1.45,2.2-1.55,2.62-2.6,5.21-3.12,7.68-.06.29-.11.57-.16.85-.17,1.03-.25,2.05-.23,3.04.02.89.11,1.76.27,2.57.3,1.51.84,2.84,1.59,3.85.27.5.81,1.27,1.8,2.12,1.29,1.11,3.34,2.36,6.61,3.38h0c1.71.53,3.91.81,6.31.81h.67c.86-.02,1.74-.07,2.63-.16,1.17-.12,2.34-.3,3.51-.54.8-.16,1.59-.34,2.38-.56,5.06-1.38,12.23-4.51,17.63-11.61l.03-.04c2.68-3.81,4.24-7.59,4.63-11.25.36-3.41-.32-6.65-1.96-9.39h0Zm.67,9.25c-.36,3.44-1.85,7.02-4.4,10.64-5.19,6.81-12.08,9.82-16.94,11.15-.52.14-1.04.27-1.56.39-1.37.31-2.75.53-4.12.67-.69.07-1.38.11-2.07.14-.36,0-.72.02-1.07.02-2.27,0-4.38-.26-5.96-.74-2.13-.66-3.69-1.41-4.83-2.14-1.81-1.15-2.57-2.25-2.86-2.82-.61-.79-1.07-1.9-1.35-3.15-.18-.81-.29-1.69-.3-2.59-.02-.98.07-1.99.26-3.02.03-.19.07-.39.11-.59.44-2.09,1.29-4.28,2.53-6.51.14-.26.29-.52.44-.78,2.48-4.2,6.2-7.81,10.77-10.43,4.33-2.49,9.22-3.94,13.77-4.07,5.06-.15,8.63.81,10.73,1.64,2.44.96,4.34,2.31,5.09,3.61,1.5,2.49,2.12,5.47,1.79,8.59h-.03Z"/><path class="cls-5" d="m166.45,134.73c-.06-.24-.12-.48-.2-.72,0,0,0-.02,0-.04-.07-.23-.15-.45-.24-.67-.02-.04-.03-.08-.05-.12-.09-.22-.19-.44-.29-.66-.02-.04-.04-.09-.06-.13-.11-.22-.23-.44-.35-.66-.04,0-.08.02-.12.02s-.08.02-.12.02c-.32.06-.75.15-1.29.26-2.57.56-7.5,1.81-13.09,4.22-6.89,2.97-16.11,8.3-22.53,17.17-.26.36-.53.74-.78,1.11-.24.36-.48.72-.71,1.09-.02.04-.05.07-.07.11s-.05.07-.07.11c.32.53,1.57,2.15,5.41,3.55.35.13.73.26,1.12.38,1.56.48,4.05.8,7.1.62,1.9-.11,4.01-.42,6.26-1.01.13-.03.26-.06.39-.1.24-.07.49-.14.74-.21.03,0,.06-.02.09-.03.24-.07.48-.15.73-.23.04,0,.08-.03.12-.04.25-.08.49-.17.74-.26.04-.02.09-.03.13-.05.26-.09.51-.19.77-.29.04-.02.07-.03.11-.04.27-.11.55-.22.83-.34.02,0,.03,0,.04-.02.28-.12.56-.24.84-.37.03,0,.05-.02.08-.04.28-.13.56-.26.84-.41.04-.02.09-.04.13-.07.27-.14.55-.29.82-.43.05-.03.1-.05.15-.08.28-.15.55-.31.83-.48.04-.02.09-.05.13-.08.29-.17.57-.35.86-.54.02-.02.05-.03.07-.05.29-.19.58-.39.87-.59.02,0,.03-.02.05-.03.29-.21.57-.42.86-.64.04-.03.08-.06.12-.09.27-.22.55-.44.82-.67.05-.04.09-.08.14-.12.27-.23.54-.47.8-.71.04-.04.09-.08.13-.12.27-.25.54-.51.8-.78l.09-.09c.28-.29.55-.58.83-.88h0c-.2.17-.41.34-.64.52-.21.17-.44.35-.67.53-2.93,2.25-7.65,5.25-13.16,6.48-1.02.23-2.08.4-3.15.48-3.87.32-8.02-.37-12.14-2.85-.51-.3-.64-.99-.26-1.46.22-.27.44-.53.66-.8,9-10.84,18.93-16.36,24.97-18.07,3.43-.97,6.09-1.07,8.07-.84.47.05.9.12,1.3.21.04,0,.08.02.12.02s.09.02.13.03h0s0-.05-.02-.07h0l-.07.05Z"/><path class="cls-3" d="m164.4,130.76h0c-.05-.04-.1-.08-.15-.12-.02-.02-.04-.03-.06-.05s-.04-.03-.06-.05h0s-.02,0-.03-.02c-.05-.04-.09-.07-.14-.11-.06-.05-.12-.09-.19-.14-.05-.04-.1-.07-.15-.11-.11-.07-.22-.15-.34-.22-.04-.03-.09-.05-.13-.08-.09-.06-.19-.12-.29-.17-.05-.03-.11-.06-.16-.09-.12-.07-.25-.13-.38-.2-.03-.02-.06-.03-.09-.05-.16-.08-.33-.16-.5-.24-.05-.02-.11-.05-.17-.07-.06-.03-.12-.05-.19-.08h0c-.05.02-.1.04-.15.06-.05.02-.1.04-.15.06-.51.19-1.08.42-1.69.66-4.61,1.84-11.89,5.03-18.28,9.14-9.58,6.17-13.55,9.43-14.28,8.43-.05-.08-.09-.17-.11-.29-.13-.78.12-2.45.78-4.63.06-.19.12-.38.18-.58.06-.19.12-.38.19-.57h0c-.03.05-.06.1-.09.16-.06.11-.12.22-.19.33-.06.11-.12.21-.17.32-.06.11-.12.22-.17.33-.05.11-.11.21-.16.32s-.11.22-.16.32-.1.21-.15.31c-.05.11-.1.22-.15.32s-.09.21-.14.31c-.05.11-.09.21-.14.32-.04.1-.08.21-.12.31-.04.1-.08.21-.12.31s-.08.21-.11.31c-.04.1-.08.21-.11.31-.04.1-.07.21-.1.31-.03.1-.07.2-.1.3s-.06.21-.09.31c-.03.1-.06.2-.08.3-.03.1-.05.21-.08.31-.02.1-.05.19-.07.29-.02.11-.05.21-.07.32-.02.09-.04.19-.06.28-.02.11-.04.21-.05.32-.02.09-.03.18-.05.27-.02.11-.03.22-.04.33-.01.09-.02.17-.03.26-.01.11-.02.22-.03.34,0,.08-.02.16-.02.24,0,.12-.01.25-.02.37v.77c0,.24.02.47.03.69.02.22.04.44.07.65.06.46.15.89.26,1.28.18.66.41,1.2.64,1.61h0s.05-.07.07-.11.05-.07.07-.11c.25-.39.51-.78.78-1.16.05-.08.11-.15.16-.23.16-.23.32-.45.48-.68.06-.09.13-.18.2-.27.16-.22.33-.44.5-.66.07-.09.14-.18.2-.26.46-.59.94-1.17,1.44-1.74.07-.09.15-.17.22-.25.19-.21.37-.42.57-.63.08-.08.15-.17.23-.25.26-.28.52-.56.79-.83.6-.61,1.21-1.21,1.85-1.79,1.16-1.06,2.38-2.08,3.67-3.07.05-.03.09-.07.13-.1.4-.3.81-.6,1.22-.89.46-.32.92-.64,1.39-.95h0c3.09-2.02,6.1-3.25,10.84-5.45,1.23-.57,2.55-1.07,3.88-1.51.83-.28,1.67-.54,2.49-.78,2.22-.66,4.34-1.22,6.02-1.78.46-.16.89-.32,1.28-.47.04-.02.08-.03.12-.05s.08-.03.12-.05c-.08-.07-.15-.15-.24-.23v.02l-.06-.03Z"/><path class="cls-7" d="m166.77,130.71c-.75-1.3-2.65-2.66-5.09-3.61-2.11-.83-5.68-1.79-10.73-1.64-4.55.13-9.43,1.58-13.77,4.07-4.57,2.63-8.29,6.24-10.77,10.43-.15.26-.3.52-.44.78-1.24,2.23-2.09,4.42-2.53,6.51-.04.19-.07.39-.11.59-.18,1.03-.27,2.04-.26,3.02.02.9.12,1.78.3,2.59.28,1.25.75,2.35,1.35,3.15.29.57,1.05,1.66,2.86,2.82,1.14.73,2.7,1.48,4.83,2.14,1.58.49,3.68.74,5.96.74.35,0,.71,0,1.07-.02.68-.02,1.37-.07,2.07-.14,1.37-.14,2.75-.36,4.12-.67.52-.12,1.04-.24,1.56-.39,4.87-1.32,11.76-4.34,16.94-11.15,2.56-3.62,4.03-7.2,4.4-10.64.33-3.13-.29-6.1-1.79-8.59h.03Zm-40.76,24.24s-.05.07-.07.11c-.23-.41-.46-.95-.64-1.61-.11-.39-.19-.82-.26-1.28-.03-.21-.05-.43-.07-.65s-.03-.46-.03-.69v-.77c0-.12,0-.25.02-.37,0-.08.02-.16.02-.24,0-.11.02-.22.03-.34,0-.09.02-.17.03-.26.02-.11.03-.22.04-.33.02-.09.03-.18.05-.27.02-.11.04-.21.05-.32.02-.09.04-.19.06-.28.02-.11.04-.21.07-.32.02-.1.05-.19.07-.29.03-.1.05-.21.08-.31.03-.1.05-.2.08-.3s.06-.21.09-.31c.03-.1.06-.2.1-.3.03-.1.07-.21.1-.31.04-.1.07-.21.11-.31.04-.1.07-.21.11-.31s.08-.21.12-.31c.04-.1.08-.21.12-.31.04-.11.09-.21.14-.32.05-.1.09-.21.14-.31.05-.11.1-.22.15-.32s.1-.21.15-.31c.05-.11.11-.22.16-.33s.11-.21.16-.32c.06-.11.12-.22.17-.33.06-.11.11-.21.17-.32s.12-.22.19-.33c.03-.06.06-.11.09-.17h0c.06-.1.12-.2.19-.31,4.58-7.75,14.04-13.35,23-13.6,4.75-.14,8.06.75,10,1.51.12.05.23.09.34.14h0c.06.03.12.05.19.08.06.02.11.05.17.07.17.08.34.16.5.24.03.02.06.03.09.05.13.07.26.13.38.2.05.03.11.06.16.09.1.06.2.12.29.17.04.03.09.05.13.08.12.08.23.15.34.22.05.04.1.07.15.11.06.05.12.09.19.14.05.04.1.07.14.11,0,0,.02,0,.03.02h0s.04.03.06.05.04.03.06.05c.05.04.1.08.15.12h0c.09.08.17.15.24.23-.04.02-.08.03-.12.05s-.08.03-.12.05c-.39.16-.81.32-1.28.47-1.67.57-3.79,1.12-6.02,1.78l-2.49.78c-1.33.45-2.65.94-3.88,1.51-4.74,2.2-7.76,3.43-10.84,5.45h0c-.47.31-.93.63-1.39.95-.41.29-.82.59-1.22.89-.05.03-.09.07-.13.1-1.29.98-2.52,2-3.67,3.07-.63.58-1.25,1.18-1.85,1.79-.27.27-.53.55-.79.83-.08.08-.15.16-.23.25-.19.21-.38.42-.57.63-.07.09-.15.17-.22.25-.5.57-.98,1.15-1.44,1.74-.07.09-.14.18-.2.26-.17.22-.33.44-.5.66-.07.09-.13.18-.2.27-.16.22-.32.45-.48.68-.05.08-.11.15-.16.23-.26.39-.53.77-.78,1.16-.02.04-.05.07-.07.11v-.02l.04.03Zm36.67-6.12c-.46.6-.93,1.17-1.41,1.71h0c-.27.3-.55.6-.83.88l-.09.09c-.26.27-.53.53-.8.78-.04.04-.09.08-.13.12-.26.25-.53.48-.8.71-.05.04-.09.08-.14.12-.27.23-.54.45-.82.67-.04.03-.08.06-.12.09-.29.22-.57.43-.86.64-.02,0-.03.02-.05.03-.29.2-.58.4-.87.59-.02.02-.05.03-.07.05-.29.19-.57.36-.86.54-.04.03-.09.05-.13.08-.28.17-.55.33-.83.48-.05.03-.1.05-.15.08-.27.15-.55.29-.82.43-.04.02-.09.04-.13.07-.28.14-.56.28-.84.41-.03,0-.05.02-.08.04-.28.13-.56.26-.84.37-.02,0-.03,0-.04.02-.28.12-.55.23-.83.34-.04.02-.07.03-.11.04-.26.1-.52.2-.77.29-.04.02-.09.03-.13.05-.25.09-.5.18-.74.26-.04.02-.08.03-.12.04-.25.08-.49.16-.73.23-.03,0-.06.02-.09.03-.25.08-.5.15-.74.21-.13.04-.26.06-.39.1-2.24.58-4.36.89-6.26,1.01-3.05.18-5.54-.13-7.1-.62-.4-.12-.77-.25-1.12-.38-3.84-1.39-5.09-3.02-5.41-3.55.02-.04.05-.07.07-.11s.05-.07.07-.11c.23-.37.47-.73.71-1.09.26-.38.52-.75.78-1.12,6.43-8.87,15.64-14.2,22.53-17.17,5.6-2.41,10.52-3.67,13.09-4.22.54-.12.98-.2,1.29-.26.04,0,.08-.02.12-.02s.08-.02.12-.02c.13.22.24.43.35.66.02.04.04.09.06.13.1.22.2.43.29.66.02.04.03.08.05.12.09.22.17.45.24.67,0,0,0,.02,0,.04.08.24.14.48.2.72,0,.02.02.05.02.07h0c.99,4.16-.31,9.1-3.79,14.03h0l.04-.03Z"/><path class="cls-4" d="m166.46,134.8s-.09-.02-.13-.03c-.04,0-.08-.02-.12-.02-.39-.08-.82-.15-1.3-.21-1.97-.22-4.64-.12-8.07.84-6.04,1.7-15.97,7.22-24.97,18.07-.22.26-.44.53-.66.8-.37.46-.24,1.15.26,1.46,4.12,2.47,8.27,3.17,12.14,2.85,1.07-.09,2.12-.26,3.15-.48,5.51-1.22,10.23-4.23,13.16-6.48.24-.18.46-.36.67-.53.23-.18.44-.36.64-.52.48-.54.95-1.11,1.41-1.71,3.48-4.93,4.77-9.87,3.79-14.03h.03Z"/><path class="cls-4" d="m157.12,133.34c-.83.25-1.66.5-2.49.78l2.49-.78Z"/><path class="cls-4" d="m127.45,142.37c-.66,2.18-.91,3.85-.78,4.63.02.12.06.22.11.29.74,1,4.7-2.25,14.28-8.43,6.39-4.11,13.67-7.31,18.28-9.14.61-.24,1.18-.46,1.69-.66.05-.02.1-.04.15-.06.05-.02.11-.04.15-.06-.12-.05-.22-.1-.34-.14-1.94-.77-5.26-1.65-10-1.51-8.96.26-18.42,5.85-23,13.6-.06.11-.12.21-.19.32-.07.19-.13.38-.19.57-.06.2-.12.39-.18.58h.02Z"/><path class="cls-5" d="m167.89,130.05c-.91-1.57-3-3.09-5.73-4.16-2.22-.87-5.97-1.88-11.24-1.73-4.76.14-9.86,1.65-14.38,4.25-3.94,2.27-7.28,5.25-9.79,8.7-.52.71-1.01,1.45-1.45,2.2-1.55,2.62-2.6,5.21-3.12,7.68-.06.29-.11.57-.16.85-.17,1.03-.25,2.05-.23,3.04.02.89.11,1.76.27,2.57.3,1.51.84,2.84,1.59,3.85.27.5.81,1.27,1.8,2.12,1.29,1.11,3.34,2.36,6.61,3.38h0c1.71.53,3.91.81,6.31.81h.67c.86-.02,1.74-.07,2.63-.16,1.17-.12,2.34-.3,3.51-.54.8-.16,1.59-.34,2.38-.56,5.06-1.38,12.23-4.51,17.63-11.61l.03-.04c2.68-3.81,4.24-7.59,4.63-11.25.36-3.41-.32-6.65-1.96-9.39h0Zm.67,9.25c-.36,3.44-1.85,7.02-4.4,10.64-5.19,6.81-12.08,9.82-16.94,11.15-.52.14-1.04.27-1.56.39-1.37.31-2.75.53-4.12.67-.69.07-1.38.11-2.07.14-.36,0-.72.02-1.07.02-2.27,0-4.38-.26-5.96-.74-2.13-.66-3.69-1.41-4.83-2.14-1.81-1.15-2.57-2.25-2.86-2.82-.61-.79-1.07-1.9-1.35-3.15-.18-.81-.29-1.69-.3-2.59-.02-.98.07-1.99.26-3.02.03-.19.07-.39.11-.59.44-2.09,1.29-4.28,2.53-6.51.14-.26.29-.52.44-.78,2.48-4.2,6.2-7.81,10.77-10.43,4.33-2.49,9.22-3.94,13.77-4.07,5.06-.15,8.63.81,10.73,1.64,2.44.96,4.34,2.31,5.09,3.61,1.5,2.49,2.12,5.47,1.79,8.59h-.03Z"/><path class="cls-5" d="m166.45,134.73c-.06-.24-.12-.48-.2-.72,0,0,0-.02,0-.04-.07-.23-.15-.45-.24-.67-.02-.04-.03-.08-.05-.12-.09-.22-.19-.44-.29-.66-.02-.04-.04-.09-.06-.13-.11-.22-.23-.44-.35-.66-.04,0-.08.02-.12.02s-.08.02-.12.02c-.32.06-.75.15-1.29.26-2.57.56-7.5,1.81-13.09,4.22-6.89,2.97-16.11,8.3-22.53,17.17-.26.36-.53.74-.78,1.11-.24.36-.48.72-.71,1.09-.02.04-.05.07-.07.11s-.05.07-.07.11c.32.53,1.57,2.15,5.41,3.55.35.13.73.26,1.12.38,1.56.48,4.05.8,7.1.62,1.9-.11,4.01-.42,6.26-1.01.13-.03.26-.06.39-.1.24-.07.49-.14.74-.21.03,0,.06-.02.09-.03.24-.07.48-.15.73-.23.04,0,.08-.03.12-.04.25-.08.49-.17.74-.26.04-.02.09-.03.13-.05.26-.09.51-.19.77-.29.04-.02.07-.03.11-.04.27-.11.55-.22.83-.34.02,0,.03,0,.04-.02.28-.12.56-.24.84-.37.03,0,.05-.02.08-.04.28-.13.56-.26.84-.41.04-.02.09-.04.13-.07.27-.14.55-.29.82-.43.05-.03.1-.05.15-.08.28-.15.55-.31.83-.48.04-.02.09-.05.13-.08.29-.17.57-.35.86-.54.02-.02.05-.03.07-.05.29-.19.58-.39.87-.59.02,0,.03-.02.05-.03.29-.21.57-.42.86-.64.04-.03.08-.06.12-.09.27-.22.55-.44.82-.67.05-.04.09-.08.14-.12.27-.23.54-.47.8-.71.04-.04.09-.08.13-.12.27-.25.54-.51.8-.78l.09-.09c.28-.29.55-.58.83-.88h0c-.2.17-.41.34-.64.52-.21.17-.44.35-.67.53-2.93,2.25-7.65,5.25-13.16,6.48-1.02.23-2.08.4-3.15.48-3.87.32-8.02-.37-12.14-2.85-.51-.3-.64-.99-.26-1.46.22-.27.44-.53.66-.8,9-10.84,18.93-16.36,24.97-18.07,3.43-.97,6.09-1.07,8.07-.84.47.05.9.12,1.3.21.04,0,.08.02.12.02s.09.02.13.03h0s0-.05-.02-.07h0l-.07.05Z"/><path class="cls-3" d="m164.4,130.76h0c-.05-.04-.1-.08-.15-.12-.02-.02-.04-.03-.06-.05s-.04-.03-.06-.05h0s-.02,0-.03-.02c-.05-.04-.09-.07-.14-.11-.06-.05-.12-.09-.19-.14-.05-.04-.1-.07-.15-.11-.11-.07-.22-.15-.34-.22-.04-.03-.09-.05-.13-.08-.09-.06-.19-.12-.29-.17-.05-.03-.11-.06-.16-.09-.12-.07-.25-.13-.38-.2-.03-.02-.06-.03-.09-.05-.16-.08-.33-.16-.5-.24-.05-.02-.11-.05-.17-.07-.06-.03-.12-.05-.19-.08h0c-.05.02-.1.04-.15.06-.05.02-.1.04-.15.06-.51.19-1.08.42-1.69.66-4.61,1.84-11.89,5.03-18.28,9.14-9.58,6.17-13.55,9.43-14.28,8.43-.05-.08-.09-.17-.11-.29-.13-.78.12-2.45.78-4.63.06-.19.12-.38.18-.58.06-.19.12-.38.19-.57h0c-.03.05-.06.1-.09.16-.06.11-.12.22-.19.33-.06.11-.12.21-.17.32-.06.11-.12.22-.17.33-.05.11-.11.21-.16.32s-.11.22-.16.32-.1.21-.15.31c-.05.11-.1.22-.15.32s-.09.21-.14.31c-.05.11-.09.21-.14.32-.04.1-.08.21-.12.31-.04.1-.08.21-.12.31s-.08.21-.11.31c-.04.1-.08.21-.11.31-.04.1-.07.21-.1.31-.03.1-.07.2-.1.3s-.06.21-.09.31c-.03.1-.06.2-.08.3-.03.1-.05.21-.08.31-.02.1-.05.19-.07.29-.02.11-.05.21-.07.32-.02.09-.04.19-.06.28-.02.11-.04.21-.05.32-.02.09-.03.18-.05.27-.02.11-.03.22-.04.33-.01.09-.02.17-.03.26-.01.11-.02.22-.03.34,0,.08-.02.16-.02.24,0,.12-.01.25-.02.37v.77c0,.24.02.47.03.69.02.22.04.44.07.65.06.46.15.89.26,1.28.18.66.41,1.2.64,1.61h0s.05-.07.07-.11.05-.07.07-.11c.25-.39.51-.78.78-1.16.05-.08.11-.15.16-.23.16-.23.32-.45.48-.68.06-.09.13-.18.2-.27.16-.22.33-.44.5-.66.07-.09.14-.18.2-.26.46-.59.94-1.17,1.44-1.74.07-.09.15-.17.22-.25.19-.21.37-.42.57-.63.08-.08.15-.17.23-.25.26-.28.52-.56.79-.83.6-.61,1.21-1.21,1.85-1.79,1.16-1.06,2.38-2.08,3.67-3.07.05-.03.09-.07.13-.1.4-.3.81-.6,1.22-.89.46-.32.92-.64,1.39-.95h0c3.09-2.02,6.1-3.25,10.84-5.45,1.23-.57,2.55-1.07,3.88-1.51.83-.28,1.67-.54,2.49-.78,2.22-.66,4.34-1.22,6.02-1.78.46-.16.89-.32,1.28-.47.04-.02.08-.03.12-.05s.08-.03.12-.05c-.08-.07-.15-.15-.24-.23v.02l-.06-.03Z"/></svg>