<?xml version="1.0" encoding="utf-8"?>
<!-- Generator: Adobe Illustrator 27.8.1, SVG Export Plug-In . SVG Version: 6.00 Build 0)  -->
<svg version="1.1" id="Layer_1" xmlns="http://www.w3.org/2000/svg" xmlns:xlink="http://www.w3.org/1999/xlink" x="0px" y="0px"
	 viewBox="0 0 344.7 344.7" style="enable-background:new 0 0 344.7 344.7;" xml:space="preserve">
<style type="text/css">
	.st0{fill:none;}
	.st1{fill:#CCCCCC;}
</style>
<rect y="0" class="st0" width="344.7" height="344.7"/>
<path class="st1" d="M28.7,229c0.8-0.9,1.3-2.1,2.6-2.4c0.2,0.2,0.2,0.4,0,0.6c-1.9,2.6-1.4,5,1.3,6.8c0,0.8-0.5,0.5-1,0.4
	c-1.5-0.1-2.1-1.4-3-2.3L28.7,229L28.7,229L28.7,229z"/>
<path class="st1" d="M190.8,151.1c0.1-0.1,0.1-0.3,0.1-0.4c0.3-0.9-0.1-1.8,0-2.7c0.1-0.1,0.2-0.1,0.3-0.1c0.7,0.1,0.7-1,1.5-0.8
	l0.1,2.1c0.3,0.8,0,1.6,0.3,2.4c0,0.1,0.1,0.2,0.1,0.3c0,0.1,0,0.1,0,0.2c-0.2,0.9,0.3,1.8,0.4,2.7c0.2,1.3,0.3,2.6,0.5,3.9
	c0.1,0.4-0.3,0.9,0.4,1c0.6,0.1,0.8-0.3,1-0.9c0.9-2,1-4.3,1.7-6.3c0.2-0.5-0.1-1.3,0.8-1.4c0.7,0,0.6,0.7,0.8,1.1
	c1,2.6,1.9,5.2,1.5,8.2c-0.2,1.8,0.8,3.6,0.5,5.5c-0.2,1.9-0.8,3.5-2.9,3.9c-1.8,0.3-3.1-0.8-3.9-3.2c-0.1-0.4-0.2-0.9-0.7-1.1
	c-0.3,1.2-0.7,2.4-1,3.6c-0.4,1.4-1.2,2.3-2.6,2.3c-1.4,0.1-2.3-0.8-2.9-2.1c-1-2.2-1.5-4.5-1.6-6.9c-0.3-7.8-2.5-15.1-6.1-22.1
	c-0.2-0.3-0.6-0.5-0.1-1c2.3-2.4,6-2,7.4,1.1c1.6,3.6,2.6,7.3,3.7,11.1c0.2,0.1,0.4,0.5,0.7,0.3C191,151.6,190.7,151.3,190.8,151.1
	L190.8,151.1L190.8,151.1z"/>
<path class="st1" d="M136.5,108.7c-0.7,0.8-0.9,1.8-0.9,2.8c-0.5,0.7-0.6,1.5-0.1,2.2c1.6,6.2,1.9,12.7,2.8,19
	c1.4,10.7,2,21.4,1.9,32.1c0,0.4,0.2,0.8-0.5,0.9c-2.6,0.6-5.9-1.6-5.9-4.2c-0.1-11.2-0.9-22.3-1.1-33.5c0-0.3,0.1-0.6,0.2-0.9
	c-0.4-3,0-5.9-0.1-8.9c0-0.8,0.1-1.6-0.2-2.3c-0.1-0.1-0.2-0.2-0.1-0.3c0.7-1.8,1.4-3.7,2.2-5.5l0.1-0.9c0.2-0.7,0.6-1.3,1.4-1.3
	C136.8,107.9,136.8,108.2,136.5,108.7L136.5,108.7L136.5,108.7z"/>
<path class="st1" d="M123.1,190.2c-1.4,0.6-1.1,2-1.2,3.1c-0.1,5.4-0.2,10.8-0.2,16.2c0,0.8,0.4,1.9-0.5,2.2
	c-0.8,0.3-1.3-0.8-1.9-1.3c-4.9-4.6-9.8-9.2-14.7-13.9c-0.2,0.2,0.2,1.1,0.2,1.9c0,3.3,0.1,6.5,0.2,9.8c0,0.9,0.2,1.8,0.8,2.5
	c-1.3,1.1-2.6,0.9-4,0.1c0.9-0.9,0.8-2,0.8-3.1c0.1-5.4,0.1-10.8,0.2-16.2c0-0.8-0.2-1.6,0-1.9c5.8,5.2,11.5,10.3,16.8,15
	c0-3.7,0-8.3,0-12.8c0-0.8-0.4-1.4-1.2-1.6c1.2-1.4,2.8-0.2,4.1-0.6C122.8,189.7,123.2,189.7,123.1,190.2L123.1,190.2L123.1,190.2z"
	/>
<path class="st1" d="M221.2,210.8c0.5-0.7,0.5-1.5,0.5-2.3c0-5.3,0-10.6,0-15.9c0-1,0.1-2.1-1.4-2.4c1.3-0.8,4.9-0.8,6.1,0
	c-0.8,0.2-0.9,0.9-1,1.6c0,2.3,0,4.6,0,6.9c3.5-2,7.6-7.3,7-9h6.7c-4.7,1.5-7.1,5.6-10.5,8.6c-0.6,0.5-0.4,1,0.1,1.5
	c3.1,3.3,5.9,6.8,9.4,9.8c1.1,0.9,2.4,1.2,3.9,1.8c-5.1,1-6.8,0.4-10-3.1c-2.1-2.4-4.2-4.8-6.7-7.6c0.1,3.7-0.6,6.9,0.6,10.1
	c0.1,0.6-0.3,0.6-0.7,0.6C224,211,222.4,212.2,221.2,210.8L221.2,210.8L221.2,210.8z"/>
<path class="st1" d="M262.6,190.2c-0.9,0.2-1.2,0.9-1.2,1.6c0,4.5-0.5,9.1,0.2,13.5c0.5,3.5,2.6,5.2,5.9,5c3.1-0.1,5.1-2,5.3-5.5
	c0.2-4.3,0-8.6,0.1-12.9c0-1.8-1.4-1.8-2.4-2.4h7.1c-2,0.5-2,2-2,3.7c-0.1,3.9,0.4,7.9-0.3,11.8c-0.9,4.8-4.3,7.2-9.5,6.9
	c-4.9-0.3-7.8-3-8-8c-0.2-3.6-0.1-7.3-0.1-10.9c0-1,0.2-2.3-1.1-2.9c0-0.2-0.1-0.5,0.2-0.5C258.7,189.9,260.7,188.9,262.6,190.2
	L262.6,190.2L262.6,190.2z"/>
<path class="st1" d="M177.9,146.1c-7,4-13.9,2.8-20.7-0.5c-2.7-1.3-4.7-3.6-6.6-5.9c-1.1-1.4,0.4-3,1.4-4.2c0.7-0.9,1.7-1.5,2.9-0.6
	c0.6,0.4,1.1,0.9,1.6,1.5c2.5,3.3,5.8,5.4,9.7,6.4c2,0.5,3.7,1.7,5.8,1.8c1.9-0.2,3.7,0.3,5.5,0.4
	C178.2,145.2,178.3,145.7,177.9,146.1L177.9,146.1L177.9,146.1z"/>
<path class="st1" d="M207.7,128.3c0.3,0.2,0.8,0.4,0.8,0.6c0.3,2.3,1.5,4.6,0.6,6.9c-1,2.9-1.5,6-2.6,8.9c-1.9,5-7.9,5.8-11.4,4.6
	c-0.7-0.2-0.8-0.5-0.6-1.1c0.5-1.5,1-2.9,1.9-4.2c0.5-0.8,1.2-1,2.1-0.7c1.1,0.3,1.9-0.2,2.4-1.3c1.2-2.4,2.7-4.7,3.9-7.1
	C206,132.8,206.8,130.6,207.7,128.3L207.7,128.3L207.7,128.3z"/>
<path class="st1" d="M156,165.9c-7.3,3.4-6.8,1.8-8.3-4.4c-1.1-4.5,0.4-8.7,2.8-12.6c0.9-1.5,1.6-3.3,1.8-5.1c0-0.4-0.2-1,0.5-1.1
	c0.5-0.1,0.8,0.3,0.9,0.8c0.8,2.2,1.9,4.4,1.1,6.6C152.6,155.7,153.2,160.9,156,165.9L156,165.9L156,165.9z"/>
<path class="st1" d="M149,210.7c0.9-3.9,0.3-7.8,0.5-11.7c0.1-2.1,0-4.3,0-6.4c0-0.5,0.2-1-0.5-1.3c-1.9-0.7-6.2,0.4-7.4,2.1
	c-0.6-0.6-0.1-1.2-0.1-1.9c0-1.6,0.6-2.2,2.4-2c4.8,0.5,9.6,0.3,14.5,0.2c2.7-0.1,2.7-0.2,2.6,2.6c0,0.4-0.1,0.9-0.3,1.4
	c-0.4-1.6-1.6-2.1-3-2.2c-1.3-0.1-2.7-0.1-4-0.1c-0.6,0-0.5,0.6-0.5,1c0,5.5,0.1,11,0.1,16.4c0,0.7,0.1,1.5,0.7,2.1
	C152.5,211.7,150,211.7,149,210.7L149,210.7L149,210.7z"/>
<path class="st1" d="M75,210.7c0.7-1.7,0.4-3.5,0.5-5.3c0-4.1,0-8.3,0-12.4c0-1.5,0.2-3.1-2-3.4h7.6c-2.1,0.5-1.9,2.2-1.9,3.8
	c0,4.6,0,9.2,0,13.8c0,1.2-0.2,2.5,0.7,3.6C78.6,211.7,76.2,211.7,75,210.7L75,210.7L75,210.7z"/>
<path class="st1" d="M69.1,234.3v-6.6c0.3-0.2,0.6-0.3,0.8-0.5c1.4,1.8,2.9,3.6,4.3,5.4l0.5-0.5c0-1.2,0.1-2.4,0-3.7
	c-0.1-0.5-0.2-0.8,0.5-0.9c0.7,0,0.5,0.4,0.5,0.9c0,2,0,4,0,6.6c-2.2-2.1-3.9-3.6-5.6-5.2c-0.5,1.1-0.3,2.3-0.1,3.5
	c0.1,0.3,0.1,0.6,0.2,0.9C69.9,234.6,69.5,234.6,69.1,234.3L69.1,234.3L69.1,234.3z"/>
<path class="st1" d="M198.4,234.4c-1.2-0.5-1.7-1.9-3.1-2.7v2.6c-1.2,0.6-1.6,0-1.6-1.2c0-1.7,0.2-3.4-0.1-5.1
	c0.4-0.8,1.5-0.6,1.5-0.2c0.2,3.2,3.2,4.2,4.7,6.4C199.4,234.7,198.9,234.6,198.4,234.4L198.4,234.4L198.4,234.4z"/>
<path class="st1" d="M176.3,101.8c0,0.2,0,0.5-0.1,0.7c-0.1,0.2-0.3,0.3-0.5,0.4c-0.7,0.3-1.5,0.3-2.2,0.1c-2.2-0.2-4.4,0.1-6.5,0.4
	c-0.8,0.1-1.6,0.2-2.3-0.2c-0.7-0.4-1.6,0-2.3-0.3h0c0.2-1.3,1.3-0.4,1.9-0.9c3.7-0.2,7.3-0.4,11-0.6
	C175.6,101.5,176,101.3,176.3,101.8L176.3,101.8L176.3,101.8z"/>
<path class="st1" d="M248,230.4c0.1-0.3,0-0.6,0.2-0.9c0.3-0.6-1-2,0.8-1.9c1.6,0.1,0.6,1.4,0.7,2c0.2,1.6-0.2,3.3,0.4,4.9
	c-1.7,0.7-2.3,0-1.9-1.8c0.1-0.5-0.1-1-0.1-1.5C247.7,230.9,247.7,230.6,248,230.4L248,230.4L248,230.4z"/>
<path class="st1" d="M97.8,232.1l0.6-4.5c0.2,0,0.3,0,0.5,0c0.7,1.2,1.2,2.4,2,3.6c0.2,0.4,0.4,0.8,1.1,1c1.3,0.5-0.8,1.2-0.4,2.2
	c-1.5-0.9-1.7-2.6-2.8-3.9c-0.1,0.6-0.2,1.1-0.2,1.5c-0.1,0.1-0.2,0.2-0.3,0.3C98.1,232.3,98,232.3,97.8,232.1L97.8,232.1
	L97.8,232.1z"/>
<path class="st1" d="M137.4,234.4c0-1,0.1-1.9,0.1-2.9c0-3,0-3-2.6-3.9h5.7c0.5,0,1,0,0.8,0.6c-0.2,0.7-0.5,0-0.8,0
	c-0.4,0-0.9-0.1-1.3-0.1c-0.6,1.6-0.2,3.4-0.3,5C138.9,234.4,138.6,234.9,137.4,234.4L137.4,234.4L137.4,234.4z"/>
<path class="st1" d="M303.2,231.2c-2.4-0.1-1.3,1.6-1.3,2.6c0.1,0.9-0.6,0.7-1,0.6c-0.5-0.1-0.5-0.6-0.5-1.1
	c-0.1-1.8,0.2-3.5-0.2-5.3c1.1-1.1,2.4-0.3,3.6-0.5c0.4-0.1,0.4,0.4,0.3,0.7c-0.1,0.5-0.3,0.2-0.6,0.1c-2.2-0.7-1.8,0.8-1.6,2
	C302.1,230.9,303.3,230.1,303.2,231.2L303.2,231.2L303.2,231.2z"/>
<path class="st1" d="M88,228.5c-2.7-0.8-2.7-0.8-2.7,2.1c0,1.1,0.1,2.2,0.1,3.3c0.1,0.6-0.3,0.7-0.7,0.7s-0.8-0.2-0.7-0.7
	c-0.2-1.9,0.3-3.8-0.3-5.7c1.2-1.3,2.6-0.4,4-0.5c0.5,0.1,1,0.1,1.3,0.5C88.7,228.5,88.2,228.3,88,228.5L88,228.5L88,228.5z"/>
<path class="st1" d="M149.9,231.2c0.1,0.9-0.4,2,0.4,2.8c-0.2,0.9-0.9,0.6-1.3,0.5c-0.7-0.1-0.7-0.6-0.5-1.1
	c-0.2-1.8,0.3-3.5-0.3-5.3c1.2-1.3,2.6-0.5,4-0.4c0,0.4,0,1-0.3,0.9c-2.5-1.3-2,0.5-2,1.9C150.2,230.7,150.2,230.9,149.9,231.2
	L149.9,231.2L149.9,231.2z"/>
<path class="st1" d="M288.9,233.8c-0.1-1.9,0.3-3.9-0.3-5.8c1.5-1.1,3.6-0.9,3.9,0.5c-2.2-1.1-2.5,0.1-2.2,1.8
	c0.3,0.3,0.3,0.6,0,0.9c0,0.9-0.3,2.8,1,2.7C291,234.4,289.4,234.8,288.9,233.8L288.9,233.8L288.9,233.8z"/>
<path class="st1" d="M259.5,234.6c-1.5,0.5-2-0.1-1.8-1.6c0.2-1.5,0.1-3,0-4.4c0-0.7,0.2-0.9,0.8-0.9c0.7,0,0.7,0.3,0.7,0.9
	C259.2,230.5,258.9,232.5,259.5,234.6L259.5,234.6L259.5,234.6z"/>
<path class="st1" d="M313.1,231.3c0,0.7,0,1.4,0,2.1c0.3,1.5-0.6,1.2-1.5,0.9c0-1.6,0.2-3.3,0-4.9c-0.1-1.6,0.3-2.2,1.9-1.9
	c0.7,0.1,1.6-0.4,2.5,0.9c-2.2-0.8-3.4-0.5-3,1.7C313.3,230.6,313.3,231,313.1,231.3L313.1,231.3L313.1,231.3z"/>
<path class="st1" d="M234.6,233.8c0.4-1.4-0.8-1.9-1.6-2.6c-1.1-1.1-1.9-2.2-0.2-3.4c0.2,0,0.4,0.1,0.5,0.3
	c-0.9,1.5,0.6,1.8,1.4,2.5c1.6,1.5,1.6,2.4-0.1,3.8C234.4,234.2,234.3,234,234.6,233.8L234.6,233.8L234.6,233.8z"/>
<path class="st1" d="M104.6,227.5c0.7,2.5,0.5,4.9,1.5,7.1c-1.1,0.1-1.7-0.4-1.9-1.4C103.6,230.5,103.8,228.6,104.6,227.5
	C104.6,227.5,104.6,227.5,104.6,227.5z"/>
<path class="st1" d="M220.2,234.4c-1.2-0.2-1.4-1.2-1.5-2.2c-0.1-1.2,0-2.5-0.1-3.8c-0.1-0.8,0.3-0.9,0.9-0.9c0.7,0,0.8,0.2,0.7,0.9
	c-0.1,1.8-0.5,3.7,0.6,5.4C220.8,234.3,220.8,234.6,220.2,234.4L220.2,234.4L220.2,234.4z"/>
<path class="st1" d="M126.7,228c-1.3,1.4,0.2,1.8,0.9,2.5c1.2,1.1,2.3,2.2,0.5,3.7c-0.2,0-0.3-0.1-0.3-0.2c0.3-1.5-0.9-2-1.7-2.8
	c-1.6-1.5-1.3-2.7,0.7-3.5c0.1,0.1,0.1,0.2,0.1,0.3S126.8,228,126.7,228L126.7,228L126.7,228z"/>
<path class="st1" d="M243,234.4c0-1.8,0.1-3.5,0.1-5.3c0-0.6-0.4-1.6,0.9-1.4c1.3,0.1,0.3,1,0.5,1.5c0.1,0.3,0,0.7,0,1.1
	c0.2,0.4,0.2,0.8,0.1,1.2c0,0.6,0,1.3,0,1.9C244.6,234.5,244.1,234.9,243,234.4L243,234.4L243,234.4z"/>
<path class="st1" d="M34.4,234.3c1.2-1.2,0.7-2.4,0.2-3.8c0.7,0.2,2.2-0.5,2.1,0.5c-0.1,1.3,1.2,3.7-1.8,3.8
	C34.7,234.6,34.4,234.6,34.4,234.3z"/>
<path class="st1" d="M88,228.5c0.2-0.3,0.6-0.4,0.9-0.4c1.6,0.5,2,1.8,1.9,3.3c-0.1,1.1-0.4,2.3-1.8,2.5C89.4,232,89.9,230,88,228.5
	L88,228.5L88,228.5z"/>
<path class="st1" d="M223.5,234.1c0.2-1.9,0.5-3.8,0.2-5.7c-0.1-0.5-0.1-0.7,0.4-0.7c0.3,0,0.6-0.1,0.8,0.3
	C225.3,228.9,224.4,233.2,223.5,234.1L223.5,234.1L223.5,234.1z"/>
<path class="st1" d="M134.7,110.1c-0.1,2.1-0.9,3.9-2.2,5.5C132.2,113.3,132.9,111.5,134.7,110.1z"/>
<path class="st1" d="M132.6,115.9c0.7,1.6,0.8,3.3,0.5,5.1c-0.3,2-0.1,4.1-0.2,6.2C132.3,123.4,132.6,119.7,132.6,115.9L132.6,115.9
	L132.6,115.9z"/>
<path class="st1" d="M300.1,228.1c0.9,1.6,0.2,3.3,0.4,5c0.1,1,0.3,1.7,1.4,0.8c0.7,0.2,1.5-0.2,2,0.5c-0.1,0.2-0.1,0.4-0.2,0.4
	c-1.2,0-2.6,0.4-3.4-0.1c-0.5-0.3-0.1-2.1-0.1-3.2C300.1,230.3,300.1,229.2,300.1,228.1L300.1,228.1L300.1,228.1z"/>
<path class="st1" d="M226.5,190.2c-2-0.6-4.1-0.5-6.1,0c-0.5,0-1.1,0.4-1.2-0.4c-0.1-0.5,0.5-0.4,0.8-0.4c2.3,0,4.6,0,6.8,0
	c0.4,0,0.9,0,0.8,0.5C227.5,190.4,227,190.3,226.5,190.2L226.5,190.2L226.5,190.2z"/>
<path class="st1" d="M262.6,190.2c-2-0.5-4.1-0.6-6.1,0c-0.6,0-1.2,0.2-2.1-0.8c3.2,0,5.9,0,8.7,0c0.3,0,0.6,0.3,0.3,0.6
	C263.2,190.2,262.9,190.1,262.6,190.2z"/>
<path class="st1" d="M31.4,227.2c0-0.2,0-0.4,0-0.6c1.3-0.7,2.6-0.3,3.9-0.3c1.5,0,1.5,0.8,1.2,2.1C35,226.6,33.2,226.5,31.4,227.2z
	"/>
<path class="st1" d="M149,210.7c1.6,0.9,3.3,0.7,4.9,0.1c0.7,0.1,1.4,0.2,2.1,0.4c0,0.1,0,0.2,0,0.3h-9
	C147.5,210.9,148.3,210.8,149,210.7L149,210.7z"/>
<path class="st1" d="M177.9,146.1c0-0.4-0.1-0.9-0.5-0.8c-1.9,0.7-3.5-0.4-5.2-0.6c2.1-0.9,4.2,0.2,6.3-0.1c0.4,0.2,0.6,0.5,0.4,1
	C178.6,145.9,178.3,146,177.9,146.1L177.9,146.1z"/>
<path class="st1" d="M75,210.7c1.6,0.8,3.2,0.7,4.9,0.1c0.7,0.1,1.4,0.2,2.1,0.4c0,0.1,0,0.2,0,0.3h-8.2
	C74,210.8,74.6,210.9,75,210.7L75,210.7L75,210.7z"/>
<path class="st1" d="M193.7,228.1c0.9,1.6,0.3,3.3,0.4,4.9c0.1,1,0.2,1.5,1.3,1.4c0.1,0,0.2,0,0.2,0c0.1,0.1,0.1,0.2,0.2,0.3
	c-1.6,0.6-2.2,0.2-2.1-1.5C193.8,231.5,193.7,229.8,193.7,228.1L193.7,228.1L193.7,228.1z"/>
<path class="st1" d="M136.5,108.7c-1-1.1-1.2,0.3-1.7,0.6c0.1-1.8,1.6-2.5,2.6-3.5c0.3,0.2,0.4,0.5,0.4,0.9
	C137.5,107.3,137.2,108.1,136.5,108.7z"/>
<path class="st1" d="M137.4,234.4c1.1,0.2,1.3-0.4,1.4-1.4c0.1-1.6-0.6-3.3,0.5-4.8c-0.2,2.1-0.5,4.3,0.2,6.5
	c-0.5,0.4-1.4,0.1-2.1,0.1c-0.1,0-0.2-0.1-0.1-0.1C137.3,234.6,137.3,234.5,137.4,234.4L137.4,234.4L137.4,234.4z"/>
<path class="st1" d="M44.4,228.1c0.9,1.6,0.3,3.2,0.3,4.9c0,1,0.2,1.5,1.3,1.4c0.1,0,0.2,0,0.2,0c0.1,0.1,0.2,0.2,0.2,0.3
	c-0.6,0.4-1.3,0.3-1.9,0.1c-1.1-0.3-0.1-1.1-0.1-1.6C44.3,231.5,44.4,229.8,44.4,228.1L44.4,228.1L44.4,228.1z"/>
<path class="st1" d="M207.3,231.3c0.1-0.1,0.2-0.1,0.4-0.1c0.6-0.1,1.1,0,1.5,0.4c0.1,0.3,0.3,0.6,0.5,0.9c-1,0-2.2-0.6-2.7,0.9
	c-0.2,0.3-0.4,0.7-0.9,0.5C206,232.8,206.6,232,207.3,231.3L207.3,231.3L207.3,231.3z"/>
<path class="st1" d="M101.8,210.9c1.3,0.5,2.7,0.6,4-0.1c0.7,0.1,1.3,0.3,1.9,0.4l0,0.4c-2.1,0-4.2,0-6.3,0c-0.4,0-0.4-0.3-0.2-0.6
	C101.3,210.9,101.6,210.9,101.8,210.9L101.8,210.9z"/>
<path class="st1" d="M59.5,231.7c0.3,0.4,1,0.6,0.9,1.3c-1-0.9-2-0.9-3,0.1c-0.3-0.1-0.3-0.3-0.5-0.6c0.2-0.6,0.3-1.3,0.8-1.8
	c0.3,0,0.5,0.1,0.7,0.2C58.8,231.2,59.2,231.3,59.5,231.7L59.5,231.7L59.5,231.7z"/>
<path class="st1" d="M122.7,189.8c-1.4,0.3-3-0.4-4.4,0.4c-0.6,0-1.2,0.3-1.7-0.6c2.1-0.4,4.1-0.1,6.1-0.1c0.2,0.1,0.2,0.1,0.2,0.2
	S122.8,189.8,122.7,189.8L122.7,189.8L122.7,189.8z"/>
<path class="st1" d="M221.2,210.8c1.4,0.9,3,0.2,4.4,0.4c0.1,0.1,0.2,0.2,0.1,0.2s-0.1,0.1-0.1,0.1h-6c0-0.1-0.1-0.2-0.1-0.3
	C220.1,211.1,220.7,210.9,221.2,210.8L221.2,210.8L221.2,210.8z"/>
<path class="st1" d="M83.9,233.8c0.5,0.6,0.9,0.7,1.4,0c0.9,0.7,2-0.1,2.8,0.5c-1.4,0.9-2.9,0.4-4.4,0.3
	C83,234.6,83.8,234.1,83.9,233.8L83.9,233.8L83.9,233.8z"/>
<path class="st1" d="M244.4,231.2c0-0.4,0.1-0.7,0.1-1.1c1.2,0.1,2.3,0.1,3.5,0.2c0,0.3,0,0.6,0,0.9c-1,0-2.1,0-3.1,0
	C244.7,231.5,244.6,231.5,244.4,231.2L244.4,231.2L244.4,231.2z"/>
<path class="st1" d="M192.7,147.1c-0.5,0.3-0.7,1.1-1.5,0.8c0.7-0.9-0.1-2.1,0.6-3c0.2-0.2,0.3-0.2,0.5-0.1
	C192.7,145.5,193,146.3,192.7,147.1L192.7,147.1L192.7,147.1z"/>
<path class="st1" d="M148.5,233.4c0.3,1.1,0.9,1.3,1.8,0.6c0.6,0,1.3-0.3,1.7,0.8c-1,0-1.9-0.1-2.8,0
	C147.6,234.9,148,234.2,148.5,233.4L148.5,233.4L148.5,233.4z"/>
<path class="st1" d="M175.7,102.7c0.2,0,0.3-0.1,0.5-0.1c1.1,0.3,2.1,0.6,3.1,1c-0.7,0.5-1.5,0.3-2.2,0.3c-0.4-0.3-0.9-0.1-1.3-0.2
	C175,103.4,175.1,103.1,175.7,102.7L175.7,102.7z"/>
<path class="st1" d="M292.5,228.6c-1.1-1.8-2.5-0.8-3.9-0.5l-0.4-0.5c1.5-0.7,3-0.5,4.4-0.1C293.1,227.6,292.9,228.2,292.5,228.6
	L292.5,228.6L292.5,228.6z"/>
<path class="st1" d="M244.4,231.2c0.1,0,0.3,0,0.4,0c-0.2,1.1-0.3,2.3,0.4,3.4c-0.7,0.4-1.5,0.1-2.2,0.2c-0.1,0-0.2-0.1-0.1-0.1
	c0-0.1,0.1-0.2,0.1-0.3C245.7,234.3,243.7,232.2,244.4,231.2L244.4,231.2L244.4,231.2z"/>
<path class="st1" d="M288.9,233.8c0.5,0.7,1.8,0.7,2.4,0.2c0.6,0,1.3-0.3,1.7,0.8c-1.2,0-2.9,0.1-4,0
	C287.7,234.6,288.8,234.1,288.9,233.8L288.9,233.8L288.9,233.8z"/>
<path class="st1" d="M98.2,232.1c0.1,0,0.2,0,0.3,0c0,0.5,0.1,1,0,1.5c-0.1,0.4,0.8,0.9-0.1,1.2c-0.4,0.1-0.8,0-1.3-0.1
	c0.1-0.5,0.2-0.9,0.3-1.4c0-0.1,0.2-0.2,0.2-0.4c0.2,0.1,0.2,0.3,0.2,0.5c0.2-0.1,0.1-0.3,0.1-0.4C98,232.8,97.9,232.4,98.2,232.1
	C98.2,232.1,98.2,232.1,98.2,232.1z"/>
<path class="st1" d="M164.2,102.2c-0.5,0.7-1.5,0.1-1.9,0.9l-0.1,0.1l-0.1-0.1c-0.8-0.1-1.6-0.2-2.4-0.3c-0.4,0.1-0.7,0-0.9-0.3
	C160.5,101.8,162.4,102.3,164.2,102.2L164.2,102.2L164.2,102.2z"/>
<path class="st1" d="M181.1,231.2c0.1,0.3,0.3,0.6,0.4,0.9c-0.1,0.4-0.3,0.9-0.4,1.3c-0.3,0.6-0.4,1.6-1.4,0.9
	C180.1,233.3,180.6,232.2,181.1,231.2L181.1,231.2L181.1,231.2z"/>
<path class="st1" d="M149.9,231.2c0-0.3,0-0.5,0-0.8c0.7,0.4,2.2-0.6,2.1,0.5C151.9,232.1,150.5,230.5,149.9,231.2L149.9,231.2
	L149.9,231.2z"/>
<path class="st1" d="M175.7,102.7c-0.5,1.6,1.4,0.3,1.4,1.2c-1.3,0.1-2.5,0.1-3.6-0.7C174.2,103,175,102.8,175.7,102.7L175.7,102.7z
	"/>
<path class="st1" d="M290.8,189.9c1.6,0.8,1.5,1.9,0.5,3.1c-0.4,0.2-0.5,0-0.6-0.3c0-0.8,0.1-1.5,0-2.3
	C290.6,190.2,290.6,190,290.8,189.9L290.8,189.9L290.8,189.9z"/>
<path class="st1" d="M152.1,227.7c-1.3,0.2-2.7-0.4-4,0.4c-0.4-0.2-0.5-0.7,0-0.7C149.5,227.3,150.9,226.8,152.1,227.7L152.1,227.7
	L152.1,227.7z"/>
<path class="st1" d="M87.5,227.6c-1.3,0.4-2.7-0.4-4,0.5c-0.6-0.4-0.4-0.8,0.2-0.8C85,227.3,86.3,226.9,87.5,227.6z"/>
<path class="st1" d="M290.3,231.3c0-0.3,0-0.6,0-0.9c0.7,0.1,1.5,0.1,2.2,0.2c0,0.1,0,0.3,0,0.4C291.7,231.1,291,231.2,290.3,231.3
	L290.3,231.3L290.3,231.3z"/>
<path class="st1" d="M116,231.6c0.2,0.4,0.3,0.7,0.5,1.1c-0.9-0.4-1.7-0.3-2.6-0.1c-0.3-0.6,0.1-0.9,0.5-1.2
	C114.9,231.1,115.4,231.3,116,231.6L116,231.6z"/>
<path class="st1" d="M199.3,227.9c-1,0.4-1.4,1.5-2.6,1.6C197.4,228.5,197.5,227.1,199.3,227.9z"/>
<path class="st1" d="M127.7,233.9c0.1,0.1,0.2,0.2,0.4,0.2c-1,0.9-2,0.8-3.1,0.2c-0.1-0.5,0.1-0.6,0.5-0.5
	C126.2,234.3,126.9,234.3,127.7,233.9L127.7,233.9z"/>
<path class="st1" d="M303.2,231.2c-0.2-0.7-1.2-0.2-1.4-0.9c0.7,0,1.4-0.1,2,0.1c0.5,0.1,0.4,0.9,0.2,1.1
	C303.6,232,303.4,231.5,303.2,231.2L303.2,231.2L303.2,231.2z"/>
<path class="st1" d="M190.9,148c0.2,0.9,0.9,1.8,0,2.7C190.5,149.8,190.2,148.9,190.9,148z"/>
<path class="st1" d="M313.1,231.3c0-0.4,0-0.7,0-1.1c0.7,0.1,1.4,0.3,2.2,0.4C314.6,231.6,313.7,231.1,313.1,231.3L313.1,231.3z"/>
<path class="st1" d="M114.3,231.6c-0.2,0.3-0.3,0.6-0.4,1c-0.2,0.3-0.3,0.6-0.4,0.9c-0.3,0-0.3-0.3-0.4-0.5c0.3-0.7,0.6-1.5,0.9-2.2
	c0.2,0,0.3,0,0.5,0C114.5,231.1,114.5,231.4,114.3,231.6L114.3,231.6L114.3,231.6z"/>
<path class="st1" d="M190.8,151.1c-0.1,0.5,1.1,0.4,0.5,1.1c-0.2,0.2-0.5,0.5-0.6,0.5c-0.6-0.2-0.7-0.6-0.6-1.2
	C190.4,151.3,190.6,151.2,190.8,151.1L190.8,151.1L190.8,151.1z"/>
<path class="st1" d="M70.1,233.4c-0.7-1.1-0.4-2.4-0.2-3.6c0,0,0.1-0.1,0.2-0.1c0.1,0,0.1,0.1,0.2,0.1L70.1,233.4z"/>
<path class="st1" d="M156.2,102.9c-0.6,0.3-1.6,0.8-1.7-0.2c-0.1-1.2,1.2,0,1.7-0.6C156.4,102.4,156.4,102.7,156.2,102.9
	L156.2,102.9L156.2,102.9z"/>
<path class="st1" d="M159.8,102.6c0.8,0.1,1.6-0.4,2.3,0.4c-0.8,0.7-1.6,0.2-2.3-0.1c-0.1-0.1-0.1-0.2-0.1-0.3
	C159.7,102.7,159.8,102.6,159.8,102.6L159.8,102.6z"/>
<path class="st1" d="M193.6,154.6c-0.2-0.9-1.6-1.6-0.4-2.7C193.5,152.8,193.6,153.7,193.6,154.6z"/>
<path class="st1" d="M137.8,106.6c-0.1-0.3-0.3-0.6-0.4-0.9c0.2-0.4,0.4-1.2,1-0.5C139,105.9,138.3,106.2,137.8,106.6
	C137.8,106.6,137.8,106.6,137.8,106.6z"/>
<path class="st1" d="M233.3,228.1c-0.2-0.1-0.3-0.2-0.5-0.3c0.6-0.4,1.3-0.7,2.1-0.3C234.6,228.4,233.8,227.9,233.3,228.1
	L233.3,228.1L233.3,228.1z"/>
<path class="st1" d="M135.6,113.7c-1.4-0.8-0.9-1.5,0.1-2.2C135.6,112.2,135.6,112.9,135.6,113.7z"/>
<path class="st1" d="M290.7,192.6l0.5,0.3c-0.7,1.1-1.6,1.1-2.7,0.8c-0.1-0.1-0.1-0.2-0.1-0.3s0.1-0.2,0.1-0.2
	c0.6-0.4,1.2-0.7,1.8-0.9C290.5,192.3,290.7,192.4,290.7,192.6L290.7,192.6L290.7,192.6z"/>
<path class="st1" d="M220.2,234.4c0.2-0.2,0.4-0.3,0.6-0.5c0.9,0.6,1.9-0.1,2.8,0.1c0,0,0-0.1,0,0
	C222.5,235.1,221.4,235,220.2,234.4L220.2,234.4L220.2,234.4z"/>
<path class="st1" d="M311.6,234.3c0.8,0.1,1.4,0,1.5-0.9c0.2,0.4,0.8,1.1,0.4,1.2c-0.6,0.3-1.4,0.1-2.1,0.1c-0.1,0-0.1-0.1-0.2-0.1
	C311.2,234.3,311.4,234.4,311.6,234.3L311.6,234.3z"/>
<path class="st1" d="M206.1,233.9c0.3-0.1,0.6-0.3,0.9-0.5c0.5,2.1-1,1.1-1.9,1.1C205.4,234.4,205.7,234.1,206.1,233.9L206.1,233.9z
	"/>
<path class="st1" d="M156.2,102.9c0-0.2,0-0.5,0-0.8c0.6,0.1,1.2,0.3,1.8,0.4c0.3,0.2,0.5,0.3,0.4,0.7
	C157.7,103.2,156.9,103.1,156.2,102.9z"/>
<path class="st1" d="M288.5,189.9c0-0.2-0.1-0.4-0.1-0.5c0.8-0.6,1.5-0.6,2.2,0.1C290.1,190.4,289.3,190.4,288.5,189.9L288.5,189.9z
	"/>
<path class="st1" d="M234.6,233.8c0,0.2,0,0.4,0.1,0.6c-0.9,0.6-1.8,0.7-2.7-0.1c0.1-0.2,0.2-0.4,0.5-0.4
	C233.1,234.3,233.8,234.4,234.6,233.8L234.6,233.8z"/>
<path class="st1" d="M225.7,211.6v-0.4c0.1-0.1,0.3-0.3,0.4-0.4c0.7,0.1,1.4,0.3,2.1,0.4c0,0.1,0,0.2,0,0.4L225.7,211.6L225.7,211.6
	z"/>
<path class="st1" d="M153.6,102.4c-0.4,0.8-1,0.8-1.7,0.4C152.4,102,152.9,102,153.6,102.4z"/>
<path class="st1" d="M192.4,144.8c-0.2,0-0.4,0-0.5,0.1c-0.3-0.5-0.4-1,0.2-1.3c0.1-0.1,0.5-0.1,0.5-0.1
	C192.7,143.9,192.9,144.4,192.4,144.8L192.4,144.8L192.4,144.8z"/>
<path class="st1" d="M57.2,233.9c-0.1,0.6-0.6,0.9-1.7,0.8c0-0.5,0.5-0.6,0.8-0.9C56.6,233.9,56.9,233.6,57.2,233.9L57.2,233.9z"/>
<path class="st1" d="M34.4,234.3c0.2,0.1,0.3,0.3,0.5,0.4c-1.1,0.1-2.2,0.3-3.2-0.3c0.3-0.1,0.6-0.3,1-0.4
	C33.2,234.1,33.8,234.2,34.4,234.3z"/>
<path class="st1" d="M179.6,234.3c0.8,0.2,1-0.5,1.4-0.9c0.1,0.4,0.2,1.1,0.1,1.2c-0.6,0.2-1.4,0.4-2-0.1c0,0,0-0.1,0.1-0.1
	C179.3,234.4,179.5,234.3,179.6,234.3L179.6,234.3L179.6,234.3z"/>
<path class="st1" d="M158.4,103.3c-0.1-0.2-0.3-0.5-0.4-0.7c0.3,0,0.5-0.1,0.8-0.1c0.4,0.1,0.7,0.1,1.1,0.2c0,0.1-0.1,0.2-0.1,0.4
	C159.4,103.5,158.9,103.4,158.4,103.3L158.4,103.3L158.4,103.3z"/>
<path class="st1" d="M122.7,189.8v-0.3c0.6,0,1.4-0.4,1.5,0.3c0.2,0.8-0.7,0.5-1.1,0.5C123,190.1,122.9,189.9,122.7,189.8
	L122.7,189.8L122.7,189.8z"/>
<path class="st1" d="M178.9,145.8c-0.1-0.3-0.3-0.6-0.4-1c0.6-0.6,1,0,1.4,0.3L178.9,145.8L178.9,145.8z"/>
<path class="st1" d="M176.3,101.8c-0.4-0.1-0.7-0.1-1.1-0.2c1.1-0.3,2.2-0.4,3.3-0.3C177.8,102,177,101.6,176.3,101.8L176.3,101.8
	L176.3,101.8z"/>
<path class="st1" d="M125.4,233.8c-0.2,0.2-0.3,0.4-0.5,0.5c-0.6-0.5-0.6-1.2-0.1-1.5C125.6,232.5,125.3,233.4,125.4,233.8
	L125.4,233.8z"/>
<path class="st1" d="M232.4,233.9c-0.1,0.1-0.3,0.3-0.5,0.4c-0.6-0.4-0.6-1.1-0.1-1.4C232.2,232.7,232.3,233.5,232.4,233.9
	L232.4,233.9z"/>
<path class="st1" d="M58,231.2c-0.1-0.1-0.3-0.3-0.4-0.4c0.2-0.4,0.3-0.9,0.5-1.3c0.1,0.1,0.2,0.3,0.3,0.4
	C59,230.5,58.7,231,58,231.2L58,231.2z"/>
<path class="st1" d="M57.2,233.9c-0.3,0.2-0.6,0.6-0.9-0.1c0.2-0.4,0.4-0.8,0.6-1.3c0.2,0.2,0.3,0.4,0.5,0.6
	C57.2,233.4,57.2,233.6,57.2,233.9z"/>
<path class="st1" d="M49.1,234.4c0.4-0.1,0.8,0,1-0.5c0.3,0.2,0.7,0.4,1.2,0.7C50.4,234.9,49.7,235,49.1,234.4L49.1,234.4z"/>
<path class="st1" d="M287.9,190.2c-0.3,0.7-0.3,1.5-0.2,2.2c-0.2,0.2-0.3,0.2-0.5,0C287,191.6,286.4,190.6,287.9,190.2L287.9,190.2z
	"/>
<path class="st1" d="M113.4,234.3c-0.6,0.5-1.4,0.6-1.5,0.3c-0.1-0.4,0.4-0.5,0.6-0.7C112.8,233.9,113.1,234.1,113.4,234.3
	L113.4,234.3z"/>
<path class="st1" d="M126.7,228c0-0.1,0-0.3,0-0.4c0.3-0.4,0.7-0.4,1.1-0.1c0.1,0.1,0.1,0.3,0.1,0.4
	C127.6,228.2,127.1,228.1,126.7,228L126.7,228L126.7,228z"/>
<path class="st1" d="M140.2,104.3c-0.1,0.1-0.3,0.3-0.5,0.4c-0.3,0.1-0.6-0.1-0.7-0.4c0-0.1,0.2-0.3,0.4-0.3
	C139.8,103.9,140.1,103.8,140.2,104.3L140.2,104.3z"/>
<path class="st1" d="M69.1,234.3h1.1c0.2,0.1,0.3,0.2,0.5,0.3c-0.7,0.3-1.3,0.3-2,0c0,0,0-0.1,0-0.2C68.8,234.4,69,234.3,69.1,234.3
	L69.1,234.3L69.1,234.3z"/>
<path class="st1" d="M113.4,234.3c-0.4,0-0.8,0-0.9-0.5l0.5-0.9c0.1,0.2,0.3,0.3,0.4,0.5L113.4,234.3L113.4,234.3L113.4,234.3z"/>
<path class="st1" d="M98.2,232.1c-0.1,0.6-0.1,1.2-0.2,2.5c-0.2-1-0.2-1.3-0.3-1.6c0.1-0.3,0.1-0.6,0.1-0.8L98.2,232.1L98.2,232.1z"
	/>
<path class="st1" d="M46,233.9c-0.4-0.8-0.7-1.5,0.2-2.2C46.1,232.5,46,233.2,46,233.9z"/>
<path class="st1" d="M287.2,192.5h0.5c0.3,0.2,0.5,0.3,0.8,0.5l0.1,0.1l-0.1,0.2c0,0.2,0,0.3,0,0.5
	C287.8,193.6,287.3,193.2,287.2,192.5L287.2,192.5L287.2,192.5z"/>
<path class="st1" d="M193,151.5c-0.6-0.7-0.3-1.6-0.3-2.4C193.4,149.9,193.2,150.7,193,151.5z"/>
<path class="st1" d="M162.3,103.1c0.8-0.1,1.6-0.4,2.3,0.3C163.9,103.3,163,103.7,162.3,103.1z"/>
<path class="st1" d="M198.4,234.4c0.5,0,1-0.1,1.5-0.1c0.2,0.1,0.8,0.1,0.4,0.3C199.7,235,199,234.9,198.4,234.4L198.4,234.4
	L198.4,234.4z"/>
<path class="st1" d="M178.4,101.3c1.9-0.2,3.8-0.4,5.7-0.6c1.1-0.1,2.1-0.3,2.9-1.2c1.6-1.6,3.6-0.7,6.1-0.5
	c-2.9-2.7-1.6-5.4-1.2-8.7c1,1.3,1.7,2.3,2.4,3.3c1.6,2.1,3.4,2.6,5.8,1.5c1.6-0.7,3.2-1.1,4.9-0.8c2.6,0.4,5.1-0.5,7.7-0.3
	c1.1,0.1,1.7-1.1,2.5-1.6s1.6-1.2,2.8-2.2c-0.4,3-0.8,5.5-1.9,8c3.3-0.5,5.9,0.3,8.1,2.7c0.6,0.7,0.7,1.1,0.1,1.8
	c-2.4,3.2-4.8,6.3-9.3,6.4c-1,0-0.8,0.7-0.8,1.3c0.5,3.6-1.5,7.1-0.8,10.8c0.3,1.7-1.1,2.9-2.6,3.4c-3.7,1.1-7.3,1.1-10.7-1
	c-1.1-0.6-1.6-1.5-1.7-2.7c-0.3-2.4-0.6-4.8-1-7.2c-0.2-0.9-0.6-1.6,0.6-2.1c1.2-0.5,2.1-0.1,2.7,0.8c1.2,1.8,1.7,3.9,2.4,5.9
	c0.5,1.6,3.9,2.9,5.1,1.9c0.1-0.1,0.3-0.4,0.3-0.6c-0.4-2.6,1.1-4.9,1-7.4c-0.1-2.6,0.1-5.1,1.9-7.1c0.6-0.8,0.1-1-0.4-1.3
	c-1.6-1.2-2.9-2.6-3.3-4.6c-0.1-0.3-0.3-0.7-0.4-0.7c-2.1,0-4.2-1.1-6.2,0.4c-0.2,0.2-0.7,0.3-0.5,0.6c0.9,1.8,0,3.4-0.3,5.1
	c-0.2,1,0.8,1.9,2,2c1.5,0.1,1.5,1.1,1.3,2.2c-0.2,1.6-1.4,0.7-2.1,0.7c-1.7,0-2.6-2.1-4.6-1.7c0.3-1.4,1.1-2.4,2.1-3.6
	c-3.1-0.9-6.1-1.8-9-2.6c-0.7-0.2-1.2-0.3-1.4,0.7c-0.3,1.2-0.9,1.1-2.2,0.9c-2.3-0.3-4.8,0.1-7.2,0.2c-1.2,0-2.4,0.2-3.3-0.8
	c-0.2-0.3-0.2-0.7,0-1C176.8,101.2,177.7,101.7,178.4,101.3L178.4,101.3L178.4,101.3z M218.6,102.6c-1.3,0.1-2.1,0.5-3.1,1.8
	C217.1,104.3,217.9,103.8,218.6,102.6z"/>
<path class="st1" d="M201.2,200.1c0,7-5.1,12-12.2,11.9c-6.8-0.1-11.6-4.8-11.6-11.4c0-6.7,4.9-11.5,12.1-11.5
	C196.6,189.1,201.2,193.4,201.2,200.1L201.2,200.1L201.2,200.1z M184.9,208.5c3.5,3.1,8.7,2.5,10.8-1.1c2.2-3.7,1.8-10.3-0.9-13.7
	c-2-2.6-5.3-3.7-8.3-2.9c-2.7,0.7-4.5,3.1-4.9,6.5c-0.1,0.7-0.1,1.5-0.1,1.9C181.4,203,182.2,206.1,184.9,208.5L184.9,208.5z"/>
<path class="st1" d="M278.6,226.8c1.7-0.1,2.4,0.5,1.5,2.2c-0.4,0.7-0.1,1.1,0.4,1.6c1.4,1.4,1.3,2.7-0.5,3.7
	c-0.3-0.1-0.3,0.1-0.7,0.3c-0.2,0,0.1,0.1-0.8,0.2c-0.6,0-0.4,0-0.9,0c-0.8-0.1-1-0.1-1.6-0.5c0.2-2.6,0.3-5.2-0.1-7.9
	C276.7,226.4,277.7,225.9,278.6,226.8 M280,232.2c-0.2-0.9-0.7-1.8-1.6-1.8c-1.3,0.1-0.6,1.2-0.7,1.9c-0.1,0.5,0.1,1,0.2,1.5l1.8,0
	C280,233.4,280.1,232.8,280,232.2L280,232.2L280,232.2z M278.7,226.8c-1.9,0.2-0.8,1.6-1,2.5c-0.1,0.4,0.4,0.6,0.8,0.4
	c1.1-0.5,0.6-1.5,0.5-2.3C279,227.2,278.8,227,278.7,226.8L278.7,226.8L278.7,226.8z"/>
<path class="st1" d="M166.1,234.6c-1.3,0.3-2.1-0.4-2.9-1.3c-0.5-0.6-0.8-1.9-1.7-1.4c-0.9,0.5-0.4,1.7,0,2.6
	c-1.4,0.5-2.1,0.2-1.8-1.5c0.2-1.1-0.1-2.2,0.1-3.3c0.1-0.7-0.7-1.8,0.4-2c1.2-0.2,2.5-0.5,3.6,0.4c0.4,0.3,0.8,1,0.5,1.4
	C162.4,232.1,164.9,233.1,166.1,234.6L166.1,234.6L166.1,234.6z M161.9,231.2c1,0.1,1.2-0.7,1.2-1.5c0-0.8-0.3-1.5-1.2-1.6
	c-1.1-0.1-0.7,0.8-0.9,1.4C161.3,230.1,160.7,231.1,161.9,231.2L161.9,231.2z"/>
<path class="st1" d="M44.4,228.1c1.2-1,2.5-0.5,3.7-0.2c0.8,0.2,1.5,1.3,0.9,1.9c-1.7,2,0.1,2.9,1,4.1c0,0.9-0.5,0.7-1,0.5
	c-1.3-0.5-1.4-2.4-3-2.6c-0.7,0.7-0.3,1.4-0.2,2.2c0,0.1,0.1,0.3,0.1,0.4c-1.2,0.6-1.5-0.1-1.6-1.2
	C44.5,231.5,44.7,229.8,44.4,228.1L44.4,228.1L44.4,228.1z M45.9,229.4c0.1,0.6-0.5,1.6,0.7,1.8c0.9,0.1,1.2-0.6,1.3-1.4
	c0-0.8-0.3-1.4-1.2-1.6C45.7,228.1,45.9,228.9,45.9,229.4L45.9,229.4L45.9,229.4z"/>
<path class="st1" d="M181.1,231.2c0.6-1.6,1.2-3.3,2-5.3c1.8,3,2.3,6.2,4.1,8.8c-1.1,0.1-2.1,0.3-2.4-1.2c-0.4-2.1-1.7-2.1-3.3-1.4
	C180.7,232.1,180.9,231.7,181.1,231.2L181.1,231.2L181.1,231.2z M182,231c1.4,0.1,1.7-0.7,0.9-2.3C182.4,229.7,182.2,230.4,182,231z
	"/>
<path class="st1" d="M207.3,231.3c-0.3-1.5,0.8-2.4,1.3-4c1.5,2.6,2.1,5.2,3.6,7.3c-2,0.8-2.1-0.9-2.6-2.1c-0.3-0.2-0.7-0.4-0.9-0.8
	c-0.2-0.3-0.2-0.7-0.3-1c-0.3,0.1-0.3,0.5-0.6,0.6C207.7,231.4,207.5,231.4,207.3,231.3L207.3,231.3L207.3,231.3z M208.5,229.6
	c-0.3,0.7-0.6,1.2-0.8,1.6c0.3,0.7,0.9,0.4,1.5,0.4C209.2,230.9,208.8,230.4,208.5,229.6L208.5,229.6z"/>
<path class="st1" d="M113.9,230.8c0.2-1.2,0.9-2.2,1.6-3.5c1.2,2.6,2.2,5,3.3,7.4c-1.7,0.6-2-0.7-2.3-1.9c-0.2-0.4-0.6-0.5-0.8-0.8
	c-0.3-0.5-0.6-0.9-1.3-0.8C114.2,231,114,230.9,113.9,230.8L113.9,230.8z M116,231.6c-0.3-0.5-0.2-1.4-0.8-1.6
	c-0.5-0.2-0.4,0.6-0.8,0.8c0,0.3-0.1,0.6-0.1,0.8C114.8,231.6,115.4,231.6,116,231.6L116,231.6L116,231.6z"/>
<path class="st1" d="M58.2,229.5c0.2-0.7,0.3-1.4,1.1-1.9c1,2.4,2.1,4.7,3.2,7c-1.4,0.6-1.9-0.2-2.1-1.6c-0.2-0.6-0.9-0.7-1.2-1.2
	c-0.2-0.5-0.3-1.1-0.7-1.6C58.3,230,58.3,229.7,58.2,229.5L58.2,229.5L58.2,229.5z M59.4,231.7c0-0.8,0-1.5-0.9-1.8
	c-0.2,0.4-0.3,0.9-0.5,1.3C58.3,231.9,59,231.6,59.4,231.7L59.4,231.7z"/>
<path class="st1" d="M290.2,191.9c0.1-0.4,0.1-0.8,0.2-1.3c0.1-0.1,0.2-0.3,0.3-0.4c0.6,0.8,0.8,1.6,0,2.4l-0.2-0.1l-0.2,0
	C290.1,192.4,290.1,192.2,290.2,191.9L290.2,191.9L290.2,191.9z"/>
<path class="st1" d="M290.2,191.9c0,0.2,0.1,0.5,0.1,0.7c-0.4,0.7-1,0.9-1.8,0.7c0-0.1,0-0.2-0.1-0.4
	C289,192.5,289.4,191.8,290.2,191.9L290.2,191.9z"/>
</svg>
