<?xml version="1.0" encoding="utf-8"?>
<!-- Generator: Adobe Illustrator 27.8.1, SVG Export Plug-In . SVG Version: 6.00 Build 0)  -->
<svg version="1.1" id="Layer_1" xmlns="http://www.w3.org/2000/svg" xmlns:xlink="http://www.w3.org/1999/xlink" x="0px" y="0px"
	 viewBox="0 0 344.7 344.7" style="enable-background:new 0 0 344.7 344.7;" xml:space="preserve">
<style type="text/css">
	.st0{fill:none;}
	.st1{fill:#CCCCCC;}
</style>
<rect y="0" class="st0" width="344.7" height="344.7"/>
<path class="st1" d="M49.7,114.2c0.6,0.2,1.3,0.3,1.9,0.5c1.1,0.4,2,1,2.8,1.9c1.2,1.6,1.1,3.3-0.4,4.7c-1.1,1-2.5,1.5-4,1.5
	c-3,0.1-5.7-0.8-8.2-2.3c-0.3-0.2-0.6-0.4-1-0.6c-0.9,1.3-1,2.7-0.5,4.1c0,0.1,0.3,0.3,0.5,0.3c0.8,0.1,1.5,0.2,2.2,0.4
	c0.4,0.1,0.7,0.3,1.1,0.5c0.5,0.3,0.8,0.8,0.6,1.3c-0.2,0.6-0.8,0.6-1.3,0.6c-1.2-0.1-2.2-0.5-3-1.3c-0.3-0.3-0.7-0.4-1.1-0.3
	c-3.3,0.8-6.2,2.6-8.8,4.8c-3,2.5-5.4,5.4-6.8,9.1c-0.6,1.6-1,3.4-0.5,5.1c0.7,2.6,2.7,4,5.2,4.7c2.9,0.9,5.7,0.4,8.4-0.5
	c3.4-1.1,6.3-2.9,8.5-5.9c1.1-1.6,1.8-3.4,2-5.3c0.1-0.8-0.1-1.8-0.5-2.5c-1.2-2.2-3-3.4-5.5-3.5c-4.1-0.1-7.5,1.6-10.2,4.6
	c-1.3,1.4-2.4,3.1-3.6,4.8c0.1-0.2,0.1-0.4,0.2-0.5c2.3-4.3,5.5-7.6,10.3-9c1.9-0.6,3.9-0.6,5.8-0.1c3.9,1.1,6.1,5.2,4.8,9.2
	c-1,3.2-3.2,5.4-5.8,7.2c-3.5,2.4-7.5,3-11.7,2.8c-4.6-0.2-8-2.3-10.3-6.3c-2.1-3.8-1.5-8.2,1.4-11.6c2.4-2.8,5.4-4.5,8.7-5.9
	c2.7-1.1,5.4-1.9,8.4-2.2c-0.8-1.8-1-3.5,0-5.3c-3-1.8-6-3.4-9.6-3.5c-1.2,0-2.3,0.2-3.3,0.9c-1,0.8-1.5,1.8-1.2,2.8
	c0.3,1,1.2,1.7,2.5,1.8c1,0,1.9-0.1,2.9-0.2c0.1,0,0.2,0,0.4,0.1c-1.4,0.2-2.8,0.6-4.1,0.1c-1.9-0.7-2.5-2.5-1.2-4.2
	c0.9-1.2,2.2-1.7,3.6-1.8c2.1-0.1,4.1,0.3,5.9,1.1c1.4,0.6,2.7,1.3,4,1.9c0.3,0.1,0.5,0.2,0.7-0.1c2-2.3,4.5-3.6,7.5-3.9
	c0.1,0,0.2-0.1,0.2-0.1L49.7,114.2L49.7,114.2z M41,119.4c2.2,1.4,4.5,2.4,7.1,2.3c1.7-0.1,3.3-0.4,4.7-1.5c1.1-0.8,1.3-1.8,0.6-3
	c-0.7-1.1-1.7-1.8-3-2.2C47.4,114.1,43.3,115.4,41,119.4z M40.7,125.2c0.7,0.8,1.4,1.4,2.3,1.5c0.4,0.1,1-0.2,1.2-0.4
	c0.2-0.4-0.2-0.8-0.7-1C42.6,124.9,41.7,125,40.7,125.2z"/>
<path class="st1" d="M153,195.9c-1.2,1.1-2.4,2.3-3.7,3.4c-1,0.8-2.2,1.4-3.5,1.4c-2.2,0-3.6-1.3-3.9-3.5c0-0.2-0.1-0.4-0.1-0.6
	c-1.1,0.8-2.2,1.7-3.4,2.4c-1.7,1-3.5,1.8-5.5,1.7c-3,0-5.2-2-5.5-5c0-0.1,0-0.2-0.1-0.5c-0.3,0.3-0.5,0.5-0.7,0.7
	c-1.8,1.9-3.7,3.6-6.3,4.2c-0.8,0.2-1.7,0.3-2.5,0.1c-1.8-0.3-2.8-1.5-3.2-3.3c-0.6,0.4-1.1,0.9-1.6,1.3c-1.9,1.4-4.1,2.4-6.6,2.4
	c-2.4,0-4.9-1.4-5.1-4.6c-0.5,0.5-1,1-1.5,1.4c-0.9,0.7-1.8,1.5-2.8,2.1c-2.3,1.4-6.1,1.3-7.1-2.6c-0.7,0.5-1.3,1-2,1.5
	c-1.5,1.1-3.1,1.9-5,1.9c-2.2,0.1-3.8-1.2-4.2-3.4c0-0.1,0-0.2-0.1-0.4c-0.8,0.6-1.5,1.2-2.2,1.8c-2,1.4-4.2,2.3-6.7,2.1
	c-2.5-0.2-4-1.7-4.2-4.2c-0.1-1.8,0.3-3.4,1.1-5c2.5-5.2,6.2-9.2,11.4-11.8c1.7-0.9,3.6-1.2,5.5-1.1c1.4,0.1,2.6,0.6,3.3,1.9
	c0.1,0.1,0.2,0.3,0.4,0.5c0.5-0.7,0.9-1.4,1.3-2c0.2-0.3,0.4-0.4,0.8-0.4c1.4,0.1,2.8,0.2,4.2,0.2c-0.6,1.1-1.3,2.3-1.9,3.5
	c-2.8,5.1-5.7,10.1-8.5,15.2c-0.5,1-0.4,1.7,0.5,2c0.3,0.1,0.7,0.1,1,0c2.6-0.7,4.5-2.4,5.8-4.7c4.9-9.2,9.7-18.4,14.5-27.6
	c0.4-0.8,0.8-1.7,1.3-2.5c0.1-0.1,0.3-0.4,0.4-0.3c1.5,0.4,3.1,0.2,4.7-0.2c-0.8,1.6-1.6,3.1-2.3,4.6c-4.1,8.1-8.3,16.1-12.4,24.2
	c-0.7,1.4-1.4,2.8-2.2,4.3c-0.1,0.3-0.3,0.6-0.3,0.9c-0.2,1.1,0.7,1.9,1.7,1.4c2.4-1.1,4.3-2.7,5.6-4.9c0.2-0.4,0.3-0.9,0.5-1.4
	c0.6-2.3,1.9-4.2,3.3-6.1c2.4-3,5.2-5.6,8.7-7.3c1.8-0.9,3.8-1.4,5.9-1.2c1.4,0.1,2.4,0.9,3,2.1c0.1,0.1,0.2,0.3,0.3,0.5
	c0.5-0.7,0.9-1.4,1.3-2.1c0.1-0.1,0.4-0.3,0.5-0.3c1.5,0.4,2.9,0.5,4.5,0c-0.1,0.3-0.2,0.4-0.3,0.6c-3.3,6-6.7,12.1-10,18.1
	c-0.3,0.5-0.6,1-0.1,1.6c0.4,0.5,1,0.6,1.7,0.4c1.7-0.5,3.1-1.7,4.3-2.9c1.2-1.1,2.1-2.4,2.6-4.1c1.1-3.3,3.1-6.1,5.5-8.6
	c1.8-1.9,3.9-3.6,6.4-4.5c1.3-0.5,2.6-0.8,4-0.6c1.2,0.2,1.8,0.8,1.9,2c0.1,0.9-0.1,1.8-0.5,2.7c-0.6,1.2-1.4,2.2-2.4,3
	c-0.4,0.3-0.8,0.6-1.3,0.3c-0.6-0.3-0.6-0.8-0.6-1.4c0.1-1.9,1.1-3.4,2.5-4.6c0.4-0.3,0.9-0.5,1.4-0.8c-0.2-0.6-0.7-0.9-1.6-0.7
	c-1.1,0.2-1.9,0.8-2.6,1.5c-4.2,4-7.3,8.8-9,14.4c-0.3,1.1-0.3,2.2,0.1,3.2c0.4,1.1,1.2,1.6,2.3,1.4c2.7-0.4,4.9-1.9,6.9-3.7
	c1-0.9,1.8-2.1,2.5-3.4c2.5-4.6,5.1-9.2,7.6-13.8c0-0.1,0.1-0.1,0.2-0.2c1.5,0.6,3,0.3,4.6,0.2c-0.1,0.2-0.1,0.4-0.2,0.6
	c-3.2,6.1-6.4,12.2-9.6,18.3c-0.1,0.3-0.3,0.6-0.3,0.9c0,0.7,0.6,1.3,1.3,1c0.9-0.4,1.8-0.9,2.6-1.5c1-0.8,1.9-1.7,2.7-2.7
	c0.6-0.7,1-1.6,1.4-2.4c1.1-2.8,2.8-5.3,4.7-7.6c1.6-2,3.4-3.7,5.6-5.1c1.5-0.9,3.1-1.5,4.9-1.5c2.1,0,3.2,1,3.3,3.2
	c0.1,1.9-0.4,3.8-1.1,5.6c-0.5,1.3-1.1,2.6-1.7,4c-0.1,0.1-0.1,0.3-0.2,0.5c2.5-0.3,4.2-1.9,6.2-3.2c0.1,0.1,0.1,0.1,0.1,0.2
	c-0.2,0.2-0.4,0.5-0.6,0.7c-1.7,1.6-3.6,2.8-5.9,3.2c-0.3,0.1-0.6,0.3-0.8,0.5c-1.7,2.2-3.6,4.4-6,5.9c-1,0.6-2.1,1.1-3.2,1.4
	c-2,0.5-3.7-0.2-4.7-2.1C153.6,197.7,153.4,196.7,153,195.9L153,195.9z M107.6,199.7c0.1,0,0.2,0,0.4,0c0.3-0.1,0.6-0.1,0.9-0.2
	c2.3-0.6,4-2,5.5-3.7c2.6-2.9,4.4-6.2,5.9-9.8c0.6-1.6,1.2-3.1,1.6-4.8c0.3-1.1-0.2-1.9-1.4-2.1c-0.9-0.1-1.8,0-2.5,0.4
	c-0.9,0.6-1.8,1.1-2.6,1.8c-3.5,3.3-6,7.3-8.1,11.6c-0.6,1.3-1.1,2.7-1.5,4.1C105.4,198.6,106.3,199.7,107.6,199.7L107.6,199.7z
	 M83.9,179.2c-0.1,0-0.1,0-0.2,0c-1.6,0.1-2.8,1-4,2c-3.7,3.4-6.3,7.5-8.5,11.9c-0.6,1.2-1.1,2.6-1.3,3.9c-0.4,1.7,0.9,2.8,2.5,2.3
	c1.1-0.3,2.2-0.9,3.2-1.5c2.3-1.5,4-3.5,5.5-5.7c2.2-3.2,4.1-6.6,4.7-10.5C86.2,180.1,85.4,179.2,83.9,179.2L83.9,179.2z M167.1,193
	c-0.1-0.1-0.2-0.2-0.3-0.2c-1-0.6-1.4-1.5-1.4-2.6c0-1.4,0.4-2.6,1-3.8c1.1-2,2.8-2.5,4.4-1.4c0.4-1.4,0.7-2.8,0-4.2
	c-0.4-0.8-1-1.1-1.8-0.9c-1.6,0.4-2.6,1.4-3.7,2.5c-2.7,2.9-4.6,6.2-6.3,9.8c-0.8,1.8-1.5,3.7-2,5.6c-0.4,1.5,0.7,2.5,2.2,2
	c0.3-0.1,0.6-0.2,0.9-0.4c1-0.7,2.1-1.3,3-2.1C164.7,196.1,166,194.6,167.1,193L167.1,193z"/>
<path class="st1" d="M231.7,178.6v-1.4c1.7,0,3.4-0.1,5.1,0c0.9,0,1.4-0.3,1.8-1c3.2-5.5,6.7-10.9,10.7-15.9
	c3.2-4.1,7.1-7.6,11.3-10.7c0.2-0.2,0.4-0.3,0.8-0.6c-1.4,0.3-2.7,0.6-4,0.8c-3.8,0.7-7.6,0.3-11.4-0.6c-2.3-0.6-4.6-1.3-7.1-1.1
	c-5,0.4-9.1,2.3-11.6,6.9c-1.6,3-0.4,6.5,2.7,7.9c4.7,2.1,9.1,1.6,13.2-1.6c1.7-1.3,3.1-2.9,4.4-4.5c0.1-0.2,0.3-0.3,0.5-0.4
	c-0.1,0.2-0.2,0.5-0.4,0.7c-2.5,3.8-5.9,6.6-10.5,7.4c-2.7,0.4-5.4,0.1-7.9-1.2c-3.2-1.7-3.7-5.2-2.8-7.6c1.3-3.6,4-5.8,7.4-7.3
	c3-1.3,6.2-1.7,9.5-1.1c2.2,0.4,4.4,0.8,6.6,1.1c6.4,0.9,12.6,0.1,18.5-2.8c0.1-0.1,0.2-0.1,0.5-0.2c-10.1,8.8-17,19.6-22,31.9
	c1.8,0,3.5-0.1,5.1,0c1,0.1,1.5-0.3,2.1-1.1c3.4-4.7,6.7-9.4,10.2-13.9c2.6-3.3,5.5-6.5,8.5-9.6c2.5-2.6,5.2-5.1,8.5-6.9
	c0.7-0.4,1.4-0.6,2.1-0.9c-7,6.2-20.8,27.6-22.2,32.2h2.5v1.4c-1,0-1.9,0-2.8,0c-0.2,0-0.5,0.2-0.6,0.4c-2.2,5-4.6,9.9-6.2,15.1
	c-0.7,2.2-1.3,4.5-1.7,6.8c-0.2,1,0,2.2,0.3,3.2c0.4,1.5,2,2.4,3.5,2.1c1.6-0.3,2.9-1.1,4.3-1.9c0.3-0.2,0.6-0.3,1-0.6
	c-0.1,0.2,0,0.3-0.1,0.3c-3.6,3.8-8.6,4.4-12.5,0.9c-1.8-1.7-2.6-3.8-3.1-6.2c-0.7-3.9,0-7.7,1.7-11.2c1.3-2.8,2.9-5.4,4.3-8.1
	c0.1-0.2,0.2-0.4,0.4-0.8c-1,0-1.8,0-2.7,0c-0.9,0-1.9,0.1-2.8,0c-0.5,0-0.7,0.1-0.9,0.6c-2.3,4.9-4.9,9.7-8.3,13.9
	c-4.8,5.8-10.4,10.4-17.5,13c-5,1.8-10.2,2.1-15.4,0.6c-1.9-0.6-3.7-1.5-5.2-2.8c-0.1-0.1-0.3-0.3-0.4-0.4c-0.1-0.1-0.1-0.1-0.1-0.4
	c0.2,0.1,0.5,0.3,0.8,0.4c1.9,1.5,4.1,2.5,6.6,2.9c4.4,0.8,8.4-0.1,12-2.7c3.5-2.5,6.3-5.6,8.8-9c3.5-4.6,6.3-9.7,9.1-14.8
	c0.2-0.4,0.5-0.8,0.7-1.3L231.7,178.6L231.7,178.6z"/>
<path class="st1" d="M96.5,142.2c-3-2.3-6.6-2.2-8.8,0.2c4.6,3.2,7.8,7.3,8,13.1c0.1,3.9-1.1,7.4-3.6,10.5
	c-4.7,5.8-13.5,6.9-16.8,4.9c0.9,0.1,1.9,0.4,2.9,0.5c4,0.3,7.1-1.4,9.7-4.4c2.6-3,3.9-6.6,4.6-10.5c0.4-2.5,0.4-4.9-0.7-7.2
	c-1-2.2-2.6-4.1-4.5-5.6c-0.4-0.3-0.8-0.3-1,0.1c-1.2,1.8-2.6,3.6-3.7,5.5c-3.2,5.7-5.6,11.7-8,17.8c-2.1,5.4-4.2,10.8-6.6,16.1
	c-3.3,7.4-8.2,13.5-15.1,17.9c-4.7,3-9.7,4.8-15.2,5.6c-2.9,0.4-5.8,0.6-8.7,0.3c-7.1-0.9-12.6-4.5-15.9-10.9
	c-3.4-6.4-3.2-13.2-0.4-19.7c4.4-10.3,12.4-16.5,23.4-18.7c5.1-1,9.8,0.1,14,3.1c0.1,0.1,0.2,0.2,0.4,0.2c0.5-1.1,0.9-2.3,1.5-3.4
	c4.2-7.3,10-13.1,18-16.2c5.5-2.1,11.1-2.1,16.7,0.3c0.2,0.1,0.6,0,0.9-0.1c1.6-1,3.3-1.6,5.2-1.5c1.5,0.1,2.7,0.7,3.8,1.7
	c0.1,0.1,0.1,0.1,0.2,0.2C96.4,142,96.4,142,96.5,142.2L96.5,142.2z M85.6,142.8c-0.4-0.2-0.8-0.4-1.2-0.5c-1.8-0.7-3.7-0.9-5.6-1
	c-4-0.2-7.8,0.7-11.4,2.5c-5,2.5-9.1,6.1-12.5,10.5c-1.6,2-3,4.1-3.8,6.6c-0.2,0.5-0.1,0.8,0.2,1.2c3.9,4.8,4.9,10.2,3.6,16.1
	c-1.5,6.4-4.8,11.8-9.9,16c-2.5,2.1-5.2,3.7-8.3,4.7c-0.3,0.1-0.6,0.1-0.9,0.2l-0.1-0.2c0.2-0.1,0.4-0.2,0.6-0.3
	c3.1-1.2,5.9-2.9,8.3-5.2c4.2-4.1,6.7-9.1,8.2-14.7c1.2-4.3,1.1-8.5-0.6-12.6c-0.5-1.1-1.1-2.2-1.6-3.2c-0.1,0-0.2,0-0.2,0.1
	c-0.1,1.2-0.3,2.4-0.4,3.7c0,1.3,0,2.5,0.2,3.8c0.2,1.2,0.6,2.3,1,3.5c-0.1,0-0.1,0.1-0.2,0.1c-0.2-0.5-0.5-1-0.7-1.5
	c-1.1-3.1-1-6.2-0.5-9.4c0.2-0.9-0.1-1.4-0.8-1.9c-2.6-1.9-5.6-3.1-8.8-3c-5.9,0.1-11.1,2.2-15.4,6.2c-3.8,3.5-6.5,7.8-8.7,12.4
	c-1.2,2.6-2.4,5.3-2.6,8.3c-0.2,2.6-0.4,5.2,0.2,7.8c0.9,3.5,2.4,6.7,5.3,8.9c4.8,3.7,10.3,4.6,16.1,3.8c4.2-0.6,7.9-2.6,11.2-5.2
	c3.2-2.5,5.6-5.7,7.9-9c3.7-5.2,6.5-11,9.3-16.8c2.7-5.7,5.5-11.4,8.8-16.8C75.9,152.1,80.3,147.2,85.6,142.8L85.6,142.8z"/>
<path class="st1" d="M269.7,195.6c-0.6,0.7-1.2,1.4-1.8,2c-0.9,0.8-1.9,1.6-3,2.3c-1,0.6-2.1,0.8-3.3,0.5c-2.2-0.6-3.5-2.7-2.7-4.8
	c0.9-2.2,1.9-4.4,2.9-6.5c1.7-3.5,3.5-6.9,5.3-10.4c0.2-0.4,0.4-0.6,1-0.4c1.4,0.4,2.8,0.4,4.3,0.1c-0.8,1.5-1.5,3-2.2,4.4
	c-2.6,5.1-5.2,10.1-7.7,15.2c-0.2,0.4-0.4,0.9,0,1.3c0.4,0.4,1,0.5,1.5,0.3c1.5-0.6,2.7-1.6,3.8-2.8c1.1-1.1,1.8-2.3,2.1-3.9
	c0.7-3.5,2.6-6.4,4.9-9c2.5-2.7,5.4-4.9,9-6.2c1-0.4,2-0.4,3.1-0.2c1.6,0.3,2.6,1.6,2.4,3.2c-0.2,2.3-1.3,4.1-3.2,5.3
	c-3,1.9-6.2,2.4-9.7,1.9c-1.5,2.8-2.4,5.8-2,9c0.3,2.2,2,2.8,3.8,2.4c1.5-0.4,2.7-1.4,3.8-2.5c4.5-4.5,7.8-9.8,10.3-15.6
	c0.3-0.7,0.4-1.3-0.2-2c-1-1.2-0.8-2.9,0.2-4.1c0.4-0.5,0.9-0.7,1.5-0.6c0.6,0.1,0.7,0.6,0.9,1.1c0.3,1,0.1,1.9-0.4,2.7
	c-0.1,0.2-0.2,0.5-0.2,0.8c0.3,0,0.6,0.1,0.9,0.1c0.8-0.1,1.5-0.4,2.3-0.6c1.1-0.2,2.1,0.1,2.8,1c0.7,1,0.6,2,0.1,3
	c-2,3.6-4,7.2-5.9,10.9c-0.8,1.5-1.7,3-1.9,4.7c-0.1,1.1,0.5,1.7,1.5,1.2c0.9-0.4,1.8-1,2.5-1.8c1.5-1.8,2.9-3.7,4.1-5.6
	c2.2-3.4,4.1-6.9,5.4-10.7c0.3-0.8,0.2-1.4-0.3-2.1c-1-1.4-0.9-3,0.3-4.2c0.2-0.2,0.6-0.4,0.9-0.6c0.7-0.3,1.2,0,1.4,0.7
	c0.3,1.1,0.3,2.2-0.3,3.2c-0.1,0.2-0.1,0.5-0.2,0.7c0.3,0,0.5,0.1,0.8,0.1c1.1-0.2,2.1-0.5,3.2-0.6c1.4,0,2.1,0.8,2.2,2.2
	c0.1,1.6-0.6,3-1.3,4.3c-1.8,3.1-3.6,6.1-5.4,9.1c-0.6,1-1.1,2-1.6,3c-0.4,0.7-0.6,1.6,0,2.2c0.7,0.6,1.6,0.2,2.2-0.2
	c1.3-1,2.5-2.1,3.7-3.1c0.1-0.1,0.2-0.3,0.2-0.4c0.2-3.4,1.6-6.4,3.4-9.2c1.9-2.9,4.1-5.6,7-7.5c1.4-0.9,2.9-1.6,4.7-1.7
	c2.3-0.1,3.6,1.1,3.6,3.5c0,2.4-0.5,4.6-1.2,6.9c-0.4,1.1-0.8,2.2-1.2,3.3c1.3-0.1,2.5-0.7,3.6-1.4c1-0.7,2-1.5,3-2.2
	c0.1,0.1,0.1,0.1,0.2,0.2c-0.3,0.3-0.5,0.7-0.8,0.9c-1.8,1.6-3.8,3-6.2,3.5c-0.2,0.1-0.5,0.3-0.6,0.5c-1.4,2.2-3,4.3-5.1,6
	c-1.1,0.9-2.3,1.6-3.7,2c-2.2,0.6-4,0-5.3-1.8c-0.4-0.5-0.7-1.1-1.1-1.7c-0.9,0.8-1.8,1.7-2.8,2.4c-0.9,0.7-1.8,1.2-3,1.3
	c-2.2,0.2-3.6-0.9-3.9-3.1c-0.3-1.9,0.2-3.6,1-5.3c1.4-3.1,3.5-5.9,5.5-8.6c0.6-0.8,1.2-1.6,1.7-2.4c0.2-0.3,0.2-0.7,0.1-1.1
	c0-0.1-0.6-0.1-0.9-0.1c-0.8,0.1-1.6,0.2-2.5,0.3c-1.9,5.5-4.6,10.6-8,15.4c-1.1,1.6-2.4,3.2-4,4.4c-1.4,1-2.8,1.1-4.4,0.4
	c-0.9-0.4-1.3-1.1-1.6-2c-0.5-1.8-0.1-3.6,0.5-5.3c1.1-3.1,2.9-5.8,4.8-8.4c0.8-1.2,1.7-2.3,2.5-3.4c0.2-0.3,0.5-0.8,0.2-1.1
	c-0.2-0.2-0.7-0.2-1.1-0.2c-0.8,0.1-1.5,0.2-2.4,0.3c-0.8,2.6-2.1,5-3.5,7.4c-2,3.4-4.3,6.7-7.2,9.5c-1,0.9-2,1.8-3.2,2.5
	c-3.5,2.1-7.7,0.6-9.3-3.1C270,196.1,269.8,195.9,269.7,195.6L269.7,195.6z M326,191.9c-0.4-0.2-0.8-0.4-1.1-0.6
	c-0.6-0.4-1-0.9-1.1-1.7c-0.2-2.3,0.4-4.4,2-6c0.6-0.6,1.3-0.9,2.1-0.7c0.4,0.1,0.7,0.3,1.1,0.5c0.1-0.8,0.2-1.6,0.2-2.3
	c0.1-0.9-0.1-1.8-1-2.4c-0.9-0.6-1.8-0.4-2.6,0.1c-1,0.7-1.9,1.4-2.6,2.3c-3.2,3.9-5.3,8.5-6.8,13.3c-0.4,1.1-0.5,2.3-0.6,3.5
	c-0.1,1.1,0.7,1.8,1.8,1.6c0.7-0.1,1.5-0.4,2.1-0.8C322.3,197,324.2,194.6,326,191.9L326,191.9z M276.9,186.8
	c0.1,0.1,0.2,0.1,0.3,0.1c0.1,0,0.3,0,0.5,0.1c2.9,0.3,5.2-1,7.2-2.8c1.2-1,2.2-2.2,2.6-3.7c0.5-1.5-0.7-2.7-2.2-2.2
	c-0.9,0.2-1.7,0.6-2.4,1.1c-2.7,1.7-4.5,4.2-5.9,7C277,186.5,276.9,186.7,276.9,186.8L276.9,186.8z"/>
<path class="st1" d="M199.6,181.3c1.2-2.4,2.4-4.6,3.6-6.9c1.8-3.3,3.5-6.7,5.2-10c0.1-0.3,0.3-0.6,0.7-0.5c1.4,0.2,2.8,0.2,4.2-0.1
	c0.1,0,0.3,0,0.5,0c-0.1,0.2-0.1,0.4-0.2,0.5c-5.4,10.5-10.8,20.9-16.3,31.4c-0.4,0.9-0.9,1.7-1.3,2.6c-0.1,0.4-0.2,0.9,0,1.3
	c0.2,0.5,0.8,0.3,1.2,0.2c2-0.8,3.5-2.1,4.7-3.8c0.1-0.2,0.3-0.5,0.2-0.8c-0.2-3.2,1.2-5.8,3-8.2c2.1-2.8,4.6-5.3,7.8-7
	c1.8-1,3.7-1.5,5.8-1.4c1.8,0.1,3.5,2.1,2.7,4c-0.9,2.4-2.6,3.9-4.8,4.9c-2.3,1.1-4.6,1.3-7.1,0.8c-0.5-0.1-0.8,0-1,0.5
	c-1.2,2.3-2.1,4.7-2.1,7.4c0,0.4,0,0.8,0.1,1.2c0.4,1.8,1.8,2.6,3.9,2.3c2.1-0.3,3.8-1.4,5.4-2.8c1.9-1.7,3.4-3.7,4.9-5.7
	c0.2-0.3,0.4-0.6,0.6-0.8c0.1,0,0.1,0.1,0.1,0.1c-0.1,0.2-0.1,0.4-0.3,0.6c-1.7,3.1-3.9,5.8-6.9,7.8c-2.2,1.6-4.8,2.1-7.5,1.6
	c-1.9-0.4-3.3-1.7-4.4-3.2c-0.1-0.1-0.1-0.2-0.2-0.3c-0.7,0.6-1.3,1.2-2,1.8c-0.7,0.5-1.4,1-2.1,1.4c-2.8,1.6-6.3-0.4-6.4-3.4
	c-0.7,0.6-1.3,1.1-1.9,1.7c-1.2,1-2.5,2-4.1,2.2c-1.3,0.2-2.7,0.2-4,0c-2.5-0.4-4.1-2.9-3.7-5.6c0.3-2.2,1.3-4.2,2.5-6.1
	c2.5-3.9,5.7-7.2,9.9-9.5c1.7-0.9,3.5-1.6,5.5-1.6c1.7,0,2.8,0.8,3.3,2.4C199.4,180.5,199.5,180.8,199.6,181.3L199.6,181.3z
	 M198.5,181.7c0-2.1-0.9-3.1-2.6-2.9c-0.6,0-1.2,0.2-1.7,0.6c-1,0.7-2.1,1.5-3,2.4c-2.6,2.8-4.7,5.9-6.4,9.3c-1,1.9-1.9,3.8-2.2,6
	c-0.2,1.8,0.9,3.1,2.7,2.7c0.5-0.1,1.1-0.3,1.6-0.5c1.5-0.7,2.7-1.7,3.8-2.8c3.4-3.6,5.7-7.9,7.2-12.6
	C198.2,183,198.4,182.1,198.5,181.7L198.5,181.7z M209.5,187.2c0.4,0.1,0.6,0.2,0.7,0.2c0.2,0,0.4,0,0.6,0c3-0.1,5.5-1.4,7.4-3.6
	c0.7-0.8,1.3-1.7,1.6-2.7c0.4-1.1-0.6-2.1-1.7-1.9c-0.7,0.1-1.4,0.3-2.1,0.6c-1.8,0.8-3.1,2.2-4.2,3.7
	C211.1,184.6,210.4,185.9,209.5,187.2L209.5,187.2z"/>
<path class="st1" d="M60.5,123.2c1.4,0.7,2.8,0.5,4.4,0.1c-0.3,0.5-0.5,0.8-0.7,1.2c-3.7,7.2-7.3,14.4-11,21.6
	c-0.2,0.5-0.5,1-0.7,1.5c-0.2,0.8,0.4,1.4,1.2,1c1-0.5,2-1.1,2.8-1.9c1.7-1.7,3.2-3.5,4.8-5.3c0.2-0.3,0.5-0.6,0.8-0.8
	c-0.1,0.2-0.1,0.3-0.2,0.5c-1.9,2.8-4,5.4-6.6,7.6c-0.8,0.7-1.7,1.3-2.8,1.4c-2.5,0.1-3.8-1.4-3.3-4c0.3-1.5,1-3,1.8-4.4
	c3-5.8,6.1-11.6,9.2-17.4C60.1,123.9,60.3,123.6,60.5,123.2L60.5,123.2z"/>
<path class="st1" d="M269.5,175.2c0-1.9,2.4-3.5,4.2-2.7c0.3,0.1,0.6,0.5,0.6,0.8c0.2,1.1-0.3,2-1.1,2.7c-0.9,0.7-1.9,1-2.9,0.5
	C269.7,176.3,269.4,175.9,269.5,175.2L269.5,175.2z"/>
<path class="st1" d="M156.2,172.9c1.5,0,2.1,0.9,1.5,2.3c-0.6,1.4-1.8,2.2-3.2,2.1c-1.2-0.1-1.8-0.9-1.5-2
	C153.4,173.8,154.6,172.9,156.2,172.9L156.2,172.9z"/>
<path class="st1" d="M289.4,150.6c0,0.8-0.3,1.5-0.9,2.1s-1.2,0.9-2,0.9s-1.5-0.3-2-0.9s-0.9-1.2-0.9-2.1s0.3-1.5,0.9-2
	s1.2-0.9,2-0.9s1.5,0.3,2,0.9S289.4,149.8,289.4,150.6z M289,150.6c0-0.7-0.2-1.3-0.7-1.8c-0.5-0.5-1.1-0.7-1.8-0.7
	s-1.3,0.2-1.8,0.7c-0.5,0.5-0.7,1.1-0.7,1.8s0.2,1.3,0.7,1.8c0.5,0.5,1.1,0.7,1.8,0.7s1.3-0.2,1.8-0.7
	C288.8,151.9,289,151.3,289,150.6z M287.9,152.3h-0.5l-0.6-1.4h-0.9v1.4h-0.5v-3.4h1.4c0.4,0,0.7,0.1,0.9,0.3
	c0.2,0.2,0.3,0.4,0.3,0.7c0,0.2,0,0.4-0.2,0.5c-0.1,0.2-0.3,0.3-0.5,0.4L287.9,152.3L287.9,152.3z M285.8,150.5h0.9
	c0.2,0,0.4-0.1,0.5-0.2c0.1-0.1,0.2-0.2,0.2-0.4s-0.1-0.3-0.2-0.4s-0.3-0.1-0.5-0.1h-0.9L285.8,150.5L285.8,150.5z"/>
</svg>
