<?xml version="1.0" encoding="UTF-8"?><svg id="Layer_1" xmlns="http://www.w3.org/2000/svg" viewBox="0 0 291.92 77.39"><defs><style>.cls-1,.cls-2{stroke-width:0px;}.cls-2{fill:#fff;}</style></defs><path class="cls-1" d="m0,15.84C0,15.65,0,15.45,0,15.26c.2-.47.43-.93.59-1.42.31-.95.49-1.94.87-2.85C4.57,3.48,10.56.06,18.35.06,103.15-.02,187.94.01,272.74,0c2.92,0,5.72.47,8.45,1.53,6.59,2.58,10.49,8.61,10.61,15.14.21,10.82.09,21.65.03,32.47-.01,2.5-.03,5.07-.61,7.47-.54,2.22-1.5,4.51-2.85,6.34-3.8,5.12-9.31,6.94-15.47,6.96-13.67.05-27.34-.09-41.01.07-5.18.06-10.36.74-15.53,1.14-2.08.16-4.16.28-6.24.48-4.89.49-9.78,1.07-14.68,1.51-4.93.44-9.87.75-14.8,1.13-2.13.16-4.25.36-6.38.56-5.48.52-10.96,1.07-16.45,1.57-2.56.23-5.17.14-7.67.64-4.4.89-8.71-.04-13.04-.3-5.35-.33-10.67-.98-16.01-1.46-2.75-.25-5.51-.41-8.26-.64-1.83-.15-3.67-.34-5.5-.52-4.77-.48-9.53-1-14.3-1.43-3.17-.29-6.36-.43-9.54-.67-2.08-.16-4.15-.36-6.23-.57-4.72-.47-9.44-1.29-14.17-1.36-14.83-.2-29.67-.06-44.5-.19-2.45-.02-5.05-.37-7.32-1.25-4.95-1.91-8.6-5.32-10.16-10.6-.32-1.07-.74-2.11-1.11-3.16,0-.68,0-1.36,0-2.04.07-.62.21-1.23.21-1.85.01-11.1.01-22.19,0-33.29C.21,17.07.07,16.46,0,15.84Zm146.17,30.62c-.88,0-1.75,0-2.63,0-34.88,0-69.76,0-104.63-.04-1.45,0-1.81.47-1.78,1.83.09,4.8.11,9.61.09,14.41,0,1.21.38,1.78,1.66,1.81,1.55.03,3.1.19,4.65.33,4.92.46,9.83.96,14.75,1.39,3.19.28,6.39.43,9.58.72,8.79.8,17.58,1.65,26.38,2.45,3.91.36,7.83.66,11.74.99,9.47.79,18.95,1.57,28.42,2.36.29.02.58.09.87.1,4.26.27,8.52.84,12.76.72,4.92-.14,9.82-.94,14.74-1.38,4.79-.43,9.58-.75,14.37-1.16,5.41-.47,10.82-1,16.23-1.47,4.97-.43,9.95-.79,14.92-1.19,3.1-.25,6.2-.51,9.29-.79,6.81-.61,13.62-1.25,20.44-1.84,5.18-.45,10.35-.86,15.54-1.22,1.33-.09,1.71-.69,1.7-1.94-.02-4.61.04-9.22.07-13.83q.02-2.25-2.2-2.25c-35.66,0-71.31,0-106.97,0Zm68.52-2.18c.07-.12.14-.24.21-.36-2.1-.39-2.89-1.59-2.86-3.59.09-5.05.02-10.1.04-15.14,0-1.98,1.84-3.26,3.7-2.5.84.35,1.63,1.01,2.25,1.7,1.46,1.66,2.66,3.56,4.21,5.12,2.89,2.92,3.99,6.29,3.5,10.34-.21,1.77-.28,3.41-2.44,3.88-.14.03-.24.21-.53.49h12.78c-2.62-1.23-2.89-1.64-2.89-4.58,0-1.5-.08-3.02.04-4.51.06-.76.37-1.58.81-2.2,1.27-1.79,2.62-3.54,4.02-5.23,1.82-2.19,3.16-4.96,6.43-5.45.03,0,.05-.16.1-.37h-10.52c-.02.14-.05.28-.07.42.42.15.93.21,1.23.49.28.27.59.95.45,1.15-1.36,1.93-2.79,3.82-4.26,5.66-.15.18-.91.19-1.06.01-1.31-1.6-2.59-3.22-3.77-4.92-.56-.81-.59-1.67.67-2.01.38-.1.73-.33,1.09-.5-.03-.11-.05-.22-.08-.33h-23.9c1.13,1.25,3.16.6,3.29,2.35.1,1.33.02,2.67.02,4.25-.59-.22-.96-.29-1.25-.48-1.95-1.24-3.85-2.56-5.84-3.75-.97-.58-1.72-1.15-1.38-2.36h-13c-.02.13-.04.26-.07.39.46.21.99.33,1.36.64.43.37,1.03.9,1.04,1.36.07,5.82.05,11.65,0,17.47,0,.46-.29,1.1-.65,1.35-1.9,1.33-3.63.83-4.6-1.3-2.29-4.98-4.56-9.97-6.81-14.97-.7-1.55-1.66-3.12.2-5.1-4.2-.02-7.98-.24-11.94.31,2.21,1.14,1.03,2.38.45,3.59-1.87,3.89-3.57,7.87-5.65,11.65-1.36,2.47-1.54,5.89-5.27,6.8,1.94.63,10.17.47,11.04-.17-.26-.1-.49-.16-.7-.26-1.76-.84-2.04-1.56-1.24-3.32.7-1.54,1.37-3.09,2.15-4.58.22-.41.89-.95,1.23-.87,3.26.72,6.3,1.92,8.41,4.68,1.15,1.5.8,2.84-.82,3.76-.29.16-.63.24-.95.36.14.19.27.38.41.57h22.68c-.19-.43-.41-.66-.67-.72-1.81-.42-2.06-1.69-2.03-3.31.07-4.03.01-8.06.02-12.09,0-.65.09-1.3.15-2.15,4.21,2.8,8.25,5.41,12.17,8.15.74.52,1.38,1.56,1.52,2.44.24,1.51.07,3.1.05,4.65-.01,1.12-.5,1.93-1.62,2.31-.33.11-.62.3-.93.45.02.1.04.21.07.31h10.01Zm34.99,24.47c.7,0,1.17,0,1.64,0,7.35,0,14.69.08,22.04-.05,2.24-.04,4.56-.37,6.7-1.03,6.08-1.87,10.48-7.86,10.45-14.11-.06-12.18-.19-24.37.03-36.54.16-8.58-7.16-15.6-15.62-15.59-85.91.04-171.81.02-257.72.04-1.21,0-2.47-.02-3.63.27C5.97,3.68,1.43,9.58,1.42,17.44c0,11.79-.01,23.59,0,35.38,0,2.88.55,5.64,2.13,8.14,3.29,5.24,8.17,7.65,14.21,7.75,6.37.11,12.74.02,19.12.02,1.79,0,3.58,0,5.36,0-.72-.24-1.46-.24-2.16-.38-.9-.18-2.14-.19-2.57-.77-.68-.92-1.41-.82-2.24-.82-5.55,0-11.09.09-16.64-.05-2.07-.05-4.22-.41-6.18-1.06-6.35-2.13-9.03-7.14-9.1-12.72-.17-12.03-.1-24.07,0-36.11.03-3.28,1.1-6.31,3.42-8.82,3.17-3.42,7.08-4.7,11.68-4.7,77.73.03,155.47.02,233.2.02,7.39,0,14.79.01,22.18-.02,2.6-.01,5.11.37,7.4,1.6,4.62,2.49,7.26,6.39,7.32,11.62.13,12.18.07,24.36.01,36.55,0,1.51-.27,3.1-.78,4.52-2.12,5.89-7.48,9.03-13.46,9.15-5.84.11-11.67.02-17.51.04-.48,0-.99.17-1.44.37-.43.2-.76.71-1.2.81-1.4.32-2.83.51-4.5.79ZM77.28,26.33s.02,0,.03,0c0-3.45,0-6.89,0-10.34,0-3.99.02-4.08,3.91-3.28,3.2.66,6.11,2.07,7.65,5.11.71,1.41,1.57,1.6,2.85,1.49,1.48-.12,1.77-.4,1.38-1.8-.72-2.6-1.47-5.19-2.31-7.76-.61-1.86-1.41-2.13-3.36-1.52-1.01.31-2.08.57-3.12.58-7.39.1-14.78.19-22.17.14-1.76-.01-3.53-.47-5.26-.87-1.34-.31-3.15-.11-3.39.66-.93,2.93-1.81,5.88-2.66,8.83-.09.32.08.89.33,1.09,1.04.83,3.08.36,3.95-.64,1.21-1.4,2.37-3.03,3.91-3.91,1.66-.95,3.74-1.2,5.66-1.66,1.85-.45,1.93-.35,1.93,1.49,0,8.15,0,16.3,0,24.46,0,2.42-.53,3.08-2.84,3.89-.44.15-.79.55-1.18.84.5.19.99.53,1.49.54,4.47.04,8.95.03,13.42.03,1.02,0,2.04.03,3.06-.02.28-.01.54-.27.81-.42-.21-.26-.38-.57-.64-.76-.27-.19-.62-.27-.94-.36-1.94-.5-2.51-1.25-2.51-3.3,0-4.17,0-8.35,0-12.52Zm53.04-4.51c0,.13-.02.26-.03.39.19.13.37.33.58.37,2.29.44,2.71,1.98,2.66,4.05-.11,4.46-.1,8.92,0,13.38.04,1.87-.13,3.37-2.31,3.8-.08.02-.12.21-.35.64,4.21-.06,8.2.15,12.28-.37-2.64-.47-2.97-2.17-2.87-4.33.12-2.71.02-5.43.04-8.15,0-.51.08-1.03.13-1.54,1.3.12,2.46.21,3.61.35,1.58.19,2.67,1.06,3.3,2.49.69,1.56,1.13,1.71,3.07.9-.5-2.26-1.04-4.55-1.5-6.85-.13-.62-.01-1.29-.95-1.32-.8-.02-1.57-.07-1.86.94-.25.86-.86,1.37-1.77,1.46-1.28.12-2.57.22-4.02.34,0-1.21-.11-2.18.05-3.11.08-.46.58-1.1,1-1.2,3.41-.77,8.95.7,10.73,3.38.86,1.29,1.85,1.32,3.37.84-.64-2.23-1.25-4.44-1.95-6.62-.07-.21-.76-.33-1.16-.31-1.3.06-2.6.28-3.91.29-5.35.04-10.69.01-16.04.03-.7,0-1.4.09-2.1.14Zm-12.76,22.45c-2.49-1.12-2.89-1.45-2.91-3.09-.04-3.44-.02-6.89,0-10.33,0-.26.14-.53.22-.84.26.05.45.08.63.12.19.04.38.12.57.12,2.75-.04,5.12.49,6.16,3.53.11.32,1.27.38,1.93.35.18-.01.52-.85.45-1.24-.39-2.03-.93-4.03-1.34-6.05-.14-.68-.24-1.21-1.09-1.22-.84-.01-1.51.06-1.74,1.09-.09.4-.54.93-.9,1.01-1.56.33-3.16.5-4.89.76,0-1.3-.15-2.2.05-3.02.13-.54.68-1.27,1.16-1.39,3.18-.78,9.1.86,10.71,3.44.76,1.22,1.77,1.29,3.29.8-.58-2.02-1.19-3.98-1.71-5.96-.21-.83-.64-1.08-1.44-1.01-1.74.14-3.47.32-5.21.33-5.05.04-10.11.01-15.16.03-.52,0-1.04.13-1.66.21.16.3.2.39.26.46.06.07.14.17.22.19,2.7.46,2.84,2.48,2.84,4.6,0,3.93,0,7.86,0,11.78,0,2.05.41,4.3-2.38,5.03-.02,0-.02.09-.05.31h11.99Zm-27.93-22.42c.45.42.59.67.78.72,1.87.48,2.09,1.87,2.08,3.49-.03,4.8-.05,9.59.01,14.39.02,1.7-.35,2.96-2.24,3.28-.12.02-.21.24-.6.69,4.5.04,8.65.06,12.89-.29-2.87-.57-3.1-2.49-3.04-4.78.11-4.21.11-8.43,0-12.64-.05-2.04.12-3.76,2.4-4.46.04-.01.04-.17.07-.39h-12.35Z"/><path class="cls-2" d="m0,15.84c.07.62.21,1.23.21,1.85.01,11.1.01,22.19,0,33.29,0,.62-.14,1.23-.21,1.85V15.84Z"/><path class="cls-2" d="m146.17,46.46c35.66,0,71.31,0,106.97,0q2.22,0,2.2,2.25c-.04,4.61-.1,9.22-.07,13.83,0,1.26-.37,1.85-1.7,1.94-5.18.36-10.36.78-15.54,1.22-6.81.59-13.62,1.23-20.44,1.84-3.1.28-6.2.54-9.29.79-4.97.4-9.95.77-14.92,1.19-5.41.46-10.82,1-16.23,1.47-4.79.41-9.58.73-14.37,1.16-4.92.44-9.82,1.23-14.74,1.38-4.24.12-8.51-.45-12.76-.72-.29-.02-.58-.08-.87-.1-9.47-.79-18.95-1.57-28.42-2.36-3.91-.33-7.83-.63-11.74-.99-8.79-.81-17.58-1.66-26.38-2.45-3.19-.29-6.39-.44-9.58-.72-4.92-.43-9.83-.93-14.75-1.39-1.55-.14-3.1-.29-4.65-.33-1.27-.03-1.66-.6-1.66-1.81.02-4.8,0-9.61-.09-14.41-.03-1.36.33-1.83,1.78-1.83,34.88.04,69.76.03,104.63.04.88,0,1.75,0,2.63,0Zm-.77,6.4c1.75,1.86,3.57,3.47,4.98,5.38,1.37,1.85,3.01,1.65,5.15,1.43-3.47-3.91-6.76-7.61-10.14-11.42-3.32,3.88-6.45,7.55-9.76,11.41,2.15.31,3.75.47,5.05-1.38,1.35-1.91,3.07-3.56,4.72-5.42Zm35.56,2.96c-.18,3.72,3.1,5.97,6.54,5.97,4.03,0,6.93-2.51,6.9-6.03-.03-3.57-2.85-6.05-6.23-6.09-4.24-.06-7.24,2.36-7.21,6.15Zm-57.87-5.66h-9.56c1.46.68,1.43,1.85,1.42,3.05-.02,1.45,0,2.91,0,4.37,0,1.41-.03,2.82-1.64,3.62.42.15.78.22,1.14.22,2.67,0,5.35.02,8.02-.04.54-.01,1.46-.24,1.54-.54.22-.84.51-1.87-.46-2.62-1.12,2.17-2.84,2.99-4.71,2.3-1.11-.41-1.4-2.04-.66-4.83.99.69,1.85,1.29,2.79,1.95v-4.36c-1.3.21-1.39,2.48-3.14,1.49,0-.67,0-1.39,0-2.11,0-.24-.06-.51.02-.72.12-.33.26-.76.53-.91,1.03-.57,2.95-.06,3.7.92.24.31.47.64.71.96.1-.04.2-.08.29-.12v-2.63Zm110.19,11.84c.12-.09.23-.18.35-.27,0-2.61.04-5.23-.02-7.84-.03-1.45,0-2.8,1.53-3.72h-4.19c2.97,1.99,1.5,4.57,1.72,6.89-.51-.17-.89-.41-1.18-.74-1.42-1.56-2.81-3.13-4.21-4.7-1.54-1.74-2.76-2.05-5.26-1.17,1.67.59,1.8,1.84,1.76,3.2-.04,1.26-.07,2.53,0,3.78.09,1.51-.04,2.88-1.54,3.86h3.92c-2.76-2.32-1.11-5.24-1.52-7.89.52.16.89.4,1.18.71,2.07,2.28,4.11,4.59,6.19,6.87.36.39.83.67,1.25,1.01Zm-176.92-11.92c-1.04-.12-1.92-.08-2.71-.34-2.16-.71-5.24.14-7.03,2.07-1.21,1.31-1.65,4.88-.82,6.6,1.56,3.22,5.5,3.73,8.47,2.78.59-.19,1.15-.86,1.71.06.03.04.8-.2.81-.34.07-1.08.04-2.17.04-3.25-.18-.05-.37-.1-.55-.15-.24.38-.52.74-.72,1.14-.66,1.36-1.77,2-3.24,1.98-1.41-.03-2.49-.61-3.12-1.96-.85-1.82-.62-3.64-.11-5.48.42-1.49,1.34-2.47,2.92-2.63,1.6-.16,2.65.68,3.37,2.04.16.31.43.56.64.84.11-.02.22-.04.33-.06v-3.29Zm90.55,21.92c0-2.47,0-4.78,0-7.1,0-2.31,0-2.38,2.34-2.33,1.2.03,1.59-.4,1.42-1.52-.06-.37-.06-.74-.09-1.2h-10.19v2.6c.49.03.92.08,1.34.08q2.31.02,2.31,2.38c0,2.35,0,4.7,0,7.08h2.87Zm-75.47-10.69c-.74-1.24-1.58-2.42-2.18-3.72-1.07-2.3-1.97-4.68-3-7.01-.17-.38-.6-.86-.93-.88-.29-.02-.64.53-.92.87-.12.14-.11.37-.2.54-1.84,3.31-2.58,7.2-5.3,10.15h3.87c-.39-.65-1.09-1.3-1.03-1.85.13-1.11,1-1.62,2.2-1.41.47.08,1.01-.07,1.45.08.48.16,1.03.46,1.29.86.73,1.13.06,1.81-.96,2.37h5.71Zm107.44-3.63c-.15-.08-.31-.16-.46-.24-.24.38-.52.73-.7,1.13-.55,1.2-1.46,1.92-2.78,2.02-1.27.09-2.36-.26-3.1-1.42-1.39-2.19-.99-4.39-.12-6.62.52-1.33,1.46-2.01,2.87-2.04,1.5-.03,2.39.89,3.06,2.09.15.27.28.55.43.86.59-.53,1.01-3.28.57-3.6-.18-.14-.58,0-.87.02-.52.05-1.12.3-1.55.13-2.72-1.08-5.12-.22-6.68,1.3-2.34,2.27-2.09,5.14-1.21,7.21,1.04,2.45,3.81,3.52,7.03,2.96,1.11-.19,2.23-.36,3.5-.57v-3.22Zm69.03-7.89c-.79.09-1.65.46-2.3.22-2.52-.92-4.69-.51-6.66,1.23-2.13,1.88-2.12,4.34-1.48,6.7.82,3.01,4.43,4.38,7.94,3.38.8-.23,1.66-.28,2.57-.42v-3.29c-.57.29-.84.66-1.04,1.07-1.12,2.31-4.13,2.64-5.7.61-1.39-1.78-.93-3.83-.6-5.72.26-1.45,1.05-2.82,2.89-3.02,1.71-.18,2.7.69,3.42,2.1.15.29.45.5.96,1.03v-3.89Zm-147.16.36c-.15.16-.29.32-.44.49,2.27-.13,1.91,1.24,1.92,2.38.02,1.6,0,3.19,0,4.79,0,1.33.3,2.78-1.61,3.44,3.26.2,6.3.23,9.35.18.57,0,1.58-.2,1.63-.46.19-.89.04-1.85.02-2.78l-.5-.02c-.29.47-.52.98-.87,1.39-.83,1-2.51,1.4-3.72.96-1.32-.48-1.4-1.59-1.39-2.74,0-1.4,0-2.81,0-4.21,0-1.44-.3-3.05,2.23-3.02-.11-.13-.23-.26-.34-.39h-6.29Zm-10.74,11.13h5.87c-.47-.69-1.36-1.4-1.43-2.19-.21-2.21-.12-4.45-.07-6.68.03-1.57.75-2.04,2.15-1.38.58.27,1.06.78,1.5,1.27.25.28.32.72.47,1.08,1.1-3.07.9-3.33-1.67-3.33-2.72,0-5.44-.03-8.16.02-.56.01-1.47.18-1.61.52-.3.74-.2,1.65-.27,2.48.15.03.31.06.46.09.57-.66,1.04-1.47,1.74-1.93.54-.36,1.41-.47,2.05-.32.28.07.47,1.04.49,1.61.06,1.89,0,3.78.04,5.67.03,1.3.06,2.55-1.56,3.08Zm-7.38,0c-1.95-.39-1.75-1.83-1.73-3.21.04-1.94,0-3.88.01-5.82.01-1.41.53-1.86,1.77-1.28.94.44,1.69,1.27,2.51,1.91.78-1.41.45-2.8-.81-2.81-3.35-.03-6.71-.03-10.06.01-.34,0-.92.32-.96.56-.12.76-.05,1.56-.05,2.35.15.04.3.07.45.11.22-.31.37-.75.67-.92.91-.53,1.87-.95,2.81-1.41.28.69.75,1.36.8,2.07.12,1.64,0,3.3.05,4.94.05,1.52-.09,2.87-1.82,3.5h6.35Zm131.14-.03h6.36c-1.49-.53-1.62-1.65-1.59-2.9.03-1.8.03-3.59,0-5.39-.01-1.12-.05-2.23,1.31-2.75h-6.1c1.92.46,1.95,1.87,1.92,3.33-.02,1.16,0,2.33,0,3.49-.03,1.64.53,3.55-1.88,4.21Zm-12.08,3.07c2.38-.62,3.61-2.6,2.88-4.44-.2-.51-.94-1.14-1.4-1.12-.48.02-1.21.72-1.3,1.22-.08.42.57,1.01.95,1.48.16.19.45.28.85.51-.65.77-1.21,1.44-1.97,2.35Zm-3.83-2.19c.71-.87,1.46-1.46,1.36-1.73-.24-.65-.88-1.15-1.36-1.71-.46.46-1.24.89-1.28,1.38-.04.52.63,1.09,1.27,2.06Z"/><path class="cls-2" d="m214.69,44.28h-10.01c-.02-.1-.04-.21-.07-.31.31-.15.61-.34.93-.45,1.12-.37,1.6-1.18,1.62-2.31.02-1.55.19-3.14-.05-4.65-.14-.89-.78-1.93-1.52-2.44-3.93-2.75-7.96-5.35-12.17-8.15-.06.85-.15,1.5-.15,2.15,0,4.03.05,8.06-.02,12.09-.03,1.62.22,2.88,2.03,3.31.26.06.48.29.67.72h-22.68c-.14-.19-.27-.38-.41-.57.32-.12.66-.19.95-.36,1.62-.92,1.97-2.26.82-3.76-2.11-2.76-5.15-3.96-8.41-4.68-.34-.07-1.01.46-1.23.87-.79,1.49-1.46,3.04-2.15,4.58-.8,1.76-.52,2.48,1.24,3.32.21.1.44.16.7.26-.87.64-9.1.8-11.04.17,3.72-.91,3.91-4.33,5.27-6.8,2.08-3.77,3.78-7.76,5.65-11.65.59-1.22,1.76-2.46-.45-3.59,3.96-.54,7.74-.32,11.94-.31-1.86,1.98-.9,3.55-.2,5.1,2.25,5,4.52,9.99,6.81,14.97.97,2.12,2.71,2.63,4.6,1.3.36-.26.65-.89.65-1.35.05-5.82.06-11.65,0-17.47,0-.46-.6-.99-1.04-1.36-.37-.31-.9-.44-1.36-.64.02-.13.04-.26.07-.39h13c-.34,1.21.41,1.78,1.38,2.36,1.98,1.19,3.89,2.51,5.84,3.75.29.19.66.26,1.25.48,0-1.58.08-2.92-.02-4.25-.13-1.75-2.16-1.1-3.29-2.35h23.9c.03.11.05.22.08.33-.36.17-.71.4-1.09.5-1.26.34-1.23,1.2-.67,2.01,1.18,1.69,2.46,3.32,3.77,4.92.15.18.91.17,1.06-.01,1.47-1.85,2.9-3.73,4.26-5.66.14-.2-.17-.88-.45-1.15-.3-.28-.81-.34-1.23-.49.02-.14.05-.28.07-.42h10.52c-.06.21-.07.37-.1.37-3.27.5-4.62,3.27-6.43,5.45-1.4,1.69-2.75,3.44-4.02,5.23-.44.62-.75,1.45-.81,2.2-.13,1.49-.04,3.01-.04,4.51,0,2.94.28,3.35,2.89,4.58h-12.78c.3-.28.4-.46.53-.49,2.15-.47,2.22-2.11,2.44-3.88.49-4.05-.61-7.42-3.5-10.34-1.55-1.56-2.75-3.46-4.21-5.12-.61-.7-1.4-1.35-2.25-1.7-1.86-.76-3.69.52-3.7,2.5-.03,5.05.04,10.1-.04,15.14-.03,2,.76,3.2,2.86,3.59-.07.12-.14.24-.21.36Zm-42.94-11.08c-.98-2.28-1.8-4.18-2.79-6.46-.97,2.11-1.75,3.81-2.56,5.58,1.78.29,3.29.54,5.35.88Z"/><path class="cls-2" d="m249.68,68.75c1.67-.28,3.1-.47,4.5-.79.44-.1.77-.61,1.2-.81.44-.21.95-.37,1.44-.37,5.84-.03,11.68.07,17.51-.04,5.98-.11,11.34-3.25,13.46-9.15.51-1.42.77-3.01.78-4.52.06-12.18.12-24.36-.01-36.55-.06-5.23-2.7-9.13-7.32-11.62-2.3-1.24-4.8-1.62-7.4-1.6-7.39.04-14.79.02-22.18.02-77.73,0-155.47.01-233.2-.02-4.59,0-8.51,1.28-11.68,4.7-2.32,2.51-3.4,5.54-3.42,8.82-.1,12.04-.17,24.07,0,36.11.08,5.58,2.75,10.59,9.1,12.72,1.96.66,4.11,1.01,6.18,1.06,5.54.14,11.09.04,16.64.05.83,0,1.56-.09,2.24.82.43.58,1.67.59,2.57.77.71.14,1.44.14,2.16.38-1.79,0-3.58,0-5.36,0-6.37,0-12.75.09-19.12-.02-6.04-.1-10.92-2.51-14.21-7.75-1.57-2.5-2.12-5.26-2.13-8.14-.02-11.79-.02-23.59,0-35.38,0-7.86,4.55-13.77,12.16-15.71,1.16-.3,2.41-.27,3.63-.27,85.91-.01,171.81,0,257.72-.04,8.46,0,15.77,7.01,15.62,15.59-.22,12.18-.1,24.36-.03,36.54.03,6.26-4.37,12.25-10.45,14.11-2.14.66-4.46.99-6.7,1.03-7.34.13-14.69.05-22.04.05-.47,0-.94,0-1.64,0Z"/><path class="cls-2" d="m77.28,26.33c0,4.17,0,8.35,0,12.52,0,2.05.57,2.8,2.51,3.3.33.08.68.17.94.36.26.18.43.5.64.76-.27.15-.53.4-.81.42-1.02.05-2.04.02-3.06.02-4.47,0-8.95.02-13.42-.03-.5,0-.99-.35-1.49-.54.39-.29.74-.69,1.18-.84,2.31-.81,2.84-1.48,2.84-3.89,0-8.15,0-16.3,0-24.46,0-1.84-.08-1.94-1.93-1.49-1.92.46-4,.71-5.66,1.66-1.55.88-2.7,2.51-3.91,3.91-.86,1-2.9,1.47-3.95.64-.25-.2-.42-.77-.33-1.09.84-2.96,1.73-5.9,2.66-8.83.25-.78,2.05-.97,3.39-.66,1.73.4,3.5.85,5.26.87,7.39.05,14.78-.04,22.17-.14,1.04-.01,2.11-.27,3.12-.58,1.94-.6,2.75-.34,3.36,1.52.84,2.56,1.59,5.16,2.31,7.76.39,1.39.1,1.68-1.38,1.8-1.28.1-2.14-.09-2.85-1.49-1.54-3.04-4.45-4.45-7.65-5.11-3.89-.8-3.91-.71-3.91,3.28,0,3.45,0,6.89,0,10.34-.01,0-.02,0-.03,0Z"/><path class="cls-2" d="m130.31,21.81c.7-.05,1.4-.14,2.1-.14,5.35-.01,10.69.01,16.04-.03,1.3,0,2.6-.24,3.91-.29.39-.02,1.09.1,1.16.31.71,2.18,1.31,4.39,1.95,6.62-1.52.48-2.5.45-3.37-.84-1.79-2.68-7.32-4.15-10.73-3.38-.42.09-.92.74-1,1.2-.16.93-.05,1.9-.05,3.11,1.45-.12,2.74-.21,4.02-.34.9-.09,1.51-.6,1.77-1.46.3-1.01,1.06-.96,1.86-.94.94.03.82.69.95,1.32.47,2.3,1,4.59,1.5,6.85-1.94.82-2.38.66-3.07-.9-.64-1.43-1.73-2.3-3.3-2.49-1.15-.14-2.31-.23-3.61-.35-.04.52-.13,1.03-.13,1.54-.01,2.72.08,5.44-.04,8.15-.1,2.16.23,3.86,2.87,4.33-4.08.51-8.07.31-12.28.37.23-.43.28-.62.35-.64,2.17-.43,2.35-1.93,2.31-3.8-.1-4.46-.11-8.92,0-13.38.05-2.07-.36-3.61-2.66-4.05-.21-.04-.39-.25-.58-.37,0-.13.02-.26.03-.39Z"/><path class="cls-2" d="m117.56,44.27h-11.99c.04-.23.04-.31.05-.31,2.8-.74,2.38-2.99,2.38-5.03,0-3.93,0-7.86,0-11.78,0-2.12-.14-4.14-2.84-4.6-.08-.01-.16-.11-.22-.19-.06-.07-.09-.16-.26-.46.61-.08,1.13-.21,1.66-.21,5.05-.02,10.11.02,15.16-.03,1.74-.02,3.48-.19,5.21-.33.8-.06,1.22.18,1.44,1.01.51,1.99,1.12,3.95,1.71,5.96-1.52.48-2.54.41-3.29-.8-1.61-2.59-7.52-4.23-10.71-3.44-.49.12-1.03.85-1.16,1.39-.2.82-.05,1.72-.05,3.02,1.73-.25,3.32-.43,4.89-.76.37-.08.81-.61.9-1.01.23-1.03.91-1.1,1.74-1.09.85.01.95.54,1.09,1.22.41,2.02.94,4.02,1.34,6.05.08.39-.26,1.23-.45,1.24-.66.04-1.82-.03-1.93-.35-1.04-3.04-3.42-3.56-6.16-3.53-.19,0-.38-.08-.57-.12-.18-.04-.37-.07-.63-.12-.09.31-.22.57-.22.84-.01,3.44-.04,6.89,0,10.33.02,1.64.42,1.97,2.91,3.09Z"/><path class="cls-2" d="m89.62,21.85h12.35c-.04.22-.04.37-.07.39-2.28.7-2.45,2.43-2.4,4.46.11,4.21.11,8.43,0,12.64-.06,2.3.17,4.21,3.04,4.78-4.25.35-8.39.32-12.89.29.38-.45.47-.67.6-.69,1.89-.33,2.26-1.58,2.24-3.28-.06-4.8-.04-9.59-.01-14.39.01-1.62-.21-3.01-2.08-3.49-.19-.05-.33-.29-.78-.72Z"/><path class="cls-1" d="m145.4,52.86c-1.65,1.86-3.37,3.51-4.72,5.42-1.3,1.85-2.9,1.69-5.05,1.38,3.31-3.87,6.44-7.53,9.76-11.41,3.38,3.81,6.67,7.51,10.14,11.42-2.14.21-3.78.41-5.15-1.43-1.41-1.91-3.23-3.52-4.98-5.38Z"/><path class="cls-1" d="m180.96,55.82c-.03-3.79,2.97-6.21,7.21-6.15,3.38.05,6.2,2.53,6.23,6.09.03,3.52-2.87,6.04-6.9,6.03-3.44,0-6.72-2.25-6.54-5.97Zm10.39.15c-.25-1.1-.38-2.32-.8-3.42-.46-1.2-1.48-2.11-2.8-1.83-1.04.22-2.56.82-2.8,1.59-.56,1.77-.68,3.76-.59,5.64.08,1.71,1.32,2.76,2.7,2.89,1.99.19,2.95-.36,3.66-2.25.3-.79.41-1.65.64-2.62Z"/><path class="cls-1" d="m123.09,50.16v2.63c-.1.04-.2.08-.29.12-.24-.32-.47-.64-.71-.96-.76-.98-2.67-1.5-3.7-.92-.27.15-.41.58-.53.91-.08.21-.02.48-.02.72,0,.72,0,1.44,0,2.11,1.75.99,1.83-1.28,3.14-1.49v4.36c-.95-.66-1.81-1.26-2.79-1.95-.74,2.78-.46,4.42.66,4.83,1.87.69,3.59-.13,4.71-2.3.97.75.67,1.78.46,2.62-.08.3-1,.53-1.54.54-2.67.06-5.35.04-8.02.04-.36,0-.71-.07-1.14-.22,1.61-.8,1.63-2.21,1.64-3.62,0-1.46-.02-2.91,0-4.37.02-1.19.04-2.37-1.42-3.05h9.56Z"/><path class="cls-1" d="m233.28,61.99c-.42-.33-.9-.62-1.25-1.01-2.08-2.28-4.12-4.59-6.19-6.87-.29-.31-.66-.55-1.18-.71.41,2.65-1.24,5.57,1.52,7.89h-3.92c1.5-.98,1.63-2.35,1.54-3.86-.08-1.26-.04-2.52,0-3.78.04-1.36-.09-2.61-1.76-3.2,2.5-.88,3.72-.57,5.26,1.17,1.39,1.57,2.79,3.15,4.21,4.7.29.32.67.57,1.18.74-.23-2.33,1.25-4.9-1.72-6.89h4.19c-1.52.93-1.57,2.27-1.53,3.72.06,2.61.02,5.23.02,7.84-.12.09-.23.18-.35.27Z"/><path class="cls-1" d="m56.37,50.07v3.29c-.11.02-.22.04-.33.06-.22-.28-.48-.54-.64-.84-.72-1.36-1.77-2.2-3.37-2.04-1.59.16-2.51,1.14-2.92,2.63-.51,1.84-.74,3.66.11,5.48.63,1.35,1.71,1.93,3.12,1.96,1.47.03,2.58-.62,3.24-1.98.19-.4.47-.76.72-1.14.18.05.37.1.55.15,0,1.09.03,2.17-.04,3.25,0,.14-.78.39-.81.34-.56-.92-1.12-.25-1.71-.06-2.98.96-6.92.44-8.47-2.78-.83-1.72-.39-5.29.82-6.6,1.79-1.93,4.87-2.78,7.03-2.07.79.26,1.67.22,2.71.34Z"/><path class="cls-1" d="m146.92,71.99h-2.87c0-2.37,0-4.73,0-7.08q0-2.36-2.31-2.38c-.42,0-.85-.05-1.34-.08v-2.6h10.19c.03.45.03.83.09,1.2.17,1.11-.22,1.54-1.42,1.52-2.34-.05-2.34.01-2.34,2.33,0,2.31,0,4.63,0,7.1Z"/><path class="cls-1" d="m71.45,61.31h-5.71c1.02-.57,1.68-1.25.96-2.37-.26-.4-.81-.7-1.29-.86-.44-.15-.97,0-1.45-.08-1.2-.21-2.07.29-2.2,1.41-.06.56.64,1.2,1.03,1.85h-3.87c2.72-2.95,3.46-6.84,5.3-10.15.09-.17.08-.4.2-.54.28-.33.62-.88.92-.87.33.02.76.5.93.88,1.02,2.32,1.93,4.7,3,7.01.6,1.3,1.45,2.48,2.18,3.72Zm-7.01-8.09c-.66,1.45-1.15,2.53-1.69,3.73h3.06c-.45-1.21-.82-2.23-1.37-3.73Z"/><path class="cls-1" d="m178.89,57.68v3.22c-1.27.21-2.39.38-3.5.57-3.22.56-5.99-.51-7.03-2.96-.88-2.06-1.13-4.94,1.21-7.21,1.56-1.51,3.96-2.38,6.68-1.3.43.17,1.03-.08,1.55-.13.3-.03.69-.16.87-.02.44.32.02,3.07-.57,3.6-.15-.31-.28-.59-.43-.86-.67-1.2-1.56-2.12-3.06-2.09-1.4.02-2.35.71-2.87,2.04-.87,2.23-1.27,4.43.12,6.62.74,1.16,1.83,1.51,3.1,1.42,1.32-.1,2.22-.82,2.78-2.02.19-.4.47-.76.7-1.13.15.08.31.16.46.24Z"/><path class="cls-1" d="m247.92,49.8v3.89c-.5-.53-.81-.74-.96-1.03-.71-1.41-1.71-2.28-3.42-2.1-1.84.2-2.64,1.57-2.89,3.02-.33,1.89-.79,3.94.6,5.72,1.58,2.02,4.58,1.7,5.7-.61.2-.41.47-.78,1.04-1.07v3.29c-.91.14-1.77.19-2.57.42-3.51,1-7.12-.38-7.94-3.38-.65-2.36-.65-4.83,1.48-6.7,1.98-1.74,4.15-2.15,6.66-1.23.64.24,1.51-.13,2.3-.22Z"/><path class="cls-1" d="m100.76,50.16h6.29c.11.13.23.26.34.39-2.53-.03-2.23,1.58-2.23,3.02,0,1.4,0,2.81,0,4.21,0,1.15.07,2.26,1.39,2.74,1.21.44,2.89.04,3.72-.96.35-.42.58-.93.87-1.39l.5.02c.02.93.17,1.89-.02,2.78-.06.26-1.06.46-1.63.46-3.04.04-6.09.02-9.35-.18,1.91-.66,1.61-2.11,1.61-3.44,0-1.6.01-3.19,0-4.79-.01-1.14.35-2.51-1.92-2.38.15-.16.29-.32.44-.49Z"/><path class="cls-1" d="m90.01,61.29c1.62-.53,1.59-1.77,1.56-3.08-.05-1.89.02-3.78-.04-5.67-.02-.57-.21-1.55-.49-1.61-.64-.15-1.51-.04-2.05.32-.7.46-1.17,1.27-1.74,1.93-.15-.03-.31-.06-.46-.09.07-.84-.03-1.74.27-2.48.14-.34,1.04-.51,1.61-.52,2.72-.05,5.44-.02,8.16-.02,2.57,0,2.77.27,1.67,3.33-.15-.37-.22-.81-.47-1.08-.44-.48-.93-1-1.5-1.27-1.4-.66-2.12-.19-2.15,1.38-.04,2.23-.13,4.47.07,6.68.07.79.96,1.5,1.43,2.19h-5.87Z"/><path class="cls-1" d="m82.64,61.29h-6.35c1.73-.63,1.87-1.98,1.82-3.5-.06-1.65.07-3.3-.05-4.94-.05-.7-.52-1.38-.8-2.07-.94.46-1.91.89-2.81,1.41-.3.17-.45.61-.67.92-.15-.04-.3-.07-.45-.11,0-.78-.08-1.58.05-2.35.04-.24.62-.56.96-.56,3.35-.04,6.71-.05,10.06-.01,1.27.01,1.6,1.4.81,2.81-.82-.64-1.57-1.47-2.51-1.91-1.25-.58-1.76-.13-1.77,1.28-.02,1.94.02,3.88-.01,5.82-.03,1.38-.23,2.81,1.73,3.21Z"/><path class="cls-1" d="m213.77,61.26c2.41-.66,1.85-2.58,1.88-4.21.02-1.16-.01-2.33,0-3.49.03-1.46,0-2.87-1.92-3.33h6.1c-1.36.52-1.32,1.63-1.31,2.75.02,1.8.03,3.59,0,5.39-.02,1.25.1,2.37,1.59,2.9h-6.36Z"/><path class="cls-1" d="m201.69,64.33c.77-.91,1.33-1.58,1.97-2.35-.4-.23-.69-.31-.85-.51-.38-.47-1.03-1.05-.95-1.48.09-.5.82-1.2,1.3-1.22.46-.02,1.2.61,1.4,1.12.73,1.83-.5,3.81-2.88,4.44Z"/><path class="cls-1" d="m197.86,62.14c-.64-.97-1.31-1.54-1.27-2.06.04-.49.82-.93,1.28-1.38.48.56,1.12,1.06,1.36,1.71.1.28-.65.86-1.36,1.73Z"/><path class="cls-1" d="m171.75,33.2c-2.05-.34-3.56-.59-5.35-.88.81-1.76,1.59-3.47,2.56-5.58.99,2.28,1.8,4.18,2.79,6.46Z"/><path class="cls-2" d="m191.35,55.96c-.23.97-.34,1.83-.64,2.62-.71,1.89-1.67,2.43-3.66,2.25-1.37-.13-2.62-1.18-2.7-2.89-.09-1.88.03-3.87.59-5.64.24-.77,1.76-1.37,2.8-1.59,1.32-.28,2.34.63,2.8,1.83.42,1.1.56,2.32.8,3.42Z"/><path class="cls-2" d="m64.44,53.22c.55,1.49.93,2.51,1.37,3.73h-3.06c.54-1.19,1.03-2.27,1.69-3.73Z"/></svg>