<?xml version="1.0" encoding="UTF-8"?><svg id="Layer_1" xmlns="http://www.w3.org/2000/svg" viewBox="0 0 405.59 307.11"><defs><style>.cls-1{fill:#01235e;stroke-width:0px;}</style></defs><path class="cls-1" d="m114.53,307.11c-.88-.86-1.65-1.89-2.66-2.55-5.38-3.54-10.86-6.93-16.22-10.5-4.24-2.83-8.31-5.92-12.56-8.74-3.88-2.57-7.92-4.89-11.84-7.39-2.15-1.37-4.2-2.9-6.77-4.69-1.37,2.67-2.44,5.13-3.82,7.39-1.78,2.91-3.85,5.65-5.7,8.52-1.94,3.02-3.69,6.16-5.67,9.15-1.6,2.43-3.21,4.91-5.22,6.96-.65.66-2.66.32-3.92-.02-1.12-.3-2.06-1.24-3.35-2.07,3.25-5.39,6.42-11.08,10.02-16.47,3.5-5.25,6.9-10.51,10-16.32-1.64-.4-2.87-.4-3.68-.97-1.3-.92-2.23-2.07-2.28-4.05-.06-2.42.92-3.18,3.03-3.53,2.02-.33,3.98-1.19,6-1.39,3.4-.34,2.89-3.47,3.93-5.34,1.23-2.23,1.57-4.94,2.46-7.38,1.02-2.82,2.22-5.58,3.51-8.79.57.27,1.87.47,2.12,1.09.88,2.15,2.87,4.18,1.19,6.84-.46.73-.75,1.65-.88,2.51-.26,1.78.19,3.61-1.34,5.23-.61.65-.1,2.35-.1,3.38,1.71-.34,3.06-.53,4.37-.88,3.46-.92,6.92-1.87,10.36-2.88,2.1-.62,4.22-1.23,6.23-2.08,3.47-1.46,6.86-3.1,10.28-4.67,3.69-1.7,7.43-3.29,11.03-5.15,5.09-2.63,9.89-5.74,14.02-9.77,1.13-1.1.28-3.55-1.83-4.84-3.06-1.87-6.27-3.36-10.02-3.28-4.9.11-9.83-.2-14.7.24-3.17.29-6.24,1.61-9.36,2.46-.41.11-.83.22-1.24.33-3.59,1.02-7.21,1.96-10.77,3.07-3.68,1.15-7.34,2.37-10.93,3.74-1,.38-2.29,1.31-2.5,2.21-1.02,4.33-4.45,5.83-7.94,7.37-2.29,1.01-4.58,2.01-6.86,3.04-1.74.79-2.69-.33-3.8-1.37-2.09-1.96-1.49-5.37,1.02-6.65,3.09-1.58,5.96-3.58,9.04-5.17,3.21-1.66,6.58-3.02,9.86-4.56,1.83-.86,3.59-1.88,5.44-2.69,1.59-.69,3.26-1.25,4.93-1.74,4.27-1.25,8.57-2.42,12.85-3.66,2.98-.86,5.93-1.82,8.91-2.69.82-.24,1.67-.44,2.52-.46,4.51-.09,9.03-.11,13.54-.15,5.46-.06,8.99,3.28,12.16,7.08,1.65,1.98,2.95,4.25,4.43,6.37,1.75,2.51,1.03,7.49-1.69,9.23-3.78,2.43-7.75,4.58-11.68,6.77-4.6,2.56-9.19,5.16-13.9,7.5-3.08,1.53-6.37,2.63-9.56,3.95-2.71,1.12-5.41,2.27-8.11,3.41-2.2.92-4.37,1.92-6.61,2.74-2.12.78-4.31,1.37-7.2,2.27,1.97,1.71,3.38,3.07,4.93,4.23,4.05,3.02,8.18,5.92,12.23,8.93,3.3,2.46,6.53,5.02,9.8,7.53,3.82,2.93,7.63,5.87,11.49,8.75,3.44,2.57,7.01,4.99,10.36,7.67.66.52.61,1.92.89,2.92h-8.26Z"/><path class="cls-1" d="m190.09,269.91c4.28-2.72,8.6-5.38,12.83-8.17,5.87-3.88,10.83-8.8,15.69-13.84,4.6-4.76,9.41-9.31,14.01-14.06,2.98-3.07,5.74-6.35,8.62-9.53,2.92-3.22,5.85-6.43,9.28-10.19.82,1.78,1.75,3.03,1.87,4.36.07.77-1.11,1.72-1.83,2.49-2.86,3.06-5.81,6.05-8.62,9.16-.46.51-.41,1.49-.59,2.26.77-.12,1.62-.06,2.28-.4,1.18-.6,2.21-1.48,3.34-2.18,2.18-1.33,4.03.06,4.75,1.58.73,1.54.95,4.08.14,5.46-3.14,5.38-6.96,10.36-10.15,15.71-2.15,3.6-3.63,7.59-5.46,11.37-1.89,3.9-4.02,7.69-5.72,11.67-1.56,3.66-2.61,7.52-3.99,11.26-.81,2.2-1.86,4.3-2.72,6.48-.27.7-.43,1.53-.35,2.27.18,1.65-.75,2.7-2.08,2.51-.95-.13-2.4-1.4-2.47-2.26-.19-2.25.02-4.61.49-6.84.64-3.1,1.43-6.22,2.59-9.15,1.16-2.92,2.82-5.65,4.33-8.42,1.65-3.02,3.32-6.04,5.09-8.99,1.54-2.56,3.26-5.01,4.84-7.55,1.78-2.87,3.53-5.76,5.2-8.69,1.19-2.09,2.31-4.22,3.28-6.42.25-.57-.2-1.45-.33-2.19-.6.31-1.18.81-1.81.9-2.75.4-5,1.71-7.03,3.5-3.48,3.08-7.15,5.99-10.38,9.31-3.27,3.35-6.23,7.03-9.1,10.74-2.07,2.68-3.79,5.62-5.64,8.47-1.16,1.79-2.18,3.67-3.43,5.39-.32.44-1.35.62-1.97.5-.44-.08-.93-.83-1.07-1.37-.82-3.07.98-5.42,2.36-7.84.6-1.05,1.43-1.97,2.16-2.95-.14-.24-.28-.49-.42-.73-1.3.61-2.72,1.05-3.89,1.87-3.62,2.52-7.16,5.18-10.71,7.8-.77.57-1.63,1.07-2.22,1.8-1.3,1.58-2.19,2.12-3.93.21-2.89-3.17-3.32-6.67-2.44-10.55.35-1.57.83-3.11,1.39-4.62.32-.87.91-1.64,1.49-2.64-1.4-.45-2.29-.85-3.41.76-4.07,5.84-8.49,11.43-12.55,17.27-1.64,2.36-2.69,5.12-4.11,7.88-2.99-3.61-2.83-4.29-.57-7.95,2.22-3.6,4.06-7.43,6.02-11.19,1.56-3,3.16-6,4.54-9.09.86-1.93,1.32-4.02,1.97-6.04.2-.62.42-1.23.63-1.85.36-1.09.72-2.18,1.17-3.55-4-.08-6.06,2.4-8.41,4.08-2.44,1.75-4.67,3.88-6.67,6.13-2.85,3.21-5.42,6.68-8.09,10.04-1.14,1.44-2.31,2.86-3.36,4.35-2.11,3-4.22,6-6.19,9.08-1.42,2.21-2.62,4.56-4.11,7.18-1.65.56-2.65-.14-2.48-2.4.1-1.29.22-2.58.19-3.86-.01-.51-.38-1.02-.59-1.53-.39.24-.85.42-1.17.74-4.34,4.31-8.66,8.65-13.01,12.95-1.12,1.11-2.15,1.19-3.19-.32-1.36-1.96-2.36-3.7-.24-5.85.51-.52.26-1.78.45-3.53-1.53.67-2.57,1.06-3.55,1.58-4.48,2.37-9.24,3.22-14.18,2.14-2.01-.44-3.05-5.68-1.77-7.7.94-1.48,1.8-3.02,2.79-4.46,2.41-3.52,4.66-7.18,7.38-10.45,3.37-4.05,7.03-7.86,10.77-11.57,2.78-2.76,5.75-5.38,8.88-7.73,3.04-2.28,6.36-4.19,9.63-6.14.5-.3,1.66-.21,2.06.17.99.95,3.03,1.58,2.33,2.68-3.83,2.66-6.98,4.51-9.72,6.83-4.15,3.51-8.14,7.23-11.97,11.09-3.37,3.4-6.2,7.34-9.67,10.63-2.72,2.58-4.65,5.64-6.89,8.53-1.21,1.57-1.42,2.94-.88,5.1,3.35-.81,6.53-1.75,9.36-3.63,4.68-3.11,8.66-7,12.21-11.33,2.61-3.19,5.05-6.52,7.49-9.85,1.4-1.9,2.66-3.91,4.13-6.1h2.03c1.44,4.4.34,8.06-2.22,11.59-1.58,2.18-2.68,4.7-4,7.07-.54.97-1.11,1.94-1.66,2.9.39.27.77.55,1.16.82,1.85-2.23,3.68-4.48,5.55-6.7,4.07-4.81,8.23-9.55,12.24-14.41,3.08-3.74,5.96-7.64,9-11.42,1.62-2.01,3.38-3.89,5.4-6.21,1.51,1.64,2.65,3.18,4.1,4.31.61.47,2.1.43,2.81,0,1.41-.84,2.58-2.09,3.81-3.22,1.34-1.23,2.68-1.41,3.94,0,1.32,1.47,2.55,3.03,4.06,4.85-1.52,2.64-3.1,5.26-4.52,7.96-.3.56-.04,1.43-.03,2.15.56-.21,1.17-.34,1.67-.65,3.92-2.41,7.81-4.87,11.73-7.27,3.25-1.99,6.51-3.97,9.83-5.85,1.44-.82,2.98-1.59,4.57-2.02,3-.81,4.46.6,4.65,4.33-9.88,1.94-17.27,7.63-22.56,15.96-2.85,4.5-4.3,9.67-5.19,14.91.26.11.51.21.77.32Z"/><path class="cls-1" d="m247.86,123.15c-1.46.18-2.45.41-3.44.42-3.18.03-6.42-.4-9.54.07-4.3.64-6.15-1.93-8.06-4.9-1.79-2.8-3.72-5.52-5.6-8.26-.18-.26-.65-.39-.71-.65-.35-1.38-.8-3.09-2.49-2.5-1.14.4-1.97,1.94-2.76,3.08-1.88,2.72-3.65,5.52-5.48,8.28-.13.19-.58.23-.62.4-1.19,4.99-4.95,4.89-8.89,4.61-2.01-.14-4.04-.03-6.07-.03-.19-.26-.37-.51-.56-.77,1.22-1.64,2.48-3.26,3.66-4.93,2.1-2.96,4.15-5.96,6.23-8.94,2.39-3.41,4.58-6.98,7.26-10.14,1.64-1.93.47-2.98-.44-4.25-2.12-2.99-4.32-5.93-6.51-8.87-1.16-1.56-2.2-3.28-3.64-4.53-.92-.8-2.46-1.22-3.73-1.24-8.34-.13-16.69-.12-25.04-.14-1.01,0-2.02,0-3.17,0V27.68c1.2-.09,2.35-.25,3.51-.25,9.63-.01,19.26.08,28.89-.04,2.39-.03,4.77-.7,7.16-1.04,1.89-.28,2.71.61,2.66,2.47-.27,9.85,1.56,8.1-7.76,8.23-5.42.08-10.84,0-16.26.02-3.57.02-3.64.13-3.64,3.55,0,1.63.02,3.27-.04,4.9-.09,2.29.96,3.31,3.24,3.28,3.79-.05,7.57-.03,11.36,0,1.01,0,2.01.1,3.24.17,0,2.68-.02,5.15,0,7.62.02,1.62-1.04,1.72-2.25,1.72-3.79,0-7.57.07-11.36.06-4.23,0-4.22-.03-4.2,4.04.01,1.63.11,3.28-.05,4.9-.24,2.47,1.16,2.88,3.13,2.86,7.14-.06,14.28-.08,21.42-.11,2.69-.01,5.07,2.25,6.36,4.61,1.95,3.56,4.5,6.8,6.9,10.33,3.45-5.14,6.5-9.7,9.58-14.23.21-.3.65-.63.98-.63,3.91-.04,7.82-.03,12.38-.03-1.04,1.82-1.62,3.29-2.59,4.43-2.45,2.9-4.56,5.95-6.44,9.29-1.82,3.25-4.39,6.15-6.95,8.91-1.22,1.32-.72,2.02.03,2.97,2.79,3.55,5.76,6.96,8.36,10.65,3.1,4.4,5.86,9.04,8.85,13.51.73,1.09,1.79,1.96,3.02,3.27Z"/><path class="cls-1" d="m36.28,149.85c8.55,0,16.54-.08,24.53.08,1.42.03,2.88.93,4.17,1.69.35.2.27,1.41.13,2.09-.28,1.34-1.01,2.63-1.1,3.97-.27,3.95-1.1,4.87-4.94,4.87-7.57,0-15.14.13-22.71-.08-2.42-.07-3.72.71-4.25,2.9-.81,3.36-1.67,6.73-2.23,10.13-.48,2.91-.07,3.22,2.97,3.22,8,0,16-.02,24-.01,1.19,0,2.38.16,4.29.3-.51,2.05-.98,3.83-1.4,5.62-.23.99-.41,2-.54,3.01-.23,1.83-1.23,2.75-3.08,2.75-14.54-.01-29.07-.05-43.61,0-1.69,0-2.56-.66-2.26-2.22.82-4.33,1.8-8.63,2.73-12.94.07-.33.31-.62.37-.95.7-3.78,1.25-7.6,2.09-11.35.79-3.56,1.88-7.06,2.83-10.58.07-.25.1-.51.15-.76,1.15-5.53,2.2-11.08,3.49-16.57.86-3.65,2.21-7.18,3.05-10.84.45-1.96,1.62-2.17,3.16-2.18,2.24-.01,4.47-.02,6.71-.02,11.1,0,22.19-.05,33.29.07,1.29.01,3.5.68,3.67,1.42.37,1.61-.26,3.47-.55,5.22-.12.73-.52,1.43-.6,2.16-.34,3.19-1.05,3.88-4.37,3.89-7.83.02-15.65.01-23.48,0-3.65,0-4.45.83-4.76,4.42-.14,1.62-.94,3.16-1.21,4.78-.31,1.83-.36,3.69-.55,5.89Z"/><path class="cls-1" d="m247.79,167.69c-5.16,0-10.32-.02-15.48,0-2.49.01-3.25,1.02-2.71,3.47,1.36,6.11,5.02,9.2,11.2,9.45,1.29.05,2.58,0,3.87.08,5.53.33,10.43-1.53,15.17-4.17.94-.52,2.43-.8,3.32-.41.62.27,1.05,1.94.9,2.88-.51,3.09-1,6.26-3.19,8.76-.21.24-.45.54-.74.64-1.74.61-3.45,1.44-5.24,1.69-6.56.91-13.17,3.14-19.74,1.57-4.08-.97-8.32-1.56-12.23-4.15-3.2-2.12-5.58-4.76-7.07-7.67-2.25-4.4-2.98-9.57-1.91-14.57.73-3.41,1.66-6.93,3.32-9.95,1.78-3.24,4.22-6.26,6.91-8.81,3.84-3.64,8.68-5.43,13.82-7.01,4.81-1.48,9.48-1.31,14.12-.95,5.15.4,9.72,3.05,13.19,6.94,1.2,1.34,1.49,3.55,2.05,5.41.54,1.79,1.32,3.66,1.24,5.46-.14,2.98-.64,6-1.48,8.86-.39,1.33-1.58,2.58-3.59,2.52-5.24-.14-10.49-.05-15.74-.05v.02Zm-16.83-8.37c7.52,0,13.94.11,20.35-.08,1.65-.05,3.07-1.15,3.08-3.25.01-3.69-3.84-7.57-7.55-7.98-5.32-.59-9.6,1.38-13,5.15-1.32,1.46-1.78,3.7-2.88,6.16Z"/><path class="cls-1" d="m316.69,186.14c.88-2.75,1.82-5.53,2.65-8.34.66-2.24,1.33-2.15,3.51-1.1,3.35,1.61,6.93,2.82,10.5,3.89,2.52.76,5.35,1.76,7.77,1.29,3.4-.66,7.42-.47,9.85-3.99.75-1.09,1.06-1.48,0-2.7-1.51-1.73-3-2.66-5.35-3.03-3.13-.49-6.16-1.68-9.17-2.75-2.8-1-5.79-1.83-8.22-3.45-3.43-2.3-5.99-5.93-5.26-10.1.92-5.28,3.26-10.11,8.59-12.79,3.41-1.72,7.07-2.44,10.61-3.58,5.13-1.65,10.14-1.17,15.13-.89,4,.23,7.96,1.77,11.85,2.99.65.21,1.2,1.78,1.21,2.74.02,1.58-.25,3.23-.74,4.74-.47,1.45-1.14,2.96-2.12,4.09-1.54,1.78-2.8-.41-4.16-.77-2.86-.76-5.57-2.27-8.46-2.73-3.1-.49-6.37-.37-9.52-.07-1.93.18-3.95.91-5.58,1.95-.76.48-1.19,2.45-.85,3.42.4,1.14,1.65,2.42,2.8,2.77,4.34,1.31,8.88,1.98,13.16,3.44,4.63,1.59,9.65,3.52,11.29,8.56.96,2.97,1.05,6.53-.62,9.9-1.72,3.49-4.23,5.97-7.36,7.95-1.67,1.05-3.46,2.08-5.35,2.58-7.52,1.98-15.23,2.36-22.9,1.45-3.78-.45-7.47-1.84-11.11-3.08-.92-.31-1.5-1.64-2.15-2.4Z"/><path class="cls-1" d="m317.53,154.32c-3.73-1.69-6.67-3.04-9.64-4.35-.46-.2-1-.29-1.5-.29-4.55-.03-9.11-.15-13.66,0-3.02.1-4.65,2.05-4.2,4.99.16,1.06,1.05,2.23,1.94,2.9,1.1.82,2.5,1.35,3.86,1.67,3.05.72,6.23.96,9.22,1.87,4.97,1.52,9.85,3.39,12.39,8.51,1.32,2.65-.49,10.22-2.27,12.73-2.76,3.88-6.89,5.54-10.76,7.7-.14.08-.31.12-.48.17-7.28,1.85-14.71,2.27-22.11,1.47-4.29-.46-8.46-1.97-12.81-3.04-.58-4.32-.38-8.3,1.7-11.97.29-.52,1.77-.89,2.38-.62,2.72,1.2,5.2,3.12,8,3.91,3.89,1.1,8.13,2.32,11.99,1.78,3.04-.43,7.24-.33,9.12-4.1.31-.63.57-1.82.26-2.13-1.54-1.49-2.88-3.06-5.46-3.36-3.13-.36-6.16-1.71-9.22-2.66-1.91-.59-3.84-1.16-5.71-1.87-4.6-1.72-7.18-5.46-7.71-9.94-.31-2.61,1.45-5.48,2.32-8.22,1.88-5.95,7.48-7.47,12.24-9.18,6.66-2.39,13.89-2.58,20.94-1.71,3.41.42,6.75,1.72,10.01,2.93.79.29,1.73,1.88,1.59,2.7-.53,3.21-1.47,6.34-2.41,10.1Z"/><path class="cls-1" d="m146.05,143.03c6.26-5.24,13.47-5.81,20.7-4.42,2.32.44,4.79,3,6.12,5.22,3.35,5.62,2.42,11.58.6,17.64-.9,2.98-1.8,5.91-3.8,8.17-2.4,2.72-5.05,5.32-8,7.41-5.77,4.11-12.54,3.65-19.18,3.32-.79-.04-1.58-.53-2.33-.91-2.74-1.39-4.19-.47-4.57,2.5-.33,2.56-1.08,5.08-1.85,7.55-.14.45-1.26.82-1.94.84-3.09.09-6.19.14-9.28-.02-.62-.03-1.74-1.06-1.69-1.55.22-2.51.74-4.99,1.17-7.48.06-.33.26-.64.32-.98.69-3.77.6-7.94,2.28-11.2,1.73-3.35.24-7.13,2.58-10.24,1.11-1.48,1.14-3.8,1.56-5.76.69-3.25,1.43-6.49,1.89-9.77.53-3.74,1.64-4.9,5.36-4.91,1.29,0,2.58,0,3.87,0,4.01,0,4.79.53,6.19,4.6Zm-7.65,27.76c4.08,0,7.66.49,11.02-.16,2.55-.5,5.61-1.9,7.04-3.9,2.31-3.22,3.73-7,3.74-11.41.01-4.31-3.07-7.96-7.4-7.57-1.37.12-2.74.15-4.12.24-3.88.25-6.11,2.51-6.6,6.45-.22,1.75-.74,3.46-1.14,5.18-.81,3.54-1.62,7.08-2.56,11.16Z"/><path class="cls-1" d="m91.19,179.1c-1.34-.38-2.2.06-2.96,1.64-.8,1.68-2.25,3.04-3.35,4.59-3.24,4.57-6.48,9.14-9.65,13.76-2.76,4.03-5.31,8.21-8.21,12.14-.71.96-2.36,1.57-3.64,1.7-2.64.25-5.33.18-7.98,0-.86-.06-2.14-.68-2.4-1.36-.33-.88-.08-2.19.36-3.11,1.31-2.75,2.85-5.39,4.28-8.08,1.22-2.3,2.3-4.68,3.63-6.92,1.94-3.27,4.04-6.44,6.09-9.64,1.76-2.76,3.45-5.58,5.33-8.26,2.48-3.54,5.14-6.96,7.68-10.46,1.1-1.52,2.28-2.51,4.39-2.44,4.98.16,10,.37,14.95-.05,3.63-.31,4.91,2.12,6.47,4.29,2.04,2.84,3.84,5.85,5.66,8.83,1.49,2.45,2.88,4.95,4.27,7.46.58,1.06,1.32,2.15,1.47,3.3.29,2.22-1.24,3.88-3.46,3.91-4.73.06-9.49.33-14.17-.15-1.67-.17-3.5-2.03-4.63-3.57-1.65-2.25-2.73-4.92-4.14-7.56Z"/><path class="cls-1" d="m95.59,145.98c3.77-3.41,7.32-6.79,11.06-9.95,3.13-2.64,6.43-5.09,9.77-7.48,3.76-2.69,7.57-5.35,11.52-7.74,1.69-1.02,3.78-1.76,5.73-1.88,4.88-.29,9.79-.17,14.69-.17.55,0,1.09.26,2.38.59-2.08,1.56-3.63,2.8-5.26,3.92-7.1,4.88-14.05,9.91-20.19,16.05-6.19,6.18-12.68,12.05-19.06,18.05-1.37,1.29-2.73,2.23-4.91,2.13-5.66-.24-11.34-.13-17.02-.06-2.18.03-3.11-1.15-4-2.92-1.2-2.4-2.83-4.58-4.17-6.91-1.38-2.4-2.62-4.88-3.95-7.3-.42-.75-1.1-1.37-1.42-2.15-.86-2.11.49-3.65,1.77-4.94,2.41-2.44,5.05-4.65,7.56-6.98,2.23-2.07,3.55-1.61,4.97,1.21,1.27,2.52,3.05,4.77,4.5,7.2,1.35,2.27,2.52,4.65,3.88,6.91.53.88,1.38,1.57,2.14,2.41Z"/><path class="cls-1" d="m247.53,270.76c2.56,1.06,3.85.83,5.96-.36,3.42-1.93,6.15-4.54,9.14-6.88,3.34-2.61,6.56-5.42,9.61-8.36,4.93-4.74,9.68-9.66,14.49-14.52.33-.33.46-.86.7-1.32,2.95,2.49,2.93,2.48,1.26,6.3-.17.39-.14,1.14.12,1.42,1.62,1.73,3.21,3.53,5.05,5.01,2.15,1.74,4.16-.24,6.2-.71,3.1-.72,6.13-1.76,9.24-2.43,5.16-1.1,10.34-2.22,15.56-2.94,3.47-.48,7.03-.37,10.55-.27.59.02,1.74,1.76,1.61,1.94-.73.97-1.66,2.09-2.74,2.42-1.43.44-3.08.11-4.61.28-5.67.64-11.43.94-16.98,2.15-4.69,1.02-9.21,2.96-13.66,4.82-2.2.92-3.08,3.4-3.8,5.49-2.04,5.91-5.42,10.9-10.34,14.59-2.91,2.18-6.03,4.45-10.22,4.09-2.55-.22-4.71-.53-5.94-3.08-.18-.37-.79-.54-1.13-.76,2.36-6.93,8.37-10.69,13.09-15.43,3.04-3.05,7.07-5.12,11.62-8.72-1.83-1.75-3.67-3.5-5.93-5.65-3.11,3.29-5.31,5.8-7.71,8.09-3.34,3.18-6.82,6.23-10.29,9.27-2.04,1.79-4.05,3.66-6.29,5.17-3.29,2.22-6.68,4.35-10.22,6.13-2.04,1.02-4.45,1.4-6.74,1.83-1.13.21-2.14-.21-2.14-1.82,0-2.24-1.54-1.67-2.7-1.12-1.1.53-2.06,1.37-3.1,2.09-.82-.61-1.53-1.13-2.24-1.66,2.11-1.57,4.2-2.89,5.98-4.54.91-.84,1.47-2.2,1.87-3.43.76-2.31,1.12-4.76,1.96-7.04.85-2.3,1.87-4.6,3.2-6.66,1.95-3.02,3.99-6.05,6.44-8.65,2.88-3.06,6.12-5.85,10.53-6.63.31-.05.61-.24.89-.42,2.16-1.42,4.43-.38,4.67,2.17.35,3.72-.8,6.85-2.7,10.16-4.4,7.68-11.29,12.82-17.53,18.65-.52.49-1.34.66-2.73,1.32Zm1.73-7.7c.37.27.73.53,1.1.8,6.85-5.23,12.23-11.8,16.84-19.07-2.13-1.78-4.34-1.48-6.02-.39-2,1.3-3.78,3.13-5.21,5.06-1.82,2.46-3.31,5.19-4.7,7.93-.9,1.77-1.36,3.77-2.01,5.67Zm41.96-.85c-.77-.07-1.74-.47-2.33-.16-1.5.79-2.74,2.08-4.24,2.85-4.08,2.08-7.13,5.39-10.27,8.54-.65.65-.41,2.36-.22,3.53.05.31,1.62.82,2.12.55,1.95-1.06,3.88-2.22,5.57-3.65,3.79-3.21,7.58-6.47,9.38-11.65Z"/><path class="cls-1" d="m134.11,87.65c1.04,2.77,2.08,5.54,3.12,8.31l.05-.05c-1.03-.21-2.05-.44-3.08-.63-1.39-.25-3.31-1.13-4.1-.54-2.04,1.53-4.08,2.8-6.54,3.41-.07.02-.07.3-.17.81,1,.11,2,.09,2.92.36.94.27,1.8.81,2.69,1.23l.07-.07c-.32.13-.75.17-.93.41-1.31,1.64-2.49,1.91-4.13.23-.42-.43-2.15-.04-2.96.47-2.06,1.33-8.71,1.33-10.64-.26-2,.88-4.02,2-6.15.22-.14-.12-.48-.03-.72,0-3.06.32-6.12.73-9.19.93-.76.05-1.58-.8-2.35-.77-3.18.13-6.35.6-9.53.63-4.31.05-8.62-.29-12.93-.26-4.73.04-9.45.39-14.18.45-5.32.06-10.64-.05-15.96-.09-2.2-.01-4.4.02-6.6-.04-2.67-.07-5.34-.3-8.01-.29-2.71,0-5.41.29-8.12.33-2.11.03-4.27.16-6.31-.24-3.48-.68-5.6-.04-7.87,3.15,2.55.42,5.01,1.14,7.47,1.16,3.09.02,6.19-.78,9.29-.79,10.18-.04,20.36.18,30.54.19,10.28,0,20.55-.14,30.83-.15.74,0,1.47.5,1.72.59,1.71-.22,3.07-.52,4.43-.53,4.62-.03,9.25.09,13.87.08,2.65,0,5.49.44,7.89-.37,1.97-.67,3.4-2.64,5.12.18.12.2.82.07,1.25.08,1.72.02,3.44.12,5.15.03.79-.04,1.57-.47,2.35-.72,1.06-.35,2.12-.7,3.19-1.04.09.27.19.54.28.81-.53.65-1.07,1.31-1.6,1.96.12.19.24.38.35.56,3.86-.76,8.11,1.69,11.67-1.69.16-.15.66.04.99.08l-.06-.06c.13,2.15-1.65,2.76-3.05,3.05-2.94.61-5.97.95-8.96,1.01-1.59.03-3.19-.83-4.8-1.18-1.69-.37-3.42-.57-5.1-.95-1.55-.35-3.06-.85-4.96-1.4-1.84,1.94-4.18,2.47-7.54,1.84-3.66-.69-7.62.46-11.45.46-5.54,0-11.09-.36-16.63-.42-2.28-.03-4.57.5-6.86.47-6.83-.07-13.65-.32-20.47-.41-1.51-.02-3.02.48-4.53.45-4.12-.1-8.23-.5-12.34-.5-4.47,0-8.94.43-13.41.46-2.99.02-5.98-.32-8.97-.47-.41-.02-.82.13-1.23.22-3.75.83-5.36,0-6.9-3.53,1.91-1.53,3.79-3.1,5.74-4.56.57-.43,1.38-.79,2.07-.78,4.78.11,9.56.39,14.34.47,2.31.04,4.63-.22,6.95-.36.6-.04,1.19-.18,1.79-.18,5.48,0,10.97-.19,16.43.1,3.87.2,7.71-.12,11.54.02,3.83.14,7.64-.37,11.42-.08,3.78.29,7.53,0,11.28.07,3.58.06,7.13.16,10.71-.04,2.72-.16,5.75,1.19,8.14.38,3.06-1.05,5.9,1.3,8.78-.35.66-.38,2.04.09,2.89.55,2.59,1.4,5.97,1.34,8.01-.61.78-.74,1.08-1.97,1.48-2.76,2.32-.93,4.6-1.84,7.17-2.86-4.83-5.6-2.07-12.09-2.81-18.1-.17-1.35-.23-2.8.06-4.11.76-3.39,1.78-6.72,2.64-10.09.7-2.71,1.15-5.49,2.03-8.14.77-2.3,1.99-4.45,3.02-6.66.58-1.23,1.36-2.39,1.74-3.67,1.31-4.41,4.33-7.84,6.94-11.36,2.91-3.92,6.72-7.17,10.23-10.63,1.92-1.89,3.88-3.77,6.05-5.35,2.27-1.65,4.82-2.91,7.24-4.36.86-.52,1.67-1.14,2.55-1.61,2.74-1.46,5.43-2.87,8.61-3.44,2.61-.47,4.97-2.18,7.55-2.94,4.03-1.18,8.15-2.11,12.27-2.95.93-.19,2.03.39,2.67.53,1.59-.33,2.89-.71,4.22-.85,1.36-.14,2.75-.17,4.1,0,.99.12,1.92.63,2.89.95.48.16,1.06.5,1.44.35,2.6-1.01,5.07.31,7.55.54,2.62.24,5.15,1.55,7.7,2.44,1.95.68,3.91,1.38,5.81,2.2,1.88.81,3.62,2.34,5.54,2.58,3.23.4,5.11,2.87,7.71,4.17,2.7,1.35,5.14,3.36,7.42,5.38,3.93,3.47,8.27,6.74,11.25,10.93,2.02,2.84,5.56,5.26,5.26,9.52,0,0,.05-.06.05-.06-.57-.24-1.36-.32-1.65-.74-.74-1.09-.97-2.67-1.91-3.44-3.39-2.76-5.71-6.48-8.97-9.43-3.58-3.25-6.99-6.65-11.03-9.35-2.09-1.4-4.09-2.94-6.22-4.28-1.34-.85-2.8-1.56-4.29-2.12-2.79-1.06-5.69-1.85-8.44-2.98-1.71-.7-3.16-1.65-5.19-1.9-1.81-.22-3.42-2-5.49-.54-.1.07-.43-.27-.67-.32-1.46-.3-2.97-.43-4.39-.87-2.18-.68-4.27-2.13-6.48-.13-.03.03-.19-.01-.24-.07-1.6-1.59-3.12-1.25-4.64.13-.22.2-.81.37-.95.24-1.85-1.74-3.64-.07-5.44.06-1.24.08-2.49.12-3.71.35-1.27.23-2.5.7-3.77,1-.74.18-1.96-.04-2.2.38-1.59,2.67-4.79,1-6.97,2.72-1.06.84-3.29,1.31-4.93,2.12-.78.39-1.63.67-2.39,1.11-2.5,1.43-4.97,2.9-7.44,4.39-.33.2-.51.67-.85.8-3.25,1.23-5.72,3.56-8.25,5.8-1.13,1-2.2,2.06-3.3,3.09-.85,1.04-1.81,1.87-2.74,2.73-.34.31-.62.69-.9,1.07-2.08,2.81-4.24,5.57-6.19,8.46-1.41,2.09-2.59,4.35-3.77,6.59-1.31,2.48-2.55,5.01-3.63,7.59-1.12,2.66-.86,5.64-2.64,8.25-1.54,2.27-1.32,5.75-1.87,8.69-.03.17,0,.42-.1.5-2.23,1.76-1.47,3.48.21,5.11-2.37,1.54-1.8,3.47-1.15,5.43.15.46.48,1.18.29,1.4-1.5,1.75-1.05,3.15.94,4.44-2.58,1.85-1.58,3.61-.1,5.28,1.27,1.43,2.57,2.92,5.29,1.79-.41-1.01-.64-2.07-1.22-2.88-1.11-1.56-.51-1.92,1.04-1.87l-.07-.06Z"/><path class="cls-1" d="m171.36,190.43c.29-3.33-.51-6.14,1.28-9.02,1.19-1.92,1.17-4.58,1.73-6.9.51-2.14,1.16-4.24,1.6-6.39.75-3.72,1.27-7.48,2.11-11.18.83-3.63,1.95-7.19,2.91-10.79.17-.65.17-1.36.2-2.04.16-3.81,2.01-5.63,5.81-5.65,2.15-.01,4.3-.03,6.45,0,2.91.04,4.1,1.41,3.86,4.32-.08.94-.01,1.89-.01,3.12,3.49-1.91,6.36-3.71,9.41-5.08,2.39-1.08,4.98-1.85,7.56-2.38,2.93-.6,5.09,2.5,3.81,5.43-.66,1.52-1.02,3.24-1.19,4.9-.34,3.27-1.86,4.92-5.09,4.31-5.26-1-10.18.73-15.21,1.47-.86.13-2,1.01-2.3,1.8-.78,2.09-1.26,4.32-1.71,6.52-.67,3.36-.82,6.88-1.91,10.09-1.51,4.44-2.75,8.87-3.31,13.53-.35,2.94-1.57,3.94-4.47,3.96-3.69.02-7.38,0-11.52,0Z"/><path class="cls-1" d="m360.18,204.38c-1.01.64-1.97,1.41-3.07,1.86-.66.27-1.53.05-2.3.05-91.99,0-183.97.01-275.96.02-.42,0-.84-.04-1.34-.06-.6-2.07.16-2.98,2.17-2.99.6,0,1.2,0,1.81,0,91.3,0,182.6,0,273.89,0,1.44,0,2.88,0,4.32,0,.16.37.32.75.48,1.12Z"/><path class="cls-1" d="m270.44,39.18c.57.28,1.42.42,1.68.88,1.73,3.05,3.14,6.29,5.04,9.21,1.03,1.58,1.29,3.12,1.67,4.85.53,2.39,1.82,4.6,2.72,6.92.24.62.21,1.35.37,2.01.37,1.5.83,2.99,1.17,4.5.15.66.1,1.36.11,2.04.05,4.64,1.28,9.23.6,13.92-.08.58.63,1.27.97,1.92-1.61,2.74-1.75,8.04-.17,9.53.5.47,1.3,1.03,1.87.94,1.96-.31,2.68,1.19,3.41,2.33,1.78,2.78,5.79,3.78,8.53,1.94.53-.36,1.29-.83,1.8-.7,4.91,1.28,9.88-.75,14.86.44,2.29.55,4.87-.27,7.31-.24,3.03.03,6.05.41,9.08.43,2.36.02,4.72-.42,7.08-.41,3.44,0,6.88.31,10.32.33,2.39.01,4.79-.26,7.19-.35,2.6-.1,5.2-.15,7.8-.17,3.24-.03,6.49-.02,9.73-.02,4.08,0,8.18-.19,12.24.06,3.49.22,6.93.16,10.41.04,1.6-.06,3.34,1.22,4.85,2.15,1.41.87,2.61,2.08,4.49,3.63-1.22.67-2.35,1.3-3.49,1.93l.06.06c.31-3.09-1.31-4.26-4.09-5.32-1.76-.67-2.54.64-3.9.49-3.71-.4-7.44-.75-11.21-.13-1.98.32-4.06.03-6.1.03-1.94,0-3.89.03-5.83,0-5.12-.07-10.23-.42-15.37,0-4.03.32-8.11.09-12.16.02-4.73-.08-9.49-.66-14.18-.29-6.54.51-13.05-.44-19.58.22-2.85.29-5.81-.54-8.72-.85-.24-.03-.5.02-.73.11-3.65,1.4-7.21,1.62-10.78-.38-.7-.39-2.15-.47-2.63-.03-2.44,2.3-3.37.26-5.01-1.56,1.64-.1,2.82-.1,3.98-.28.39-.06.71-.56,1.07-.86-.31-.32-.58-.74-.95-.94-1.87-.97-3.72-2.03-5.69-2.73-.93-.33-2.14-.03-3.18.17-.58.11-1.05.72-1.63.91-2.23.74-4.1,5.43-2.92,7.45,2.25,3.86,10.23,5.7,14.16,3.25-.47-.66-.93-1.33-1.4-1.99.12-.36.24-.72.36-1.08,3.99,3.12,8.42,2.06,12.72,2.23l-.06-.07c-.03,2.79-2.32,1.59-3.61,1.93-2.7.72-5.47,1.18-8.21,1.74-.37.08-.75.25-1.11.21-1.94-.22-3.93-.9-5.81-.65-4.51.59-6.68-2.43-8.77-5.37-1.54-2.16.79-7.44,3.55-9.19,1.39-.87,4.42-1.25,1.44-3.95-.56-.5-.24-1.98-.31-3.01-.26-3.87-.96-7.77-.69-11.6.5-7.11-2.21-13.43-4.45-19.81-.65-1.86-1.49-3.53-1.42-5.54l-.05.05c.42-.02,1.14-.18,1.21-.03,1.27,2.71,2.63,5.4,3.61,8.22.92,2.64,1.41,5.43,2.1,8.15.04.15.31.24.33.38.2,1.11.36,2.23.54,3.34.05,1.45.26,2.79.4,4.13.1,1.01-.23,2.71.23,2.94,2.13,1.07,1.08,1.75.14,2.91-.39.48-.23,2.08.24,2.44,1.43,1.09.72,1.79.12,2.91-.5.92-.72,2.27-.45,3.26.33,1.17,1.32,2.14,2.2,3.47h2.62c0-4.61.07-9.03-.03-13.44-.05-2.28.34-5.04-.78-6.69-1.22-1.8-.92-2.49.14-3.29-.82-1.82-1.53-3.39-2.26-5.01.31-.46,1.04-1.38.97-1.45-1.74-1.68-1.65-3.85-2.03-6.01-.35-1.98-1.58-3.8-2.41-5.7-.81-1.86-1.15-4.25-2.53-5.47-2.11-1.88-2.94-3.85-2.76-6.48l-.05.06Z"/><path class="cls-1" d="m402.1,107.28c-.5.48-1.01,1.39-1.51,1.38-4.5-.09-9-.44-13.5-.5-2.64-.03-5.29.39-7.94.49-2.65.09-5.31.02-7.97.02-3.05,0-6.09.11-9.14.02-2.99-.09-5.97-.51-8.96-.52-2.83,0-5.67.34-8.5.53-.17.01-.38.08-.51,0-2.6-1.53-5.2.34-7.86,0-2.78-.35-5.66.08-8.49,0-2.89-.09-5.76-.54-8.65-.57-2.34-.03-4.68.34-7.02.51-.77.05-1.54,0-2.31,0-1.25,0-2.57.25-3.75-.04-2.1-.53-4.13-1.37-6.17-2.11-.53-.19-1.01-.52-1.51-.78,0,0,.06.07.06.07.17-.59.33-1.68.51-1.68.8-.01,1.64.19,2.39.5.75.31,1.44.8,2.12,1.26,1.57,1.06,3.04-.16,4.56-.16,7.36.03,14.73-.01,22.09.06,1.09,0,2.17.46,3.53.77,1.46-1.21,9.03-1.2,10.7.09,1.09-.33,1.98-.82,2.88-.84,3.85-.09,7.7.04,11.55-.05,3.68-.09,7.33.22,11.02.1,9.15-.3,18.32-.2,27.47-.05,1.66.03,3.3,1.02,4.96,1.56l-.06-.06Z"/><path class="cls-1" d="m107.97,126.73c0,5.05-3.87,9.37-8.49,9.48-5.18.13-9.48-4.35-9.63-9.88-.14-5.12,3.95-9.17,8.62-9.21,4.28-.03,10.64,4.4,9.51,9.6Z"/><path class="cls-1" d="m268.94,50.48c-.49-.2-1.28-.26-1.43-.61-2.65-6.08-6.14-11.56-11.02-16.14-2.01-1.88-3.51-4.34-5.63-6.07-3.59-2.94-7.36-5.72-11.29-8.2-3.65-2.3-7.54-4.29-11.47-6.09-2.21-1.01-4.87-1.05-7.08-2.07-3.84-1.76-7.82-1.64-11.83-1.64-5.49,0-11-.15-16.46.24-2.49.18-4.9,1.5-7.32,2.35-2.1.74-4.18,1.52-6.25,2.33-1.59.63-3.13,1.41-4.74,1.99-1.53.55-3.12.91-4.68,1.36,0,0,.07.06.07.06.29-.6.41-1.45.89-1.75,1.32-.83,2.77-1.46,4.2-2.1,2.16-.97,4.3-2.06,6.55-2.77,2.44-.77,5.01-1.16,7.51-1.72.15-.03.25-.23.4-.28,1.09-.41,2.2-1.16,3.28-1.13,2.21.05,4.39-1.18,6.64-.16.32.15.99-.15,1.34-.44,1.02-.81,7.36-1.58,8-.67,1.58,2.26,2.9,1.03,3.85.31,1.53.38,2.67.71,3.82.94,2.72.55,5.45,1.05,8.18,1.58.08.02.18.06.22.13,1.69,2.5,4.9,1.3,7.11,3,2.21,1.71,5.2,2.36,7.66,3.8,2.06,1.2,3.82,2.9,5.75,4.32,2.01,1.48,4.23,2.72,6.09,4.37,2.99,2.67,5.79,5.55,8.6,8.42,1.37,1.39,3.43,2.82,3.67,4.45.45,3.06,4.72,3.72,3.93,7.18,1.94,1.27,1.74,3.14,1.39,5.04l.05-.05Z"/><path class="cls-1" d="m7.47,206.3c-.21-1.08-.37-1.88-.59-3.05,1.33,0,2.34,0,3.35,0,12.22,0,24.43-.01,36.65.02.84,0,1.68.38,2.52.58-.81.81-1.6,1.63-2.44,2.4-.14.13-.5.04-.76.04-12.82,0-25.63,0-38.73,0Z"/><path class="cls-1" d="m145.49,40.66c-.52,1.4-.96,2.84-1.57,4.2-2.12,4.7-4.52,9.29-6.38,14.09-1.08,2.79-1.35,5.89-1.92,8.86-.28,1.48.56,3.15-1.22,4.41-.41.29.34,2.21.48,3-.33,1.4-.91,2.55-.8,3.63.23,2.36-.89,4.96,1.12,7.09.11.12-.71,1.12-1.09,1.72,0,0,.07.06.07.06-.59-1.14-1.58-2.24-1.7-3.42-.27-2.6-.3-5.27-.05-7.87.34-3.62,1.17-7.19,1.51-10.81.22-2.39.96-4.53,1.64-6.79.95-3.14,1.93-6.1,4.01-8.68.5-.62.59-1.54.96-2.27,1.21-2.38,2.45-4.75,3.75-7.08.11-.19.81-.05,1.23-.06l-.05-.06Z"/><path class="cls-1" d="m156.84,27.77c-.61.95-1.14,1.97-1.85,2.84-2.64,3.23-5.31,6.44-8.04,9.6-.28.33-.97.31-1.47.46,0,0,.05.06.05.06.43-1.25.59-2.71,1.35-3.71,2.26-2.95,4.69-5.79,7.23-8.51.54-.58,1.83-.47,2.78-.68l-.05-.05Z"/><path class="cls-1" d="m137.23,95.96c2.45.55,4.23,5.58,2.6,7.62-.69.86-1.73,1.44-2.61,2.15,0,0,.06.06.06.06.29-1.11.66-2.2.84-3.33.15-.92.19-1.89.05-2.8-.19-1.27-.59-2.5-.9-3.75l-.05.05Z"/><path class="cls-1" d="m165.11,21.04c-.12.48-.07,1.17-.38,1.42-2.25,1.8-4.56,3.53-6.88,5.24-.23.17-.67.05-1.01.07,0,0,.05.05.05.05.34-.84.5-1.85,1.07-2.49.89-.99,2.4-1.53,3.02-2.62,1.06-1.85,2.49-1.83,4.17-1.61l-.05-.06Z"/><path class="cls-1" d="m381.49,141.22v-4.29c.33,0,.66-.02.99-.03l.2,4.3c-.4,0-.8.01-1.19.02Z"/><path class="cls-1" d="m169.74,17.94c0,.42.13,1.13-.03,1.2-1.5.69-3.06,1.28-4.6,1.9,0,0,.05.06.05.06.17-2.48,1.3-3.22,4.64-3.1l-.07-.06Z"/><path class="cls-1" d="m385.57,138.64c1.01-.39,2.03-.78,3.13-1.21,0,.45.29,1.45-.07,1.83-.44.46-1.43.4-2.18.56-.29-.39-.59-.78-.88-1.18Z"/><path class="cls-1" d="m129,100.55c2.56.46,1.14-1.97,2.05-2.76,3.4-.79,4.33-.25,4.37,2.67-.9.28-1.84.56-2.77.85-.19.26-.38.51-.57.77l2.28.99c.03.28.05.57.08.85-1.06.56-2.33,1.77-3.14,1.52-.95-.3-1.61-1.82-2.17-2.92-.28-.55-.06-1.35-.07-2.03,0,0-.07.07-.07.07Z"/><path class="cls-1" d="m278.81,101.57c-1.39-.49-2.2-.78-3.15-1.11.05-.82.1-1.66.16-2.71,1.44-.13,2.76-.25,3.78-.34.71,1.63,1.15,2.97,1.85,4.17,1.03,1.78-.28,2.85-1.29,3.58-.54.39-1.94-.26-2.89-.62-.57-.22-1-.77-1.67-1.32,1.03-.53,1.88-.96,3.21-1.65Z"/></svg>